<?xml version="1.0" encoding="UTF-8"?>
<svg version="1.1" xmlns="http://www.w3.org/2000/svg" width="1920" height="2161">
<path d="M0 0 C0.82137451 -0.00701431 1.64274902 -0.01402863 2.48901367 -0.02125549 C5.12163852 -0.0386482 7.75403858 -0.04510659 10.38671875 -0.046875 C11.28538666 -0.04754974 12.18405457 -0.04822449 13.10995483 -0.04891968 C25.98841295 -0.03353014 38.48197198 0.24931757 51.07421875 3.203125 C51.86441406 3.38004883 52.65460937 3.55697266 53.46875 3.73925781 C79.71906926 9.72309043 101.91093193 22.80343184 124.90771484 36.34570312 C130.23838886 39.47259348 135.5937769 42.55640862 140.94921875 45.640625 C142.02888916 46.26283936 143.10855957 46.88505371 144.22094727 47.52612305 C146.41118639 48.78827542 148.60153487 50.05023805 150.79199219 51.31201172 C156.22081817 54.43992648 161.64741156 57.57170948 167.07421875 60.703125 C169.24087458 61.95314379 171.40754125 63.20314378 173.57421875 64.453125 C177.90755208 66.953125 182.24088542 69.453125 186.57421875 71.953125 C187.64687988 72.57195557 188.71954102 73.19078613 189.82470703 73.82836914 C191.98978946 75.07748018 194.15482857 76.32666629 196.31982422 77.57592773 C201.76037581 80.71514809 207.20169091 83.85303063 212.64453125 86.98828125 C223.09628074 93.01059829 233.53721423 99.04981837 243.94921875 105.140625 C252.62684116 110.21587623 261.34027443 115.22571267 270.07421875 120.203125 C279.79537492 125.7431423 289.48316533 131.33687309 299.14111328 136.98657227 C309.665065 143.14079242 320.22802012 149.22682496 330.79199219 155.31201172 C336.22081817 158.43992648 341.64741156 161.57170948 347.07421875 164.703125 C349.24087458 165.95314379 351.40754125 167.20314378 353.57421875 168.453125 C451.07421875 224.703125 451.07421875 224.703125 548.57421875 280.953125 C549.64687988 281.57195557 550.71954102 282.19078613 551.82470703 282.82836914 C553.98978946 284.07748018 556.15482857 285.32666629 558.31982422 286.57592773 C563.76037581 289.71514809 569.20169091 292.85303063 574.64453125 295.98828125 C585.09628074 302.01059829 595.53721423 308.04981837 605.94921875 314.140625 C614.62684116 319.21587623 623.34027443 324.22571267 632.07421875 329.203125 C641.79537492 334.7431423 651.48316533 340.33687309 661.14111328 345.98657227 C671.665065 352.14079242 682.22802012 358.22682496 692.79199219 364.31201172 C698.22081817 367.43992648 703.64741156 370.57170948 709.07421875 373.703125 C711.24087458 374.95314379 713.40754125 376.20314378 715.57421875 377.453125 C774.07421875 411.203125 774.07421875 411.203125 832.57421875 444.953125 C833.64744385 445.57227783 834.72066895 446.19143066 835.82641602 446.8293457 C837.9858127 448.0751827 840.14515544 449.32111318 842.30444336 450.56713867 C848.96249483 454.4089987 855.62267824 458.24713316 862.28417969 462.08300781 C865.56643458 463.97510873 868.8459545 465.87187514 872.125 467.76953125 C875.73681509 469.85925296 879.35681277 471.93204161 882.9921875 473.98046875 C910.09447301 489.35391416 931.84043663 512.04217141 947.07421875 539.203125 C947.50089844 539.96222168 947.92757813 540.72131836 948.3671875 541.50341797 C960.3147771 562.99318259 971.18729636 587.94873924 971.20301992 613.00390637 C971.20479493 613.66740737 971.20656994 614.33090837 971.20839873 615.01451547 C971.21313333 617.23996865 971.21076703 619.46535688 971.20843983 621.69081306 C971.21039327 623.30849988 971.2127823 624.92618622 971.2155678 626.54387182 C971.22197198 631.00760707 971.22212908 635.47132433 971.22129039 639.9350633 C971.22145981 644.78455254 971.22736505 649.63403532 971.23253125 654.48352134 C971.24186303 664.11039583 971.24578027 673.73726572 971.24805022 683.36414416 C971.25101082 694.89215861 971.25970746 706.42016695 971.2684645 717.94817819 C971.28931672 745.81549675 971.29978028 773.68281639 971.3085941 801.55014093 C971.31279988 814.73304459 971.31802199 827.91594779 971.32327863 841.09885107 C971.34088989 885.51570157 971.35594211 929.93255233 971.36324887 974.34940582 C971.36383283 977.89006586 971.3644301 981.4307259 971.36502649 984.97138595 C971.36514461 985.67373327 971.36526273 986.3760806 971.36538442 987.09971118 C971.36658179 994.21535226 971.36779056 1001.33099334 971.36901696 1008.44663442 C971.36926219 1009.87332989 971.36950605 1011.30002536 971.36974853 1012.72672083 C971.37753505 1058.52822725 971.39991056 1104.32970802 971.43242495 1150.13120323 C971.45577968 1183.04099399 971.47732679 1215.95077964 971.48443127 1248.86057854 C971.48457829 1249.53781022 971.48472531 1250.21504191 971.48487678 1250.91279576 C971.48806208 1265.78205849 971.49011265 1280.65132117 971.49110433 1295.52058421 C971.49151905 1301.50394574 971.49207414 1307.48730727 971.49266624 1313.47066879 C971.49278944 1314.77966799 971.49291263 1316.08866718 971.49303955 1317.43733301 C971.49537103 1338.49750674 971.51102822 1359.55765037 971.53150809 1380.61781338 C971.55177158 1401.7915979 971.55724091 1422.96534629 971.54773746 1444.13913871 C971.54252441 1456.71475641 971.5483908 1469.29025379 971.57027213 1481.86585415 C971.58379459 1490.27371922 971.58269039 1498.6815016 971.56987017 1507.08936752 C971.56298323 1511.87511516 971.56227068 1516.66063302 971.57943026 1521.44636001 C971.70193495 1557.83278734 971.70193495 1557.83278734 967.07421875 1574.203125 C966.74909233 1575.38909401 966.42396591 1576.57506302 966.08898717 1577.79697049 C965.27325614 1580.65675015 964.36169318 1583.45649559 963.38671875 1586.265625 C963.04495605 1587.26529297 962.70319336 1588.26496094 962.35107422 1589.29492188 C952.80285308 1616.48161042 937.11659781 1640.57385343 917.07421875 1661.203125 C916.27177734 1662.03517456 916.27177734 1662.03517456 915.453125 1662.8840332 C902.52610505 1676.09183904 887.07983911 1684.88906408 870.94482422 1693.63085938 C867.12705084 1695.72190042 863.37530272 1697.9119165 859.63671875 1700.140625 C852.66738001 1704.27773031 845.6591857 1708.34434889 838.63671875 1712.390625 C837.52949463 1713.02863037 836.42227051 1713.66663574 835.28149414 1714.32397461 C833.01084807 1715.63201977 830.74009517 1716.93987948 828.46923828 1718.24755859 C823.00251895 1721.39644554 817.53846988 1724.54995764 812.07421875 1727.703125 C809.90756564 1728.9531485 807.74089896 1730.20314847 805.57421875 1731.453125 C804.50171875 1732.071875 803.42921875 1732.690625 802.32421875 1733.328125 C792.57421874 1738.95312501 792.57421874 1738.95312501 789.32373047 1740.82836914 C787.15864804 1742.07748018 784.99360893 1743.32666629 782.82861328 1744.57592773 C777.38806169 1747.71514809 771.94674659 1750.85303063 766.50390625 1753.98828125 C756.05215676 1760.01059829 745.61122327 1766.04981837 735.19921875 1772.140625 C725.92922098 1777.56233678 716.61590123 1782.90517415 707.2857666 1788.22235107 C698.16139035 1793.42357629 689.07289101 1798.68340378 680.00732422 1803.98657227 C669.4833725 1810.14079242 658.92041738 1816.22682496 648.35644531 1822.31201172 C642.92761933 1825.43992648 637.50102594 1828.57170948 632.07421875 1831.703125 C629.90756292 1832.95314379 627.74089625 1834.20314378 625.57421875 1835.453125 C624.50171875 1836.071875 623.42921875 1836.690625 622.32421875 1837.328125 C430.57421876 1947.95312499 430.57421876 1947.95312499 427.32373047 1949.82836914 C425.15864804 1951.07748018 422.99360893 1952.32666629 420.82861328 1953.57592773 C415.38806169 1956.71514809 409.94674659 1959.85303063 404.50390625 1962.98828125 C394.05215676 1969.01059829 383.61122327 1975.04981837 373.19921875 1981.140625 C363.92922098 1986.56233678 354.61590123 1991.90517415 345.2857666 1997.22235107 C336.16139035 2002.42357629 327.07289101 2007.68340378 318.00732422 2012.98657227 C307.4833725 2019.14079242 296.92041738 2025.22682496 286.35644531 2031.31201172 C280.92761933 2034.43992648 275.50102594 2037.57170948 270.07421875 2040.703125 C267.90756292 2041.95314379 265.74089625 2043.20314378 263.57421875 2044.453125 C262.50171875 2045.071875 261.42921875 2045.690625 260.32421875 2046.328125 C222.40755208 2068.203125 184.49088542 2090.078125 146.57421875 2111.953125 C145.50075195 2112.57243896 144.42728516 2113.19175293 143.32128906 2113.82983398 C141.16440972 2115.07417498 139.00750883 2116.31847864 136.85058594 2117.56274414 C130.13741286 2121.43545534 123.42481294 2125.30915578 116.71362305 2129.18530273 C114.47410273 2130.47726544 112.23339983 2131.76718065 109.99145508 2133.05493164 C103.49379265 2136.78508796 103.49379265 2136.78508796 97.0703125 2140.640625 C80.74543116 2150.50879412 62.72240596 2155.77757391 44.07421875 2159.203125 C43.38038086 2159.33444824 42.68654297 2159.46577148 41.97167969 2159.60107422 C-6.50279162 2168.31572325 -51.91159426 2154.66399853 -93.22668457 2130.20623779 C-96.84533365 2128.06985954 -100.48137846 2125.96322927 -104.11376953 2123.8503418 C-107.05868466 2122.1360242 -110.00028056 2120.41612176 -112.94140625 2118.6953125 C-122.48401058 2113.11883344 -132.06635918 2107.61101009 -141.64355469 2102.09423828 C-147.07238067 2098.96632352 -152.49897406 2095.83454052 -157.92578125 2092.703125 C-160.09243708 2091.45310621 -162.25910375 2090.20310622 -164.42578125 2088.953125 C-229.42578125 2051.453125 -294.42578125 2013.953125 -359.42578125 1976.453125 C-360.49844238 1975.83429443 -361.57110352 1975.21546387 -362.67626953 1974.57788086 C-364.84135196 1973.32876982 -367.00639107 1972.07958371 -369.17138672 1970.83032227 C-374.61193831 1967.69110191 -380.05325341 1964.55321937 -385.49609375 1961.41796875 C-395.94784324 1955.39565171 -406.38877673 1949.35643163 -416.80078125 1943.265625 C-425.47840366 1938.19037377 -434.19183693 1933.18053733 -442.92578125 1928.203125 C-452.64693742 1922.6631077 -462.33472783 1917.06937691 -471.99267578 1911.41967773 C-482.5166275 1905.26545758 -493.07958262 1899.17942504 -503.64355469 1893.09423828 C-509.07238067 1889.96632352 -514.49897406 1886.83454052 -519.92578125 1883.703125 C-522.09243708 1882.45310621 -524.25910375 1881.20310622 -526.42578125 1879.953125 C-591.42578125 1842.453125 -656.42578125 1804.953125 -721.42578125 1767.453125 C-722.49844238 1766.83429443 -723.57110352 1766.21546387 -724.67626953 1765.57788086 C-726.84135196 1764.32876982 -729.00639107 1763.07958371 -731.17138672 1761.83032227 C-736.61193831 1758.69110191 -742.05325341 1755.55321937 -747.49609375 1752.41796875 C-757.94784324 1746.39565171 -768.38877673 1740.35643163 -778.80078125 1734.265625 C-787.47840366 1729.19037377 -796.19183693 1724.18053733 -804.92578125 1719.203125 C-814.63869382 1713.66780567 -824.32290621 1708.08653329 -833.96630859 1702.43066406 C-839.19373464 1699.36760334 -844.436753 1696.33649027 -849.70703125 1693.34765625 C-866.69887392 1683.69701396 -881.91531059 1673.89060044 -895.92578125 1660.203125 C-896.49079346 1659.66147705 -897.05580566 1659.1198291 -897.63793945 1658.56176758 C-901.90625741 1654.4051703 -905.64479848 1650.01370048 -909.23828125 1645.265625 C-909.79733154 1644.52908691 -910.35638184 1643.79254883 -910.93237305 1643.03369141 C-916.41512929 1635.70823497 -921.32846934 1628.11009909 -925.92578125 1620.203125 C-926.27979004 1619.59823242 -926.63379883 1618.99333984 -926.99853516 1618.37011719 C-941.28819218 1593.65323506 -949.26540874 1566.52573229 -949.18305016 1537.97714996 C-949.18574754 1536.3524691 -949.18931762 1534.72778949 -949.19367462 1533.10311222 C-949.20309623 1528.64791192 -949.20014381 1524.19279378 -949.19511908 1519.73758955 C-949.19184449 1514.88694094 -949.20014161 1510.03630961 -949.20693743 1505.18566656 C-949.21723467 1496.68708325 -949.2200817 1488.18852271 -949.21802521 1479.68993378 C-949.2149745 1467.05180816 -949.22330077 1454.41370774 -949.23377446 1441.77558703 C-949.25311684 1417.88929342 -949.25874278 1394.00300838 -949.25988857 1370.11670786 C-949.26080768 1351.66941244 -949.26492449 1333.22212038 -949.27128983 1314.77482605 C-949.27308492 1309.46462679 -949.27486455 1304.15442753 -949.27663958 1298.84422827 C-949.27686076 1298.18446155 -949.27708194 1297.52469483 -949.27730982 1296.84493518 C-949.28995555 1259.04403643 -949.29820832 1221.24313882 -949.29729271 1183.44223785 C-949.29726115 1182.02804092 -949.29722968 1180.61384398 -949.29719829 1179.19964705 C-949.29705153 1172.81491213 -949.29687519 1166.43017721 -949.29669052 1160.04544228 C-949.29660828 1157.19842983 -949.29652798 1154.35141738 -949.2964479 1151.50440493 C-949.29640711 1150.07942484 -949.29636507 1148.65444474 -949.29632178 1147.22946465 C-949.2949616 1102.18030676 -949.30959152 1057.13118032 -949.33740234 1012.08203125 C-949.34440469 1000.7332078 -949.35134374 989.38438431 -949.35793114 978.03556061 C-949.35833689 977.3367188 -949.35874263 976.637877 -949.35916068 975.91785817 C-949.37159613 954.3691562 -949.37912286 932.82045681 -949.38164711 911.2717514 C-949.38172701 910.59492244 -949.38180691 909.91809347 -949.38188924 909.22075453 C-949.38359602 894.36062829 -949.3841181 879.50050221 -949.38354848 864.64037589 C-949.38333151 858.66090062 -949.383237 852.68142535 -949.38316727 846.70195007 C-949.38314396 845.39382988 -949.38312065 844.08570969 -949.38309663 842.73794949 C-949.38303511 821.69484463 -949.39580215 800.65176635 -949.4130318 779.60866939 C-949.42999299 758.45577836 -949.43195829 737.30292618 -949.41881315 716.1500321 C-949.4114272 703.58771673 -949.41507145 691.02551945 -949.43469783 678.46321661 C-949.44670937 670.06442714 -949.44409366 661.66572306 -949.42975684 653.26693748 C-949.42200383 648.48648259 -949.4204132 643.70625598 -949.43667154 638.92581731 C-949.55198088 602.70434912 -949.55198088 602.70434912 -944.92578125 586.203125 C-944.51327309 584.62477175 -944.51327309 584.62477175 -944.09243143 583.01453257 C-943.45469 580.64267242 -942.72678677 578.33694256 -941.92578125 576.015625 C-941.63727295 575.17088623 -941.34876465 574.32614746 -941.05151367 573.45581055 C-934.5009443 555.05644171 -925.45005075 537.94099252 -913.92578125 522.203125 C-913.49507324 521.60032715 -913.06436523 520.9975293 -912.62060547 520.37646484 C-895.87899877 497.07562238 -874.72918295 482.09485783 -850.17285156 468.06054688 C-846.94748827 466.21554207 -843.72858887 464.35976835 -840.51171875 462.5 C-835.08000818 459.3597666 -829.64465253 456.22592002 -824.20800781 453.09423828 C-818.77918183 449.96632352 -813.35258844 446.83454052 -807.92578125 443.703125 C-805.75912542 442.45310621 -803.59245875 441.20310622 -801.42578125 439.953125 C-800.35328125 439.334375 -799.28078125 438.715625 -798.17578125 438.078125 C-710.42578124 387.453125 -710.42578124 387.453125 -707.17529297 385.57788086 C-705.01021054 384.32876982 -702.84517143 383.07958371 -700.68017578 381.83032227 C-695.23962419 378.69110191 -689.79830909 375.55321937 -684.35546875 372.41796875 C-673.90371926 366.39565171 -663.46278577 360.35643163 -653.05078125 354.265625 C-643.78078348 348.84391322 -634.46746373 343.50107585 -625.1373291 338.18389893 C-616.01295285 332.98267371 -606.92445351 327.72284622 -597.85888672 322.41967773 C-587.334935 316.26545758 -576.77197988 310.17942504 -566.20800781 304.09423828 C-560.77918183 300.96632352 -555.35258844 297.83454052 -549.92578125 294.703125 C-547.75912542 293.45310621 -545.59245875 292.20310622 -543.42578125 290.953125 C-542.35328125 290.334375 -541.28078125 289.715625 -540.17578125 289.078125 C-348.42578125 178.453125 -348.42578125 178.453125 -345.17529297 176.57788086 C-343.01021054 175.32876982 -340.84517143 174.07958371 -338.68017578 172.83032227 C-333.23962419 169.69110191 -327.79830909 166.55321937 -322.35546875 163.41796875 C-311.90371926 157.39565171 -301.46278577 151.35643163 -291.05078125 145.265625 C-281.78078348 139.84391322 -272.46746373 134.50107585 -263.1373291 129.18389893 C-254.01295285 123.98267371 -244.92445351 118.72284622 -235.85888672 113.41967773 C-225.334935 107.26545758 -214.77197988 101.17942504 -204.20800781 95.09423828 C-198.77918183 91.96632352 -193.35258844 88.83454052 -187.92578125 85.703125 C-185.75912542 84.45310621 -183.59245875 83.20310622 -181.42578125 81.953125 C-180.35328125 81.334375 -179.28078125 80.715625 -178.17578125 80.078125 C-157.59244792 68.203125 -137.00911458 56.328125 -116.42578125 44.453125 C-115.35255615 43.83381104 -114.27933105 43.21449707 -113.17358398 42.57641602 C-111.01475106 41.33122884 -108.85541126 40.08692001 -106.69555664 38.84350586 C-101.15447195 35.65201841 -95.62401013 32.44403628 -90.109375 29.20703125 C-61.74163954 12.59351006 -33.50155693 0.1924946 0 0 Z " fill="#659AD2" transform="translate(948.92578125,-0.203125)"/>
<path d="M0 0 C4.41671574 3.6653664 6.42559939 8.34788067 8.8125 13.4375 C9.24900879 14.36618896 9.68551758 15.29487793 10.13525391 16.25170898 C13.04101405 22.5823818 15.62861913 28.96921811 17.875 35.5625 C18.13643799 36.31394287 18.39787598 37.06538574 18.66723633 37.83959961 C19.54237699 40.53900081 20.26989617 43.25739629 21 46 C21.33346294 47.18706228 21.66692588 48.37412457 22.01049376 49.59715843 C26.31079307 66.58541617 25.56652689 84.05575115 25.51387022 101.443665 C25.50364475 106.29586527 25.51679395 111.14801497 25.52684355 116.0002079 C25.5412387 124.48911604 25.54088395 132.97792229 25.53065491 141.46683502 C25.51548518 154.09042458 25.52328055 166.71392864 25.53548814 179.33751768 C25.5565238 201.88707548 25.55473642 224.43658787 25.54317249 246.98614997 C25.5331025 266.71987714 25.53048708 286.45358768 25.53526306 306.18731689 C25.53572137 308.15228608 25.53572137 308.15228608 25.53618894 310.15695162 C25.53743434 315.47484657 25.53870794 320.79274152 25.540028 326.11063645 C25.54369541 340.9748907 25.54597827 355.83914501 25.54717255 370.70339966 C25.54722713 371.38019328 25.54728171 372.05698691 25.54733795 372.75428943 C25.54897423 394.30884155 25.5444718 415.86338792 25.53577423 437.41793823 C25.53535274 438.4660647 25.53535274 438.4660647 25.53492273 439.53536544 C25.53034334 450.88149251 25.5254653 462.22761944 25.52056203 473.57374637 C25.50113779 518.56936248 25.50203937 563.56493097 25.52148438 608.56054688 C25.52636943 619.90105179 25.53121376 631.24155672 25.53577423 642.58206177 C25.53605602 643.28040775 25.53633782 643.97875373 25.53662815 644.69826172 C25.54525729 666.23104202 25.54890916 687.76381836 25.54717255 709.29660034 C25.54709104 710.31103836 25.54709104 710.31103836 25.54700789 711.34597008 C25.5457017 726.86011215 25.54288638 742.37425368 25.53903532 757.88839531 C25.53775249 763.19649124 25.53650112 768.50458717 25.53526306 773.81268311 C25.53494675 775.11963129 25.53463044 776.42657948 25.53430455 777.77313216 C25.52975841 797.49241819 25.53506877 817.21168576 25.54518127 836.93096924 C25.55662469 859.3570653 25.55374536 881.78310894 25.5320583 904.20919847 C25.52032665 916.75377585 25.51952693 929.29823965 25.534643 941.84281404 C25.54363269 950.22950437 25.53799395 958.61610393 25.52062392 967.00278085 C25.51113876 971.77617736 25.50779236 976.54934876 25.52224785 981.32273793 C25.62415736 1017.61624486 25.62415736 1017.61624486 21 1034 C20.6748996 1035.18609045 20.3497992 1036.3721809 20.01484728 1037.59421349 C19.19898775 1040.45381701 18.2874309 1043.25349601 17.3125 1046.0625 C16.9707373 1047.06216797 16.62897461 1048.06183594 16.27685547 1049.09179688 C6.72863433 1076.27848542 -8.95762094 1100.37072843 -29 1121 C-29.80244141 1121.83204956 -29.80244141 1121.83204956 -30.62109375 1122.6809082 C-43.5481137 1135.88871404 -58.99437964 1144.68593908 -75.12939453 1153.42773438 C-78.94716791 1155.51877542 -82.69891603 1157.7087915 -86.4375 1159.9375 C-93.40683874 1164.07460531 -100.41503305 1168.14122389 -107.4375 1172.1875 C-108.54472412 1172.82550537 -109.65194824 1173.46351074 -110.79272461 1174.12084961 C-113.06337068 1175.42889477 -115.33412358 1176.73675448 -117.60498047 1178.04443359 C-123.0716998 1181.19332054 -128.53574887 1184.34683264 -134 1187.5 C-136.16665311 1188.7500235 -138.33331979 1190.00002347 -140.5 1191.25 C-141.5725 1191.86875 -142.645 1192.4875 -143.75 1193.125 C-153.49999999 1198.74999999 -153.49999999 1198.74999999 -156.75048828 1200.62524414 C-158.91557071 1201.87435518 -161.08060982 1203.12354129 -163.24560547 1204.37280273 C-168.68615706 1207.51202309 -174.12747216 1210.64990563 -179.5703125 1213.78515625 C-190.02206199 1219.80747329 -200.46299548 1225.84669337 -210.875 1231.9375 C-220.14499777 1237.35921178 -229.45831752 1242.70204915 -238.78845215 1248.01922607 C-247.9128284 1253.22045129 -257.00132774 1258.48027878 -266.06689453 1263.78344727 C-276.59084625 1269.93766742 -287.15380137 1276.02369996 -297.71777344 1282.10888672 C-303.14659942 1285.23680148 -308.57319281 1288.36858448 -314 1291.5 C-316.16665583 1292.75001879 -318.3333225 1294.00001878 -320.5 1295.25 C-321.5725 1295.86875 -322.645 1296.4875 -323.75 1297.125 C-515.49999999 1407.74999999 -515.49999999 1407.74999999 -518.75048828 1409.62524414 C-520.91557071 1410.87435518 -523.08060982 1412.12354129 -525.24560547 1413.37280273 C-530.68615706 1416.51202309 -536.12747216 1419.64990563 -541.5703125 1422.78515625 C-552.02206199 1428.80747329 -562.46299548 1434.84669337 -572.875 1440.9375 C-582.14499777 1446.35921178 -591.45831752 1451.70204915 -600.78845215 1457.01922607 C-609.9128284 1462.22045129 -619.00132774 1467.48027878 -628.06689453 1472.78344727 C-638.59084625 1478.93766742 -649.15380137 1485.02369996 -659.71777344 1491.10888672 C-665.14659942 1494.23680148 -670.57319281 1497.36858448 -676 1500.5 C-678.16665583 1501.75001879 -680.3333225 1503.00001878 -682.5 1504.25 C-683.5725 1504.86875 -684.645 1505.4875 -685.75 1506.125 C-723.66666667 1528 -761.58333333 1549.875 -799.5 1571.75 C-800.5734668 1572.36931396 -801.64693359 1572.98862793 -802.75292969 1573.62670898 C-804.90980903 1574.87104998 -807.06670992 1576.11535364 -809.22363281 1577.35961914 C-815.93680589 1581.23233034 -822.64940581 1585.10603078 -829.3605957 1588.98217773 C-831.60011602 1590.27414044 -833.84081892 1591.56405565 -836.08276367 1592.85180664 C-842.5804261 1596.58196296 -842.5804261 1596.58196296 -849.00390625 1600.4375 C-865.32878759 1610.30566912 -883.35181279 1615.57444891 -902 1619 C-902.69383789 1619.13132324 -903.38767578 1619.26264648 -904.10253906 1619.39794922 C-952.57701037 1628.11259825 -997.98581301 1614.46087353 -1039.30090332 1590.00311279 C-1042.9195524 1587.86673454 -1046.55559721 1585.76010427 -1050.18798828 1583.6472168 C-1053.13290341 1581.9328992 -1056.07449931 1580.21299676 -1059.015625 1578.4921875 C-1068.55822933 1572.91570844 -1078.14057793 1567.40788509 -1087.71777344 1561.89111328 C-1093.14659942 1558.76319852 -1098.57319281 1555.63141552 -1104 1552.5 C-1106.16665583 1551.24998121 -1108.3333225 1549.99998122 -1110.5 1548.75 C-1175.5 1511.25 -1240.5 1473.75 -1305.5 1436.25 C-1306.57266113 1435.63116943 -1307.64532227 1435.01233887 -1308.75048828 1434.37475586 C-1310.91557071 1433.12564482 -1313.08060982 1431.87645871 -1315.24560547 1430.62719727 C-1320.68615706 1427.48797691 -1326.12747216 1424.35009437 -1331.5703125 1421.21484375 C-1342.02206199 1415.19252671 -1352.46299548 1409.15330663 -1362.875 1403.0625 C-1371.55262241 1397.98724877 -1380.26605568 1392.97741233 -1389 1388 C-1398.72115617 1382.4599827 -1408.40894658 1376.86625191 -1418.06689453 1371.21655273 C-1428.59084625 1365.06233258 -1439.15380137 1358.97630004 -1449.71777344 1352.89111328 C-1455.14659942 1349.76319852 -1460.57319281 1346.63141552 -1466 1343.5 C-1468.16665583 1342.24998121 -1470.3333225 1340.99998122 -1472.5 1339.75 C-1537.5 1302.25 -1602.5 1264.75 -1667.5 1227.25 C-1668.57266113 1226.63116943 -1669.64532227 1226.01233887 -1670.75048828 1225.37475586 C-1672.91557071 1224.12564482 -1675.08060982 1222.87645871 -1677.24560547 1221.62719727 C-1682.68615706 1218.48797691 -1688.12747216 1215.35009437 -1693.5703125 1212.21484375 C-1704.02206199 1206.19252671 -1714.46299548 1200.15330663 -1724.875 1194.0625 C-1733.55262241 1188.98724877 -1742.26605568 1183.97741233 -1751 1179 C-1760.71291257 1173.46468067 -1770.39712496 1167.88340829 -1780.04052734 1162.22753906 C-1785.26795339 1159.16447834 -1790.51097175 1156.13336527 -1795.78125 1153.14453125 C-1812.77358701 1143.49360819 -1827.98818201 1133.68652783 -1842 1120 C-1842.56428711 1119.45980225 -1843.12857422 1118.91960449 -1843.70996094 1118.36303711 C-1848.01669504 1114.1732951 -1851.75942822 1109.73147214 -1855.375 1104.9375 C-1856.20874146 1103.8390979 -1856.20874146 1103.8390979 -1857.05932617 1102.71850586 C-1860.64578562 1097.94052134 -1864.06864374 1093.07940806 -1867.3125 1088.0625 C-1867.69132324 1087.47782959 -1868.07014648 1086.89315918 -1868.46044922 1086.29077148 C-1871 1082.2618737 -1871 1082.2618737 -1871 1080 C-1870.51982422 1079.74009277 -1870.03964844 1079.48018555 -1869.54492188 1079.21240234 C-1857.32137607 1072.58029506 -1845.2614979 1065.70249165 -1833.265625 1058.66796875 C-1826.90228965 1054.93674029 -1820.51650445 1051.24521942 -1814.125 1047.5625 C-1812.50537354 1046.62905762 -1812.50537354 1046.62905762 -1810.85302734 1045.67675781 C-1808.66285466 1044.41471274 -1806.47258757 1043.15283148 -1804.28222656 1041.89111328 C-1798.85340058 1038.76319852 -1793.42680719 1035.63141552 -1788 1032.5 C-1785.83334417 1031.24998121 -1783.6666775 1029.99998122 -1781.5 1028.75 C-1780.4275 1028.13125 -1779.355 1027.5125 -1778.25 1026.875 C-1664.5 961.25 -1664.5 961.25 -1661.24951172 959.37475586 C-1659.08442929 958.12564482 -1656.91939018 956.87645871 -1654.75439453 955.62719727 C-1649.31384294 952.48797691 -1643.87252784 949.35009437 -1638.4296875 946.21484375 C-1627.97793801 940.19252671 -1617.53700452 934.15330663 -1607.125 928.0625 C-1597.85500223 922.64078822 -1588.54168248 917.29795085 -1579.21154785 911.98077393 C-1570.0871716 906.77954871 -1560.99867226 901.51972122 -1551.93310547 896.21655273 C-1543.60788751 891.34811306 -1535.26162329 886.51694348 -1526.90161133 881.70849609 C-1521.76678946 878.75453289 -1516.63699606 875.79297418 -1511.52600098 872.79798889 C-1509.12002104 871.38862234 -1506.71132344 869.98393744 -1504.3024292 868.57955933 C-1502.59430633 867.58109209 -1500.89012859 866.57588551 -1499.18603516 865.57055664 C-1498.15655762 864.97106201 -1497.12708008 864.37156738 -1496.06640625 863.75390625 C-1495.15834229 863.22095947 -1494.25027832 862.6880127 -1493.31469727 862.13891602 C-1491 861 -1491 861 -1488 861 C-1486.35377141 863.46091444 -1484.91271711 865.87672376 -1483.4921875 868.46484375 C-1482.59820016 870.03827427 -1481.70063708 871.60967765 -1480.79980469 873.17919922 C-1480.3376355 873.98444031 -1479.87546631 874.7896814 -1479.39929199 875.61932373 C-1475.58615557 882.10677842 -1471.3194934 888.31804222 -1467.125 894.5625 C-1466.64477386 895.2802359 -1466.16454773 895.9979718 -1465.66976929 896.73745728 C-1458.7528986 907.06888929 -1451.70491816 917.23620775 -1444 927 C-1443.05132259 928.22076336 -1442.10342329 929.44213174 -1441.15625 930.6640625 C-1433.56395435 940.42725383 -1425.76435637 950.00810688 -1417.6875 959.375 C-1417.20297363 959.93888428 -1416.71844727 960.50276855 -1416.21923828 961.08374023 C-1406.23035793 972.59838756 -1395.65357441 983.50943664 -1384.86230469 994.26806641 C-1382.73515216 996.38981009 -1380.61346439 998.51691491 -1378.4921875 1000.64453125 C-1377.11490417 1002.0211544 -1375.73731101 1003.39746766 -1374.359375 1004.7734375 C-1373.738349 1005.39648773 -1373.117323 1006.01953796 -1372.47747803 1006.66146851 C-1368.14594932 1010.97029133 -1363.63450402 1015.02047507 -1359 1019 C-1357.90587734 1019.95009185 -1356.8120606 1020.90053629 -1355.71875 1021.8515625 C-1321.16493172 1051.69349647 -1283.9242363 1077.82703516 -1244 1100 C-1243.07525879 1100.51916992 -1242.15051758 1101.03833984 -1241.19775391 1101.57324219 C-1197.00242206 1126.34792983 -1149.17597414 1145.68999171 -1100 1158 C-1098.60669885 1158.35518648 -1097.21346667 1158.7106437 -1095.8203125 1159.06640625 C-1093.30258006 1159.70766219 -1090.7811929 1160.32947485 -1088.25708008 1160.94555664 C-1085.38459934 1161.65025559 -1082.52181598 1162.38441483 -1079.66235352 1163.14013672 C-1066.89782248 1166.48159128 -1054.08610678 1168.96790811 -1041.0625 1171.0625 C-1040.00254822 1171.23297852 -1038.94259644 1171.40345703 -1037.8505249 1171.57910156 C-983.11786152 1180.28506827 -926.04654971 1182.94420287 -870.85839844 1176.453125 C-867.5290994 1176.06213671 -864.19964111 1175.70693855 -860.86483765 1175.36842346 C-819.73357022 1171.1642285 -779.24410223 1161.90502753 -740 1149 C-739.03710052 1148.68515656 -739.03710052 1148.68515656 -738.05474854 1148.36395264 C-656.57093232 1121.71324026 -581.11119874 1079.4923685 -497 1006 C-495.734375 1004.828125 -494.46875 1003.65625 -493.203125 1002.484375 C-484.69272103 994.58952325 -476.27709204 986.73937245 -468.70703125 977.921875 C-467.07997438 976.0900398 -465.38697671 974.38871889 -463.625 972.6875 C-459.88015239 969.00937574 -456.66491855 964.9655713 -453.37890625 960.87890625 C-451.04622784 958.05594403 -448.61752795 955.36963388 -446.125 952.6875 C-440.36421379 946.41108787 -435.16607142 939.76597843 -430 933 C-429.52836426 932.38527832 -429.05672852 931.77055664 -428.57080078 931.13720703 C-413.97321783 912.07087535 -400.38224468 892.28674407 -387.9375 871.75 C-387.56713623 871.1418042 -387.19677246 870.5336084 -386.81518555 869.90698242 C-384.89205294 866.69180871 -383.27814938 863.52318897 -382 860 C-383.53140625 859.16082031 -383.53140625 859.16082031 -385.09375 858.3046875 C-394.99657893 852.85325906 -404.79466095 847.23969809 -414.54882812 841.52685547 C-422.01527396 837.15422134 -429.50142034 832.81727926 -437 828.5 C-445.34808912 823.69166435 -453.68243305 818.86094247 -462 814 C-474.63743454 806.61585107 -487.31675298 799.30509865 -500 792 C-513.67554314 784.12337411 -527.33960958 776.22879908 -540.96582031 768.26708984 C-551.52620282 762.10080946 -562.12126766 755.9950405 -572.71777344 749.89111328 C-579.22871257 746.13971976 -585.73663194 742.38309006 -592.24511719 738.62744141 C-597.68585336 735.48817754 -603.12731477 732.35018503 -608.5703125 729.21484375 C-610.75526073 727.95582009 -612.94015684 726.69670599 -615.125 725.4375 C-616.1881543 724.82487305 -617.25130859 724.21224609 -618.34667969 723.58105469 C-623.82635277 720.42002562 -629.29790503 717.24584406 -634.7578125 714.05078125 C-635.84819824 713.41277588 -636.93858398 712.77477051 -638.06201172 712.11743164 C-640.12980035 710.90618067 -642.19659432 709.69322945 -644.26220703 708.47827148 C-648.77832503 705.83179658 -653.2735408 703.25220539 -658 701 C-658.76570313 702.32837891 -658.76570313 702.32837891 -659.546875 703.68359375 C-667.88735511 717.9670564 -677.27454357 731.39895441 -688 744 C-688.83144531 745.01578125 -689.66289063 746.0315625 -690.51953125 747.078125 C-702.55594847 761.65113363 -715.99783936 775.47851687 -731 787 C-732.08778821 787.89592528 -733.17219467 788.7959661 -734.25390625 789.69921875 C-748.76186679 801.73327851 -764.52874362 812.10565215 -781.14111328 820.99853516 C-782.9894193 821.99429971 -784.82156407 823.01539517 -786.65234375 824.04296875 C-814.09326515 839.30426918 -845.81024088 850.01287164 -876.67089844 855.41503906 C-878.84462365 855.79698726 -881.01492545 856.19912108 -883.18066406 856.62402344 C-918.0481785 863.42141692 -957.18664499 862.79592366 -992 856 C-993.23717773 855.75862305 -994.47435547 855.51724609 -995.74902344 855.26855469 C-1044.23476114 845.45787475 -1089.74819833 825.12998986 -1129 795 C-1130.29744141 794.00613281 -1130.29744141 794.00613281 -1131.62109375 792.9921875 C-1134.1159268 791.03400984 -1136.56323998 789.0300281 -1139 787 C-1139.51933105 786.57090332 -1140.03866211 786.14180664 -1140.57373047 785.69970703 C-1155.63969045 773.19008076 -1170.03086356 759.53298044 -1182 744 C-1182.92099083 742.87603878 -1183.84574199 741.75515246 -1184.7734375 740.63671875 C-1196.24837396 726.72793109 -1206.07493316 711.6545754 -1215 696 C-1215.35626465 695.37931641 -1215.7125293 694.75863281 -1216.07958984 694.11914062 C-1236.14838676 658.7894147 -1247.78620628 619.12342213 -1253 579 C-1253.08793823 578.33817719 -1253.17587646 577.67635437 -1253.26647949 576.99447632 C-1254.8126672 565.16593625 -1255.4031674 553.48755188 -1255.375 541.5625 C-1255.37418427 540.24496735 -1255.37418427 540.24496735 -1255.37335205 538.90081787 C-1255.29602381 511.39485199 -1251.95890499 484.63781228 -1245 458 C-1244.77618652 457.12988281 -1244.55237305 456.25976562 -1244.32177734 455.36328125 C-1233.67523657 414.84440764 -1213.63461217 376.95761559 -1188 344 C-1187.56848633 343.44393066 -1187.13697266 342.88786133 -1186.69238281 342.31494141 C-1181.63352099 335.84852322 -1176.15152122 329.79759063 -1170.56640625 323.7890625 C-1168.42501785 321.46189155 -1166.35657371 319.09941385 -1164.3125 316.6875 C-1161.43610787 313.36488952 -1158.29684381 310.53463973 -1154.9453125 307.69921875 C-1153.14362605 306.12545649 -1151.51712668 304.48702345 -1149.875 302.75 C-1144.97296516 297.76997824 -1139.33388286 293.6381748 -1133.80224609 289.39208984 C-1132.12291105 288.09493888 -1130.45950024 286.78038366 -1128.80078125 285.45703125 C-1080.89195631 247.64692976 -1023.13343642 227.68878515 -963 221 C-962.18958252 220.90211182 -961.37916504 220.80422363 -960.54418945 220.70336914 C-933.50369948 217.63438167 -904.6804377 219.87638466 -878 225 C-877.32404785 225.12568359 -876.6480957 225.25136719 -875.95166016 225.38085938 C-845.55800129 231.15338364 -815.26397334 241.29807573 -787.99902344 255.92822266 C-786.57156229 256.69355661 -785.13936571 257.45008501 -783.70410156 258.20068359 C-765.5353117 267.7057531 -748.83696048 278.99106818 -733 292 C-732.47277344 292.42958008 -731.94554687 292.85916016 -731.40234375 293.30175781 C-724.59679629 298.8657527 -718.06044576 304.70013871 -711.625 310.6875 C-710.97096191 311.29303711 -710.31692383 311.89857422 -709.64306641 312.52246094 C-705.70086798 316.22862965 -702.06837885 320.09671468 -698.54541016 324.20288086 C-696.71160327 326.3353694 -694.7944291 328.38207895 -692.875 330.4375 C-679.62648098 345.18796619 -667.97371909 361.88198568 -658 379 C-653.13739457 377.59044106 -649.04479449 375.42950125 -644.75 372.8125 C-643.23643414 371.90628644 -641.72205681 371.00142733 -640.20703125 370.09765625 C-638.96493896 369.35539795 -638.96493896 369.35539795 -637.69775391 368.59814453 C-632.63863807 365.60113346 -627.53511793 362.6808663 -622.4375 359.75 C-613.94315662 354.85903742 -605.46234098 349.94612504 -597 345 C-585.45281274 338.25280507 -573.87097832 331.56660602 -562.28222656 324.89111328 C-556.85340062 321.76319854 -551.42677993 318.63146269 -546 315.5 C-539.47766725 311.73636081 -532.95486238 307.97355378 -526.4296875 304.21484375 C-515.93767906 298.16944841 -505.45518324 292.10889781 -495 286 C-483.45270484 279.25298806 -471.87097973 272.56660682 -460.28222656 265.89111328 C-454.85340058 262.76319852 -449.42680719 259.63141552 -444 256.5 C-441.83334417 255.24998121 -439.6666775 253.99998122 -437.5 252.75 C-436.4275 252.13125 -435.355 251.5125 -434.25 250.875 C-216.49999999 125.25 -216.49999999 125.25 -213.24951172 123.37475586 C-211.08442929 122.12564482 -208.91939018 120.87645871 -206.75439453 119.62719727 C-201.31384294 116.48797691 -195.87252784 113.35009437 -190.4296875 110.21484375 C-179.97793801 104.19252671 -169.53700452 98.15330663 -159.125 92.0625 C-149.85500223 86.64078822 -140.54168248 81.29795085 -131.21154785 75.98077393 C-122.0871716 70.77954871 -112.99867226 65.51972122 -103.93310547 60.21655273 C-93.40915375 54.06233258 -82.84619863 47.97630004 -72.28222656 41.89111328 C-65.7764039 38.1426677 -59.27355917 34.38905819 -52.77026367 30.63623047 C-47.24262719 27.44671205 -41.71400619 24.25892179 -36.18359375 21.07421875 C-24.08813954 14.10677118 -12.01214469 7.11025277 0 0 Z " fill="#00599C" transform="translate(1895,540)"/>
<path d="M0 0 C0.9810672 0.00059418 1.9621344 0.00118835 2.97293091 0.00180054 C15.80043721 0.03160905 28.57405979 0.42823555 41.375 1.25 C42.9822998 1.35127197 42.9822998 1.35127197 44.62207031 1.45458984 C68.49606103 3.07196748 92.08894226 6.5384154 115.625 10.75 C116.42994904 10.89343842 117.23489807 11.03687683 118.0642395 11.18466187 C126.77639736 12.74575874 135.45136757 14.43166115 144.09375 16.34375 C144.81919006 16.504198 145.54463013 16.664646 146.29205322 16.82995605 C153.06882135 18.35808758 159.71735952 20.27048965 166.375 22.25 C168.48782207 22.84668044 170.60112051 23.44167611 172.71484375 24.03515625 C258.5809784 48.56349104 340.05642497 89.66434219 411.68237305 150.26074219 C415.11450971 153.19641947 418.59971983 156.05085344 422.125 158.875 C426.36286525 162.31941878 430.23921539 165.96767622 434.01171875 169.9140625 C435.91234349 171.79269655 437.83045489 173.51384415 439.859375 175.24609375 C445.24381665 179.91765861 450.24721211 184.97252281 455.27514648 190.01977539 C456.9342732 191.68426277 458.59868051 193.34333447 460.26367188 195.00195312 C465.84549823 200.58028797 471.25092311 206.24455028 476.375 212.25 C477.99467817 214.02570221 479.61911718 215.79708307 481.25 217.5625 C485.28902153 221.99631311 489.15006878 226.53054584 492.9140625 231.19921875 C494.70780236 233.42288674 496.51372383 235.63198478 498.3359375 237.83203125 C516.6564556 260.01839845 532.70870311 283.80161656 547.9375 308.1875 C548.47963135 309.05101074 549.0217627 309.91452148 549.58032227 310.80419922 C550.07072998 311.59971191 550.5611377 312.39522461 551.06640625 313.21484375 C551.70364624 314.24532837 551.70364624 314.24532837 552.35375977 315.29663086 C553.38847195 317.27576836 553.93103126 319.0685503 554.375 321.25 C495.87499999 355 495.87499999 355 492.62451172 356.87524414 C490.45942929 358.12435518 488.29439018 359.37354129 486.12939453 360.62280273 C480.68884294 363.76202309 475.24752784 366.89990563 469.8046875 370.03515625 C459.31267906 376.08055159 448.83018324 382.14110219 438.375 388.25 C426.82770484 394.99701194 415.24597973 401.68339318 403.65722656 408.35888672 C398.22840062 411.48680146 392.80177993 414.61853731 387.375 417.75 C380.85266725 421.51363919 374.32986238 425.27644622 367.8046875 429.03515625 C356.32563001 435.64927985 344.86297925 442.28995784 333.42456055 448.97412109 C324.89615517 453.95434498 316.3485577 458.90092071 307.78491211 463.8203125 C302.70809104 466.73831826 297.64481798 469.67367723 292.6171875 472.67578125 C291.73716064 473.19760986 290.85713379 473.71943848 289.95043945 474.25708008 C288.31893356 475.22634643 286.69214353 476.20361166 285.07104492 477.19018555 C283.21613072 478.28770963 281.29976135 479.2801755 279.375 480.25 C275.13118191 478.83539397 273.98060292 475.73699288 271.8125 472.0625 C261.08433615 454.43836125 248.36311182 438.40581506 234.375 423.25 C233.46886355 422.24195253 232.56398141 421.23277657 231.66015625 420.22265625 C227.12734511 415.17778654 222.5773536 410.2963232 217.3671875 405.93359375 C215.15595823 404.06488823 213.05641299 402.09765806 210.9375 400.125 C192.4596681 383.52864947 171.31605327 369.7801945 149.375 358.25 C148.74948242 357.91339355 148.12396484 357.57678711 147.47949219 357.22998047 C109.93257073 337.05476801 68.57676006 326.24909905 26.375 322.25 C25.64893555 322.17652344 24.92287109 322.10304688 24.17480469 322.02734375 C19.91137636 321.60168017 15.65638599 321.36788662 11.375 321.25 C9.89652588 321.20915283 9.89652588 321.20915283 8.38818359 321.16748047 C-15.84744586 320.61021871 -39.83427667 322.52332763 -63.625 327.25 C-64.89601563 327.50136719 -66.16703125 327.75273438 -67.4765625 328.01171875 C-122.66374168 339.69598686 -173.96661273 367.11527479 -215.390625 405.203125 C-217.66194957 407.28384891 -219.98381431 409.29638957 -222.3125 411.3125 C-225.71215055 414.33309543 -228.71802352 417.48919727 -231.64453125 420.96484375 C-233.57227019 423.18915791 -235.58920378 425.3065863 -237.62817383 427.4284668 C-294.95772439 487.61935197 -320.74242849 572.01573284 -318.92674255 653.74659729 C-318.56733292 665.66399503 -317.03878148 677.37552601 -315.12451172 689.13867188 C-314.69510163 691.81335525 -314.31725032 694.4852861 -313.97265625 697.171875 C-307.06833425 748.32792439 -281.73174489 799.40470635 -249.625 839.25 C-248.90183594 840.16523437 -248.17867187 841.08046875 -247.43359375 842.0234375 C-235.27490019 857.20549135 -221.58735374 872.09311871 -206.28515625 884.13671875 C-204.52786578 885.53274539 -202.80473412 886.97301127 -201.12109375 888.45703125 C-157.79114687 926.48899336 -99.24086129 949.52159815 -42.625 957.25 C-41.43583984 957.42660156 -40.24667969 957.60320313 -39.02148438 957.78515625 C-26.16989096 959.5862562 -13.33342702 959.64802377 -0.375 959.625 C1.35194092 959.62418427 1.35194092 959.62418427 3.11376953 959.62335205 C20.92186033 959.58470065 37.86892857 958.67457294 55.375 955.25 C57.58183556 954.86735922 59.78887083 954.48586867 61.99609375 954.10546875 C91.5805953 948.68384565 120.64620868 937.91653881 147.375 924.25 C148.19758301 923.83186035 149.02016602 923.4137207 149.86767578 922.98291016 C167.45778203 913.919793 183.98035573 902.65477534 199.375 890.25 C200.29023437 889.52683594 201.20546875 888.80367187 202.1484375 888.05859375 C218.64924018 874.84376754 234.34306362 859.90064631 247.375 843.25 C248.28999907 842.14467036 249.2081579 841.04195129 250.12890625 839.94140625 C260.43695882 827.51901221 268.85509052 813.92862372 277.375 800.25 C284.63837777 804.19040646 291.86926983 808.18296304 299.0625 812.25 C300.05016357 812.8083252 301.03782715 813.36665039 302.05541992 813.94189453 C310.13662596 818.52309445 318.16757062 823.18713304 326.18481445 827.87915039 C336.79311048 834.087196 347.44216947 840.22379721 358.09277344 846.35888672 C364.60371257 850.11028024 371.11163194 853.86690994 377.62011719 857.62255859 C383.06085336 860.76182246 388.50231477 863.89981497 393.9453125 867.03515625 C405.4294882 873.65222892 416.89696894 880.29633977 428.34082031 886.98291016 C439.99159185 893.78587623 451.68403744 900.51642186 463.375 907.25 C477.04257989 915.12203934 490.70025729 923.00940844 504.31665039 930.96972656 C511.83961585 935.36427487 519.38583655 939.71749116 526.9375 944.0625 C536.14349707 949.36108696 545.30259731 954.72571519 554.375 960.25 C552.6281228 965.26848535 549.91488017 969.65643713 547.1875 974.1875 C546.66212646 975.06067871 546.13675293 975.93385742 545.59545898 976.83349609 C532.35361598 998.58063957 517.34044604 1019.42214896 501.375 1039.25 C500.64023438 1040.1678125 499.90546875 1041.085625 499.1484375 1042.03125 C489.3398472 1054.15823437 479.00435117 1065.83927701 468.375 1077.25 C467.78396484 1077.88615234 467.19292969 1078.52230469 466.58398438 1079.17773438 C447.68096873 1099.50957858 447.68096873 1099.50957858 438.7265625 1107.1796875 C436.23072705 1109.37701771 433.80699015 1111.63933774 431.38330078 1113.91552734 C425.78508493 1119.17145486 420.11720521 1124.23123583 414.1171875 1129.03125 C411.70267781 1130.98487037 409.34636786 1132.9916671 407 1135.02612305 C344.26138567 1189.18719245 267.69880562 1226.70544833 189.375 1252.25 C188.31748535 1252.59998047 187.2599707 1252.94996094 186.17041016 1253.31054688 C149.52734028 1265.37481967 110.84267971 1272.83697212 72.52490234 1276.81201172 C69.84484923 1277.09053882 67.17094215 1277.3919658 64.49462891 1277.70751953 C-14.72144164 1287.02055661 -100.15835719 1279.91857477 -176.22558594 1255.98242188 C-178.65318772 1255.24139569 -181.0900384 1254.55722328 -183.5390625 1253.890625 C-228.30329013 1241.70427743 -272.42589464 1222.43622892 -312.625 1199.25 C-314.00002686 1198.45964355 -314.00002686 1198.45964355 -315.40283203 1197.65332031 C-327.71435641 1190.54767942 -339.80774908 1183.15073824 -351.625 1175.25 C-352.37313965 1174.75032715 -353.1212793 1174.2506543 -353.89208984 1173.73583984 C-371.53033403 1161.90948735 -388.52542853 1149.42862274 -404.79443359 1135.77636719 C-407.31663203 1133.67330176 -409.87822091 1131.62017503 -412.4375 1129.5625 C-417.33684423 1125.56409901 -421.97999121 1121.33192427 -426.60546875 1117.0234375 C-428.79493847 1114.98948894 -431.03593752 1113.02870802 -433.30175781 1111.08032227 C-437.646645 1107.2835513 -441.74342536 1103.2761261 -445.81640625 1099.19140625 C-446.56534653 1098.4434227 -447.3142868 1097.69543915 -448.08592224 1096.92478943 C-449.65771225 1095.35367536 -451.22825849 1093.78131608 -452.79760742 1092.20776367 C-455.18101304 1089.81900154 -457.56971068 1087.43562554 -459.95898438 1085.05273438 C-461.49511237 1083.5159455 -463.03093009 1081.9788464 -464.56640625 1080.44140625 C-465.27076309 1079.73907364 -465.97511993 1079.03674103 -466.70082092 1078.31312561 C-471.20761185 1073.7852691 -475.47019743 1069.10173451 -479.625 1064.25 C-480.57494379 1063.15574879 -481.52536488 1062.06191147 -482.4765625 1060.96875 C-516.56415477 1021.49570716 -545.43946248 978.46897213 -569.625 932.25 C-570.32786133 930.91219482 -570.32786133 930.91219482 -571.04492188 929.54736328 C-583.81667276 905.08629004 -594.21475218 879.6885833 -603.40234375 853.69921875 C-604.54323923 850.48065419 -605.70568773 847.27082654 -606.875 844.0625 C-611.29365421 831.81944464 -614.8070529 819.50076812 -617.95019531 806.875 C-618.75352424 803.75003883 -619.65240963 800.65983046 -620.56420898 797.56518555 C-623.87729957 786.25551675 -625.97566236 774.73490205 -628.09033203 763.15087891 C-628.53158604 760.75682403 -628.98902031 758.36782025 -629.46484375 755.98046875 C-634.34044827 731.2334815 -636.88327864 706.38009368 -638.625 681.25 C-638.69847656 680.21552734 -638.77195312 679.18105469 -638.84765625 678.11523438 C-641.45314683 639.44864541 -640.76545062 599.54424825 -635.0546875 561.19189453 C-634.58310524 557.96316371 -634.14910185 554.73057085 -633.71875 551.49609375 C-631.62284705 535.93957368 -628.97824466 520.58429718 -625.625 505.25 C-625.36847656 504.07179688 -625.11195313 502.89359375 -624.84765625 501.6796875 C-620.87511646 483.62268845 -616.1979845 465.87835265 -610.625 448.25 C-610.27711426 447.14591797 -609.92922852 446.04183594 -609.57080078 444.90429688 C-594.05054766 396.06344541 -572.3035219 349.94697771 -545.625 306.25 C-545.07956543 305.35522949 -544.53413086 304.46045898 -543.97216797 303.53857422 C-532.86725058 285.41334726 -520.57387382 268.09951128 -507.625 251.25 C-506.92745605 250.34193604 -506.92745605 250.34193604 -506.21582031 249.41552734 C-497.46459165 238.06465098 -488.29933714 227.10819908 -478.66015625 216.5 C-476.85122457 214.50010625 -475.07608199 212.47730568 -473.3125 210.4375 C-465.46137014 201.45967041 -457.29228761 192.82267161 -448.875 184.375 C-448.17842285 183.67383057 -447.4818457 182.97266113 -446.76416016 182.25024414 C-442.81528899 178.3130671 -438.76295742 174.56193308 -434.54052734 170.92041016 C-431.55627501 168.31803258 -428.69244389 165.59150448 -425.8125 162.875 C-419.95405157 157.39423737 -413.89513822 152.25682148 -407.625 147.25 C-405.83220999 145.77219506 -404.0405599 144.29300624 -402.25 142.8125 C-331.38368133 84.94000563 -246.9480153 41.9875042 -158.09179688 20.10595703 C-154.5001511 19.21917463 -150.91423351 18.31123677 -147.328125 17.40234375 C-99.5368706 5.41501496 -49.24855284 -0.0326101 0 0 Z " fill="#FEFEFE" transform="translate(959.625,439.75)"/>
<path d="M0 0 C1.64622859 2.46091444 3.08728289 4.87672376 4.5078125 7.46484375 C5.40179984 9.03827427 6.29936292 10.60967765 7.20019531 12.17919922 C7.6623645 12.98444031 8.12453369 13.7896814 8.60070801 14.61932373 C12.41384443 21.10677842 16.6805066 27.31804222 20.875 33.5625 C21.35522614 34.2802359 21.83545227 34.9979718 22.33023071 35.73745728 C29.2471014 46.06888929 36.29508184 56.23620775 44 66 C44.94867741 67.22076336 45.89657671 68.44213174 46.84375 69.6640625 C54.43604565 79.42725383 62.23564363 89.00810688 70.3125 98.375 C70.79702637 98.93888428 71.28155273 99.50276855 71.78076172 100.08374023 C81.76964207 111.59838756 92.34642559 122.50943664 103.13769531 133.26806641 C105.26484784 135.38981009 107.38653561 137.51691491 109.5078125 139.64453125 C110.88509583 141.0211544 112.26268899 142.39746766 113.640625 143.7734375 C114.261651 144.39648773 114.882677 145.01953796 115.52252197 145.66146851 C119.85405068 149.97029133 124.36549598 154.02047507 129 158 C130.09412266 158.95009185 131.1879394 159.90053629 132.28125 160.8515625 C166.83506828 190.69349647 204.0757637 216.82703516 244 239 C244.92474121 239.51916992 245.84948242 240.03833984 246.80224609 240.57324219 C290.99757794 265.34792983 338.82402586 284.68999171 388 297 C389.39330115 297.35518648 390.78653333 297.7106437 392.1796875 298.06640625 C394.69741994 298.70766219 397.2188071 299.32947485 399.74291992 299.94555664 C402.61540066 300.65025559 405.47818402 301.38441483 408.33764648 302.14013672 C421.10217752 305.48159128 433.91389322 307.96790811 446.9375 310.0625 C448.52742767 310.31821777 448.52742767 310.31821777 450.1494751 310.57910156 C504.88213848 319.28506827 561.95345029 321.94420287 617.14160156 315.453125 C620.4709006 315.06213671 623.80035889 314.70693855 627.13516235 314.36842346 C668.26642978 310.1642285 708.75589777 300.90502753 748 288 C748.64193298 287.79010437 749.28386597 287.58020874 749.94525146 287.36395264 C831.42906768 260.71324026 906.88880126 218.4923685 991 145 C992.265625 143.828125 993.53125 142.65625 994.796875 141.484375 C1003.30727897 133.58952325 1011.72290796 125.73937245 1019.29296875 116.921875 C1020.92002562 115.0900398 1022.61302329 113.38871889 1024.375 111.6875 C1028.11984761 108.00937574 1031.33508145 103.9655713 1034.62109375 99.87890625 C1036.95377216 97.05594403 1039.38247205 94.36963388 1041.875 91.6875 C1047.63578621 85.41108787 1052.83392858 78.76597843 1058 72 C1058.47163574 71.38527832 1058.94327148 70.77055664 1059.42919922 70.13720703 C1074.46045028 50.5044487 1088.57453742 30.14867631 1101.09692383 8.8190918 C1102.91138523 5.73954878 1104.7829387 2.80596821 1107 0 C1110.48616154 0.67686029 1113.17749011 2.06987575 1116.26171875 3.80859375 C1117.289021 4.38536865 1118.31632324 4.96214355 1119.37475586 5.55639648 C1120.46796143 6.17716064 1121.56116699 6.7979248 1122.6875 7.4375 C1123.81873291 8.0756665 1124.94996582 8.71383301 1126.11547852 9.37133789 C1132.92008382 13.22074499 1139.69085397 17.1223287 1146.41503906 21.11035156 C1152.72696294 24.85308531 1159.07932063 28.52397983 1165.4375 32.1875 C1166.54472412 32.82550537 1167.65194824 33.46351074 1168.79272461 34.12084961 C1171.06337068 35.42889477 1173.33412358 36.73675448 1175.60498047 38.04443359 C1181.0716998 41.19332054 1186.53574887 44.34683264 1192 47.5 C1194.16665311 48.7500235 1196.33331979 50.00002347 1198.5 51.25 C1211.5 58.75 1224.5 66.25 1237.5 73.75 C1238.57266113 74.36883057 1239.64532227 74.98766113 1240.75048828 75.62524414 C1242.91557071 76.87435518 1245.08060982 78.12354129 1247.24560547 79.37280273 C1252.68615706 82.51202309 1258.12747216 85.64990563 1263.5703125 88.78515625 C1274.02206199 94.80747329 1284.46299548 100.84669337 1294.875 106.9375 C1303.55262241 112.01275123 1312.26605568 117.02258767 1321 122 C1330.72115617 127.5400173 1340.40894658 133.13374809 1350.06689453 138.78344727 C1360.59084625 144.93766742 1371.15380137 151.02369996 1381.71777344 157.10888672 C1387.14659942 160.23680148 1392.57319281 163.36858448 1398 166.5 C1400.16665583 167.75001879 1402.3333225 169.00001878 1404.5 170.25 C1432.66666667 186.5 1460.83333333 202.75 1489 219 C1487.85732032 222.0076434 1486.67837604 224.73683105 1484.8984375 227.41796875 C1484.49488037 228.02745361 1484.09132324 228.63693848 1483.67553711 229.26489258 C1483.03177124 230.21658325 1483.03177124 230.21658325 1482.375 231.1875 C1481.92842041 231.85096436 1481.48184082 232.51442871 1481.02172852 233.19799805 C1474.73698121 242.43631887 1467.59815326 250.81841711 1460 259 C1459.4225 259.64324219 1458.845 260.28648437 1458.25 260.94921875 C1445.40485475 274.62585777 1429.18904612 283.58656078 1412.87060547 292.42773438 C1409.05283209 294.51877542 1405.30108397 296.7087915 1401.5625 298.9375 C1394.59316126 303.07460531 1387.58496695 307.14122389 1380.5625 311.1875 C1379.45527588 311.82550537 1378.34805176 312.46351074 1377.20727539 313.12084961 C1374.93662932 314.42889477 1372.66587642 315.73675448 1370.39501953 317.04443359 C1364.9283002 320.19332054 1359.46425113 323.34683264 1354 326.5 C1351.83334689 327.7500235 1349.66668021 329.00002347 1347.5 330.25 C1346.4275 330.86875 1345.355 331.4875 1344.25 332.125 C1334.50000001 337.75 1334.50000001 337.75 1331.24951172 339.62524414 C1329.08442929 340.87435518 1326.91939018 342.12354129 1324.75439453 343.37280273 C1319.31384294 346.51202309 1313.87252784 349.64990563 1308.4296875 352.78515625 C1297.97793801 358.80747329 1287.53700452 364.84669337 1277.125 370.9375 C1267.85500223 376.35921178 1258.54168248 381.70204915 1249.21154785 387.01922607 C1240.0871716 392.22045129 1230.99867226 397.48027878 1221.93310547 402.78344727 C1211.40915375 408.93766742 1200.84619863 415.02369996 1190.28222656 421.10888672 C1184.85340058 424.23680148 1179.42680719 427.36858448 1174 430.5 C1171.83334417 431.75001879 1169.6666775 433.00001878 1167.5 434.25 C1166.4275 434.86875 1165.355 435.4875 1164.25 436.125 C972.50000001 546.74999999 972.50000001 546.74999999 969.24951172 548.62524414 C967.08442929 549.87435518 964.91939018 551.12354129 962.75439453 552.37280273 C957.31384294 555.51202309 951.87252784 558.64990563 946.4296875 561.78515625 C935.97793801 567.80747329 925.53700452 573.84669337 915.125 579.9375 C905.85500223 585.35921178 896.54168248 590.70204915 887.21154785 596.01922607 C878.0871716 601.22045129 868.99867226 606.48027878 859.93310547 611.78344727 C849.40915375 617.93766742 838.84619863 624.02369996 828.28222656 630.10888672 C822.85340058 633.23680148 817.42680719 636.36858448 812 639.5 C809.83334417 640.75001879 807.6666775 642.00001878 805.5 643.25 C803.89125 644.178125 803.89125 644.178125 802.25 645.125 C764.33333333 667 726.41666667 688.875 688.5 710.75 C687.4265332 711.36931396 686.35306641 711.98862793 685.24707031 712.62670898 C683.09019097 713.87104998 680.93329008 715.11535364 678.77636719 716.35961914 C672.06319411 720.23233034 665.35059419 724.10603078 658.6394043 727.98217773 C656.39988398 729.27414044 654.15918108 730.56405565 651.91723633 731.85180664 C645.4195739 735.58196296 645.4195739 735.58196296 638.99609375 739.4375 C622.67121241 749.30566912 604.64818721 754.57444891 586 758 C584.95924316 758.19698486 584.95924316 758.19698486 583.89746094 758.39794922 C535.42298963 767.11259825 490.01418699 753.46087353 448.69909668 729.00311279 C445.0804476 726.86673454 441.44440279 724.76010427 437.81201172 722.6472168 C434.86709659 720.9328992 431.92550069 719.21299676 428.984375 717.4921875 C419.44177067 711.91570844 409.85942207 706.40788509 400.28222656 700.89111328 C394.85340058 697.76319852 389.42680719 694.63141552 384 691.5 C381.83334417 690.24998121 379.6666775 688.99998122 377.5 687.75 C280 631.5 280 631.5 182.5 575.25 C181.42733887 574.63116943 180.35467773 574.01233887 179.24951172 573.37475586 C177.08442929 572.12564482 174.91939018 570.87645871 172.75439453 569.62719727 C167.31384294 566.48797691 161.87252784 563.35009437 156.4296875 560.21484375 C145.97793801 554.19252671 135.53700452 548.15330663 125.125 542.0625 C116.44737759 536.98724877 107.73394432 531.97741233 99 527 C89.27884383 521.4599827 79.59105342 515.86625191 69.93310547 510.21655273 C59.40915375 504.06233258 48.84619863 497.97630004 38.28222656 491.89111328 C32.85340058 488.76319852 27.42680719 485.63141552 22 482.5 C19.83334417 481.24998121 17.6666775 479.99998122 15.5 478.75 C-49.5 441.25 -114.5 403.75 -179.5 366.25 C-180.57266113 365.63116943 -181.64532227 365.01233887 -182.75048828 364.37475586 C-184.91557071 363.12564482 -187.08060982 361.87645871 -189.24560547 360.62719727 C-194.68615706 357.48797691 -200.12747216 354.35009437 -205.5703125 351.21484375 C-216.02206199 345.19252671 -226.46299548 339.15330663 -236.875 333.0625 C-245.55262241 327.98724877 -254.26605568 322.97741233 -263 318 C-272.71291257 312.46468067 -282.39712496 306.88340829 -292.04052734 301.22753906 C-297.26795339 298.16447834 -302.51097175 295.13336527 -307.78125 292.14453125 C-324.77358701 282.49360819 -339.98818201 272.68652783 -354 259 C-354.56428711 258.45980225 -355.12857422 257.91960449 -355.70996094 257.36303711 C-360.01669504 253.1732951 -363.75942822 248.73147214 -367.375 243.9375 C-367.93082764 243.20523193 -368.48665527 242.47296387 -369.05932617 241.71850586 C-372.64578562 236.94052134 -376.06864374 232.07940806 -379.3125 227.0625 C-379.69132324 226.47782959 -380.07014648 225.89315918 -380.46044922 225.29077148 C-383 221.2618737 -383 221.2618737 -383 219 C-382.51982422 218.74009277 -382.03964844 218.48018555 -381.54492188 218.21240234 C-369.32137607 211.58029506 -357.2614979 204.70249165 -345.265625 197.66796875 C-338.90228965 193.93674029 -332.51650445 190.24521942 -326.125 186.5625 C-325.04524902 185.94020508 -323.96549805 185.31791016 -322.85302734 184.67675781 C-320.66285466 183.41471274 -318.47258757 182.15283148 -316.28222656 180.89111328 C-310.85340058 177.76319852 -305.42680719 174.63141552 -300 171.5 C-297.83334417 170.24998121 -295.6666775 168.99998122 -293.5 167.75 C-291.89125 166.821875 -291.89125 166.821875 -290.25 165.875 C-176.5 100.25 -176.5 100.25 -173.24951172 98.37475586 C-171.08442929 97.12564482 -168.91939018 95.87645871 -166.75439453 94.62719727 C-161.31384294 91.48797691 -155.87252784 88.35009437 -150.4296875 85.21484375 C-139.97793801 79.19252671 -129.53700452 73.15330663 -119.125 67.0625 C-109.85500223 61.64078822 -100.54168248 56.29795085 -91.21154785 50.98077393 C-82.0871716 45.77954871 -72.99867226 40.51972122 -63.93310547 35.21655273 C-55.60788751 30.34811306 -47.26162329 25.51694348 -38.90161133 20.70849609 C-33.76678946 17.75453289 -28.63699606 14.79297418 -23.52600098 11.79798889 C-21.12002104 10.38862234 -18.71132344 8.98393744 -16.3024292 7.57955933 C-14.59430633 6.58109209 -12.89012859 5.57588551 -11.18603516 4.57055664 C-10.15655762 3.97106201 -9.12708008 3.37156738 -8.06640625 2.75390625 C-7.15834229 2.22095947 -6.25027832 1.6880127 -5.31469727 1.13891602 C-3 0 -3 0 0 0 Z " fill="#004482" transform="translate(407,1401)"/>
<path d="M0 0 C1.01392822 0.18852539 1.01392822 0.18852539 2.04833984 0.38085938 C32.44199871 6.15338364 62.73602666 16.29807573 90.00097656 30.92822266 C91.42843771 31.69355661 92.86063429 32.45008501 94.29589844 33.20068359 C112.4646883 42.7057531 129.16303952 53.99106818 145 67 C145.52722656 67.42958008 146.05445313 67.85916016 146.59765625 68.30175781 C153.40320371 73.8657527 159.93955424 79.70013871 166.375 85.6875 C167.02903809 86.29303711 167.68307617 86.89857422 168.35693359 87.52246094 C172.29913202 91.22862965 175.93162115 95.09671468 179.45458984 99.20288086 C181.28839673 101.3353694 183.2055709 103.38207895 185.125 105.4375 C198.84234026 120.70993636 211.05337972 138.05230863 221 156 C220.34153076 156.35771484 219.68306152 156.71542969 219.00463867 157.08398438 C201.53828049 166.58956908 184.24542638 176.38270562 167.08984375 186.4375 C160.78429581 190.1321331 154.45705564 193.78852681 148.125 197.4375 C146.50476929 198.37130493 146.50476929 198.37130493 144.85180664 199.32397461 C142.66203666 200.58576826 140.47217645 201.84740534 138.28222656 203.10888672 C132.85340058 206.23680148 127.42680719 209.36858448 122 212.5 C119.83334417 213.75001879 117.6666775 215.00001878 115.5 216.25 C114.4275 216.86875 113.355 217.4875 112.25 218.125 C102.5 223.75 102.5 223.75 99.24951172 225.62524414 C97.08442929 226.87435518 94.91939018 228.12354129 92.75439453 229.37280273 C87.31384294 232.51202309 81.87252784 235.64990563 76.4296875 238.78515625 C65.97793801 244.80747329 55.53700452 250.84669337 45.125 256.9375 C35.85500223 262.35921178 26.54168248 267.70204915 17.21154785 273.01922607 C8.0871716 278.22045129 -1.00132774 283.48027878 -10.06689453 288.78344727 C-20.59084625 294.93766742 -31.15380137 301.02369996 -41.71777344 307.10888672 C-47.14659942 310.23680148 -52.57319281 313.36858448 -58 316.5 C-60.16665583 317.75001879 -62.3333225 319.00001878 -64.5 320.25 C-65.5725 320.86875 -66.645 321.4875 -67.75 322.125 C-259.5 432.75 -259.5 432.75 -262.75048828 434.62524414 C-264.91557071 435.87435518 -267.08060982 437.12354129 -269.24560547 438.37280273 C-274.68615706 441.51202309 -280.12747216 444.64990563 -285.5703125 447.78515625 C-296.53917031 454.10510203 -307.49900385 460.44011887 -318.4375 466.8125 C-319.45666504 467.40554932 -320.47583008 467.99859863 -321.52587891 468.60961914 C-322.4647998 469.15739014 -323.4037207 469.70516113 -324.37109375 470.26953125 C-325.19536865 470.75010986 -326.01964355 471.23068848 -326.86889648 471.72583008 C-328.61029285 472.76699718 -330.31184188 473.87456125 -332 475 C-332.99 475 -333.98 475 -335 475 C-355.88128708 437.11947746 -369.42833571 396.8774613 -375 354 C-375.08793823 353.33817719 -375.17587646 352.67635437 -375.26647949 351.99447632 C-376.8126672 340.16593625 -377.4031674 328.48755188 -377.375 316.5625 C-377.37445618 315.6841449 -377.37391235 314.80578979 -377.37335205 313.90081787 C-377.29602381 286.39485199 -373.95890499 259.63781228 -367 233 C-366.77618652 232.12988281 -366.55237305 231.25976562 -366.32177734 230.36328125 C-355.67523657 189.84440764 -335.63461217 151.95761559 -310 119 C-309.35272949 118.165896 -309.35272949 118.165896 -308.69238281 117.31494141 C-303.63352099 110.84852322 -298.15152122 104.79759063 -292.56640625 98.7890625 C-290.42501785 96.46189155 -288.35657371 94.09941385 -286.3125 91.6875 C-283.43610787 88.36488952 -280.29684381 85.53463973 -276.9453125 82.69921875 C-275.14362605 81.12545649 -273.51712668 79.48702345 -271.875 77.75 C-266.97296516 72.76997824 -261.33388286 68.6381748 -255.80224609 64.39208984 C-254.12291105 63.09493888 -252.45950024 61.78038366 -250.80078125 60.45703125 C-202.89195631 22.64692976 -145.13343642 2.68878515 -85 -4 C-84.18958252 -4.09788818 -83.37916504 -4.19577637 -82.54418945 -4.29663086 C-55.50369948 -7.36561833 -26.6804377 -5.12361534 0 0 Z " fill="#659AD2" transform="translate(1017,765)"/>
<path d="M0 0 C2.87060547 1.36010742 2.87060547 1.36010742 5.8671875 3.10546875 C6.98738281 3.75193359 8.10757812 4.39839844 9.26171875 5.06445312 C10.46624802 5.77196148 11.67067243 6.47964836 12.875 7.1875 C14.1336436 7.91812966 15.39276536 8.64793618 16.65234375 9.37695312 C19.84234464 11.22622679 23.02601371 13.08608275 26.20739746 14.95013428 C28.86784844 16.50826901 31.53168463 18.06058534 34.1953125 19.61328125 C37.10381971 21.30954598 40.01169254 23.00684429 42.91748047 24.70776367 C50.58221669 29.19056507 58.28529845 33.60405339 66 38 C75.72124506 43.53985933 85.40894868 49.13374932 95.06689453 54.78344727 C105.59084625 60.93766742 116.15380137 67.02369996 126.71777344 73.10888672 C132.14659942 76.23680148 137.57319281 79.36858448 143 82.5 C145.16665583 83.75001879 147.3333225 85.00001878 149.5 86.25 C171.16666667 98.75 192.83333333 111.25 214.5 123.75 C215.57354736 124.36931396 216.64709473 124.98862793 217.75317383 125.62670898 C219.90940213 126.87076792 222.06549049 128.11506942 224.22143555 129.35961914 C229.21447507 132.24154067 234.2087388 135.1212475 239.20825195 137.9919281 C262.82166049 151.55097112 262.82166049 151.55097112 273 158 C269.78694911 164.81188221 266.18155553 171.07519746 261.875 177.25 C261.30587891 178.07209961 260.73675781 178.89419922 260.15039062 179.74121094 C255.04067614 187.05829929 249.68669157 194.12353258 244 201 C243.29834717 201.85609863 243.29834717 201.85609863 242.58251953 202.72949219 C229.89686305 218.1125019 215.83090554 232.84205051 200 245 C198.91221179 245.89592528 197.82780533 246.7959661 196.74609375 247.69921875 C182.23813321 259.73327851 166.47125638 270.10565215 149.85888672 278.99853516 C148.0105807 279.99429971 146.17843593 281.01539517 144.34765625 282.04296875 C116.90673485 297.30426918 85.18975912 308.01287164 54.32910156 313.41503906 C52.15537635 313.79698726 49.98507455 314.19912108 47.81933594 314.62402344 C12.9518215 321.42141692 -26.18664499 320.79592366 -61 314 C-62.23717773 313.75862305 -63.47435547 313.51724609 -64.74902344 313.26855469 C-113.23476114 303.45787475 -158.74819833 283.12998986 -198 253 C-198.86496094 252.33742188 -199.72992187 251.67484375 -200.62109375 250.9921875 C-203.1159268 249.03400984 -205.56323998 247.0300281 -208 245 C-208.51933105 244.57090332 -209.03866211 244.14180664 -209.57373047 243.69970703 C-224.63969045 231.19008076 -239.03086356 217.53298044 -251 202 C-251.92099083 200.87603878 -252.84574199 199.75515246 -253.7734375 198.63671875 C-264.00204703 186.23633812 -273.00812765 172.95072455 -281 159 C-277.57142523 156.13522487 -274.12061062 153.79396436 -270.23046875 151.6015625 C-269.10688965 150.96468506 -267.98331055 150.32780762 -266.82568359 149.67163086 C-266.23325867 149.33839813 -265.64083374 149.00516541 -265.03045654 148.66183472 C-261.86545706 146.8812277 -258.70876003 145.08598771 -255.55078125 143.29296875 C-254.59026855 142.74839775 -254.59026855 142.74839775 -253.61035156 142.19282532 C-247.67056967 138.8221067 -241.76810469 135.38914022 -235.875 131.9375 C-224.3716784 125.2072298 -212.83076094 118.54343951 -201.28222656 111.89111328 C-195.85340058 108.76319852 -190.42680719 105.63141552 -185 102.5 C-182.83334417 101.24998121 -180.6666775 99.99998122 -178.5 98.75 C-177.4275 98.13125 -176.355 97.5125 -175.25 96.875 C-61.5 31.25 -61.5 31.25 -58.24609375 29.37280273 C-56.0923828 28.13023981 -53.93873633 26.88756511 -51.78515625 25.64477539 C-46.76315738 22.74685377 -41.74057193 19.84996651 -36.71557617 16.95724487 C-34.94954478 15.94052802 -33.18372569 14.92344342 -31.41796875 13.90625 C-29.21265845 12.63599127 -27.00695784 11.36640982 -24.80078125 10.09765625 C-23.79402344 9.51757812 -22.78726562 8.9375 -21.75 8.33984375 C-20.78320312 7.7866748 -19.81640625 7.23350586 -18.8203125 6.66357422 C-16.93512845 5.55158979 -15.07494668 4.39612755 -13.2421875 3.19970703 C-12.37851562 2.64009277 -11.51484375 2.08047852 -10.625 1.50390625 C-9.87476563 0.99802979 -9.12453125 0.49215332 -8.3515625 -0.02905273 C-5.1320811 -1.35835896 -3.33429763 -0.92152094 0 0 Z " fill="#004482" transform="translate(964,1082)"/>
<path d="M0 0 C23.1 0 46.2 0 70 0 C70 23.43 70 46.86 70 71 C93.76 71 117.52 71 142 71 C142 94.43 142 117.86 142 142 C118.57 142 95.14 142 71 142 C71 165.43 71 188.86 71 213 C47.24 213 23.48 213 -1 213 C-1 189.57 -1 166.14 -1 142 C-24.43 142 -47.86 142 -72 142 C-72 118.57 -72 95.14 -72 71 C-48.24 71 -24.48 71 0 71 C0 47.57 0 24.14 0 0 Z " fill="#FDFEFE" transform="translate(1725,974)"/>
<path d="M0 0 C23.43 0 46.86 0 71 0 C71 23.43 71 46.86 71 71 C94.43 71 117.86 71 142 71 C142 94.43 142 117.86 142 142 C118.57 142 95.14 142 71 142 C71 165.43 71 188.86 71 213 C47.57 213 24.14 213 0 213 C0 189.57 0 166.14 0 142 C-23.43 142 -46.86 142 -71 142 C-71 118.57 -71 95.14 -71 71 C-47.57 71 -24.14 71 0 71 C0 47.57 0 24.14 0 0 Z " fill="#FEFEFE" transform="translate(1458,974)"/>
</svg>
