<?xml version="1.0" encoding="UTF-8"?>
<svg version="1.1" xmlns="http://www.w3.org/2000/svg" width="512" height="512">
<path d="M0 0 C6.55125605 5.01694353 12.9076149 10.27805011 19.26269531 15.53955078 C20.66954037 16.70323226 20.66954037 16.70323226 22.10480654 17.89042246 C47.57212725 39.01217482 72.2503138 61.00358298 96.50316328 83.50506967 C98.24657333 85.12182227 99.99200559 86.73636922 101.73767138 88.3506856 C156.55707104 139.10239731 204.99205953 185.86357602 208.50022209 264.59790707 C209.00837565 279.84382745 208.30512298 294.98411042 207.1875 310.1875 C207.06415126 311.90978302 207.06415126 311.90978302 206.93831062 313.66685963 C206.35436179 321.66301458 205.67232287 329.64680732 204.90527344 337.62744141 C204.80945055 338.6278794 204.71362767 339.62831739 204.61490107 340.65907168 C202.58432224 361.02129766 198.62625743 380.79007183 195 401 C165.63 401 136.26 401 106 401 C106 430.37 106 459.74 106 490 C58.58555209 497.97350231 58.58555209 497.97350231 40.54394531 499.60009766 C38.87799403 499.75081659 38.87799403 499.75081659 37.17838717 499.90458035 C28.89584658 500.63503432 20.60813967 501.25197281 12.3125 501.8125 C11.13897791 501.89392085 9.96545582 501.9753417 8.75637245 502.05922985 C-52.98112399 506.21575076 -103.58526713 498.48413133 -150.69551474 457.41375417 C-171.89414084 438.73760177 -191.57681225 418.59875056 -210.69230801 397.8180303 C-212.25317901 396.12154478 -213.81620887 394.42707013 -215.37960386 392.73291063 C-310.49900753 289.57422917 -310.49900753 289.57422917 -309.32324219 260.27807617 C-308.13967786 248.27526787 -302.7661422 237.66785193 -297.4375 227.0625 C-296.71520752 225.60283825 -295.99419546 224.14254226 -295.27441406 222.68164062 C-293.84542897 219.78309002 -292.41170996 216.88696806 -290.97412109 213.99267578 C-288.34452198 208.68794133 -285.79164997 203.34732439 -283.25 198 C-282.37916149 196.17435739 -281.50806883 194.348836 -280.63671875 192.5234375 C-279.99355713 191.17523926 -279.99355713 191.17523926 -279.33740234 189.79980469 C-276.91955302 184.73812231 -274.49077336 179.68168773 -272.0625 174.625 C-271.56331055 173.58537109 -271.06412109 172.54574219 -270.54980469 171.47460938 C-269.53862139 169.36879245 -268.52739079 167.26299824 -267.51611328 165.15722656 C-265.01005092 159.93848285 -262.50507704 154.71921674 -260 149.5 C-259.00000529 147.41666413 -258.00000529 145.33333079 -257 143.25 C-256.505 142.21875 -256.01 141.1875 -255.5 140.125 C-254 137 -252.5 133.875 -251 130.75 C-250.50459717 129.71786377 -250.00919434 128.68572754 -249.4987793 127.62231445 C-248.50299659 125.54786176 -247.50706661 123.47347975 -246.51098633 121.39916992 C-243.41748691 114.95644719 -240.32803732 108.51182133 -237.24780273 102.06274414 C-236.21735794 99.91623945 -235.17924419 97.77339747 -234.13305664 95.63452148 C-232.04614363 91.3606684 -229.98954561 87.14307784 -228.359375 82.671875 C-225.43184125 75.24044317 -222.22876962 72.01289499 -215.26416016 68.63037109 C-214.444526 68.2157128 -213.62489185 67.8010545 -212.7804203 67.3738308 C-210.90913551 66.43002648 -209.03393645 65.49395806 -207.1556778 64.5641098 C-203.74334987 62.87279152 -200.34303097 61.15835337 -196.9442749 59.44000244 C-189.33979265 55.60020472 -181.72072081 51.78984526 -174.09982634 47.98275042 C-170.25447181 46.06135812 -166.41011082 44.1379796 -162.56558228 42.2149353 C-156.12663208 38.99455715 -149.68685215 35.77584308 -143.24658203 32.55810547 C-135.82260613 28.8488494 -128.40008844 25.13668788 -120.97830236 21.42305243 C-114.56583113 18.21454327 -108.15257728 15.0076026 -101.73867381 11.80195749 C-97.92478911 9.89579059 -94.11116906 7.98909952 -90.29825974 6.08098221 C-86.72194359 4.2913727 -83.14464372 2.50374476 -79.56659698 0.71759796 C-78.2606179 0.06526524 -76.95497231 -0.58773566 -75.64970016 -1.24148178 C-48.68325444 -14.7455123 -25.83156295 -19.0160186 0 0 Z " fill="#02589B" transform="translate(314,18)"/>
<path d="M0 0 C6.9693038 5.78847223 13.47395792 12.06188002 20.02818298 18.30903625 C21.3582491 19.57488388 22.68835252 20.8406923 24.0184899 22.10646504 C28.4362268 26.31260571 32.84900409 30.5239318 37.26147461 34.7355957 C38.03006833 35.46885279 38.79866205 36.20210988 39.59054649 36.95758688 C70.01297061 65.98213268 100.19768323 95.24752965 130.26653063 124.6379989 C135.06725757 129.33040193 139.87009889 134.0206376 144.67407227 138.7097168 C145.15193657 139.17622643 145.62980087 139.64273606 146.1221459 140.12338234 C162.00125191 155.62306657 178.03253619 170.9542736 194.13848453 186.21775017 C210.23544134 201.47970263 226.15314262 216.91294967 241.92511374 232.51056737 C250.76189283 241.24013281 259.65797037 249.87864923 268.7660656 258.32552528 C330.81390395 315.99091751 330.81390395 315.99091751 332.61617881 357.96236938 C333.11057997 377.41422162 331.16836902 396.82776359 328 416 C281.35953839 420.51765369 281.35953839 420.51765369 258.63232422 421.6887207 C256.90494699 421.77802508 256.90494699 421.77802508 255.14267325 421.86913359 C246.59712828 422.30021128 238.0498682 422.66653803 229.5 423 C228.29343404 423.04831073 227.08686808 423.09662147 225.84373951 423.14639616 C168.51544644 425.37640788 116.2203496 426.16629764 71.89666247 385.71086299 C63.34964462 377.73103943 55.52565445 369.14474973 47.875 360.3125 C47.29642117 359.64826523 46.71784233 358.98403046 46.1217308 358.29966736 C34.01853719 344.37847619 22.54493943 330.02265523 12.04638672 314.84887695 C11.33369377 313.81960587 10.62100082 312.79033478 9.88671112 311.72987366 C4.80158674 304.16758155 4.80158674 304.16758155 4 299 C3.29943788 297.02395794 2.51506467 295.09918246 1.71875 293.16015625 C-0.42086142 286.72969367 -0.13811603 280.15148932 -0.12025452 273.45877075 C-0.12110894 272.28983178 -0.12196337 271.12089281 -0.12284368 269.91653144 C-0.12420422 266.68062404 -0.12108571 263.44475685 -0.11606562 260.2088542 C-0.11174206 256.71608451 -0.1132089 253.22331666 -0.1139679 249.73054504 C-0.11449192 243.68195274 -0.11135778 237.63337123 -0.10573006 231.58478165 C-0.09759865 222.83956641 -0.09499815 214.09435638 -0.09374207 205.34913777 C-0.09155413 191.16016441 -0.08490104 176.9711968 -0.07543945 162.78222656 C-0.06625866 149.00000029 -0.05918109 135.21777559 -0.05493164 121.43554688 C-0.05466892 120.58582948 -0.05440619 119.73611208 -0.05413551 118.86064567 C-0.05283046 114.59780918 -0.05156675 110.33497267 -0.05032361 106.07213616 C-0.03995904 70.71475334 -0.02234773 35.3573772 0 0 Z " fill="#2AB6F5" transform="translate(92,92)"/>
<path d="M0 0 C98.34 0 196.68 0 298 0 C298 29.37 298 58.74 298 89 C246.29229598 92.66963947 246.29229598 92.66963947 227.36254883 93.41845703 C226.19767555 93.46468964 225.03280227 93.51092225 223.8326298 93.55855584 C215.20210623 93.89290363 206.57056315 94.17766345 197.9375 94.4375 C196.7201427 94.47515189 195.50278541 94.51280378 194.24853849 94.55159664 C84.02464319 97.8673036 84.02464319 97.8673036 47.0749054 63.93754578 C41.03590911 58.22191331 35.60057433 52.03221919 30.3125 45.625 C29.88229978 45.10721529 29.45209956 44.58943057 29.00886297 44.05595541 C0 9.03833162 0 9.03833162 0 0 Z " fill="#40C3FE" transform="translate(122,419)"/>
<path d="M0 0 C8.25372293 6.17363631 15.27876416 14.00508001 22.50109863 21.31640625 C24.29910833 23.12188862 26.09801238 24.92648074 27.89776611 26.73022461 C32.1228849 30.96897377 36.33898469 35.21648916 40.55069232 39.46854877 C45.35299032 44.31583595 50.1668968 49.15152568 54.98172426 53.98636246 C64.87077691 63.9170236 74.7454505 73.86187805 84.61047363 83.81640625 C80.2755833 83.81640625 77.01420722 81.88025338 73.10656738 80.10546875 C64.80059645 77.04293198 56.64001122 76.52178346 47.85397339 76.53793335 C46.71020158 76.53214095 45.56642978 76.52634855 44.38799822 76.52038062 C40.57719926 76.50345237 36.76652193 76.50051026 32.95568848 76.49755859 C30.21532397 76.48935116 27.47497344 76.47817261 24.73461914 76.46711731 C18.84598678 76.44490834 12.95737161 76.42985693 7.06870651 76.41975021 C-1.44517224 76.40512737 -9.95899106 76.37958056 -18.47283451 76.35141893 C-32.28798542 76.30601626 -46.10314498 76.26937456 -59.91833496 76.23828125 C-73.333715 76.20806893 -86.74907389 76.17370637 -100.16442871 76.13378906 C-100.99218625 76.13132751 -101.81994378 76.12886597 -102.67278488 76.12632982 C-106.82565055 76.1139547 -110.97851597 76.10149827 -115.13138127 76.08900142 C-149.55073407 75.98553138 -183.97011094 75.89629597 -218.38952637 75.81640625 C-215.11056636 73.29036542 -211.83234386 71.41329393 -208.12263489 69.55934143 C-207.49670022 69.24516689 -206.87076555 68.93099234 -206.22586316 68.60729736 C-204.13296839 67.55803758 -202.03726929 66.51450912 -199.94152832 65.47094727 C-198.4381499 64.71872144 -196.93494475 63.96614922 -195.43190002 63.21325684 C-191.35084452 61.17030572 -187.26730645 59.13236347 -183.18325448 57.09541059 C-178.90468297 54.96052043 -174.62822392 52.8214067 -170.35148621 50.68284607 C-163.16443677 47.08978969 -155.9758451 43.49983466 -148.78625488 39.91186523 C-140.48780808 35.77049143 -132.19144857 31.62496157 -123.89628631 27.47701317 C-115.05297786 23.05502035 -106.20814602 18.63608141 -97.36286902 14.21802783 C-94.82137268 12.9483425 -92.28015898 11.67809302 -89.73900795 10.40771675 C-85.73365983 8.40554747 -81.72729046 6.40543605 -77.72014427 4.40686798 C-76.25453916 3.67551775 -74.78926429 2.94350526 -73.32435608 2.21076012 C-48.23687949 -10.33607427 -25.15587253 -17.11286487 0 0 Z " fill="#40C3FE" transform="translate(310.3895263671875,15.18359375)"/>
<path d="M0 0 C1.45153714 -0.00483667 1.45153714 -0.00483667 2.93239826 -0.00977105 C4.0082388 -0.00822245 5.08407933 -0.00667385 6.1925211 -0.00507832 C7.32563097 -0.00734387 8.45874085 -0.00960943 9.62618738 -0.01194364 C13.45540204 -0.0183166 17.2845816 -0.01745216 21.113801 -0.01662922 C23.84645823 -0.01907333 26.57911293 -0.02299221 29.31176853 -0.02680683 C35.98524817 -0.03513181 42.65871898 -0.03786257 49.33220338 -0.03841921 C54.75877381 -0.03889382 60.18534132 -0.04094581 65.61191082 -0.04411983 C80.99451795 -0.05293405 96.37711809 -0.0575384 111.75972777 -0.05678936 C112.5899069 -0.0567494 113.42008602 -0.05670945 114.2754221 -0.05666828 C115.10661501 -0.0566274 115.93780793 -0.05658652 116.79418851 -0.0565444 C130.24745615 -0.05613846 143.70069574 -0.06569284 157.15395527 -0.07980665 C170.96504878 -0.09418144 184.77612861 -0.10107612 198.58722979 -0.10021287 C206.34191226 -0.09988112 214.09656538 -0.10261819 221.85124111 -0.11339092 C228.45867712 -0.12251078 235.06607048 -0.12465926 241.67351007 -0.1178815 C245.04282263 -0.1146228 248.41198691 -0.11562877 251.78130245 -0.12323475 C255.44090899 -0.13095979 259.10030192 -0.1263061 262.75990391 -0.11860371 C263.81566795 -0.12374727 264.87143199 -0.12889083 265.95918888 -0.13419026 C274.72465022 -0.09352022 282.77259719 1.05314272 290.86013889 4.56613445 C292.30840061 5.18295086 292.30840061 5.18295086 293.78592014 5.8122282 C296.48880671 7.10059139 299.00966256 8.54297711 301.54763889 10.12863445 C297.47808866 11.4851512 295.69872254 10.28166138 291.73513889 8.75363445 C283.35017124 5.53625137 276.13664834 4.98065671 267.2476511 4.98387432 C265.53311131 4.97858405 265.53311131 4.97858405 263.78393435 4.97318691 C259.95158437 4.96250705 256.11925925 4.95882023 252.28689671 4.95505047 C249.54052048 4.94930317 246.79414884 4.94203779 244.04777622 4.9347868 C238.13342963 4.91986793 232.21908429 4.90831488 226.3047266 4.898839 C217.75140656 4.88495599 209.19811595 4.86376803 200.64481708 4.84041046 C186.76428673 4.80251824 172.8837511 4.76754335 159.0032053 4.73581219 C157.75750946 4.73296145 157.75750946 4.73296145 156.48664805 4.73005312 C144.68804314 4.70319222 132.88943405 4.67932295 121.0908204 4.65666812 C119.84330542 4.65427217 119.84330542 4.65427217 118.57058811 4.65182781 C117.73992349 4.65023435 116.90925887 4.64864088 116.0534226 4.64699913 C102.21958926 4.62026317 88.3857876 4.58588148 74.55198836 4.54517406 C66.01589862 4.52036415 57.479843 4.50205707 48.94372287 4.49201845 C43.10118676 4.48464604 37.25869649 4.47014822 31.41619071 4.44995422 C28.04177077 4.43852754 24.66748981 4.43151156 21.29304028 4.43096256 C17.64182932 4.42988838 13.99086181 4.4167163 10.33969212 4.40037823 C8.72620786 4.40430351 8.72620786 4.40430351 7.08012795 4.40830809 C5.62190405 4.3980349 5.62190405 4.3980349 4.13422108 4.38755417 C3.29069718 4.38581792 2.44717328 4.38408167 1.57808805 4.38229281 C-0.45236111 4.12863445 -0.45236111 4.12863445 -2.45236111 2.12863445 C-2.78236111 94.52863445 -3.11236111 186.92863445 -3.45236111 282.12863445 C-3.78236111 282.12863445 -4.11236111 282.12863445 -4.45236111 282.12863445 C-4.60264108 246.3479393 -4.74766977 210.56722674 -4.88560871 174.78648183 C-4.90188062 170.56679232 -4.91819623 166.34710298 -4.93453884 162.12741375 C-4.93779177 161.28731331 -4.94104469 160.44721287 -4.94439619 159.58165484 C-4.99724222 145.96058023 -5.05363148 132.33952246 -5.11131931 118.7184676 C-5.1703888 104.75265296 -5.22567587 90.78682708 -5.27741665 76.82098335 C-5.30949003 68.19621615 -5.34454989 59.57147154 -5.38337301 50.94673204 C-5.4096765 45.04064034 -5.43232181 39.13454185 -5.45203228 33.2284245 C-5.46353137 29.81570926 -5.4766989 26.40302092 -5.49419117 22.9903307 C-5.51227428 19.2991316 -5.52427197 15.60796321 -5.53465176 11.91673565 C-5.54145555 10.82629202 -5.54825934 9.73584839 -5.5552693 8.61236101 C-5.55676165 7.63153581 -5.558254 6.6507106 -5.55979156 5.64016342 C-5.56320905 4.78693184 -5.56662653 3.93370026 -5.57014757 3.05461317 C-5.3419155 -0.67731064 -3.22509307 0.00269899 0 0 Z " fill="#2C7BB4" transform="translate(95.45236110687256,90.87136554718018)"/>
<path d="M0 0 C1.32 0.66 2.64 1.32 4 2 C4 69.98 4 137.96 4 208 C-25.7 208 -55.4 208 -86 208 C-86.99 206.68 -87.98 205.36 -89 204 C-59.63 204 -30.26 204 0 204 C0 136.68 0 69.36 0 0 Z " fill="#065089" transform="translate(505,211)"/>
<path d="M0 0 C1.485 0.99 1.485 0.99 3 2 C3.37670618 4.00200772 3.37670618 4.00200772 3.37917423 6.51738358 C3.38739738 7.47414907 3.39562052 8.43091456 3.40409285 9.41667295 C3.39788103 10.47519932 3.39166922 11.53372569 3.38526917 12.62432861 C3.39050486 13.74321999 3.39574056 14.86211137 3.40113491 16.01490855 C3.41518092 19.79031998 3.40777322 23.56539376 3.40063477 27.34082031 C3.40637301 30.03759008 3.41330688 32.73433137 3.42178345 35.43109131 C3.43779014 41.25328428 3.44303121 47.07540762 3.44125557 52.89762115 C3.43887375 61.33086634 3.45485345 69.76400023 3.47570812 78.19721636 C3.50927396 91.89872205 3.53090676 105.60021781 3.54370117 119.30175781 C3.54447066 120.12236414 3.54524015 120.94297047 3.54603296 121.78844365 C3.54913456 125.11243501 3.55221739 128.43642638 3.555273 131.76041777 C3.56378393 140.88487735 3.5746895 150.00933343 3.58666992 159.13378906 C3.58773794 159.94975875 3.58880596 160.76572844 3.58990634 161.60642448 C3.60803762 175.24130046 3.63405738 188.876153 3.66480106 202.51100612 C3.68330349 210.91475416 3.69426763 219.31844941 3.69532298 227.72221813 C3.69643168 233.49245234 3.70443366 239.26265052 3.71770663 245.03286949 C3.72508118 248.35609797 3.72814655 251.67918145 3.72458839 255.00242615 C3.43086741 278.29503935 3.43086741 278.29503935 9.09765625 300.6953125 C9.9169095 302.7877775 10.51058316 304.81023807 11 307 C6.90802769 304.1301268 5.06856886 301.76589326 3.25 297.125 C2.84265625 296.11695313 2.4353125 295.10890625 2.015625 294.0703125 C-0.24488899 287.23660483 -0.13926262 280.58111801 -0.12025452 273.45877075 C-0.12110894 272.28983178 -0.12196337 271.12089281 -0.12284368 269.91653144 C-0.12420422 266.68062404 -0.12108571 263.44475685 -0.11606562 260.2088542 C-0.11174206 256.71608451 -0.1132089 253.22331666 -0.1139679 249.73054504 C-0.11449192 243.68195274 -0.11135778 237.63337123 -0.10573006 231.58478165 C-0.09759865 222.83956641 -0.09499815 214.09435638 -0.09374207 205.34913777 C-0.09155413 191.16016441 -0.08490104 176.9711968 -0.07543945 162.78222656 C-0.06625866 149.00000029 -0.05918109 135.21777559 -0.05493164 121.43554688 C-0.05466892 120.58582948 -0.05440619 119.73611208 -0.05413551 118.86064567 C-0.05283046 114.59780918 -0.05156675 110.33497267 -0.05032361 106.07213616 C-0.03995904 70.71475334 -0.02234773 35.3573772 0 0 Z " fill="#54C4F8" transform="translate(92,92)"/>
<path d="M0 0 C3.0831351 1.19899698 6.06279492 2.47700477 9 4 C6 5 6 5 2.8125 3.5625 C1.884375 3.046875 0.95625 2.53125 0 2 C0 1.34 0 0.68 0 0 Z " fill="#2C84BE" transform="translate(388,97)"/>
</svg>
