<?xml version="1.0" standalone="no"?>
<!DOCTYPE svg PUBLIC "-//W3C//DTD SVG 20010904//EN"
 "http://www.w3.org/TR/2001/REC-SVG-20010904/DTD/svg10.dtd">
<svg version="1.0" xmlns="http://www.w3.org/2000/svg"
 width="200.000000pt" height="200.000000pt" viewBox="0 0 200.000000 200.000000"
 preserveAspectRatio="xMidYMid meet">

<g transform="translate(0.000000,200.000000) scale(0.100000,-0.100000)"
fill="#000000" stroke="none">
<path d="M123 1770 c-65 -39 -63 -22 -63 -632 0 -537 1 -554 20 -586 36 -59
54 -62 410 -62 l320 0 0 -99 0 -100 -51 -3 c-59 -3 -82 -25 -63 -55 10 -17 37
-18 324 -18 287 0 314 1 324 17 21 34 -4 53 -73 56 l-61 3 0 99 0 100 310 0
c345 0 364 3 400 62 19 32 20 49 20 586 0 610 2 593 -63 632 -31 19 -57 20
-877 20 -820 0 -846 -1 -877 -20z m1718 -70 c18 -10 19 -26 19 -440 l0 -430
-860 0 -860 0 0 424 c0 373 2 426 16 440 14 14 104 16 840 16 550 0 832 -3
845 -10z m19 -1024 c0 -54 -4 -79 -16 -90 -14 -14 -104 -16 -844 -16 -740 0
-830 2 -844 16 -12 11 -16 36 -16 90 l0 74 860 0 860 0 0 -74z m-730 -286 l0
-100 -120 0 -120 0 0 100 0 100 120 0 120 0 0 -100z"/>
</g>
</svg>
