<svg xmlns="http://www.w3.org/2000/svg" xmlns:xlink="http://www.w3.org/1999/xlink" width="1080" zoomAndPan="magnify" viewBox="0 0 810 809.999993" height="1080" preserveAspectRatio="xMidYMid meet" version="1.0"><path fill="#000000" d="M 39.511719 124.339844 C 26.085938 127.390625 12.046875 141.125 8.386719 154.550781 C 4.417969 168.585938 4.417969 636.980469 8.386719 653.457031 C 9.914062 660.171875 15.40625 669.632812 20.59375 674.820312 L 29.746094 684.277344 L 403.242188 685.195312 L 776.734375 685.804688 L 786.5 677.566406 C 805.417969 661.699219 804.808594 672.378906 804.808594 404.460938 C 804.808594 167.0625 804.503906 159.433594 798.707031 147.226562 C 795.351562 140.511719 788.332031 132.273438 782.839844 128.917969 C 773.074219 122.816406 765.445312 122.816406 411.175781 122.203125 C 212.222656 122.203125 45.003906 122.816406 39.511719 124.339844 Z M 725.167969 169.195312 C 725.167969 170.722656 713.875 180.488281 700.144531 191.472656 C 686.71875 202.457031 617.144531 259.214844 545.4375 317.496094 C 474.035156 376.082031 412.699219 425.210938 409.039062 427.042969 C 403.242188 429.789062 386.457031 416.972656 245.175781 301.324219 C 158.515625 230.53125 86.808594 171.332031 85.894531 169.808594 C 84.976562 168.28125 220.765625 167.0625 404.765625 167.0625 C 581.140625 167.0625 725.472656 167.976562 725.167969 169.195312 Z M 169.5 297.96875 C 217.105469 337.023438 255.550781 369.980469 254.941406 371.507812 C 254.027344 373.640625 93.214844 554.285156 67.277344 582.054688 L 54.15625 595.785156 L 53.851562 413.3125 C 53.546875 313.222656 53.546875 229.003906 53.546875 226.5625 C 53.546875 224.121094 53.546875 217.714844 53.851562 212.527344 L 54.15625 203.066406 L 68.804688 214.96875 C 76.738281 221.679688 121.898438 258.910156 169.5 297.96875 Z M 759.039062 398.664062 C 759.039062 505.769531 757.816406 591.515625 756.292969 592.429688 C 754.765625 593.34375 708.6875 543.914062 653.761719 482.273438 C 557.339844 374.253906 554.285156 370.589844 559.78125 365.097656 C 573.207031 351.367188 751.714844 207.035156 755.375 207.035156 C 758.121094 206.730469 759.039062 247.007812 759.039062 398.664062 Z M 337.941406 435.890625 C 362.351562 456.03125 385.542969 474.035156 389.816406 475.867188 C 394.085938 477.390625 403.242188 478.304688 410.257812 477.390625 C 420.941406 476.171875 429.789062 470.371094 469.152344 438.332031 C 494.480469 417.582031 516.449219 400.496094 517.976562 400.496094 C 520.722656 400.496094 729.132812 632.402344 730.964844 637.285156 C 731.574219 638.8125 584.800781 640.03125 405.070312 640.03125 C 81.011719 640.03125 77.960938 640.03125 81.925781 633.929688 C 88.027344 625.386719 290.339844 399.273438 292.167969 399.273438 C 293.085938 398.96875 313.527344 415.445312 337.941406 435.890625 Z M 337.941406 435.890625 " fill-opacity="1" fill-rule="nonzero"/></svg>