<?xml version="1.0" standalone="no"?>
<!DOCTYPE svg PUBLIC "-//W3C//DTD SVG 20010904//EN"
 "http://www.w3.org/TR/2001/REC-SVG-20010904/DTD/svg10.dtd">
<svg version="1.0" xmlns="http://www.w3.org/2000/svg"
 width="350.000000pt" height="350.000000pt" viewBox="0 0 350.000000 350.000000"
 preserveAspectRatio="xMidYMid meet">

<g transform="translate(0.000000,350.000000) scale(0.100000,-0.100000)"
fill="#000000" stroke="none">
<path d="M552 2670 c-44 -10 -90 -55 -102 -99 -13 -46 -13 -1581 0 -1635 5
-22 23 -53 40 -70 l30 -31 1224 -3 1224 -2 32 27 c62 52 60 17 60 895 0 778
-1 803 -20 843 -11 22 -34 49 -52 60 -32 20 -57 20 -1218 22 -652 0 -1200 -2
-1218 -7z m2247 -147 c0 -5 -37 -37 -82 -73 -44 -36 -272 -222 -507 -413 -234
-192 -435 -353 -447 -359 -19 -9 -74 33 -537 412 -284 232 -519 426 -522 431
-3 5 442 9 1045 9 578 0 1051 -3 1050 -7z m-1821 -422 c156 -128 282 -236 280
-241 -3 -7 -530 -599 -615 -690 l-43 -45 -1 598 c-1 328 -1 604 -1 612 0 8 0
29 1 46 l1 31 48 -39 c26 -22 174 -144 330 -272z m1932 -330 c0 -351 -4 -632
-9 -635 -5 -3 -156 159 -336 361 -316 354 -326 366 -308 384 44 45 629 518
641 518 9 1 12 -131 12 -628z m-1380 -122 c80 -66 156 -125 170 -131 14 -5 44
-8 67 -5 35 4 64 23 193 128 83 68 155 124 160 124 9 0 692 -760 698 -776 2
-5 -479 -9 -1068 -9 -1062 0 -1072 0 -1059 20 20 28 683 769 689 769 3 1 70
-53 150 -120z"/>
</g>
</svg>
