<?xml version="1.0" encoding="UTF-8"?>
<svg version="1.1" xmlns="http://www.w3.org/2000/svg" width="185" height="185">
<path d="M0 0 C2.41788884 0.87260441 3.34393584 1.78707524 4.99072266 3.74023438 C5.7818042 4.66570068 5.7818042 4.66570068 6.58886719 5.60986328 C7.41620361 6.60638916 7.41620361 6.60638916 8.26025391 7.62304688 C8.83759277 8.30415527 9.41493164 8.98526367 10.00976562 9.68701172 C14.01016815 14.42225023 17.94796353 19.20966968 21.84619141 24.02929688 C23.84870113 26.47446665 25.89169296 28.87927625 27.95214844 31.27563477 C34.50051781 38.9076228 40.64593315 46.82094266 46.66894531 54.87255859 C47.85175653 56.45279438 49.0450526 58.02517435 50.24072266 59.59570312 C59.7651529 72.52622101 64.65757744 86.52045924 64.51025391 102.49804688 C64.49889404 104.22003296 64.49889404 104.22003296 64.48730469 105.97680664 C64.11123719 125.35526267 56.4484234 139.75231992 43.20947266 153.71289062 C30.24642504 165.95422681 13.80156687 171.53290315 -3.80224609 171.31054688 C-5.02878906 171.30031494 -6.25533203 171.29008301 -7.51904297 171.27954102 C-16.84964451 171.06112574 -24.47451975 169.92656443 -32.92724609 165.74804688 C-33.96236328 165.25175781 -34.99748047 164.75546875 -36.06396484 164.24414062 C-53.69901655 154.87340252 -65.09795898 139.66720639 -70.92724609 120.74804688 C-74.43114019 105.6870307 -73.58635649 87.7603158 -66.92724609 73.74804688 C-66.48767578 72.66007812 -66.04810547 71.57210937 -65.59521484 70.45117188 C-63.92724609 67.74804688 -63.92724609 67.74804688 -61.46630859 66.68945312 C-43.67192694 64.37570645 -43.67192694 64.37570645 -36.92724609 67.74804688 C-36.91306641 67.07902344 -36.89888672 66.41 -36.88427734 65.72070312 C-35.61275837 40.11849685 -22.29968455 17.69441627 -3.68115234 0.72460938 C-1.92724609 -0.25195312 -1.92724609 -0.25195312 0 0 Z " fill="#DD2C00" transform="translate(95.92724609375,7.251953125)"/>
<path d="M0 0 C11.09038413 10.10007533 17.58596178 22.53377443 18.39477539 37.58325195 C18.60912373 46.57344242 16.67918437 53.6398651 13.03930664 61.80664062 C11.71850241 64.82034747 11.71850241 64.82034747 11.75415039 67.20898438 C13.49174363 70.22123543 16.20356346 71.94500804 19.01196289 73.87695312 C19.62894043 74.31056152 20.24591797 74.74416992 20.8815918 75.19091797 C27.19622122 79.51615972 33.87607227 82.87537415 40.82446289 86.06445312 C34.75358598 92.13533004 23.61351992 92.57616095 15.48657227 92.67163086 C14.31932617 92.65688721 13.15208008 92.64214355 11.94946289 92.62695312 C10.72291992 92.61672119 9.49637695 92.60648926 8.23266602 92.59594727 C-1.09793553 92.37753199 -8.72281077 91.24297068 -17.17553711 87.06445312 C-18.2106543 86.56816406 -19.24577148 86.071875 -20.31225586 85.56054688 C-37.94730757 76.18980877 -49.34625 60.98361264 -55.17553711 42.06445312 C-58.6794312 27.00343695 -57.83464751 9.07672205 -51.17553711 -4.93554688 C-50.7359668 -6.02351563 -50.29639648 -7.11148438 -49.84350586 -8.23242188 C-48.17553711 -10.93554688 -48.17553711 -10.93554688 -45.71459961 -11.99414062 C-28.78155609 -14.19589025 -13.34772349 -11.18975694 0 0 Z " fill="#FEC300" transform="translate(80.175537109375,85.935546875)"/>
<path d="M0 0 C15.15097611 4.76562565 25.88570157 12.8135579 33.55859375 26.984375 C38.82038089 37.99277519 40.58545191 51.82400033 36.6171875 63.57421875 C35.82137729 65.70769264 34.97364973 67.79384897 34.04711914 69.8737793 C32.95613801 72.32296633 32.0183252 74.44108144 31.9296875 77.14453125 C33.66728074 80.15678231 36.37910057 81.88055491 39.1875 83.8125 C39.80447754 84.2461084 40.42145508 84.6797168 41.05712891 85.12646484 C47.37175833 89.45170659 54.05160938 92.81092102 61 96 C54.82740975 102.17259025 43.62658359 102.49353509 35.39257812 102.49804688 C34.21115234 102.47806641 33.02972656 102.45808594 31.8125 102.4375 C30.02295898 102.44813477 30.02295898 102.44813477 28.19726562 102.45898438 C21.33735122 102.40995805 14.22227161 102.22889552 8 99 C7.67 98.01 7.34 97.02 7 96 C7.64066406 95.70867187 8.28132813 95.41734375 8.94140625 95.1171875 C17.86708262 90.88713521 23.56577124 86.23367993 29 78 C27.56192592 74.73695882 25.76261966 72.51277312 23.3125 69.9375 C13.0699941 58.60221318 6.18764349 44.6164864 2 30 C1.6596875 28.87464844 1.6596875 28.87464844 1.3125 27.7265625 C-0.95308192 18.75863405 -0.17367626 9.17812225 0 0 Z " fill="#FE9000" transform="translate(60,76)"/>
</svg>
