<?xml version="1.0" encoding="UTF-8"?>
<svg version="1.1" xmlns="http://www.w3.org/2000/svg" width="512" height="512">
<path d="M0 0 C-5.29330223 6.42089281 -11.12342486 12.26070076 -17.00973511 18.12998962 C-18.13294766 19.25363871 -19.25594026 20.37750771 -20.3787328 21.50157648 C-23.45276232 24.57783496 -26.52988923 27.65097852 -29.60754395 30.72360957 C-32.93034694 34.04208525 -36.25025038 37.36345955 -39.57051086 40.68447876 C-45.31953204 46.43402372 -51.0703781 52.18173812 -56.82247543 57.92820549 C-65.13899228 66.23658771 -73.45273924 74.54773706 -81.76581754 82.8595596 C-95.25403179 96.34558643 -108.74447668 109.82937959 -122.23632812 123.31176758 C-135.34069123 136.40694859 -148.44400135 149.50318177 -161.54589844 162.60083008 C-162.3537979 163.40846682 -163.16169736 164.21610355 -163.99407862 165.04821413 C-168.04715533 169.09998578 -172.10021137 173.15177812 -176.15325713 177.20358074 C-209.76563337 210.80559397 -243.38163142 244.4039821 -277 278 C-281.10444852 276.11051595 -283.9114135 273.35627449 -287.05371094 270.17333984 C-287.9470388 269.28045006 -287.9470388 269.28045006 -288.8584137 268.36952209 C-290.82184643 266.40469823 -292.77810373 264.43288961 -294.734375 262.4609375 C-296.0958564 261.09572521 -297.45778061 259.73095439 -298.82012939 258.36660767 C-302.40183824 254.77726841 -305.9774999 251.1819632 -309.55194092 247.58538818 C-313.20157121 243.91528681 -316.85688092 240.25085171 -320.51171875 236.5859375 C-327.68005329 229.39616348 -334.842013 222.20007484 -342 215 C-340.62488901 211.97359779 -339.02816183 209.68967535 -336.8189764 207.21254349 C-336.15955199 206.46958283 -335.50012758 205.72662217 -334.82072061 204.96114755 C-333.72996417 203.74713946 -333.72996417 203.74713946 -332.61717224 202.50860596 C-331.45869163 201.21103509 -331.45869163 201.21103509 -330.27680737 199.88725066 C-328.12898506 197.4866141 -325.97638608 195.09039511 -323.820315 192.69716668 C-322.44008476 191.16471903 -321.06140226 189.6308903 -319.68292618 188.0968647 C-302.01951542 168.45361381 -283.9809006 149.16954387 -265.77953365 130.02467133 C-262.77933479 126.86856956 -259.78197433 123.70978567 -256.78637695 120.54931641 C-256.19032628 119.9205587 -255.59427562 119.29180098 -254.98016281 118.64399001 C-246.64987928 109.84431561 -238.4946784 100.90925771 -230.46126898 91.83808774 C-216.59305993 76.17846132 -202.4386251 60.84621831 -187.68359375 46.015625 C-186.82439926 45.15003082 -186.82439926 45.15003082 -185.94784731 44.26694989 C-130.90424772 -11.02499382 -74.33486596 -12.87223995 0 0 Z " fill="#3FC3FF" transform="translate(406,42)"/>
<path d="M0 0 C1.08285711 0.07293368 1.08285711 0.07293368 2.18759012 0.14734077 C20.72358491 1.41890687 39.0504142 3.72327909 57.3125 7.1875 C52.08607017 13.5213126 46.34466033 19.29012848 40.53369141 25.07983398 C39.44886134 26.16438155 38.36425228 27.24915022 37.27984619 28.3341217 C34.35277701 31.26147637 31.42264724 34.18574972 28.49193621 37.10945773 C25.42319378 40.1719251 22.35730583 43.23724749 19.29110718 46.30226135 C13.49217697 52.09809045 7.69070362 57.89136692 1.8883003 63.68371874 C-4.72070945 70.28152938 -11.3268609 76.8821988 -17.93278003 83.48310363 C-31.51452048 97.05440733 -45.099826 110.62213714 -58.6875 124.1875 C-57.14393008 127.85992692 -54.92736952 130.1919306 -52.11911011 132.9896698 C-51.65187629 133.4579069 -51.18464247 133.92614401 -50.70325005 134.40857011 C-49.13874141 135.97403026 -47.56720258 137.53223485 -45.99560547 139.09057617 C-44.8717354 140.21224477 -43.74831292 141.33436197 -42.62530518 142.45689392 C-40.20767495 144.87159181 -37.78692298 147.28310024 -35.36370468 149.69219017 C-31.53594087 153.49770283 -27.71526417 157.31027743 -23.89553833 161.12385559 C-17.85742451 167.15059006 -11.81465477 173.1726313 -5.76984608 179.19265014 C5.06692777 189.98506592 15.89808224 200.7831145 26.72408378 211.58633596 C30.52659619 215.38041586 34.33189882 219.17166905 38.13943124 222.96071088 C40.50089486 225.31157173 42.86036158 227.6644291 45.2193222 230.01780128 C46.31820471 231.11319784 47.41795854 232.20772106 48.51861954 233.30133057 C50.01404853 234.78738479 51.50643482 236.27642778 52.99807739 237.76628113 C53.83615496 238.60083926 54.67423252 239.4353974 55.53770638 240.29524517 C57.3125 242.1875 57.3125 242.1875 57.3125 243.1875 C38.36484457 246.85638266 19.36506733 249.17542461 0.125 250.5 C-0.59154802 250.55081348 -1.30809604 250.60162697 -2.04635763 250.65398026 C-40.14781649 253.28157865 -70.53949534 248.49339977 -99.99758333 222.84031337 C-113.49079645 210.84053861 -126.03436341 197.97256134 -138.25 184.6875 C-138.89419876 183.98857525 -139.53839751 183.28965051 -140.20211744 182.56954622 C-157.00894596 164.31006614 -173.15208968 145.53912535 -188.6875 126.1875 C-186.12626681 120.51573373 -181.8609748 115.95981799 -177.95092773 111.17675781 C-177.49896951 110.62321511 -177.04701129 110.0696724 -176.58135736 109.49935567 C-163.92355826 94.04017654 -150.67246414 79.11973407 -137.125 64.4375 C-136.49844875 63.75642921 -135.8718975 63.07535842 -135.22635984 62.37364912 C-94.54848414 18.24422969 -61.16768574 -4.23497681 0 0 Z " fill="#3FC3FF" transform="translate(348.6875,226.8125)"/>
<path d="M0 0 C3.68719861 1.54808808 6.03419708 3.78514424 8.84686279 6.59962463 C9.31988901 7.07023644 9.79291523 7.54084824 10.28027558 8.02572101 C11.86188706 9.60170285 13.43625715 11.18472312 15.01074219 12.76782227 C16.14390075 13.89990779 17.27749215 15.03156021 18.41148376 16.16281128 C21.48805875 19.2345395 24.55834854 22.31248034 27.62742138 25.39170194 C30.83656754 28.60962676 34.05097966 31.82228334 37.26470947 35.03562927 C42.6582421 40.43009832 48.04788741 45.82842655 53.43505859 51.22924805 C59.67224358 57.48217821 65.91465964 63.72984651 72.1600883 69.9745422 C78.16077207 75.97461673 84.15859888 81.97753816 90.1548233 87.98206902 C92.71067181 90.54145695 95.26737588 93.09998577 97.82472992 95.65786934 C100.83118886 98.66532907 103.83509775 101.67531278 106.83700752 104.68731308 C107.94235335 105.79559186 109.04855924 106.90301357 110.15566063 108.00953865 C111.65979011 109.51318118 113.16083164 111.01983743 114.66107178 112.52735901 C115.50392605 113.37188912 116.34678032 114.21641924 117.21517563 115.08654118 C119 117 119 117 119 118 C98.62140793 119.61629021 78.24411127 120.69844365 57.8125 121.3125 C57.06815657 121.33551807 56.32381314 121.35853615 55.55691385 121.38225174 C-11.51123338 123.40127846 -11.51123338 123.40127846 -34.35438538 102.68049622 C-38.0120529 99.16057449 -41.33479691 95.41436349 -44.5625 91.5 C-45.08583797 90.86623569 -45.60917595 90.23247139 -46.14837265 89.57950211 C-52.47373036 81.80402834 -58.04302621 73.71819129 -63 65 C-61.36256066 60.82384201 -58.30218208 58.0351847 -55.17333984 54.94628906 C-54.57807999 54.35073715 -53.98282013 53.75518524 -53.36952209 53.1415863 C-51.40469823 51.17815357 -49.43288961 49.22189627 -47.4609375 47.265625 C-46.09572521 45.9041436 -44.73095439 44.54221939 -43.36660767 43.17987061 C-39.77726841 39.59816176 -36.1819632 36.0225001 -32.58538818 32.44805908 C-28.91528681 28.79842879 -25.25085171 25.14311908 -21.5859375 21.48828125 C-14.39616348 14.31994671 -7.20007484 7.157987 0 0 Z " fill="#01569A" transform="translate(287,352)"/>
<path d="M0 0 C4.17615799 1.63743934 6.9648153 4.69781792 10.05371094 7.82666016 C10.9470388 8.71954994 10.9470388 8.71954994 11.8584137 9.63047791 C13.82184643 11.59530177 15.77810373 13.56711039 17.734375 15.5390625 C19.0958564 16.90427479 20.45778061 18.26904561 21.82012939 19.63339233 C25.40183824 23.22273159 28.9774999 26.8180368 32.55194092 30.41461182 C36.20157121 34.08471319 39.85688092 37.74914829 43.51171875 41.4140625 C50.68005329 48.60383652 57.842013 55.79992516 65 63 C61.17599988 67.56964892 57.22181138 71.92089744 52.99462891 76.11889648 C52.42804565 76.68562576 51.8614624 77.25235504 51.27770996 77.83625793 C49.42969132 79.68358747 47.57817097 81.52736301 45.7265625 83.37109375 C44.43454448 84.66124403 43.14274904 85.95161724 41.85116577 87.24220276 C38.47012957 90.61944189 35.08609986 93.99366562 31.70141602 97.36724854 C28.24052041 100.81786929 24.78249457 104.27136338 21.32421875 107.72460938 C14.55226856 114.48587186 7.77714917 121.24394899 1 128 C-3.53520306 124.20301491 -7.86013997 120.28288646 -12.02709961 116.08642578 C-12.58407532 115.5295961 -13.14105103 114.97276642 -13.71490479 114.39906311 C-15.52976899 112.58351 -17.34107911 110.76445606 -19.15234375 108.9453125 C-20.42007374 107.67571469 -21.68802673 106.40633952 -22.95619202 105.13717651 C-26.27424776 101.81532426 -29.58928789 98.49047867 -32.90368652 95.16497803 C-36.29398355 91.76440491 -39.68715506 88.36670263 -43.08007812 84.96875 C-49.72285162 78.31528981 -56.36243946 71.65866041 -63 65 C-61.36256066 60.82384201 -58.30218208 58.0351847 -55.17333984 54.94628906 C-54.57807999 54.35073715 -53.98282013 53.75518524 -53.36952209 53.1415863 C-51.40469823 51.17815357 -49.43288961 49.22189627 -47.4609375 47.265625 C-46.09572521 45.9041436 -44.73095439 44.54221939 -43.36660767 43.17987061 C-39.77726841 39.59816176 -36.1819632 36.0225001 -32.58538818 32.44805908 C-28.91528681 28.79842879 -25.25085171 25.14311908 -21.5859375 21.48828125 C-14.39616348 14.31994671 -7.20007484 7.157987 0 0 Z " fill="#03A9F4" transform="translate(223,288)"/>
<path d="M0 0 C3.19771119 1.5988556 4.66449155 2.41598693 7.02441406 4.79736328 C7.58469299 5.35779327 8.14497192 5.91822327 8.722229 6.49563599 C9.31404968 7.09777924 9.90587036 7.69992249 10.515625 8.3203125 C11.13145447 8.93897186 11.74728394 9.55763123 12.3817749 10.19503784 C14.34260336 12.16703814 16.29635301 14.14588737 18.25 16.125 C19.58026799 17.46530164 20.910992 18.80515083 22.2421875 20.14453125 C25.5001015 23.42446589 28.75168533 26.71055942 32 30 C29.12950179 32.87049821 25.61022993 33.65414211 21.83422852 34.9050293 C20.9901947 35.18978119 20.14616089 35.47453308 19.27655029 35.76791382 C16.47938627 36.70958663 13.67932704 37.64227956 10.87890625 38.57421875 C8.93830105 39.22367706 6.99778603 39.87340489 5.05735779 40.52339172 C0.98743031 41.88501336 -3.08402025 43.24196169 -7.15649414 44.59594727 C-12.38351367 46.33442112 -17.6058574 48.0864977 -22.82705593 49.84236431 C-26.83373981 51.1877302 -30.84315288 52.52480546 -34.85341072 53.85947609 C-36.78052594 54.50219091 -38.70669295 55.14775594 -40.63189507 55.79617882 C-43.32010157 56.70044051 -46.01184912 57.59324183 -48.70483398 58.4831543 C-49.90421349 58.8905912 -49.90421349 58.8905912 -51.12782288 59.30625916 C-56.65741805 61.11419398 -56.65741805 61.11419398 -60 60 C-40.2 40.2 -20.4 20.4 0 0 Z " fill="#074994" transform="translate(288,353)"/>
</svg>
