<?xml version="1.0" encoding="UTF-8"?>
<svg version="1.1" xmlns="http://www.w3.org/2000/svg" width="512" height="412">
<path d="M0 0 C0.90266602 0.20898926 1.80533203 0.41797852 2.73535156 0.63330078 C54.39764471 13.0601767 98.26980955 47.11958568 126 92 C134.57092815 106.04033969 142.03138434 120.92945948 145.625 137.0625 C147.64612631 143.9870545 152.42376726 147.0083128 158.00390625 151.00390625 C182.32083544 168.64253827 199.51011118 197.24707955 207 226 C207.3088916 227.12897705 207.3088916 227.12897705 207.62402344 228.28076172 C213.25900097 249.61444837 213.63748789 275.60471464 208 297 C207.82839355 297.68336426 207.65678711 298.36672852 207.47998047 299.07080078 C201.56773187 322.35523293 190.43435678 343.42175894 174 361 C173.50274414 361.53963379 173.00548828 362.07926758 172.49316406 362.63525391 C160.24509488 375.81448545 146.09144572 385.96419788 130 394 C129.34 394 128.68 394 128 394 C127.67 394.99 127.34 395.98 127 397 C125.68 397 124.36 397 123 397 C121.06787308 397.62284938 121.06787308 397.62284938 119.25 398.5 C118.1775 398.995 117.105 399.49 116 400 C116 400.66 116 401.32 116 402 C115.01 401.67 114.02 401.34 113 401 C110.64811553 401.59793673 108.31074405 402.25881795 106 403 C106 403.66 106 404.32 106 405 C105.071875 404.979375 104.14375 404.95875 103.1875 404.9375 C98.0995312 404.92703093 93.05713755 405.4878848 88 406 C88 406.66 88 407.32 88 408 C54.51293668 408.09170159 21.02590479 408.16211269 -12.46125636 408.20426132 C-16.42127397 408.20926371 -20.38129134 408.21444104 -24.34130859 408.21972656 C-25.12962454 408.2207758 -25.91794049 408.22182505 -26.7301448 408.22290608 C-39.46813126 408.24027671 -52.20604497 408.27179582 -64.94398838 408.30861118 C-78.0296047 408.34611392 -91.11518311 408.3682555 -104.20085096 408.37635398 C-112.26519978 408.38182248 -120.32934291 408.39904798 -128.39362836 408.43166587 C-134.59375544 408.45545514 -140.7937281 408.45779644 -146.99389458 408.45243073 C-149.52535195 408.45352549 -152.05681756 408.46140579 -154.58822823 408.4768219 C-168.02329306 408.55458387 -180.15903018 408.2159301 -193 404 C-193.9201162 403.72022938 -194.84023239 403.44045876 -195.7882309 403.15221024 C-198.51748044 402.3203653 -201.21635082 401.41103772 -203.91796875 400.49414062 C-207.48436436 399.10189132 -207.48436436 399.10189132 -211 400 C-211 399.01 -211 398.02 -211 397 C-214.58327753 395.99782936 -214.58327753 395.99782936 -218 397 C-218 396.01 -218 395.02 -218 394 C-219.1446875 393.690625 -219.1446875 393.690625 -220.3125 393.375 C-227.5791798 390.66539058 -233.99389587 386.8799596 -240 382 C-240.99 382 -241.98 382 -243 382 C-243 381.34 -243 380.68 -243 380 C-243.598125 379.731875 -244.19625 379.46375 -244.8125 379.1875 C-246.97779089 378.01205637 -248.27644111 376.72355889 -250 375 C-250.66 375 -251.32 375 -252 375 C-252.39832031 374.31292969 -252.79664063 373.62585938 -253.20703125 372.91796875 C-255.53409097 369.13079313 -258.49078361 366.37068046 -261.6875 363.3125 C-263.84535654 361.24636957 -265.93344344 359.16089295 -268 357 C-268 356.34 -268 355.68 -268 355 C-268.99 354.67 -269.98 354.34 -271 354 C-271.33333333 352.66666667 -271.66666667 351.33333333 -272 350 C-272.99 349.67 -273.98 349.34 -275 349 C-276.46484375 346.7421875 -276.46484375 346.7421875 -277.9375 343.875 C-278.46214844 342.87082031 -278.98679687 341.86664063 -279.52734375 340.83203125 C-280.25630859 339.43017578 -280.25630859 339.43017578 -281 338 C-281.66 336.865625 -282.32 335.73125 -283 334.5625 C-284.82501884 331.3821929 -286.51445644 328.13763364 -288.1875 324.875 C-288.69667969 323.88242187 -289.20585937 322.88984375 -289.73046875 321.8671875 C-291 319 -291 319 -291.55078125 316.1953125 C-291.69902344 315.47085937 -291.84726562 314.74640625 -292 314 C-292.66 313.67 -293.32 313.34 -294 313 C-294 311.35 -294 309.7 -294 308 C-294.66 307.67 -295.32 307.34 -296 307 C-296.57836914 305.16162109 -296.57836914 305.16162109 -297.03515625 302.7734375 C-297.20466797 301.90589844 -297.37417969 301.03835938 -297.54882812 300.14453125 C-297.8030957 298.77361328 -297.8030957 298.77361328 -298.0625 297.375 C-298.23587891 296.48425781 -298.40925781 295.59351563 -298.58789062 294.67578125 C-300.55681072 284.43136178 -301.24153438 274.53743126 -301.25 264.125 C-301.25067474 263.38290283 -301.25134949 262.64080566 -301.25204468 261.8762207 C-301.23624101 250.95248691 -300.80751316 240.6148605 -298 230 C-297.81775879 229.29536621 -297.63551758 228.59073242 -297.44775391 227.86474609 C-294.09120065 215.06946413 -289.42427828 203.35826433 -283.0625 191.75 C-282.65555908 191.00500244 -282.24861816 190.26000488 -281.8293457 189.49243164 C-274.3569139 176.17239612 -263.77833081 165.64151137 -253 155 C-252.07767578 154.01773438 -252.07767578 154.01773438 -251.13671875 153.015625 C-249 151 -249 151 -247.12963867 149.82739258 C-240.51007207 145.56960017 -238.86897579 140.78837814 -236.625 133.4375 C-224.92810795 98.33658363 -202.51192938 60.00795292 -171 39 C-170.34 38.01 -169.68 37.02 -169 36 C-167.09008789 34.953125 -167.09008789 34.953125 -165 34 C-163.84003444 33.2700003 -162.6929629 32.51917247 -161.55859375 31.75 C-137.99044838 15.98769852 -112.8842331 4.66877266 -85 -1 C-83.87416504 -1.24339111 -83.87416504 -1.24339111 -82.72558594 -1.49169922 C-56.42674168 -6.98621843 -26.05275805 -6.08643918 0 0 Z M-56 85 C-56.33 85.99 -56.66 86.98 -57 88 C-58.65 88 -60.3 88 -62 88 C-62.33 87.34 -62.66 86.68 -63 86 C-65.73035701 86.62012519 -68.45920764 87.24590887 -71.1875 87.875 C-72.34088867 88.13603516 -72.34088867 88.13603516 -73.51757812 88.40234375 C-77.50789066 89.32713721 -81.24416199 90.33207194 -85 92 C-85.5762915 92.2460498 -86.15258301 92.49209961 -86.74633789 92.74560547 C-101.89930876 99.27436905 -115.61115998 107.91388406 -127 120 C-127 120.66 -127 121.32 -127 122 C-126.44763672 122.1451001 -125.89527344 122.2902002 -125.32617188 122.43969727 C-94.4409664 130.65037689 -61.40893218 146.36409693 -43 174 C-43.57149447 178.53035007 -46.55580355 180.97758409 -49.66552734 184.05371094 C-50.55096977 184.9470388 -50.55096977 184.9470388 -51.45429993 185.8584137 C-53.40736517 187.82468207 -55.37119975 189.77977501 -57.3359375 191.734375 C-58.69539626 193.09585413 -60.05440938 194.45777837 -61.41299438 195.82012939 C-64.26135917 198.67291775 -67.11508202 201.52020701 -69.97265625 204.36376953 C-73.64056158 208.01456699 -77.2948144 211.67868731 -80.94518089 215.34701157 C-83.74839274 218.16104634 -86.55868892 220.96791818 -89.37120438 223.77265167 C-90.72185347 225.12129548 -92.07026645 226.47218246 -93.4164238 227.82530975 C-95.29569429 229.71217173 -97.1842651 231.58919358 -99.07568359 233.46386719 C-99.63372177 234.02797806 -100.19175995 234.59208893 -100.76670837 235.17329407 C-104.6572035 239 -104.6572035 239 -108 239 C-108.22429687 238.13375 -108.44859375 237.2675 -108.6796875 236.375 C-110.18707098 232.52180674 -112.31041344 229.94057734 -115.125 227 C-115.62 226.475271 -116.115 225.95054199 -116.625 225.40991211 C-126.32864926 215.30561023 -137.02178327 209.81149037 -151 208 C-151 208.66 -151 209.32 -151 210 C-153.31 209.67 -155.62 209.34 -158 209 C-158 208.67 -158 208.34 -158 208 C-162.51617599 207.92345464 -166.59085217 207.89771304 -171 209 C-171 209.99 -171 210.98 -171 212 C-171.33 211.34 -171.66 210.68 -172 210 C-186.22929847 213.24094651 -196.48344202 221.25296758 -204.25 233.375 C-207.25499598 238.43176307 -209.64577764 243.2697368 -211 249 C-211.18046875 249.7321875 -211.3609375 250.464375 -211.546875 251.21875 C-213.4324404 262.79222037 -212.43004301 274.15562388 -208 285 C-207.71125 285.73347656 -207.4225 286.46695313 -207.125 287.22265625 C-201.19304413 300.54307502 -189.88148539 309.13548135 -176.8984375 314.9921875 C-169.59149629 317.53287595 -162.64137322 318.29410633 -154.93855286 318.26742554 C-153.47788148 318.27422221 -153.47788148 318.27422221 -151.98770159 318.28115618 C-148.74541405 318.29375204 -145.50329553 318.29218291 -142.26098633 318.29052734 C-139.92772202 318.29651563 -137.59445969 318.30332187 -135.26119995 318.31088257 C-128.93660379 318.32852006 -122.61206178 318.33323703 -116.2874434 318.33451414 C-112.33153807 318.33593768 -108.37564642 318.34021115 -104.41974449 318.34550858 C-91.31816043 318.36304854 -78.21661032 318.37234975 -65.11501447 318.37084763 C-64.40988929 318.37076772 -63.7047641 318.3706878 -62.97827148 318.37060547 C-61.91927888 318.37048283 -61.91927888 318.37048283 -60.83889248 318.37035771 C-49.40634732 318.36954541 -37.97393408 318.38867243 -26.54142705 318.4168822 C-14.77763607 318.44567828 -3.01390928 318.45941878 8.74991781 318.45769465 C15.34434217 318.45703302 21.938645 318.46281949 28.533041 318.48405075 C34.73918344 318.5034871 40.94503488 318.5035205 47.1511879 318.48901749 C49.42063767 318.48693494 51.69010591 318.49159696 53.95952415 318.5037384 C73.33209189 318.60061605 90.07962168 316.667774 104.875 302.6875 C116.69647702 290.07507425 120.5153026 275.9123813 120.28125 259.140625 C119.76730722 245.10998721 113.18232856 232.50800217 103 223 C102.34 223 101.68 223 101 223 C100.67 222.01 100.34 221.02 100 220 C97.82836481 218.27628921 97.82836481 218.27628921 95.1875 216.75 C94.31480469 216.20859375 93.44210937 215.6671875 92.54296875 215.109375 C90.09928795 213.77893149 90.09928795 213.77893149 87.67578125 214.328125 C86.84626953 214.66070312 86.84626953 214.66070312 86 215 C86 214.01 86 213.02 86 212 C78.98635726 209.58097788 72.39156544 208.45891408 65 208 C65.01571045 207.42781738 65.0314209 206.85563477 65.04760742 206.26611328 C65.61132325 182.4378215 62.7858687 159.66403022 50 139 C49.48953125 138.113125 48.9790625 137.22625 48.453125 136.3125 C43.86750759 128.62613177 38.18082797 122.40157183 32 116 C31.071875 114.99453125 31.071875 114.99453125 30.125 113.96875 C19.95503466 103.21205589 6.1226946 95.33533881 -8 91 C-8.33 91.33 -8.66 91.66 -9 92 C-9.33 91.34 -9.66 90.68 -10 90 C-12.4341596 89.04459247 -12.4341596 89.04459247 -15.3125 88.3125 C-16.76076172 87.90451172 -16.76076172 87.90451172 -18.23828125 87.48828125 C-20.95205711 87.00847647 -22.43665005 87.09278113 -25 88 C-25.33 87.34 -25.66 86.68 -26 86 C-32.47904119 84.79653324 -38.92910587 84.88144907 -45.5 84.9375 C-47.01980469 84.94426758 -47.01980469 84.94426758 -48.5703125 84.95117188 C-51.04693827 84.96285407 -53.52343657 84.97923418 -56 85 Z " fill="#4184F3" transform="translate(301,4)"/>
<path d="M0 0 C0.90266602 0.20898926 1.80533203 0.41797852 2.73535156 0.63330078 C34.26629698 8.21777144 62.48476798 24.03232855 87 45 C85.36934355 49.13625009 82.36776548 51.89956599 79.26513672 54.96191406 C78.67963043 55.5477124 78.09412415 56.13351074 77.49087524 56.73706055 C75.55851644 58.66802839 73.61917484 60.59181947 71.6796875 62.515625 C70.33689544 63.85468611 68.99454487 65.19419009 67.65261841 66.53411865 C64.12246283 70.05664429 60.58634194 73.57312203 57.0489502 77.08837891 C53.43917149 80.67768551 49.83505985 84.27267256 46.23046875 87.8671875 C39.15918442 94.91703318 32.08158587 101.96050337 25 109 C22.06553114 107.58208437 19.56667591 106.01667393 17 104 C16.34 104.33 15.68 104.66 15 105 C14.67 104.01 14.34 103.02 14 102 C13.34 102.33 12.68 102.66 12 103 C12 102.01 12 101.02 12 100 C11.32195312 99.73445313 10.64390625 99.46890625 9.9453125 99.1953125 C5.92426675 97.56342921 1.95771305 95.80594243 -2.00390625 94.03515625 C-4.85395615 92.79094092 -6.85339136 92 -10 92 C-10.99 91.34 -11.98 90.68 -13 90 C-15.13683497 89.29429666 -15.13683497 89.29429666 -17.4375 88.8125 C-18.19933594 88.63332031 -18.96117187 88.45414062 -19.74609375 88.26953125 C-22.12958496 87.9845037 -23.73104204 88.27124585 -26 89 C-26 88.34 -26 87.68 -26 87 C-32.53686384 86.01168844 -38.89577115 85.88116471 -45.5 85.9375 C-47.01980469 85.94426758 -47.01980469 85.94426758 -48.5703125 85.95117188 C-51.04693827 85.96285407 -53.52343657 85.97923418 -56 86 C-56.33 86.66 -56.66 87.32 -57 88 C-58.66611905 88.042721 -60.33382885 88.04063832 -62 88 C-62.33 87.67 -62.66 87.34 -63 87 C-65.80371744 87.51247545 -68.54200407 88.09436908 -71.3125 88.75 C-72.08529297 88.92015625 -72.85808594 89.0903125 -73.65429688 89.265625 C-77.86116231 90.24951786 -80.58436314 91.27999628 -84 94 C-85.32 94 -86.64 94 -88 94 C-91.15024469 95.20666267 -94.08739271 96.8521057 -97.0625 98.4375 C-97.91432861 98.88907471 -98.76615723 99.34064941 -99.64379883 99.8059082 C-106.49546275 103.53506395 -112.23199682 107.72974329 -118 113 C-119.54114838 114.31310854 -121.08277302 115.62565843 -122.625 116.9375 C-125.21449829 119.15538539 -125.21449829 119.15538539 -127 122 C-125.8553125 122.11214844 -124.710625 122.22429687 -123.53125 122.33984375 C-118.99147005 122.91330014 -114.82525922 124.09701502 -110.5 125.5625 C-109.72172852 125.82571045 -108.94345703 126.0889209 -108.14160156 126.36010742 C-83.62577461 134.94561964 -56.45449096 151.96706749 -42 174 C-42.58369454 178.56547015 -45.61506704 181.05106673 -48.74145508 184.16137695 C-49.33989731 184.76828873 -49.93833954 185.3752005 -50.55491638 186.00050354 C-52.53533526 188.00432279 -54.52676604 189.99674482 -56.51953125 191.98828125 C-57.89887181 193.37471986 -59.27791142 194.76145794 -60.65666199 196.14848328 C-63.54758629 199.05285822 -66.44438804 201.95121944 -69.3449707 204.84594727 C-73.06788183 208.56295208 -76.77219515 212.29790444 -80.47189808 216.03799152 C-83.31395186 218.90584128 -86.16734144 221.76219681 -89.02414513 224.61534691 C-90.39527949 225.98817911 -91.76241334 227.36501863 -93.12549782 228.74584389 C-95.02880714 230.6711888 -96.94719875 232.58011022 -98.87036133 234.4855957 C-99.43415497 235.06265259 -99.99794861 235.63970947 -100.5788269 236.23425293 C-104.42341233 239.99687022 -104.42341233 239.99687022 -107.32475281 240.01261902 C-109.96347616 238.41761772 -110.07413769 235.87593859 -111 233 C-112.63772892 230.84995587 -114.21535412 228.94527452 -116.0625 227 C-116.55564697 226.475271 -117.04879395 225.95054199 -117.55688477 225.40991211 C-126.692291 215.93260973 -138.1865589 210.71053562 -151 208 C-151 208.66 -151 209.32 -151 210 C-154.15464799 211.05154933 -155.80737654 210.97975572 -159.0625 210.625 C-159.94035156 210.53476563 -160.81820312 210.44453125 -161.72265625 210.3515625 C-164 210 -164 210 -166 209 C-167.66619446 208.9603287 -169.33391013 208.95615553 -171 209 C-171 209.99 -171 210.98 -171 212 C-171.99 211.67 -172.98 211.34 -174 211 C-174.66 211.66 -175.32 212.32 -176 213 C-178 213 -180 213 -182 213 C-182.33 213.99 -182.66 214.98 -183 216 C-183.66 216 -184.32 216 -185 216 C-197.86414897 222.80572196 -204.76743058 234.08937661 -209.87890625 247.265625 C-213.295022 259.40119705 -211.67842626 273.54760238 -207 285 C-206.71125 285.73347656 -206.4225 286.46695312 -206.125 287.22265625 C-200.71092241 299.38016084 -191.08586098 306.40361736 -180 313 C-185.84234631 320.16084995 -192.44365286 326.56977797 -198.984375 333.08203125 C-200.24918177 334.34496976 -201.51376558 335.6081316 -202.77813721 336.87150574 C-206.08935956 340.17893084 -209.40357385 343.48334166 -212.71844482 346.78710938 C-216.09927459 350.15768036 -219.47725105 353.53110826 -222.85546875 356.90429688 C-228.78004884 362.81932959 -234.70707986 368.73189722 -240.63592529 374.64265442 C-242.09156597 376.09415175 -243.54642952 377.54642952 -245 379 C-245.78375 378.34 -246.5675 377.68 -247.375 377 C-249.71512812 374.79798559 -249.71512812 374.79798559 -252 375 C-252.39832031 374.31292969 -252.79664063 373.62585938 -253.20703125 372.91796875 C-255.53409097 369.13079313 -258.49078361 366.37068046 -261.6875 363.3125 C-263.84535654 361.24636957 -265.93344344 359.16089295 -268 357 C-268 356.34 -268 355.68 -268 355 C-268.99 354.67 -269.98 354.34 -271 354 C-271.33333333 352.66666667 -271.66666667 351.33333333 -272 350 C-272.99 349.67 -273.98 349.34 -275 349 C-276.46484375 346.7421875 -276.46484375 346.7421875 -277.9375 343.875 C-278.46214844 342.87082031 -278.98679687 341.86664063 -279.52734375 340.83203125 C-280.25630859 339.43017578 -280.25630859 339.43017578 -281 338 C-281.66 336.865625 -282.32 335.73125 -283 334.5625 C-284.82501884 331.3821929 -286.51445644 328.13763364 -288.1875 324.875 C-288.69667969 323.88242187 -289.20585937 322.88984375 -289.73046875 321.8671875 C-291 319 -291 319 -291.55078125 316.1953125 C-291.69902344 315.47085937 -291.84726562 314.74640625 -292 314 C-292.66 313.67 -293.32 313.34 -294 313 C-294 311.35 -294 309.7 -294 308 C-294.66 307.67 -295.32 307.34 -296 307 C-296.57836914 305.16162109 -296.57836914 305.16162109 -297.03515625 302.7734375 C-297.20466797 301.90589844 -297.37417969 301.03835938 -297.54882812 300.14453125 C-297.8030957 298.77361328 -297.8030957 298.77361328 -298.0625 297.375 C-298.23587891 296.48425781 -298.40925781 295.59351563 -298.58789062 294.67578125 C-300.55681072 284.43136178 -301.24153438 274.53743126 -301.25 264.125 C-301.25067474 263.38290283 -301.25134949 262.64080566 -301.25204468 261.8762207 C-301.23624101 250.95248691 -300.80751316 240.6148605 -298 230 C-297.81775879 229.29536621 -297.63551758 228.59073242 -297.44775391 227.86474609 C-294.09120065 215.06946413 -289.42427828 203.35826433 -283.0625 191.75 C-282.65555908 191.00500244 -282.24861816 190.26000488 -281.8293457 189.49243164 C-274.3569139 176.17239612 -263.77833081 165.64151137 -253 155 C-252.07767578 154.01773438 -252.07767578 154.01773438 -251.13671875 153.015625 C-249 151 -249 151 -247.12963867 149.82739258 C-240.51007207 145.56960017 -238.86897579 140.78837814 -236.625 133.4375 C-224.92810795 98.33658363 -202.51192938 60.00795292 -171 39 C-170.34 38.01 -169.68 37.02 -169 36 C-167.09008789 34.953125 -167.09008789 34.953125 -165 34 C-163.84003444 33.2700003 -162.6929629 32.51917247 -161.55859375 31.75 C-137.99044838 15.98769852 -112.8842331 4.66877266 -85 -1 C-83.87416504 -1.24339111 -83.87416504 -1.24339111 -82.72558594 -1.49169922 C-56.42674168 -6.98621843 -26.05275805 -6.08643918 0 0 Z " fill="#FABB04" transform="translate(301,4)"/>
<path d="M0 0 C0.90266602 0.20898926 1.80533203 0.41797852 2.73535156 0.63330078 C34.26629698 8.21777144 62.48476798 24.03232855 87 45 C85.36934355 49.13625009 82.36776548 51.89956599 79.26513672 54.96191406 C78.67963043 55.5477124 78.09412415 56.13351074 77.49087524 56.73706055 C75.55851644 58.66802839 73.61917484 60.59181947 71.6796875 62.515625 C70.33689544 63.85468611 68.99454487 65.19419009 67.65261841 66.53411865 C64.12246283 70.05664429 60.58634194 73.57312203 57.0489502 77.08837891 C53.43917149 80.67768551 49.83505985 84.27267256 46.23046875 87.8671875 C39.15918442 94.91703318 32.08158587 101.96050337 25 109 C22.06553114 107.58208437 19.56667591 106.01667393 17 104 C16.34 104.33 15.68 104.66 15 105 C14.67 104.01 14.34 103.02 14 102 C13.01 102.495 13.01 102.495 12 103 C12 102.01 12 101.02 12 100 C11.32195312 99.73445313 10.64390625 99.46890625 9.9453125 99.1953125 C5.92426675 97.56342921 1.95771305 95.80594243 -2.00390625 94.03515625 C-4.85395615 92.79094092 -6.85339136 92 -10 92 C-10.99 91.34 -11.98 90.68 -13 90 C-15.13683497 89.29429666 -15.13683497 89.29429666 -17.4375 88.8125 C-18.19933594 88.63332031 -18.96117187 88.45414062 -19.74609375 88.26953125 C-22.12958496 87.9845037 -23.73104204 88.27124585 -26 89 C-26 88.34 -26 87.68 -26 87 C-32.53686384 86.01168844 -38.89577115 85.88116471 -45.5 85.9375 C-47.01980469 85.94426758 -47.01980469 85.94426758 -48.5703125 85.95117188 C-51.04693827 85.96285407 -53.52343657 85.97923418 -56 86 C-56.33 86.66 -56.66 87.32 -57 88 C-58.66611905 88.042721 -60.33382885 88.04063832 -62 88 C-62.33 87.67 -62.66 87.34 -63 87 C-65.80371744 87.51247545 -68.54200407 88.09436908 -71.3125 88.75 C-72.08529297 88.92015625 -72.85808594 89.0903125 -73.65429688 89.265625 C-77.86116231 90.24951786 -80.58436314 91.27999628 -84 94 C-85.32 94 -86.64 94 -88 94 C-91.15023666 95.2066596 -94.08745504 96.85200392 -97.0625 98.4375 C-97.91505371 98.8897998 -98.76760742 99.34209961 -99.64599609 99.80810547 C-107.45778557 104.06219725 -114.03969438 108.98608619 -120.30859375 115.33984375 C-126.55062197 121.49532739 -126.55062197 121.49532739 -132 121.5625 C-133.67162468 121.42610007 -135.33851665 121.22892597 -137 121 C-154.38556003 118.70111958 -171.85816782 119.39995247 -189 123 C-190.44246094 123.29003906 -190.44246094 123.29003906 -191.9140625 123.5859375 C-206.31452905 127.01886606 -220.13453049 133.61317737 -232.8125 141.1171875 C-235.18632071 142.51937081 -237.52990763 143.78973511 -240 145 C-238.16053751 136.74971051 -235.68991819 129.08338027 -232.375 121.3125 C-231.93406006 120.27158203 -231.49312012 119.23066406 -231.03881836 118.15820312 C-219.39577706 91.08078092 -202.54451891 65.95757126 -179.97265625 46.71875 C-177.93665076 44.98828402 -177.93665076 44.98828402 -175.93359375 42.90625 C-174 41 -174 41 -171 39 C-170.34 38.01 -169.68 37.02 -169 36 C-167.09008789 34.953125 -167.09008789 34.953125 -165 34 C-163.84003444 33.2700003 -162.6929629 32.51917247 -161.55859375 31.75 C-137.99044838 15.98769852 -112.8842331 4.66877266 -85 -1 C-83.87416504 -1.24339111 -83.87416504 -1.24339111 -82.72558594 -1.49169922 C-56.42674168 -6.98621843 -26.05275805 -6.08643918 0 0 Z " fill="#EA4334" transform="translate(301,4)"/>
<path d="M0 0 C0.5978106 0.23658923 1.1956212 0.47317846 1.81154728 0.71693707 C8.17269428 3.19442277 14.08631896 3.37587155 20.87646484 3.42358398 C22.04803163 3.43536839 23.21959841 3.44715281 24.42666721 3.45929432 C28.19982898 3.48404042 31.97261317 3.48583375 35.74584961 3.48706055 C38.39244744 3.50206323 41.03899151 3.51860355 43.68556213 3.53717041 C49.90056283 3.5774453 56.1154594 3.59800324 62.33057028 3.6111443 C70.11427749 3.62868392 77.89780406 3.67313645 85.68139648 3.7175293 C99.53751097 3.79643935 113.39337533 3.8352399 127.24975586 3.87768555 C127.24975586 33.57768555 127.24975586 63.27768555 127.24975586 93.87768555 C95.0431534 94.03889768 95.0431534 94.03889768 81.46459961 94.07299805 C72.11831807 94.09665938 62.77218162 94.12435405 53.42602539 94.17944336 C46.61684533 94.21955946 39.80778387 94.24517662 32.9984889 94.25403953 C29.39954393 94.25921283 25.80093797 94.27119942 22.20210266 94.30060577 C-6.28789563 94.52442965 -6.28789563 94.52442965 -19.75024414 89.87768555 C-21.41360349 89.36887076 -23.07749466 88.8617828 -24.74243164 88.3581543 C-26.72192725 87.70796909 -28.69521208 87.04143926 -30.66821289 86.37182617 C-34.2346085 84.97957687 -34.2346085 84.97957687 -37.75024414 85.87768555 C-37.75024414 84.88768555 -37.75024414 83.89768555 -37.75024414 82.87768555 C-41.33352167 81.8755149 -41.33352167 81.8755149 -44.75024414 82.87768555 C-44.75024414 81.88768555 -44.75024414 80.89768555 -44.75024414 79.87768555 C-45.89493164 79.56831055 -45.89493164 79.56831055 -47.06274414 79.25268555 C-54.32942394 76.54307613 -60.74414001 72.75764515 -66.75024414 67.87768555 C-67.74024414 67.87768555 -68.73024414 67.87768555 -69.75024414 67.87768555 C-70.59545898 65.78431702 -70.59545898 65.78431702 -70.75024414 62.87768555 C-68.99166528 60.44276291 -67.31673297 58.49141591 -65.22680664 56.37158203 C-64.62681854 55.74019821 -64.02683044 55.10881439 -63.40866089 54.45829773 C-61.41451561 52.37129009 -59.39745844 50.30858146 -57.37524414 48.2487793 C-56.68696533 47.54228807 -55.99868652 46.83579685 -55.28955078 46.1078968 C-51.6450282 42.36752609 -47.98314315 38.6452175 -44.3059082 34.93701172 C-40.51500832 31.10766108 -36.78561641 27.22387008 -33.06771851 23.32379055 C-30.19464508 20.3312112 -27.27975331 17.38213573 -24.35198975 14.4431324 C-22.95821004 13.02938681 -21.58029393 11.59981268 -20.21929932 10.15447807 C-8.18270438 -2.57463211 -8.18270438 -2.57463211 0 0 Z " fill="#34A753" transform="translate(127.750244140625,318.122314453125)"/>
<path d="M0 0 C77.22 0 154.44 0 234 0 C234 0.33 234 0.66 234 1 C156.78 1 79.56 1 0 1 C0 0.67 0 0.34 0 0 Z " fill="#4094D3" transform="translate(138,320)"/>
<path d="M0 0 C0.33 0 0.66 0 1 0 C1 5.28 1 10.56 1 16 C0.67 16 0.34 16 0 16 C0 10.72 0 5.44 0 0 Z " fill="#4094D3" transform="translate(419,260)"/>
<path d="M0 0 C0.33 0 0.66 0 1 0 C1 4.95 1 9.9 1 15 C0.67 15 0.34 15 0 15 C0 10.05 0 5.1 0 0 Z " fill="#F08A1D" transform="translate(90,259)"/>
<path d="M0 0 C4.95 0 9.9 0 15 0 C15 0.33 15 0.66 15 1 C10.05 1 5.1 1 0 1 C0 0.67 0 0.34 0 0 Z " fill="#F08A1D" transform="translate(249,90)"/>
<path d="M0 0 C0.33 0 0.66 0 1 0 C1 1.98 1 3.96 1 6 C0.67 6 0.34 6 0 6 C0 4.02 0 2.04 0 0 Z " fill="#4094D3" transform="translate(363,184)"/>
<path d="M0 0 C1.65 0 3.3 0 5 0 C5 0.33 5 0.66 5 1 C3.35 1 1.7 1 0 1 C0 0.67 0 0.34 0 0 Z " fill="#4094D3" transform="translate(370,214)"/>
<path d="M0 0 C1.65 0 3.3 0 5 0 C5 0.33 5 0.66 5 1 C3.35 1 1.7 1 0 1 C0 0.67 0 0.34 0 0 Z " fill="#F08A1D" transform="translate(268,91)"/>
<path d="M0 0 C4 1 4 1 4 1 Z " fill="#F08A1D" transform="translate(292,1)"/>
<path d="M0 0 C4 1 4 1 4 1 Z " fill="#F08A1D" transform="translate(222,0)"/>
<path d="M0 0 C3 1 3 1 3 1 Z " fill="#4094D3" transform="translate(391,411)"/>
<path d="M0 0 C3 1 3 1 3 1 Z " fill="#B58D59" transform="translate(117,411)"/>
<path d="M0 0 C3 1 3 1 3 1 Z " fill="#4094D3" transform="translate(396,410)"/>
<path d="M0 0 C3 1 3 1 3 1 Z " fill="#7A9096" transform="translate(112,410)"/>
<path d="M0 0 C3 1 3 1 3 1 Z " fill="#4094D3" transform="translate(375,319)"/>
<path d="M0 0 C3 1 3 1 3 1 Z " fill="#7A9096" transform="translate(132,319)"/>
<path d="" fill="#4094D3" transform="translate(0,0)"/>
<path d="" fill="#F08A1D" transform="translate(0,0)"/>
<path d="" fill="#4094D3" transform="translate(0,0)"/>
<path d="" fill="#F08A1D" transform="translate(0,0)"/>
<path d="" fill="#4094D3" transform="translate(0,0)"/>
<path d="" fill="#F08A1D" transform="translate(0,0)"/>
<path d="" fill="#4094D3" transform="translate(0,0)"/>
<path d="" fill="#F08A1D" transform="translate(0,0)"/>
<path d="" fill="#F08A1D" transform="translate(0,0)"/>
<path d="" fill="#4094D3" transform="translate(0,0)"/>
<path d="" fill="#F08A1D" transform="translate(0,0)"/>
<path d="" fill="#4094D3" transform="translate(0,0)"/>
<path d="" fill="#F08A1D" transform="translate(0,0)"/>
<path d="" fill="#4094D3" transform="translate(0,0)"/>
<path d="M0 0 C3 1 3 1 3 1 Z " fill="#4094D3" transform="translate(377,215)"/>
<path d="M0 0 C3 1 3 1 3 1 Z " fill="#F08A1D" transform="translate(153,214)"/>
<path d="M0 0 C3 1 3 1 3 1 Z " fill="#F08A1D" transform="translate(131,214)"/>
<path d="" fill="#4094D3" transform="translate(0,0)"/>
<path d="" fill="#4094D3" transform="translate(0,0)"/>
<path d="" fill="#4094D3" transform="translate(0,0)"/>
<path d="M0 0 C3 1 3 1 3 1 Z " fill="#F08A1D" transform="translate(183,126)"/>
<path d="M0 0 C0.33 0.66 0.66 1.32 1 2 C0.34 1.67 -0.32 1.34 -1 1 C-0.67 0.67 -0.34 0.34 0 0 Z " fill="#F08A1D" transform="translate(177,123)"/>
<path d="M0 0 C3 1 3 1 3 1 Z " fill="#F08A1D" transform="translate(229,93)"/>
<path d="M0 0 C3 1 3 1 3 1 Z " fill="#F08A1D" transform="translate(234,92)"/>
<path d="M0 0 C3 1 3 1 3 1 Z " fill="#F08A1D" transform="translate(297,2)"/>
<path d="M0 0 C3 1 3 1 3 1 Z " fill="#F08A1D" transform="translate(212,2)"/>
<path d="M0 0 C3 1 3 1 3 1 Z " fill="#F08A1D" transform="translate(217,1)"/>
<path d="M0 0 C3 1 3 1 3 1 Z " fill="#F08A1D" transform="translate(287,0)"/>
<path d="M0 0 C2 1 2 1 2 1 Z " fill="#4094D3" transform="translate(401,409)"/>
<path d="M0 0 C2 1 2 1 2 1 Z " fill="#988F78" transform="translate(108,409)"/>
<path d="M0 0 C2 1 2 1 2 1 Z " fill="#988F78" transform="translate(104,408)"/>
<path d="M0 0 C2 1 2 1 2 1 Z " fill="#988F78" transform="translate(101,407)"/>
<path d="M0 0 C2 1 2 1 2 1 Z " fill="#4094D3" transform="translate(412,406)"/>
<path d="M0 0 C2 1 2 1 2 1 Z " fill="#988F78" transform="translate(98,406)"/>
<path d="M0 0 C2 1 2 1 2 1 Z " fill="#988F78" transform="translate(95,405)"/>
<path d="M0 0 C2 1 2 1 2 1 Z " fill="#4094D3" transform="translate(420,403)"/>
<path d="M0 0 C2 1 2 1 2 1 Z " fill="#4094D3" transform="translate(425,401)"/>
<path d="M0 0 C2 1 2 1 2 1 Z " fill="#F08A1D" transform="translate(85,401)"/>
<path d="M0 0 C2 1 2 1 2 1 Z " fill="#4094D3" transform="translate(437,395)"/>
<path d="" fill="#4094D3" transform="translate(0,0)"/>
<path d="" fill="#F08A1D" transform="translate(0,0)"/>
<path d="" fill="#F08A1D" transform="translate(0,0)"/>
<path d="" fill="#4094D3" transform="translate(0,0)"/>
<path d="" fill="#4094D3" transform="translate(0,0)"/>
<path d="M0 0 C2 1 2 1 2 1 Z " fill="#4094D3" transform="translate(380,318)"/>
<path d="M0 0 C2 1 2 1 2 1 Z " fill="#4094D3" transform="translate(128,318)"/>
<path d="" fill="#4094D3" transform="translate(0,0)"/>
<path d="M0 0 C2 1 2 1 2 1 Z " fill="#F08A1D" transform="translate(125,317)"/>
<path d="M0 0 C2 1 2 1 2 1 Z " fill="#4094D3" transform="translate(386,316)"/>
<path d="M0 0 C2 1 2 1 2 1 Z " fill="#988F78" transform="translate(120,315)"/>
<path d="" fill="#4094D3" transform="translate(0,0)"/>
<path d="M0 0 C2 1 2 1 2 1 Z " fill="#F08A1D" transform="translate(118,314)"/>
<path d="" fill="#F08A1D" transform="translate(0,0)"/>
<path d="" fill="#4094D3" transform="translate(0,0)"/>
<path d="" fill="#F08A1D" transform="translate(0,0)"/>
<path d="" fill="#4094D3" transform="translate(0,0)"/>
<path d="" fill="#4094D3" transform="translate(0,0)"/>
<path d="" fill="#4094D3" transform="translate(0,0)"/>
<path d="" fill="#F08A1D" transform="translate(0,0)"/>
<path d="" fill="#4094D3" transform="translate(0,0)"/>
<path d="" fill="#F08A1D" transform="translate(0,0)"/>
<path d="" fill="#4094D3" transform="translate(0,0)"/>
<path d="" fill="#4094D3" transform="translate(0,0)"/>
<path d="" fill="#F08A1D" transform="translate(0,0)"/>
<path d="" fill="#4094D3" transform="translate(0,0)"/>
<path d="" fill="#F08A1D" transform="translate(0,0)"/>
<path d="" fill="#4094D3" transform="translate(0,0)"/>
<path d="" fill="#F08A1D" transform="translate(0,0)"/>
<path d="" fill="#F08A1D" transform="translate(0,0)"/>
<path d="" fill="#4094D3" transform="translate(0,0)"/>
<path d="" fill="#F08A1D" transform="translate(0,0)"/>
<path d="" fill="#F08A1D" transform="translate(0,0)"/>
<path d="" fill="#F08A1D" transform="translate(0,0)"/>
<path d="M0 0 C2 1 2 1 2 1 Z " fill="#F08A1D" transform="translate(168,219)"/>
<path d="M0 0 C2 1 2 1 2 1 Z " fill="#F08A1D" transform="translate(166,218)"/>
<path d="" fill="#F08A1D" transform="translate(0,0)"/>
<path d="M0 0 C2 1 2 1 2 1 Z " fill="#F08A1D" transform="translate(122,217)"/>
<path d="M0 0 C2 1 2 1 2 1 Z " fill="#4094D3" transform="translate(381,216)"/>
<path d="M0 0 C2 1 2 1 2 1 Z " fill="#F08A1D" transform="translate(161,216)"/>
<path d="M0 0 C2 1 2 1 2 1 Z " fill="#F08A1D" transform="translate(158,215)"/>
<path d="" fill="#F08A1D" transform="translate(0,0)"/>
<path d="" fill="#F08A1D" transform="translate(0,0)"/>
<path d="" fill="#F08A1D" transform="translate(0,0)"/>
<path d="" fill="#4094D3" transform="translate(0,0)"/>
<path d="" fill="#4094D3" transform="translate(0,0)"/>
<path d="" fill="#4094D3" transform="translate(0,0)"/>
<path d="" fill="#4094D3" transform="translate(0,0)"/>
<path d="" fill="#F08A1D" transform="translate(0,0)"/>
<path d="" fill="#4094D3" transform="translate(0,0)"/>
<path d="" fill="#F08A1D" transform="translate(0,0)"/>
<path d="" fill="#4094D3" transform="translate(0,0)"/>
<path d="" fill="#F08A1D" transform="translate(0,0)"/>
<path d="" fill="#4094D3" transform="translate(0,0)"/>
<path d="" fill="#4094D3" transform="translate(0,0)"/>
<path d="" fill="#F08A1D" transform="translate(0,0)"/>
<path d="" fill="#4094D3" transform="translate(0,0)"/>
<path d="M0 0 C2 1 2 1 2 1 Z " fill="#F08A1D" transform="translate(198,131)"/>
<path d="" fill="#F08A1D" transform="translate(0,0)"/>
<path d="M0 0 C2 1 2 1 2 1 Z " fill="#F08A1D" transform="translate(193,129)"/>
<path d="M0 0 C2 1 2 1 2 1 Z " fill="#F08A1D" transform="translate(190,128)"/>
<path d="M0 0 C2 1 2 1 2 1 Z " fill="#F08A1D" transform="translate(187,127)"/>
<path d="M0 0 C2 1 2 1 2 1 Z " fill="#F08A1D" transform="translate(180,125)"/>
<path d="" fill="#F08A1D" transform="translate(0,0)"/>
<path d="" fill="#F08A1D" transform="translate(0,0)"/>
<path d="" fill="#4094D3" transform="translate(0,0)"/>
<path d="" fill="#4094D3" transform="translate(0,0)"/>
<path d="" fill="#4094D3" transform="translate(0,0)"/>
<path d="" fill="#F08A1D" transform="translate(0,0)"/>
<path d="M0 0 C2 1 2 1 2 1 Z " fill="#F08A1D" transform="translate(205,102)"/>
<path d="M0 0 C2 1 2 1 2 1 Z " fill="#F08A1D" transform="translate(207,101)"/>
<path d="M0 0 C2 1 2 1 2 1 Z " fill="#F08A1D" transform="translate(299,99)"/>
<path d="M0 0 C2 1 2 1 2 1 Z " fill="#F08A1D" transform="translate(214,98)"/>
<path d="M0 0 C2 1 2 1 2 1 Z " fill="#F08A1D" transform="translate(294,97)"/>
<path d="M0 0 C2 1 2 1 2 1 Z " fill="#F08A1D" transform="translate(288,95)"/>
<path d="M0 0 C2 1 2 1 2 1 Z " fill="#F08A1D" transform="translate(222,95)"/>
<path d="M0 0 C2 1 2 1 2 1 Z " fill="#F08A1D" transform="translate(285,94)"/>
<path d="M0 0 C2 1 2 1 2 1 Z " fill="#F08A1D" transform="translate(226,94)"/>
<path d="M0 0 C2 1 2 1 2 1 Z " fill="#F08A1D" transform="translate(281,93)"/>
<path d="M0 0 C2 1 2 1 2 1 Z " fill="#F08A1D" transform="translate(170,16)"/>
<path d="M0 0 C2 1 2 1 2 1 Z " fill="#F08A1D" transform="translate(335,14)"/>
<path d="M0 0 C2 1 2 1 2 1 Z " fill="#F08A1D" transform="translate(177,13)"/>
<path d="M0 0 C2 1 2 1 2 1 Z " fill="#F08A1D" transform="translate(182,11)"/>
<path d="M0 0 C2 1 2 1 2 1 Z " fill="#F08A1D" transform="translate(325,10)"/>
<path d="M0 0 C2 1 2 1 2 1 Z " fill="#F08A1D" transform="translate(190,8)"/>
<path d="M0 0 C2 1 2 1 2 1 Z " fill="#F08A1D" transform="translate(193,7)"/>
<path d="M0 0 C2 1 2 1 2 1 Z " fill="#F08A1D" transform="translate(313,6)"/>
<path d="M0 0 C2 1 2 1 2 1 Z " fill="#F08A1D" transform="translate(197,6)"/>
<path d="M0 0 C2 1 2 1 2 1 Z " fill="#F08A1D" transform="translate(310,5)"/>
<path d="M0 0 C2 1 2 1 2 1 Z " fill="#F08A1D" transform="translate(200,5)"/>
<path d="M0 0 C2 1 2 1 2 1 Z " fill="#F08A1D" transform="translate(306,4)"/>
<path d="M0 0 C2 1 2 1 2 1 Z " fill="#F08A1D" transform="translate(204,4)"/>
<path d="M0 0 C2 1 2 1 2 1 Z " fill="#F08A1D" transform="translate(302,3)"/>
<path d="M0 0 C2 1 2 1 2 1 Z " fill="#F08A1D" transform="translate(208,3)"/>
<path d="" fill="#4094D3" transform="translate(0,0)"/>
<path d="" fill="#4094D3" transform="translate(0,0)"/>
<path d="" fill="#4094D3" transform="translate(0,0)"/>
<path d="" fill="#4094D3" transform="translate(0,0)"/>
<path d="" fill="#4094D3" transform="translate(0,0)"/>
<path d="" fill="#4094D3" transform="translate(0,0)"/>
<path d="" fill="#4094D3" transform="translate(0,0)"/>
<path d="" fill="#4094D3" transform="translate(0,0)"/>
<path d="" fill="#4094D3" transform="translate(0,0)"/>
<path d="" fill="#4094D3" transform="translate(0,0)"/>
<path d="" fill="#4094D3" transform="translate(0,0)"/>
<path d="" fill="#4094D3" transform="translate(0,0)"/>
<path d="" fill="#4094D3" transform="translate(0,0)"/>
<path d="" fill="#F08A1D" transform="translate(0,0)"/>
<path d="" fill="#4094D3" transform="translate(0,0)"/>
<path d="" fill="#4094D3" transform="translate(0,0)"/>
<path d="" fill="#4094D3" transform="translate(0,0)"/>
<path d="" fill="#4094D3" transform="translate(0,0)"/>
<path d="" fill="#4094D3" transform="translate(0,0)"/>
<path d="" fill="#4094D3" transform="translate(0,0)"/>
<path d="" fill="#4094D3" transform="translate(0,0)"/>
<path d="" fill="#4094D3" transform="translate(0,0)"/>
<path d="" fill="#4094D3" transform="translate(0,0)"/>
<path d="" fill="#4094D3" transform="translate(0,0)"/>
<path d="" fill="#4094D3" transform="translate(0,0)"/>
<path d="" fill="#4094D3" transform="translate(0,0)"/>
<path d="" fill="#4094D3" transform="translate(0,0)"/>
<path d="" fill="#4094D3" transform="translate(0,0)"/>
<path d="" fill="#4094D3" transform="translate(0,0)"/>
<path d="" fill="#4094D3" transform="translate(0,0)"/>
<path d="" fill="#F08A1D" transform="translate(0,0)"/>
<path d="" fill="#4094D3" transform="translate(0,0)"/>
<path d="" fill="#F08A1D" transform="translate(0,0)"/>
<path d="" fill="#4094D3" transform="translate(0,0)"/>
<path d="" fill="#F08A1D" transform="translate(0,0)"/>
<path d="" fill="#4094D3" transform="translate(0,0)"/>
<path d="" fill="#4094D3" transform="translate(0,0)"/>
<path d="" fill="#F08A1D" transform="translate(0,0)"/>
<path d="" fill="#F08A1D" transform="translate(0,0)"/>
<path d="" fill="#4094D3" transform="translate(0,0)"/>
<path d="" fill="#F08A1D" transform="translate(0,0)"/>
<path d="" fill="#4094D3" transform="translate(0,0)"/>
<path d="" fill="#F08A1D" transform="translate(0,0)"/>
<path d="" fill="#4094D3" transform="translate(0,0)"/>
<path d="" fill="#F08A1D" transform="translate(0,0)"/>
<path d="" fill="#4094D3" transform="translate(0,0)"/>
<path d="" fill="#F08A1D" transform="translate(0,0)"/>
<path d="" fill="#4094D3" transform="translate(0,0)"/>
<path d="" fill="#F08A1D" transform="translate(0,0)"/>
<path d="" fill="#F08A1D" transform="translate(0,0)"/>
<path d="" fill="#4094D3" transform="translate(0,0)"/>
<path d="" fill="#4094D3" transform="translate(0,0)"/>
<path d="" fill="#F08A1D" transform="translate(0,0)"/>
<path d="" fill="#4094D3" transform="translate(0,0)"/>
<path d="" fill="#F08A1D" transform="translate(0,0)"/>
<path d="" fill="#4094D3" transform="translate(0,0)"/>
<path d="" fill="#F08A1D" transform="translate(0,0)"/>
<path d="" fill="#F08A1D" transform="translate(0,0)"/>
<path d="" fill="#4094D3" transform="translate(0,0)"/>
<path d="" fill="#4094D3" transform="translate(0,0)"/>
<path d="" fill="#F08A1D" transform="translate(0,0)"/>
<path d="" fill="#F08A1D" transform="translate(0,0)"/>
<path d="" fill="#4094D3" transform="translate(0,0)"/>
<path d="" fill="#F08A1D" transform="translate(0,0)"/>
<path d="" fill="#4094D3" transform="translate(0,0)"/>
<path d="" fill="#F08A1D" transform="translate(0,0)"/>
<path d="" fill="#4094D3" transform="translate(0,0)"/>
<path d="" fill="#F08A1D" transform="translate(0,0)"/>
<path d="" fill="#4094D3" transform="translate(0,0)"/>
<path d="" fill="#F08A1D" transform="translate(0,0)"/>
<path d="" fill="#4094D3" transform="translate(0,0)"/>
<path d="" fill="#F08A1D" transform="translate(0,0)"/>
<path d="" fill="#4094D3" transform="translate(0,0)"/>
<path d="" fill="#F08A1D" transform="translate(0,0)"/>
<path d="" fill="#4094D3" transform="translate(0,0)"/>
<path d="" fill="#F08A1D" transform="translate(0,0)"/>
<path d="" fill="#F08A1D" transform="translate(0,0)"/>
<path d="" fill="#4094D3" transform="translate(0,0)"/>
<path d="" fill="#4094D3" transform="translate(0,0)"/>
<path d="" fill="#F08A1D" transform="translate(0,0)"/>
<path d="" fill="#4094D3" transform="translate(0,0)"/>
<path d="" fill="#F08A1D" transform="translate(0,0)"/>
<path d="" fill="#4094D3" transform="translate(0,0)"/>
<path d="" fill="#4094D3" transform="translate(0,0)"/>
<path d="" fill="#F08A1D" transform="translate(0,0)"/>
<path d="" fill="#F08A1D" transform="translate(0,0)"/>
<path d="" fill="#4094D3" transform="translate(0,0)"/>
<path d="" fill="#F08A1D" transform="translate(0,0)"/>
<path d="" fill="#4094D3" transform="translate(0,0)"/>
<path d="" fill="#F08A1D" transform="translate(0,0)"/>
<path d="" fill="#4094D3" transform="translate(0,0)"/>
<path d="" fill="#F08A1D" transform="translate(0,0)"/>
<path d="" fill="#F08A1D" transform="translate(0,0)"/>
<path d="" fill="#4094D3" transform="translate(0,0)"/>
<path d="" fill="#F08A1D" transform="translate(0,0)"/>
<path d="" fill="#4094D3" transform="translate(0,0)"/>
<path d="" fill="#4094D3" transform="translate(0,0)"/>
<path d="" fill="#F08A1D" transform="translate(0,0)"/>
<path d="" fill="#4094D3" transform="translate(0,0)"/>
<path d="" fill="#4094D3" transform="translate(0,0)"/>
<path d="" fill="#4094D3" transform="translate(0,0)"/>
<path d="" fill="#F08A1D" transform="translate(0,0)"/>
<path d="" fill="#4094D3" transform="translate(0,0)"/>
<path d="" fill="#F08A1D" transform="translate(0,0)"/>
<path d="" fill="#4094D3" transform="translate(0,0)"/>
<path d="" fill="#F08A1D" transform="translate(0,0)"/>
<path d="" fill="#4094D3" transform="translate(0,0)"/>
<path d="" fill="#F08A1D" transform="translate(0,0)"/>
<path d="" fill="#F08A1D" transform="translate(0,0)"/>
<path d="" fill="#4094D3" transform="translate(0,0)"/>
<path d="" fill="#4094D3" transform="translate(0,0)"/>
<path d="" fill="#F08A1D" transform="translate(0,0)"/>
<path d="" fill="#F08A1D" transform="translate(0,0)"/>
<path d="" fill="#F08A1D" transform="translate(0,0)"/>
<path d="" fill="#F08A1D" transform="translate(0,0)"/>
<path d="" fill="#F08A1D" transform="translate(0,0)"/>
<path d="" fill="#F08A1D" transform="translate(0,0)"/>
<path d="" fill="#F08A1D" transform="translate(0,0)"/>
<path d="" fill="#F08A1D" transform="translate(0,0)"/>
<path d="" fill="#4094D3" transform="translate(0,0)"/>
<path d="" fill="#F08A1D" transform="translate(0,0)"/>
<path d="" fill="#4094D3" transform="translate(0,0)"/>
<path d="" fill="#F08A1D" transform="translate(0,0)"/>
<path d="" fill="#F08A1D" transform="translate(0,0)"/>
<path d="" fill="#4094D3" transform="translate(0,0)"/>
<path d="" fill="#F08A1D" transform="translate(0,0)"/>
<path d="" fill="#4094D3" transform="translate(0,0)"/>
<path d="" fill="#F08A1D" transform="translate(0,0)"/>
<path d="" fill="#4094D3" transform="translate(0,0)"/>
<path d="" fill="#F08A1D" transform="translate(0,0)"/>
<path d="" fill="#F08A1D" transform="translate(0,0)"/>
<path d="" fill="#4094D3" transform="translate(0,0)"/>
<path d="" fill="#F08A1D" transform="translate(0,0)"/>
<path d="" fill="#F08A1D" transform="translate(0,0)"/>
<path d="" fill="#4094D3" transform="translate(0,0)"/>
<path d="" fill="#4094D3" transform="translate(0,0)"/>
<path d="" fill="#F08A1D" transform="translate(0,0)"/>
<path d="" fill="#F08A1D" transform="translate(0,0)"/>
<path d="" fill="#F08A1D" transform="translate(0,0)"/>
<path d="" fill="#F08A1D" transform="translate(0,0)"/>
<path d="" fill="#F08A1D" transform="translate(0,0)"/>
<path d="" fill="#F08A1D" transform="translate(0,0)"/>
<path d="" fill="#4094D3" transform="translate(0,0)"/>
<path d="" fill="#F08A1D" transform="translate(0,0)"/>
<path d="" fill="#F08A1D" transform="translate(0,0)"/>
<path d="" fill="#F08A1D" transform="translate(0,0)"/>
<path d="" fill="#F08A1D" transform="translate(0,0)"/>
<path d="" fill="#4094D3" transform="translate(0,0)"/>
<path d="" fill="#F08A1D" transform="translate(0,0)"/>
<path d="" fill="#F08A1D" transform="translate(0,0)"/>
<path d="" fill="#F08A1D" transform="translate(0,0)"/>
<path d="" fill="#F08A1D" transform="translate(0,0)"/>
<path d="" fill="#F08A1D" transform="translate(0,0)"/>
<path d="" fill="#F08A1D" transform="translate(0,0)"/>
<path d="" fill="#4094D3" transform="translate(0,0)"/>
<path d="" fill="#F08A1D" transform="translate(0,0)"/>
<path d="" fill="#F08A1D" transform="translate(0,0)"/>
<path d="" fill="#4094D3" transform="translate(0,0)"/>
<path d="" fill="#F08A1D" transform="translate(0,0)"/>
<path d="" fill="#F08A1D" transform="translate(0,0)"/>
<path d="" fill="#F08A1D" transform="translate(0,0)"/>
<path d="" fill="#F08A1D" transform="translate(0,0)"/>
<path d="" fill="#F08A1D" transform="translate(0,0)"/>
<path d="" fill="#F08A1D" transform="translate(0,0)"/>
<path d="" fill="#F08A1D" transform="translate(0,0)"/>
<path d="" fill="#F08A1D" transform="translate(0,0)"/>
<path d="" fill="#F08A1D" transform="translate(0,0)"/>
<path d="" fill="#4094D3" transform="translate(0,0)"/>
<path d="" fill="#F08A1D" transform="translate(0,0)"/>
<path d="" fill="#F08A1D" transform="translate(0,0)"/>
<path d="" fill="#F08A1D" transform="translate(0,0)"/>
<path d="" fill="#F08A1D" transform="translate(0,0)"/>
<path d="" fill="#F08A1D" transform="translate(0,0)"/>
<path d="" fill="#F08A1D" transform="translate(0,0)"/>
<path d="" fill="#4094D3" transform="translate(0,0)"/>
<path d="" fill="#F08A1D" transform="translate(0,0)"/>
<path d="" fill="#F08A1D" transform="translate(0,0)"/>
<path d="" fill="#F08A1D" transform="translate(0,0)"/>
<path d="" fill="#F08A1D" transform="translate(0,0)"/>
<path d="" fill="#F08A1D" transform="translate(0,0)"/>
<path d="" fill="#F08A1D" transform="translate(0,0)"/>
<path d="" fill="#F08A1D" transform="translate(0,0)"/>
<path d="" fill="#F08A1D" transform="translate(0,0)"/>
<path d="" fill="#4094D3" transform="translate(0,0)"/>
<path d="" fill="#F08A1D" transform="translate(0,0)"/>
<path d="" fill="#F08A1D" transform="translate(0,0)"/>
<path d="" fill="#F08A1D" transform="translate(0,0)"/>
<path d="" fill="#4094D3" transform="translate(0,0)"/>
<path d="" fill="#4094D3" transform="translate(0,0)"/>
<path d="" fill="#F08A1D" transform="translate(0,0)"/>
<path d="" fill="#F08A1D" transform="translate(0,0)"/>
<path d="" fill="#F08A1D" transform="translate(0,0)"/>
<path d="" fill="#F08A1D" transform="translate(0,0)"/>
<path d="" fill="#F08A1D" transform="translate(0,0)"/>
<path d="" fill="#F08A1D" transform="translate(0,0)"/>
<path d="" fill="#4094D3" transform="translate(0,0)"/>
<path d="" fill="#F08A1D" transform="translate(0,0)"/>
<path d="" fill="#F08A1D" transform="translate(0,0)"/>
<path d="" fill="#F08A1D" transform="translate(0,0)"/>
<path d="" fill="#4094D3" transform="translate(0,0)"/>
<path d="" fill="#4094D3" transform="translate(0,0)"/>
<path d="" fill="#F08A1D" transform="translate(0,0)"/>
<path d="" fill="#F08A1D" transform="translate(0,0)"/>
<path d="" fill="#F08A1D" transform="translate(0,0)"/>
<path d="" fill="#4094D3" transform="translate(0,0)"/>
<path d="" fill="#F08A1D" transform="translate(0,0)"/>
<path d="" fill="#F08A1D" transform="translate(0,0)"/>
<path d="" fill="#F08A1D" transform="translate(0,0)"/>
<path d="" fill="#4094D3" transform="translate(0,0)"/>
<path d="" fill="#F08A1D" transform="translate(0,0)"/>
<path d="" fill="#4094D3" transform="translate(0,0)"/>
<path d="" fill="#F08A1D" transform="translate(0,0)"/>
<path d="" fill="#F08A1D" transform="translate(0,0)"/>
<path d="" fill="#4094D3" transform="translate(0,0)"/>
<path d="" fill="#F08A1D" transform="translate(0,0)"/>
<path d="" fill="#F08A1D" transform="translate(0,0)"/>
<path d="" fill="#F08A1D" transform="translate(0,0)"/>
<path d="" fill="#4094D3" transform="translate(0,0)"/>
<path d="" fill="#F08A1D" transform="translate(0,0)"/>
<path d="" fill="#F08A1D" transform="translate(0,0)"/>
<path d="" fill="#F08A1D" transform="translate(0,0)"/>
<path d="" fill="#4094D3" transform="translate(0,0)"/>
<path d="" fill="#F08A1D" transform="translate(0,0)"/>
<path d="" fill="#F08A1D" transform="translate(0,0)"/>
<path d="" fill="#F08A1D" transform="translate(0,0)"/>
<path d="" fill="#4094D3" transform="translate(0,0)"/>
<path d="" fill="#F08A1D" transform="translate(0,0)"/>
<path d="" fill="#F08A1D" transform="translate(0,0)"/>
<path d="" fill="#F08A1D" transform="translate(0,0)"/>
<path d="" fill="#4094D3" transform="translate(0,0)"/>
<path d="" fill="#F08A1D" transform="translate(0,0)"/>
<path d="" fill="#F08A1D" transform="translate(0,0)"/>
<path d="" fill="#F08A1D" transform="translate(0,0)"/>
<path d="" fill="#4094D3" transform="translate(0,0)"/>
<path d="" fill="#F08A1D" transform="translate(0,0)"/>
<path d="" fill="#F08A1D" transform="translate(0,0)"/>
<path d="" fill="#F08A1D" transform="translate(0,0)"/>
<path d="" fill="#4094D3" transform="translate(0,0)"/>
<path d="" fill="#F08A1D" transform="translate(0,0)"/>
<path d="" fill="#F08A1D" transform="translate(0,0)"/>
<path d="" fill="#4094D3" transform="translate(0,0)"/>
<path d="" fill="#F08A1D" transform="translate(0,0)"/>
<path d="" fill="#F08A1D" transform="translate(0,0)"/>
<path d="" fill="#4094D3" transform="translate(0,0)"/>
<path d="" fill="#F08A1D" transform="translate(0,0)"/>
<path d="" fill="#F08A1D" transform="translate(0,0)"/>
<path d="" fill="#F08A1D" transform="translate(0,0)"/>
<path d="" fill="#4094D3" transform="translate(0,0)"/>
<path d="" fill="#F08A1D" transform="translate(0,0)"/>
<path d="" fill="#F08A1D" transform="translate(0,0)"/>
<path d="" fill="#F08A1D" transform="translate(0,0)"/>
<path d="" fill="#4094D3" transform="translate(0,0)"/>
<path d="" fill="#F08A1D" transform="translate(0,0)"/>
<path d="" fill="#F08A1D" transform="translate(0,0)"/>
<path d="" fill="#F08A1D" transform="translate(0,0)"/>
<path d="" fill="#4094D3" transform="translate(0,0)"/>
<path d="" fill="#F08A1D" transform="translate(0,0)"/>
<path d="" fill="#F08A1D" transform="translate(0,0)"/>
<path d="" fill="#4094D3" transform="translate(0,0)"/>
<path d="" fill="#F08A1D" transform="translate(0,0)"/>
<path d="" fill="#F08A1D" transform="translate(0,0)"/>
<path d="" fill="#F08A1D" transform="translate(0,0)"/>
<path d="" fill="#4094D3" transform="translate(0,0)"/>
<path d="" fill="#F08A1D" transform="translate(0,0)"/>
<path d="" fill="#F08A1D" transform="translate(0,0)"/>
<path d="" fill="#F08A1D" transform="translate(0,0)"/>
<path d="" fill="#4094D3" transform="translate(0,0)"/>
<path d="" fill="#F08A1D" transform="translate(0,0)"/>
<path d="" fill="#F08A1D" transform="translate(0,0)"/>
<path d="" fill="#4094D3" transform="translate(0,0)"/>
<path d="" fill="#F08A1D" transform="translate(0,0)"/>
<path d="" fill="#F08A1D" transform="translate(0,0)"/>
<path d="" fill="#4094D3" transform="translate(0,0)"/>
<path d="" fill="#F08A1D" transform="translate(0,0)"/>
<path d="" fill="#F08A1D" transform="translate(0,0)"/>
<path d="" fill="#4094D3" transform="translate(0,0)"/>
<path d="" fill="#F08A1D" transform="translate(0,0)"/>
<path d="" fill="#F08A1D" transform="translate(0,0)"/>
<path d="" fill="#4094D3" transform="translate(0,0)"/>
<path d="" fill="#F08A1D" transform="translate(0,0)"/>
<path d="" fill="#F08A1D" transform="translate(0,0)"/>
<path d="" fill="#4094D3" transform="translate(0,0)"/>
<path d="" fill="#F08A1D" transform="translate(0,0)"/>
<path d="" fill="#F08A1D" transform="translate(0,0)"/>
<path d="" fill="#4094D3" transform="translate(0,0)"/>
<path d="" fill="#F08A1D" transform="translate(0,0)"/>
<path d="" fill="#4094D3" transform="translate(0,0)"/>
<path d="" fill="#F08A1D" transform="translate(0,0)"/>
<path d="" fill="#F08A1D" transform="translate(0,0)"/>
<path d="" fill="#F08A1D" transform="translate(0,0)"/>
<path d="" fill="#4094D3" transform="translate(0,0)"/>
<path d="" fill="#F08A1D" transform="translate(0,0)"/>
<path d="" fill="#F08A1D" transform="translate(0,0)"/>
<path d="" fill="#4094D3" transform="translate(0,0)"/>
<path d="" fill="#F08A1D" transform="translate(0,0)"/>
<path d="" fill="#F08A1D" transform="translate(0,0)"/>
<path d="" fill="#4094D3" transform="translate(0,0)"/>
<path d="" fill="#F08A1D" transform="translate(0,0)"/>
<path d="" fill="#F08A1D" transform="translate(0,0)"/>
<path d="" fill="#F08A1D" transform="translate(0,0)"/>
<path d="" fill="#4094D3" transform="translate(0,0)"/>
<path d="" fill="#F08A1D" transform="translate(0,0)"/>
<path d="" fill="#4094D3" transform="translate(0,0)"/>
<path d="" fill="#F08A1D" transform="translate(0,0)"/>
<path d="" fill="#F08A1D" transform="translate(0,0)"/>
<path d="" fill="#4094D3" transform="translate(0,0)"/>
<path d="" fill="#F08A1D" transform="translate(0,0)"/>
<path d="" fill="#F08A1D" transform="translate(0,0)"/>
<path d="" fill="#4094D3" transform="translate(0,0)"/>
<path d="" fill="#F08A1D" transform="translate(0,0)"/>
<path d="" fill="#F08A1D" transform="translate(0,0)"/>
<path d="" fill="#4094D3" transform="translate(0,0)"/>
<path d="" fill="#F08A1D" transform="translate(0,0)"/>
<path d="" fill="#F08A1D" transform="translate(0,0)"/>
<path d="" fill="#4094D3" transform="translate(0,0)"/>
<path d="" fill="#F08A1D" transform="translate(0,0)"/>
<path d="" fill="#F08A1D" transform="translate(0,0)"/>
<path d="" fill="#4094D3" transform="translate(0,0)"/>
<path d="" fill="#F08A1D" transform="translate(0,0)"/>
<path d="" fill="#F08A1D" transform="translate(0,0)"/>
<path d="" fill="#4094D3" transform="translate(0,0)"/>
<path d="" fill="#F08A1D" transform="translate(0,0)"/>
<path d="" fill="#F08A1D" transform="translate(0,0)"/>
<path d="" fill="#4094D3" transform="translate(0,0)"/>
<path d="" fill="#F08A1D" transform="translate(0,0)"/>
<path d="" fill="#F08A1D" transform="translate(0,0)"/>
<path d="" fill="#4094D3" transform="translate(0,0)"/>
<path d="" fill="#F08A1D" transform="translate(0,0)"/>
<path d="" fill="#4094D3" transform="translate(0,0)"/>
<path d="" fill="#F08A1D" transform="translate(0,0)"/>
<path d="" fill="#F08A1D" transform="translate(0,0)"/>
<path d="" fill="#4094D3" transform="translate(0,0)"/>
<path d="" fill="#F08A1D" transform="translate(0,0)"/>
<path d="" fill="#F08A1D" transform="translate(0,0)"/>
<path d="" fill="#4094D3" transform="translate(0,0)"/>
<path d="" fill="#F08A1D" transform="translate(0,0)"/>
<path d="" fill="#4094D3" transform="translate(0,0)"/>
<path d="" fill="#F08A1D" transform="translate(0,0)"/>
<path d="" fill="#4094D3" transform="translate(0,0)"/>
<path d="" fill="#4094D3" transform="translate(0,0)"/>
<path d="" fill="#F08A1D" transform="translate(0,0)"/>
<path d="" fill="#F08A1D" transform="translate(0,0)"/>
<path d="" fill="#4094D3" transform="translate(0,0)"/>
<path d="" fill="#F08A1D" transform="translate(0,0)"/>
<path d="" fill="#F08A1D" transform="translate(0,0)"/>
<path d="" fill="#4094D3" transform="translate(0,0)"/>
<path d="" fill="#F08A1D" transform="translate(0,0)"/>
<path d="" fill="#4094D3" transform="translate(0,0)"/>
<path d="" fill="#F08A1D" transform="translate(0,0)"/>
<path d="" fill="#F08A1D" transform="translate(0,0)"/>
<path d="" fill="#4094D3" transform="translate(0,0)"/>
<path d="" fill="#4094D3" transform="translate(0,0)"/>
<path d="" fill="#F08A1D" transform="translate(0,0)"/>
<path d="" fill="#4094D3" transform="translate(0,0)"/>
<path d="" fill="#F08A1D" transform="translate(0,0)"/>
<path d="" fill="#4094D3" transform="translate(0,0)"/>
<path d="" fill="#F08A1D" transform="translate(0,0)"/>
<path d="" fill="#F08A1D" transform="translate(0,0)"/>
<path d="" fill="#4094D3" transform="translate(0,0)"/>
<path d="" fill="#F08A1D" transform="translate(0,0)"/>
<path d="" fill="#4094D3" transform="translate(0,0)"/>
<path d="" fill="#F08A1D" transform="translate(0,0)"/>
<path d="" fill="#F08A1D" transform="translate(0,0)"/>
<path d="" fill="#4094D3" transform="translate(0,0)"/>
<path d="" fill="#F08A1D" transform="translate(0,0)"/>
<path d="" fill="#F08A1D" transform="translate(0,0)"/>
<path d="" fill="#4094D3" transform="translate(0,0)"/>
<path d="" fill="#F08A1D" transform="translate(0,0)"/>
<path d="" fill="#4094D3" transform="translate(0,0)"/>
<path d="" fill="#F08A1D" transform="translate(0,0)"/>
<path d="" fill="#F08A1D" transform="translate(0,0)"/>
<path d="" fill="#F08A1D" transform="translate(0,0)"/>
<path d="" fill="#F08A1D" transform="translate(0,0)"/>
<path d="" fill="#4094D3" transform="translate(0,0)"/>
<path d="" fill="#F08A1D" transform="translate(0,0)"/>
<path d="" fill="#4094D3" transform="translate(0,0)"/>
<path d="" fill="#F08A1D" transform="translate(0,0)"/>
<path d="" fill="#F08A1D" transform="translate(0,0)"/>
<path d="" fill="#4094D3" transform="translate(0,0)"/>
<path d="" fill="#F08A1D" transform="translate(0,0)"/>
<path d="" fill="#4094D3" transform="translate(0,0)"/>
<path d="" fill="#4094D3" transform="translate(0,0)"/>
<path d="" fill="#F08A1D" transform="translate(0,0)"/>
<path d="" fill="#4094D3" transform="translate(0,0)"/>
<path d="" fill="#4094D3" transform="translate(0,0)"/>
<path d="" fill="#4094D3" transform="translate(0,0)"/>
<path d="" fill="#4094D3" transform="translate(0,0)"/>
<path d="" fill="#4094D3" transform="translate(0,0)"/>
<path d="" fill="#4094D3" transform="translate(0,0)"/>
<path d="" fill="#F08A1D" transform="translate(0,0)"/>
<path d="" fill="#F08A1D" transform="translate(0,0)"/>
<path d="" fill="#4094D3" transform="translate(0,0)"/>
<path d="" fill="#F08A1D" transform="translate(0,0)"/>
<path d="" fill="#4094D3" transform="translate(0,0)"/>
<path d="" fill="#F08A1D" transform="translate(0,0)"/>
<path d="" fill="#F08A1D" transform="translate(0,0)"/>
<path d="" fill="#4094D3" transform="translate(0,0)"/>
<path d="" fill="#4094D3" transform="translate(0,0)"/>
<path d="" fill="#F08A1D" transform="translate(0,0)"/>
<path d="" fill="#4094D3" transform="translate(0,0)"/>
<path d="" fill="#F08A1D" transform="translate(0,0)"/>
<path d="" fill="#4094D3" transform="translate(0,0)"/>
<path d="" fill="#4094D3" transform="translate(0,0)"/>
<path d="" fill="#F08A1D" transform="translate(0,0)"/>
<path d="" fill="#F08A1D" transform="translate(0,0)"/>
<path d="" fill="#4094D3" transform="translate(0,0)"/>
<path d="" fill="#F08A1D" transform="translate(0,0)"/>
<path d="" fill="#F08A1D" transform="translate(0,0)"/>
<path d="" fill="#F08A1D" transform="translate(0,0)"/>
<path d="" fill="#F08A1D" transform="translate(0,0)"/>
<path d="" fill="#F08A1D" transform="translate(0,0)"/>
<path d="" fill="#F08A1D" transform="translate(0,0)"/>
<path d="" fill="#F08A1D" transform="translate(0,0)"/>
<path d="" fill="#F08A1D" transform="translate(0,0)"/>
<path d="" fill="#F08A1D" transform="translate(0,0)"/>
<path d="" fill="#F08A1D" transform="translate(0,0)"/>
<path d="" fill="#F08A1D" transform="translate(0,0)"/>
<path d="" fill="#F08A1D" transform="translate(0,0)"/>
<path d="" fill="#F08A1D" transform="translate(0,0)"/>
<path d="" fill="#F08A1D" transform="translate(0,0)"/>
<path d="" fill="#F08A1D" transform="translate(0,0)"/>
<path d="" fill="#F08A1D" transform="translate(0,0)"/>
<path d="" fill="#4094D3" transform="translate(0,0)"/>
<path d="" fill="#F08A1D" transform="translate(0,0)"/>
<path d="" fill="#F08A1D" transform="translate(0,0)"/>
<path d="" fill="#F08A1D" transform="translate(0,0)"/>
<path d="" fill="#4094D3" transform="translate(0,0)"/>
<path d="" fill="#F08A1D" transform="translate(0,0)"/>
<path d="" fill="#F08A1D" transform="translate(0,0)"/>
<path d="" fill="#F08A1D" transform="translate(0,0)"/>
<path d="" fill="#F08A1D" transform="translate(0,0)"/>
<path d="" fill="#F08A1D" transform="translate(0,0)"/>
<path d="" fill="#4094D3" transform="translate(0,0)"/>
<path d="" fill="#F08A1D" transform="translate(0,0)"/>
<path d="" fill="#F08A1D" transform="translate(0,0)"/>
<path d="" fill="#F08A1D" transform="translate(0,0)"/>
<path d="" fill="#F08A1D" transform="translate(0,0)"/>
<path d="" fill="#4094D3" transform="translate(0,0)"/>
<path d="" fill="#F08A1D" transform="translate(0,0)"/>
<path d="" fill="#F08A1D" transform="translate(0,0)"/>
<path d="" fill="#F08A1D" transform="translate(0,0)"/>
<path d="" fill="#F08A1D" transform="translate(0,0)"/>
<path d="" fill="#4094D3" transform="translate(0,0)"/>
<path d="" fill="#F08A1D" transform="translate(0,0)"/>
<path d="" fill="#4094D3" transform="translate(0,0)"/>
<path d="" fill="#F08A1D" transform="translate(0,0)"/>
<path d="" fill="#F08A1D" transform="translate(0,0)"/>
<path d="" fill="#4094D3" transform="translate(0,0)"/>
<path d="" fill="#F08A1D" transform="translate(0,0)"/>
<path d="" fill="#F08A1D" transform="translate(0,0)"/>
<path d="" fill="#F08A1D" transform="translate(0,0)"/>
<path d="" fill="#4094D3" transform="translate(0,0)"/>
<path d="" fill="#4094D3" transform="translate(0,0)"/>
<path d="" fill="#F08A1D" transform="translate(0,0)"/>
<path d="" fill="#4094D3" transform="translate(0,0)"/>
<path d="" fill="#F08A1D" transform="translate(0,0)"/>
<path d="" fill="#4094D3" transform="translate(0,0)"/>
<path d="" fill="#F08A1D" transform="translate(0,0)"/>
<path d="" fill="#4094D3" transform="translate(0,0)"/>
<path d="" fill="#F08A1D" transform="translate(0,0)"/>
<path d="" fill="#4094D3" transform="translate(0,0)"/>
<path d="" fill="#4094D3" transform="translate(0,0)"/>
<path d="" fill="#F08A1D" transform="translate(0,0)"/>
<path d="" fill="#F08A1D" transform="translate(0,0)"/>
<path d="" fill="#4094D3" transform="translate(0,0)"/>
<path d="" fill="#4094D3" transform="translate(0,0)"/>
<path d="" fill="#F08A1D" transform="translate(0,0)"/>
<path d="" fill="#F08A1D" transform="translate(0,0)"/>
<path d="" fill="#4094D3" transform="translate(0,0)"/>
<path d="" fill="#4094D3" transform="translate(0,0)"/>
<path d="" fill="#F08A1D" transform="translate(0,0)"/>
<path d="" fill="#4094D3" transform="translate(0,0)"/>
<path d="" fill="#F08A1D" transform="translate(0,0)"/>
<path d="" fill="#F08A1D" transform="translate(0,0)"/>
<path d="" fill="#F08A1D" transform="translate(0,0)"/>
<path d="" fill="#4094D3" transform="translate(0,0)"/>
<path d="" fill="#4094D3" transform="translate(0,0)"/>
<path d="" fill="#F08A1D" transform="translate(0,0)"/>
<path d="" fill="#4094D3" transform="translate(0,0)"/>
<path d="" fill="#F08A1D" transform="translate(0,0)"/>
<path d="" fill="#4094D3" transform="translate(0,0)"/>
<path d="" fill="#F08A1D" transform="translate(0,0)"/>
<path d="" fill="#4094D3" transform="translate(0,0)"/>
<path d="" fill="#F08A1D" transform="translate(0,0)"/>
<path d="" fill="#F08A1D" transform="translate(0,0)"/>
<path d="" fill="#F08A1D" transform="translate(0,0)"/>
<path d="" fill="#F08A1D" transform="translate(0,0)"/>
<path d="" fill="#F08A1D" transform="translate(0,0)"/>
<path d="" fill="#F08A1D" transform="translate(0,0)"/>
<path d="" fill="#F08A1D" transform="translate(0,0)"/>
<path d="" fill="#F08A1D" transform="translate(0,0)"/>
<path d="" fill="#F08A1D" transform="translate(0,0)"/>
<path d="" fill="#F08A1D" transform="translate(0,0)"/>
<path d="" fill="#4094D3" transform="translate(0,0)"/>
<path d="" fill="#F08A1D" transform="translate(0,0)"/>
<path d="" fill="#4094D3" transform="translate(0,0)"/>
<path d="" fill="#F08A1D" transform="translate(0,0)"/>
<path d="" fill="#F08A1D" transform="translate(0,0)"/>
<path d="" fill="#F08A1D" transform="translate(0,0)"/>
<path d="" fill="#F08A1D" transform="translate(0,0)"/>
<path d="" fill="#F08A1D" transform="translate(0,0)"/>
<path d="" fill="#F08A1D" transform="translate(0,0)"/>
<path d="" fill="#F08A1D" transform="translate(0,0)"/>
<path d="" fill="#F08A1D" transform="translate(0,0)"/>
<path d="" fill="#F08A1D" transform="translate(0,0)"/>
<path d="" fill="#F08A1D" transform="translate(0,0)"/>
<path d="" fill="#F08A1D" transform="translate(0,0)"/>
<path d="" fill="#F08A1D" transform="translate(0,0)"/>
<path d="" fill="#F08A1D" transform="translate(0,0)"/>
<path d="" fill="#F08A1D" transform="translate(0,0)"/>
<path d="" fill="#F08A1D" transform="translate(0,0)"/>
<path d="" fill="#F08A1D" transform="translate(0,0)"/>
<path d="" fill="#F08A1D" transform="translate(0,0)"/>
<path d="" fill="#F08A1D" transform="translate(0,0)"/>
<path d="" fill="#F08A1D" transform="translate(0,0)"/>
<path d="" fill="#F08A1D" transform="translate(0,0)"/>
<path d="" fill="#F08A1D" transform="translate(0,0)"/>
<path d="" fill="#F08A1D" transform="translate(0,0)"/>
<path d="" fill="#F08A1D" transform="translate(0,0)"/>
<path d="" fill="#F08A1D" transform="translate(0,0)"/>
<path d="" fill="#F08A1D" transform="translate(0,0)"/>
<path d="" fill="#F08A1D" transform="translate(0,0)"/>
<path d="" fill="#F08A1D" transform="translate(0,0)"/>
<path d="" fill="#F08A1D" transform="translate(0,0)"/>
<path d="" fill="#F08A1D" transform="translate(0,0)"/>
<path d="" fill="#F08A1D" transform="translate(0,0)"/>
<path d="" fill="#F08A1D" transform="translate(0,0)"/>
<path d="" fill="#F08A1D" transform="translate(0,0)"/>
<path d="" fill="#F08A1D" transform="translate(0,0)"/>
<path d="" fill="#F08A1D" transform="translate(0,0)"/>
<path d="" fill="#F08A1D" transform="translate(0,0)"/>
<path d="" fill="#F08A1D" transform="translate(0,0)"/>
<path d="" fill="#F08A1D" transform="translate(0,0)"/>
<path d="" fill="#F08A1D" transform="translate(0,0)"/>
<path d="" fill="#F08A1D" transform="translate(0,0)"/>
<path d="" fill="#F08A1D" transform="translate(0,0)"/>
<path d="" fill="#F08A1D" transform="translate(0,0)"/>
<path d="" fill="#F08A1D" transform="translate(0,0)"/>
<path d="" fill="#F08A1D" transform="translate(0,0)"/>
<path d="" fill="#F08A1D" transform="translate(0,0)"/>
<path d="" fill="#F08A1D" transform="translate(0,0)"/>
<path d="" fill="#F08A1D" transform="translate(0,0)"/>
<path d="" fill="#F08A1D" transform="translate(0,0)"/>
<path d="" fill="#F08A1D" transform="translate(0,0)"/>
<path d="" fill="#F08A1D" transform="translate(0,0)"/>
<path d="" fill="#F08A1D" transform="translate(0,0)"/>
<path d="" fill="#F08A1D" transform="translate(0,0)"/>
<path d="" fill="#F08A1D" transform="translate(0,0)"/>
<path d="" fill="#F08A1D" transform="translate(0,0)"/>
<path d="" fill="#F08A1D" transform="translate(0,0)"/>
<path d="" fill="#F08A1D" transform="translate(0,0)"/>
<path d="" fill="#F08A1D" transform="translate(0,0)"/>
<path d="" fill="#F08A1D" transform="translate(0,0)"/>
<path d="" fill="#F08A1D" transform="translate(0,0)"/>
<path d="" fill="#F08A1D" transform="translate(0,0)"/>
<path d="" fill="#F08A1D" transform="translate(0,0)"/>
<path d="" fill="#F08A1D" transform="translate(0,0)"/>
<path d="" fill="#F08A1D" transform="translate(0,0)"/>
</svg>
