<?xml version="1.0" encoding="UTF-8"?>
<svg version="1.1" xmlns="http://www.w3.org/2000/svg" width="3840" height="3840">
<path d="M0 0 C1116.39 0 2232.78 0 3383 0 C3381.85140137 19.52617663 3381.85140137 19.52617663 3381.10471535 27.75313091 C3381.01993006 28.71074735 3380.93514478 29.6683638 3380.84779024 30.65499892 C3380.56724731 33.81666167 3380.28310193 36.97798936 3379.99893188 40.139328 C3379.79249591 42.45722356 3379.58628529 44.7751392 3379.38027793 47.09307289 C3378.81468463 53.44961648 3378.24591089 59.80587204 3377.67661075 66.16208456 C3377.12099837 72.36835452 3376.56833606 78.57488757 3376.01534345 84.78139138 C3374.87152797 97.61803889 3373.72531197 110.45447101 3372.57777977 123.29078674 C3371.41770259 136.26756568 3370.25876626 149.24444576 3369.10122108 162.22145081 C3369.02810728 163.04110906 3368.95499347 163.86076732 3368.8796641 164.70526371 C3368.50686816 168.88464093 3368.13409203 173.06401991 3367.76132383 177.24339961 C3365.06293158 207.49670473 3362.36214316 237.74979555 3359.66012573 268.0027771 C3356.95762602 298.26131076 3354.25628296 328.51994737 3351.556427 358.77871704 C3351.4719021 359.7260313 3351.38737721 360.67334556 3351.30029095 361.64936632 C3350.26950179 373.20199536 3349.23876363 384.75462895 3348.20804489 396.30726427 C3346.64187594 413.8613777 3345.07561252 431.4154827 3343.50934078 448.96958696 C3343.24625675 451.91812475 3342.98317422 454.86666268 3342.72009186 457.81520062 C3340.14002332 486.73166174 3337.55945466 515.6480782 3334.97855702 544.56446533 C3326.6990339 637.32841624 3318.42318725 730.09269337 3307.18507145 856.19110962 C3306.95693094 858.75112564 3306.72878926 861.31114156 3306.50064722 863.87115744 C3303.62374277 896.15334276 3300.74697694 928.43554043 3297.87040424 960.71775532 C3297.79586041 961.5543203 3297.72131658 962.39088528 3297.64451384 963.25280071 C3297.26800269 967.4781828 3296.89149192 971.70356492 3296.51498116 975.92894704 C3296.36434739 977.61943027 3296.21371361 979.3099135 3296.06307983 981.00039673 C3295.98851243 981.83722755 3295.91394502 982.67405837 3295.837118 983.5362477 C3292.32781836 1022.91924679 3288.81802252 1062.30220165 3285.30813154 1101.68514804 C3284.92364426 1105.99931313 3284.53915793 1110.3134783 3284.15467155 1114.62764347 C3283.00109748 1127.57142601 3281.84752305 1140.51520852 3280.6939452 1153.45899072 C3278.46702204 1178.44630514 3276.24014019 1203.43362325 3274.01329041 1228.42094421 C3273.93741876 1229.27229442 3273.86154711 1230.12364463 3273.78337632 1231.00079334 C3273.01735604 1239.59625165 3272.25133656 1248.19171004 3271.48531759 1256.78716848 C3269.87827744 1274.81968089 3268.2712326 1292.85219288 3266.66418457 1310.88470459 C3266.58850624 1311.73388295 3266.51282791 1312.58306132 3266.43485629 1313.45797236 C3258.91350633 1397.85421178 3251.39194052 1482.25043196 3235.41484771 1661.52096948 C3234.34670857 1673.50594394 3233.27857139 1685.49091858 3232.21043588 1697.47589337 C3224.55826865 1783.3367507 3216.90603752 1869.19760234 3188.13671875 2191.96875 C3187.96915191 2193.84862858 3187.80158508 2195.72850716 3187.63401824 2197.60838574 C3181.3413809 2268.20345802 3175.04867205 2338.79852393 3168.75592899 2409.39358679 C3164.61153487 2455.88742326 3160.46715753 2502.38126122 3156.32281927 2548.87510266 C3156.15712217 2550.73399882 3155.99142505 2552.59289499 3155.8257279 2554.45179114 C3147.36687353 2649.34860992 3138.90842005 2744.24546441 3123.2822536 2919.57558201 C3122.93287683 2923.49573664 3122.58349973 2927.41589124 3122.23412263 2931.33604583 C3115.48060763 3007.1132607 3108.72717854 3082.89048322 3101.97393304 3158.66772211 C3101.6584863 3162.20730615 3101.34303951 3165.74689019 3101.02759266 3169.28647423 C3100.91113437 3170.59323608 3100.91113437 3170.59323608 3100.79232338 3171.92639716 C3099.641491 3184.83971915 3098.4906497 3197.75304034 3097.33980083 3210.66636086 C3097.26563067 3211.49860153 3097.19146051 3212.33084221 3097.11504277 3213.1883023 C3096.37871211 3221.45044205 3095.64238039 3229.71258171 3094.906047 3237.97472122 C3093.37305974 3255.17584013 3091.84009516 3272.37696107 3090.30718272 3289.57808665 C3089.21743879 3301.80632307 3088.12766274 3314.03455662 3087.03785465 3326.26278733 C3086.45831218 3332.76557549 3085.87878438 3339.26836495 3085.29929924 3345.77115822 C3082.20320083 3380.51443334 3079.1031085 3415.2573503 3076 3450 C3074.73638618 3450.47980914 3073.47219634 3450.95810147 3072.20777035 3451.43576622 C3071.50383772 3451.70228032 3070.79990509 3451.96879443 3070.07464117 3452.24338472 C3067.20076285 3453.29147934 3064.28854808 3454.13645748 3061.34399414 3454.96337891 C3060.72301063 3455.13879904 3060.10202711 3455.31421917 3059.46222591 3455.49495506 C3057.40411286 3456.0754475 3055.3446554 3456.65100886 3053.28515625 3457.2265625 C3051.79321042 3457.64626779 3050.30135085 3458.06627984 3048.80957031 3458.48657227 C3044.74827077 3459.62986065 3040.68577721 3460.76885216 3036.62306595 3461.90711212 C3032.28437296 3463.12352098 3027.94681812 3464.34397545 3023.60913086 3465.56396484 C3015.26460089 3467.91023443 3006.91907528 3470.25294226 2998.5731802 3472.59435081 C2989.1598664 3475.23535674 2979.74750943 3477.87976387 2970.33526611 3480.52458191 C2958.12486677 3483.95565868 2945.91429341 3487.38611438 2933.703125 3490.81445312 C2910.81952227 3497.23929403 2887.93931121 3503.67602159 2865.0625 3510.125 C2838.8408036 3517.51682264 2812.61147716 3524.88119168 2786.37901688 3532.23471832 C2761.74785093 3539.13941735 2737.12088059 3546.05871495 2712.5 3553 C2687.00582197 3560.18749097 2661.50484103 3567.35044079 2636 3574.5 C2610.64122412 3581.60870309 2585.28595582 3588.72958219 2559.9375 3595.875 C2533.50381622 3603.32610833 2507.0658069 3610.76170742 2480.625 3618.1875 C2478.74529007 3618.7154234 2476.86558019 3619.24334698 2474.98587036 3619.77127075 C2460.69907033 3623.78371882 2446.41208801 3627.79551767 2432.12509155 3631.80726624 C2418.8144766 3635.54485729 2405.5039135 3639.28263289 2392.19349289 3643.02091599 C2390.31360434 3643.54888955 2388.4337139 3644.07685636 2386.55382156 3644.60481644 C2360.33750562 3651.96761554 2334.12454603 3659.34220528 2307.91533661 3666.73025894 C2282.40927516 3673.92001335 2256.89546103 3681.08190651 2231.37901688 3688.23471832 C2206.74785093 3695.13941735 2182.12088059 3702.05871495 2157.5 3709 C2132.00582197 3716.18749097 2106.50484103 3723.35044079 2081 3730.5 C2055.64122412 3737.60870309 2030.28595582 3744.72958219 2004.9375 3751.875 C1978.50381622 3759.32610833 1952.0658069 3766.76170742 1925.625 3774.1875 C1923.74529007 3774.7154234 1921.86558019 3775.24334698 1919.98587036 3775.77127075 C1905.69907033 3779.78371882 1891.41208801 3783.79551767 1877.12509155 3787.80726624 C1863.8109027 3791.54586084 1850.49678209 3795.28469828 1837.1827774 3799.02394867 C1834.38518692 3799.80963905 1831.58758349 3800.59528335 1828.78997803 3801.38092041 C1809.40724391 3806.82420178 1790.02573684 3812.27177478 1770.6484375 3817.734375 C1769.01659156 3818.19435179 1767.38474545 3818.65432799 1765.75289917 3819.11430359 C1756.5925132 3821.69653793 1756.5925132 3821.69653793 1747.43280029 3824.28115845 C1746.04292949 3824.67352802 1744.65305728 3825.0658926 1743.26318359 3825.45825195 C1742.58785646 3825.64890008 1741.91252934 3825.83954821 1741.21673775 3826.03597355 C1735.42178981 3827.67122783 1729.62414783 3829.29682461 1723.82641602 3830.92218018 C1720.50920037 3831.85656911 1717.19469991 3832.79965485 1713.88126755 3833.74731922 C1711.21081179 3834.50937485 1708.53828773 3835.26398719 1705.86530304 3836.01711845 C1704.01141986 3836.54208628 1702.16016907 3837.07632272 1700.309021 3837.6108551 C1698.62706635 3838.08276527 1698.62706635 3838.08276527 1696.91113281 3838.56420898 C1695.93492981 3838.84248032 1694.95872681 3839.12075165 1693.95294189 3839.40745544 C1687.62069727 3840.67809916 1682.21468293 3839.78372118 1676.09863281 3838.0065918 C1675.33563779 3837.79283874 1674.57264277 3837.57908567 1673.78652668 3837.35885525 C1671.25619577 3836.64762383 1668.72975629 3835.92347311 1666.203125 3835.19921875 C1664.40313144 3834.69044328 1662.60290932 3834.18247588 1660.80247498 3833.67526245 C1655.95819165 3832.30811306 1651.11715636 3830.9297772 1646.27663803 3829.549366 C1641.18605659 3828.0997711 1636.09251198 3826.66066355 1630.99926758 3825.22045898 C1621.80229538 3822.61827544 1612.60776591 3820.00758698 1603.41444302 3817.39254284 C1595.42826095 3815.12104526 1587.44022308 3812.85615611 1579.45121956 3810.59460449 C1569.52036376 3807.7832918 1559.59071081 3804.9677744 1549.66233826 3802.14770508 C1527.63471089 3795.89096982 1505.59886236 3789.66338963 1483.5625 3783.4375 C1481.60134817 3782.88339484 1479.64019705 3782.32928717 1477.67904663 3781.775177 C1469.74992756 3779.53487691 1461.82078279 3777.29466781 1453.8915863 3775.05464172 C1440.22829826 3771.19471288 1426.56522631 3767.33402013 1412.90234375 3763.47265625 C1411.95650484 3763.20534636 1411.01066593 3762.93803646 1410.03616524 3762.66262627 C1405.26571456 3761.31441255 1400.49526787 3759.96618469 1395.724823 3758.61795044 C1387.10876259 3756.18286671 1378.4926666 3753.74790888 1369.87657356 3751.3129406 C1365.08438094 3749.95863213 1360.29219059 3748.60431566 1355.5 3747.25 C1353.58333334 3746.70833329 1351.66666668 3746.16666663 1349.75 3745.625 C1254.875 3718.8125 1160 3692 507.3749361 3507.56248188 C505.45848247 3507.02087546 503.54202879 3506.47926919 501.62557507 3505.93766308 C496.83064867 3504.58257591 492.03572304 3503.22748607 487.24079895 3501.87239075 C478.65472469 3499.44587981 470.06864549 3497.01938638 461.48253727 3494.59299564 C456.74226062 3493.25341682 452.00198851 3491.91382195 447.26171875 3490.57421875 C446.32110785 3490.30840185 445.38049694 3490.04258495 444.41138268 3489.768713 C431.28522307 3486.05922329 418.15927632 3482.3489812 405.03347778 3478.63821411 C397.67071236 3476.55670571 390.30788982 3474.47539938 382.94505501 3472.39413643 C377.9422446 3470.9799681 372.9394661 3469.56568712 367.93676758 3468.15112305 C347.63132556 3462.40960211 327.32509314 3456.67165639 307 3451 C305.41078256 3437.32920169 304.10979878 3423.64250137 302.89404297 3409.9339447 C302.6889509 3407.63789991 302.48368705 3405.34187046 302.2782684 3403.04585487 C301.71630733 3396.75911033 301.15677179 3390.47215196 300.5976444 3384.18515486 C300.05189557 3378.0507929 299.50389755 3371.91663164 298.95615458 3365.78244749 C297.82538746 3353.11822901 296.69645904 3340.45384724 295.56855583 3327.7893734 C294.43190172 3315.02671993 293.29440116 3302.26414233 292.15585518 3289.50165749 C292.08406328 3288.69690318 292.01227138 3287.89214886 291.93830397 3287.06300806 C291.57243016 3282.96177364 291.20654264 3278.86054044 290.8406504 3274.75930766 C288.20067948 3245.16792897 285.56260943 3215.57638106 282.92556763 3185.98474121 C280.29745676 3156.49336886 277.66852481 3127.00206988 275.0385437 3097.51086426 C274.95633478 3096.58901265 274.87412586 3095.66716105 274.78942577 3094.71737455 C274.03943369 3086.30732164 273.28943321 3077.89726947 272.53942234 3069.48721824 C270.69136617 3048.76451016 268.84344395 3028.04179013 266.99562073 3007.31906128 C266.91211076 3006.38252496 266.82860079 3005.44598863 266.74256021 3004.48107242 C261.8336946 2949.42960416 256.92705691 2894.37793732 252.02037393 2839.32627448 C251.85608503 2837.48299732 251.6917961 2835.63972016 251.52750714 2833.79644301 C251.12015731 2829.22608934 250.71280791 2824.65573563 250.30545934 2820.08538185 C247.1720787 2784.92963923 244.03816141 2749.77394447 240.9040309 2714.61826869 C239.65651299 2700.62480637 238.40901322 2686.63134243 237.16151428 2672.63787842 C237.09771652 2671.92224572 237.03391877 2671.20661301 236.96818774 2670.46929447 C230.73306321 2600.52859127 224.49855973 2530.58783269 207.25120648 2337.04048187 C206.06964436 2323.78052062 204.88807894 2310.52055967 203.70650906 2297.26059911 C203.57399388 2295.77347071 203.44147875 2294.28634232 203.30896365 2292.79921392 C196.63970827 2217.95462547 189.96932063 2143.11013795 183.29878008 2068.26566404 C182.84352514 2063.15763426 182.38827088 2058.04960443 181.93301678 2052.94157457 C179.25055562 2022.84389764 176.56808872 1992.74622123 173.88561005 1962.64854586 C167.4888124 1890.87584341 161.09215036 1819.10312888 154.6955156 1747.33041191 C153.5167712 1734.10444376 152.33802549 1720.87847573 151.15927887 1707.65250778 C143.72102406 1624.19256623 136.28283315 1540.73261898 128.84473896 1457.27266312 C128.69308882 1455.57105602 128.54143868 1453.86944893 128.38978854 1452.16784184 C128.31473853 1451.32573486 128.23968851 1450.48362789 128.16236425 1449.61600252 C127.85923378 1446.21469373 127.55610331 1442.81338494 127.25297283 1439.41207615 C127.10148224 1437.71225942 126.94999166 1436.0124427 126.79850109 1434.31262597 C124.4473972 1407.9318052 122.09628447 1381.55098522 119.74516296 1355.17016602 C119.66994726 1354.32620627 119.59473156 1353.48224653 119.5172366 1352.61271225 C117.92169439 1334.70988916 116.32615064 1316.8070662 114.73060491 1298.90424342 C113.97106826 1290.38186137 113.21153197 1281.85947927 112.45199585 1273.33709717 C112.37681921 1272.49357707 112.30164257 1271.65005697 112.22418785 1270.78097565 C110.03208597 1246.18447742 107.84000299 1221.5879775 105.64793537 1196.99147621 C101.84998062 1154.37582299 98.05197839 1111.76017401 94.25390625 1069.14453125 C94.17799765 1068.29281086 94.10208905 1067.44109047 94.02388019 1066.56356037 C85.79277618 974.20777306 77.56077517 881.85206574 64.91238254 739.9694587 C62.4295797 712.11897903 59.94682334 684.26849521 57.4641014 656.41800833 C57.00766661 651.297851 56.55123105 646.17769374 56.09479553 641.05753648 C53.14688533 607.98875643 53.14688533 607.98875643 52.00821668 595.21546085 C50.83868489 582.09595123 49.66914802 568.97644206 48.49960327 555.85693359 C48.41113436 554.86452283 48.32266545 553.87211207 48.23151567 552.84962826 C45.69388652 524.38349136 43.15609579 495.91736887 40.61815702 467.45125957 C40.107784 461.72679433 39.5974155 456.00232869 39.08704859 450.27786291 C39.00333837 449.3389379 38.91962816 448.4000129 38.83338127 447.43263562 C38.41287223 442.71604678 37.99236394 437.99945786 37.57185635 433.28286888 C37.40473631 431.40838108 37.23761626 429.53389327 37.0704962 427.65940547 C36.98800502 426.73414982 36.90551383 425.80889416 36.82052291 424.85560046 C36.32397893 419.28616304 35.82742875 413.71672618 35.33087417 408.1472897 C31.87742295 369.41279551 28.42450805 330.67825375 24.97431572 291.94346913 C24.67886492 288.62650157 24.38340675 285.30953467 24.08794849 281.99256777 C23.72398038 277.90647129 23.36001546 273.82037452 22.99605083 269.73427773 C22.92470342 268.93328708 22.853356 268.13229644 22.77984655 267.30703335 C22.072649 259.36757686 21.36546126 251.42811951 20.65833999 243.48865623 C17.35985269 206.45378164 14.0556054 169.41943485 10.73956032 132.38612729 C9.53782544 118.96353428 8.33913571 105.54066925 7.14109111 92.11774641 C6.26548784 82.30922174 5.38711334 72.50095473 4.50438809 62.69306837 C3.93989009 56.41850137 3.37870158 50.1436447 2.82043219 43.86852045 C2.5121953 40.40507228 2.20247748 36.94177615 1.88826084 33.47886491 C1.55864325 29.83775729 1.23494064 26.19617146 0.91278076 22.55439758 C0.81839289 21.52837234 0.72400502 20.5023471 0.62675691 19.44523019 C0.54289538 18.48329603 0.45903386 17.52136188 0.37263107 16.53027821 C0.30000636 15.72040984 0.22738164 14.91054147 0.15255618 14.07613164 C-0.07986679 9.389572 0 4.69231944 0 0 Z " fill="#E34F26" transform="translate(225,0)"/>
<path d="M0 0 C700.26 0 1400.52 0 2122 0 C2122 7.86257118 2121.96033896 15.53848375 2121.43676758 23.3527832 C2121.34640228 24.77616501 2121.34640228 24.77616501 2121.25421143 26.228302 C2121.05552037 29.33610746 2120.85045622 32.44344727 2120.64453125 35.55078125 C2120.49946172 37.77132995 2120.35450054 39.99188574 2120.2096405 42.21244812 C2119.90416205 46.8767863 2119.59510867 51.54087243 2119.28393555 56.20483398 C2118.97246609 60.88023873 2118.66706077 65.55596818 2118.36791992 70.23217773 C2116.42659745 100.55877875 2113.89987552 130.75217689 2110.55496216 160.95651245 C2109.80429272 167.746011 2109.10523025 174.54053325 2108.41015625 181.3359375 C2108.18440108 183.52183445 2107.95841377 185.70770745 2107.73217773 187.89355469 C2107.62316132 188.94877319 2107.5141449 190.0039917 2107.40182495 191.09118652 C2107.03909395 194.60151178 2106.67594932 198.11179409 2106.31274414 201.62207031 C2105.15390096 212.8239918 2103.99668146 224.02607556 2102.8447876 235.22871399 C2102.3362171 240.17360988 2101.82674291 245.11841245 2101.31713867 250.0632019 C2101.0633214 252.5281063 2100.8099057 254.99305207 2100.55688477 257.45803833 C2099.34391606 269.27130297 2098.1263496 281.08251464 2096.7578125 292.87890625 C2093.24415205 323.36181283 2090.7714283 353.91539704 2088.32250977 384.49926758 C2088.1744693 386.34288577 2088.02642354 388.18650353 2087.87837219 390.03012085 C2087.60032224 393.49386747 2087.32554087 396.95785122 2087.05290222 400.42202759 C2086.92759939 401.99221412 2086.80222209 403.56239472 2086.67675781 405.13256836 C2086.62274087 405.83005345 2086.56872393 406.52753855 2086.51307011 407.24615955 C2086.16670905 411.54494712 2085.61206062 415.71557567 2085 420 C1550.4 420 1015.8 420 465 420 C465.66 425.61 466.32 431.22 467 437 C467.45207106 441.59460059 467.8892493 446.18680701 468.296875 450.78515625 C468.46771858 452.68352989 468.46771858 452.68352989 468.64201355 454.62025452 C468.95026021 458.04990724 469.2551499 461.47985006 469.55906296 464.90988922 C469.7530557 467.09694978 469.94796016 469.28392746 470.14309692 471.47088623 C472.35347884 496.25718271 474.44324855 521.05277629 476.49380207 545.8527317 C478.42955167 569.25997426 480.41367388 592.66270574 482.4375 616.0625 C482.51032951 616.90496906 482.58315903 617.74743813 482.6581955 618.61543655 C484.34558917 638.13108012 486.05145 657.64501122 487.7890625 677.15625 C487.86262529 677.98236471 487.93618809 678.80847942 488.01198006 679.65962791 C488.38177272 683.81186396 488.75173055 687.96408528 489.12173462 692.11630249 C489.19455784 692.93354671 489.26738106 693.75079094 489.34241104 694.59280014 C489.48886887 696.23625778 489.63535061 697.8797133 489.78185654 699.52316666 C492.27141429 727.45556433 494.65490828 755.39571881 496.95922852 783.34399414 C497.01615844 784.03395698 497.07308836 784.72391981 497.13174343 785.43479061 C497.41241053 788.83717672 497.69228583 792.23962443 497.97068787 795.64219666 C498.56688556 802.90651067 499.18864246 810.16796156 499.83789062 817.42773438 C500.04774618 819.79551511 500.25728781 822.16332347 500.46678925 824.53113556 C500.6650984 826.75222614 500.86909537 828.9727437 501.07330322 831.19329834 C501.19595793 832.57578092 501.31834641 833.95828715 501.44042969 835.34082031 C501.54861023 836.5326593 501.65679077 837.72449829 501.76824951 838.95245361 C502.07405887 844.29344581 502 849.6502601 502 855 C1011.85 855 1521.7 855 2047 855 C2047 860.81486276 2046.93489134 865.53793453 2046.08203125 871.12890625 C2045.98467682 871.78407227 2045.88732239 872.43923828 2045.78701782 873.11425781 C2045.57698146 874.52652081 2045.364284 875.9383902 2045.1491394 877.34988403 C2044.56023867 881.22052769 2043.99408984 885.09446856 2043.4296875 888.96875 C2043.25181953 890.18831139 2043.25181953 890.18831139 2043.07035828 891.43251038 C2041.49417855 902.35378954 2040.18324208 913.30962913 2038.8762207 924.26586914 C2038.6878461 925.82448258 2038.49862819 927.38299432 2038.30859375 928.94140625 C2038.21148605 929.74010635 2038.11437836 930.53880646 2038.014328 931.36170959 C2037.46530909 935.73789773 2036.8344983 940.08704233 2036.09375 944.43505859 C2032.62204581 964.9845023 2031.05307059 985.65141123 2029.37607956 1006.408535 C2028.94877152 1011.66984678 2028.51063985 1016.93025389 2028.07250977 1022.19067383 C2027.98480851 1023.24375512 2027.89710726 1024.29683641 2027.80674839 1025.38182926 C2027.62988781 1027.50491523 2027.45297402 1029.62799676 2027.2760067 1031.75107384 C2027.01237049 1034.91795234 2026.74984092 1038.08492106 2026.48750305 1041.25190735 C2025.06413179 1058.40619225 2023.52781857 1075.54797246 2021.9375 1092.6875 C2019.58071691 1118.17555389 2017.40587995 1143.67631161 2015.27585983 1169.18416977 C2013.16567155 1194.44994516 2010.96611847 1219.7043313 2008.63525391 1244.95068359 C2006.46831442 1268.45720341 2004.46423659 1291.97573726 2002.5 1315.5 C2000.31563557 1341.66057712 1998.04866468 1367.81024638 1995.63525391 1393.95068359 C1993.46831442 1417.45720341 1991.46423659 1440.97573726 1989.5 1464.5 C1987.31563557 1490.66057712 1985.04866468 1516.81024638 1982.63525391 1542.95068359 C1980.46831442 1566.45720341 1978.46423659 1589.97573726 1976.5 1613.5 C1974.31563557 1639.66057712 1972.04866468 1665.81024638 1969.63525391 1691.95068359 C1967.46831442 1715.45720341 1965.46423659 1738.97573726 1963.5 1762.5 C1961.31563557 1788.66057712 1959.04866468 1814.81024638 1956.63525391 1840.95068359 C1954.46831414 1864.45720647 1952.46453465 1887.97576026 1950.5 1911.5 C1948.23254062 1938.64658238 1945.88055503 1965.78269958 1943.38181591 1992.90896416 C1943.07443978 1996.24656286 1942.76750542 1999.58420197 1942.4609375 2002.921875 C1942.40048059 2003.57989231 1942.34002369 2004.23790962 1942.27773476 2004.91586685 C1941.33069809 2015.23791386 1940.42369125 2025.56305258 1939.5390625 2035.890625 C1939.47835508 2036.59882322 1939.41764767 2037.30702145 1939.35510063 2038.03668022 C1939.10876795 2040.91063458 1938.86258573 2043.78460181 1938.61648464 2046.65857601 C1935.37850906 2084.46904299 1931.75070888 2122.23719256 1928 2160 C1926.41827304 2160.47670683 1924.83637006 2160.95282965 1923.25439453 2161.42871094 C1921.93304001 2161.82651764 1921.93304001 2161.82651764 1920.58499146 2162.23236084 C1917.0283455 2163.28854256 1913.45391488 2164.27258834 1909.875 2165.25 C1903.74449265 2166.93492847 1897.63817474 2168.6885516 1891.54199219 2170.49365234 C1880.63566379 2173.71979505 1869.68421942 2176.68903727 1858.66650391 2179.51074219 C1850.10475938 2181.70415481 1841.58381154 2184.01389066 1833.07861328 2186.41601562 C1830.96970162 2187.0085123 1828.85840648 2187.59162756 1826.74609375 2188.171875 C1819.32997531 2190.21159968 1811.9351273 2192.30692149 1804.55957031 2194.48925781 C1793.64664372 2197.71442054 1782.69012836 2200.68752395 1771.66650391 2203.51074219 C1763.10475938 2205.70415481 1754.58381154 2208.01389066 1746.07861328 2210.41601562 C1743.96970162 2211.0085123 1741.85840648 2211.59162756 1739.74609375 2212.171875 C1732.32997531 2214.21159968 1724.9351273 2216.30692149 1717.55957031 2218.48925781 C1706.64664372 2221.71442054 1695.69012836 2224.68752395 1684.66650391 2227.51074219 C1676.10475938 2229.70415481 1667.58381154 2232.01389066 1659.07861328 2234.41601562 C1656.96970162 2235.0085123 1654.85840648 2235.59162756 1652.74609375 2236.171875 C1645.32997531 2238.21159968 1637.9351273 2240.30692149 1630.55957031 2242.48925781 C1619.64664372 2245.71442054 1608.69012836 2248.68752395 1597.66650391 2251.51074219 C1589.10475938 2253.70415481 1580.58381154 2256.01389066 1572.07861328 2258.41601562 C1569.96970162 2259.0085123 1567.85840648 2259.59162756 1565.74609375 2260.171875 C1558.32997531 2262.21159968 1550.9351273 2264.30692149 1543.55957031 2266.48925781 C1532.64664372 2269.71442054 1521.69012836 2272.68752395 1510.66650391 2275.51074219 C1502.10475938 2277.70415481 1493.58381154 2280.01389066 1485.07861328 2282.41601562 C1482.96970162 2283.0085123 1480.85840648 2283.59162756 1478.74609375 2284.171875 C1471.32997531 2286.21159968 1463.9351273 2288.30692149 1456.55957031 2290.48925781 C1445.64664372 2293.71442054 1434.69012836 2296.68752395 1423.66650391 2299.51074219 C1415.10475938 2301.70415481 1406.58381154 2304.01389066 1398.07861328 2306.41601562 C1395.96970162 2307.0085123 1393.85840648 2307.59162756 1391.74609375 2308.171875 C1384.32997531 2310.21159968 1376.9351273 2312.30692149 1369.55957031 2314.48925781 C1358.64664372 2317.71442054 1347.69012836 2320.68752395 1336.66650391 2323.51074219 C1328.10475938 2325.70415481 1319.58381154 2328.01389066 1311.07861328 2330.41601562 C1308.96970162 2331.0085123 1306.85840648 2331.59162756 1304.74609375 2332.171875 C1297.32997531 2334.21159968 1289.9351273 2336.30692149 1282.55957031 2338.48925781 C1271.64664372 2341.71442054 1260.69012836 2344.68752395 1249.66650391 2347.51074219 C1241.10475938 2349.70415481 1232.58381154 2352.01389066 1224.07861328 2354.41601562 C1221.96970162 2355.0085123 1219.85840648 2355.59162756 1217.74609375 2356.171875 C1210.32997531 2358.21159968 1202.9351273 2360.30692149 1195.55957031 2362.48925781 C1184.64664372 2365.71442054 1173.69012836 2368.68752395 1162.66650391 2371.51074219 C1154.10475938 2373.70415481 1145.58381154 2376.01389066 1137.07861328 2378.41601562 C1134.96970162 2379.0085123 1132.85840648 2379.59162756 1130.74609375 2380.171875 C1124.30977903 2381.94211506 1117.88175869 2383.73127123 1111.48046875 2385.625 C1109.50781714 2386.20834902 1107.53516078 2386.791682 1105.5625 2387.375 C1104.57419189 2387.66769775 1103.58588379 2387.96039551 1102.56762695 2388.26196289 C1093.26434891 2390.98593901 1083.88510603 2393.38918751 1074.46899414 2395.69091797 C1072.83111938 2396.10108154 1072.83111938 2396.10108154 1071.16015625 2396.51953125 C1070.18699463 2396.75776611 1069.21383301 2396.99600098 1068.21118164 2397.24145508 C1065.82172743 2397.77244953 1065.82172743 2397.77244953 1065 2400 C1057.34303569 2400.46885752 1051.08032378 2399.19795512 1043.8125 2396.875 C1041.69228026 2396.22630312 1039.57116045 2395.58054185 1037.44921875 2394.9375 C1036.37849121 2394.61136719 1035.30776367 2394.28523438 1034.20458984 2393.94921875 C1029.20902681 2392.46950299 1024.17215761 2391.16561875 1019.125 2389.875 C1007.31729552 2386.83742033 995.55532192 2383.66864886 983.87280273 2380.17797852 C975.49176376 2377.67429333 967.06145988 2375.42028212 958.5925293 2373.23291016 C947.63286533 2370.39903209 936.71942497 2367.41888761 925.87280273 2364.17797852 C917.49176376 2361.67429333 909.06145988 2359.42028212 900.5925293 2357.23291016 C889.63286533 2354.39903209 878.71942497 2351.41888761 867.87280273 2348.17797852 C859.49176376 2345.67429333 851.06145988 2343.42028212 842.5925293 2341.23291016 C831.63286533 2338.39903209 820.71942497 2335.41888761 809.87280273 2332.17797852 C801.49176376 2329.67429333 793.06145988 2327.42028212 784.5925293 2325.23291016 C773.63286533 2322.39903209 762.71942497 2319.41888761 751.87280273 2316.17797852 C743.49176376 2313.67429333 735.06145988 2311.42028212 726.5925293 2309.23291016 C715.63286533 2306.39903209 704.71942497 2303.41888761 693.87280273 2300.17797852 C685.49176376 2297.67429333 677.06145988 2295.42028212 668.5925293 2293.23291016 C657.63286533 2290.39903209 646.71942497 2287.41888761 635.87280273 2284.17797852 C627.49176376 2281.67429333 619.06145988 2279.42028212 610.5925293 2277.23291016 C599.63286533 2274.39903209 588.71942497 2271.41888761 577.87280273 2268.17797852 C569.49176376 2265.67429333 561.06145988 2263.42028212 552.5925293 2261.23291016 C541.63286533 2258.39903209 530.71942497 2255.41888761 519.87280273 2252.17797852 C511.49176376 2249.67429333 503.06145988 2247.42028212 494.5925293 2245.23291016 C483.63286533 2242.39903209 472.71942497 2239.41888761 461.87280273 2236.17797852 C453.49176376 2233.67429333 445.06145988 2231.42028212 436.5925293 2229.23291016 C425.63286533 2226.39903209 414.71942497 2223.41888761 403.87280273 2220.17797852 C395.49176376 2217.67429333 387.06145988 2215.42028212 378.5925293 2213.23291016 C367.63286533 2210.39903209 356.71942497 2207.41888761 345.87280273 2204.17797852 C337.49176376 2201.67429333 329.06145988 2199.42028212 320.5925293 2197.23291016 C309.63286533 2194.39903209 298.71942497 2191.41888761 287.87280273 2188.17797852 C279.49176376 2185.67429333 271.06145988 2183.42028212 262.5925293 2181.23291016 C250.24470523 2178.04009075 237.98101631 2174.60288395 225.76220703 2170.94946289 C218.59101932 2168.83216848 211.35312837 2166.97585437 204.10473633 2165.14282227 C202.72257935 2164.78982056 202.72257935 2164.78982056 201.3125 2164.4296875 C200.10013672 2164.12393799 200.10013672 2164.12393799 198.86328125 2163.81201172 C194.86286122 2162.67751334 190.93611058 2161.33852836 187 2160 C186.95068329 2159.32494415 186.90136658 2158.64988831 186.85055542 2157.95437622 C184.42061801 2124.73000771 181.91306836 2091.51399638 179.1875 2058.3125 C176.68970808 2027.88263665 174.32684316 1997.44338719 172 1967 C169.73173269 1937.32779122 167.43563061 1907.65896428 165 1878 C162.47118525 1847.2063213 160.09498348 1816.40175538 157.73962402 1785.59436035 C155.5026935 1756.34001181 153.22506222 1727.09022263 150.8233223 1697.8489418 C148.23934382 1666.38019946 145.82537761 1634.8989596 143.42016602 1603.41610718 C141.16344056 1573.88227999 138.85824595 1544.35400154 136.37084961 1514.83862305 C136.27565536 1513.70182098 136.18046112 1512.56501892 136.0823822 1511.39376831 C135.90955883 1509.33307897 135.73497019 1507.27253645 135.55812073 1505.21218872 C135.4835112 1504.32272552 135.40890167 1503.43326233 135.33203125 1502.5168457 C135.23498901 1501.37854057 135.23498901 1501.37854057 135.13598633 1500.21723938 C134.98868919 1497.81557865 135 1495.40617346 135 1493 C273.6 1493 412.2 1493 555 1493 C558.4420298 1521.68358164 558.4420298 1521.68358164 559.61328125 1535.875 C559.74897465 1537.47632988 559.88511814 1539.07762167 560.02166748 1540.67887878 C560.30821294 1544.0465874 560.59240854 1547.4144812 560.87454224 1550.78256226 C561.62944514 1559.78955839 562.40124699 1568.79511948 563.171875 1577.80078125 C563.28799731 1579.16007972 563.28799731 1579.16007972 563.40646553 1580.54683876 C564.87855129 1597.7681034 566.449831 1614.97890468 568.0625 1632.1875 C570.21423588 1655.18160657 572.23730828 1678.18355009 574.1859169 1701.19557953 C576.33392048 1726.55946824 578.61293009 1751.90908056 580.99609375 1777.25195312 C581.23202941 1779.76820493 581.46771297 1782.2844804 581.703125 1784.80078125 C581.87140808 1786.59807175 581.87140808 1786.59807175 582.04309082 1788.43167114 C582.89645294 1797.64651399 583.65464302 1806.86724584 584.34112549 1816.09602356 C584.69808188 1820.78150871 585.11138322 1825.37772797 586 1830 C586.61705811 1830.15033691 587.23411621 1830.30067383 587.86987305 1830.45556641 C598.65062561 1833.09172492 609.40936261 1835.75810129 620.0625 1838.875 C628.82791269 1841.43794622 637.6518697 1843.74304361 646.5 1846 C656.13910804 1848.46041778 665.74064926 1851.00828249 675.29443359 1853.78344727 C691.04906804 1858.35096734 706.9270414 1862.47786101 722.8125 1866.5625 C731.4938723 1868.79474728 740.12319167 1871.14998601 748.7277832 1873.66040039 C756.60987602 1875.93671704 764.55142285 1877.97157547 772.5 1880 C782.13903882 1882.460705 791.74064012 1885.00827983 801.29443359 1887.78344727 C817.04906804 1892.35096734 832.9270414 1896.47786101 848.8125 1900.5625 C857.4938723 1902.79474728 866.12319167 1905.14998601 874.7277832 1907.66040039 C882.60987602 1909.93671704 890.55142285 1911.97157547 898.5 1914 C908.13903882 1916.460705 917.74064012 1919.00827983 927.29443359 1921.78344727 C943.04906804 1926.35096734 958.9270414 1930.47786101 974.8125 1934.5625 C983.48798309 1936.79323299 992.11210221 1939.14491955 1000.71020508 1941.65600586 C1010.05088057 1944.3554941 1019.47608494 1946.73354029 1028.90332031 1949.10913086 C1034.98436227 1950.65371552 1040.97394147 1952.28925949 1046.9375 1954.2421875 C1056.42975285 1957.17382024 1063.38802995 1955.6435078 1072.8125 1952.9375 C1075.1350365 1952.29030084 1077.45796623 1951.64451149 1079.78125 1951 C1080.97234375 1950.66742187 1082.1634375 1950.33484375 1083.390625 1949.9921875 C1089.1792096 1948.40095321 1094.99609884 1946.92312296 1100.8125 1945.4375 C1109.49424616 1943.20679496 1118.12323891 1940.8500002 1126.7277832 1938.33959961 C1134.60987602 1936.06328296 1142.55142285 1934.02842453 1150.5 1932 C1160.13903882 1929.539295 1169.74064012 1926.99172017 1179.29443359 1924.21655273 C1196.18690256 1919.31915627 1213.22095067 1914.93230451 1230.25341797 1910.55273438 C1237.78384884 1908.60504012 1245.2613833 1906.5179433 1252.7277832 1904.33959961 C1260.60987602 1902.06328296 1268.55142285 1900.02842453 1276.5 1898 C1286.13903882 1895.539295 1295.74064012 1892.99172017 1305.29443359 1890.21655273 C1322.18690256 1885.31915627 1339.22095067 1880.93230451 1356.25341797 1876.55273438 C1363.78384884 1874.60504012 1371.2613833 1872.5179433 1378.7277832 1870.33959961 C1386.60987602 1868.06328296 1394.55142285 1866.02842453 1402.5 1864 C1412.13903882 1861.539295 1421.74064012 1858.99172017 1431.29443359 1856.21655273 C1448.17651971 1851.32216642 1465.19956245 1846.9342941 1482.22265625 1842.56152344 C1490.07842405 1840.53120117 1497.87703079 1838.34282154 1505.66601562 1836.0715332 C1513.71290279 1833.74671838 1521.83010442 1831.8406006 1530 1830 C1530.0481485 1829.34330322 1530.096297 1828.68660645 1530.14590454 1828.01000977 C1531.35369458 1811.65108787 1532.77150163 1795.32450421 1534.375 1779 C1534.59664772 1776.7226848 1534.817996 1774.44534044 1535.0390625 1772.16796875 C1535.48318141 1767.59366497 1535.92828014 1763.01945825 1536.37402344 1758.4453125 C1537.18264087 1750.13443673 1537.97363756 1741.82191239 1538.76199341 1733.50909424 C1540.30778484 1717.21317428 1541.86990887 1700.91883583 1543.4375 1684.625 C1543.59434769 1682.99464813 1543.59434769 1682.99464813 1543.75436401 1681.33135986 C1544.6101939 1672.43628718 1545.46652688 1663.54126294 1546.32287598 1654.64624023 C1547.0696489 1646.88918243 1547.8162291 1639.13210612 1548.5625 1631.375 C1548.66714569 1630.28729309 1548.77179138 1629.19958618 1548.87960815 1628.07891846 C1550.26077121 1613.72000687 1551.63475965 1599.3604339 1553 1585 C1554.46970408 1569.54075263 1555.95036303 1554.08258018 1557.4375 1538.625 C1557.59434769 1536.99464813 1557.59434769 1536.99464813 1557.75436401 1535.33135986 C1558.6101939 1526.43628718 1559.46652688 1517.54126294 1560.32287598 1508.64624023 C1561.0696489 1500.88918243 1561.8162291 1493.13210612 1562.5625 1485.375 C1562.66714569 1484.28729309 1562.77179138 1483.19958618 1562.87960815 1482.07891846 C1564.26077121 1467.72000687 1565.63475965 1453.3604339 1567 1439 C1568.99337975 1418.03241126 1571.00951301 1397.06702881 1573.027771 1376.1018219 C1573.79398913 1368.14217064 1574.55932704 1360.18243508 1575.32421875 1352.22265625 C1575.54435112 1349.9321288 1575.76448458 1347.64160146 1575.98461914 1345.35107422 C1576.29739783 1342.09654157 1576.61015649 1338.842007 1576.92282104 1335.58746338 C1578.60700915 1318.05750713 1580.30366518 1300.52879317 1582 1283 C1096.9 1283 611.8 1283 112 1283 C109.69 1256.27 107.38 1229.54 105 1202 C103.4089072 1184.41727158 101.81293573 1166.83558559 100.18244934 1149.25656128 C99.64396504 1143.44336821 99.10862763 1137.62988541 98.57324219 1131.81640625 C98.46595291 1130.65142168 98.35866364 1129.48643711 98.24812317 1128.28614998 C98.03385264 1125.95932416 97.81959876 1123.6324968 97.60536194 1121.30566788 C97.29417901 1117.92665193 96.98274908 1114.54765882 96.67126465 1111.16867065 C95.17639564 1094.94764937 93.69564811 1078.72549179 92.25 1062.5 C92.15550568 1061.44000793 92.06101135 1060.38001587 91.96365356 1059.28790283 C90.86278874 1046.91895174 89.78654134 1034.54796426 88.72265625 1022.17578125 C88.25312514 1016.72130916 87.78307596 1011.26688204 87.3125 1005.8125 C87.25307346 1005.12329594 87.19364693 1004.43409187 87.13241959 1003.72400284 C84.51371286 973.36818254 81.73011743 943.02774572 78.9375 912.6875 C78.82759357 911.49325535 78.71768715 910.2990107 78.60445023 909.06857681 C78.16475436 904.29084172 77.72501956 899.51311022 77.28527927 894.73537922 C76.96491193 891.254577 76.64456386 887.77377301 76.32421875 884.29296875 C76.22012003 883.16198824 76.11602131 882.03100773 76.00876808 880.86575508 C74.40254216 863.41227388 72.80584638 845.95805525 71.25 828.5 C71.10839447 826.91164337 71.10839447 826.91164337 70.96392822 825.29119873 C69.86297366 812.92114891 68.78663578 800.54906255 67.72265625 788.17578125 C67.25312514 782.72130916 66.78307596 777.26688204 66.3125 771.8125 C66.25307346 771.12329594 66.19364693 770.43409187 66.13241959 769.72400284 C63.51371286 739.36818254 60.73011743 709.02774572 57.9375 678.6875 C57.82759357 677.49325535 57.71768715 676.2990107 57.60445023 675.06857681 C57.16475436 670.29084172 56.72501956 665.51311022 56.28527927 660.73537922 C55.96491193 657.254577 55.64456386 653.77377301 55.32421875 650.29296875 C55.22012003 649.16198824 55.11602131 648.03100773 55.00876808 646.86575508 C53.40254216 629.41227388 51.80584638 611.95805525 50.25 594.5 C50.15559631 593.44109558 50.06119263 592.38219116 49.96392822 591.29119873 C48.86297366 578.92114891 47.78663578 566.54906255 46.72265625 554.17578125 C46.25312514 548.72130916 45.78307596 543.26688204 45.3125 537.8125 C45.25307346 537.12329594 45.19364693 536.43409187 45.13241959 535.72400284 C42.51371286 505.36818254 39.73011743 475.02774572 36.9375 444.6875 C36.82759357 443.49325535 36.71768715 442.2990107 36.60445023 441.06857681 C36.16475436 436.29084172 35.72501956 431.51311022 35.28527927 426.73537922 C34.96491193 423.254577 34.64456386 419.77377301 34.32421875 416.29296875 C34.22012003 415.16198824 34.11602131 414.03100773 34.00876808 412.86575508 C32.40254216 395.41227388 30.80584638 377.95805525 29.25 360.5 C29.15559631 359.44109558 29.06119263 358.38219116 28.96392822 357.29119873 C27.86297365 344.92114886 26.78664935 332.54906142 25.72265625 320.17578125 C25.31326303 315.42045409 24.90357374 310.66515265 24.49339676 305.90989304 C24.37331172 304.51757667 24.25328306 303.12525544 24.13331223 301.73292923 C22.31986688 280.69361459 20.43142312 259.66162587 18.5 238.6328125 C18.39003378 237.43546415 18.28006756 236.23811581 18.16676903 235.00448418 C17.06007814 222.9600104 15.94984975 210.9158671 14.834548 198.87218761 C14.31186944 193.22608246 13.79051257 187.57985573 13.26953125 181.93359375 C13.16942057 180.84998629 13.06930988 179.76637882 12.96616554 178.64993477 C11.5189867 162.96363859 10.14568217 147.27288348 8.90937805 131.56846619 C8.85415545 130.88007345 8.79893284 130.19168072 8.74203682 129.4824276 C8.59663982 127.66852149 8.45444947 125.85435912 8.31254578 124.04017639 C8.06710006 121.11133727 8.06710006 121.11133727 7.51071167 118.71949768 C6.71828597 114.49989592 6.52361964 110.24853834 6.24389648 105.96826172 C6.17547546 104.9610759 6.10705444 103.95389008 6.03656006 102.91618347 C5.81137964 99.58756781 5.59106952 96.25865088 5.37109375 92.9296875 C5.21576577 90.60904729 5.06025053 88.28841962 4.90455627 85.96780396 C4.57880191 81.10074878 4.25548401 76.23353928 3.93383789 71.36621094 C3.52276483 65.14890832 3.10544874 58.93204358 2.68624783 52.71528435 C2.36362307 47.91972087 2.04447398 43.12393078 1.72633553 38.32806778 C1.5739331 36.03722999 1.42043927 33.74646452 1.2658062 31.45577621 C1.04923375 28.24010932 0.83739036 25.02416301 0.62670898 21.80810547 C0.56282486 20.87368118 0.49894073 19.9392569 0.43312073 18.97651672 C0.02275992 12.60988214 0 6.41148081 0 0 Z " fill="#FEFEFE" transform="translate(855,705)"/>
<path d="M0 0 C455.4 0 910.8 0 1380 0 C1378.26318451 21.99966285 1376.52303153 43.97285938 1374.4375 65.9375 C1374.12078289 69.29725275 1373.80491368 72.65708315 1373.48976135 76.01698303 C1373.29822297 78.05666397 1373.10577514 80.09625993 1372.91197205 82.13572693 C1372.16392731 90.06394959 1371.4746733 97.99695316 1370.78769207 105.93064499 C1369.97523504 115.30783374 1369.14279531 124.68317208 1368.30516815 134.05814171 C1368.03425451 137.09048001 1367.76370348 140.12285051 1367.4932251 143.15522766 C1366.72527366 151.7640894 1365.95667278 160.37289314 1365.18798828 168.98168945 C1360.80541025 218.0682728 1356.47856318 267.15973102 1352.16506815 316.25242513 C1351.64146024 322.21164456 1351.11771174 328.17085161 1350.59387207 334.13005066 C1350.48237391 335.39847367 1350.48237391 335.39847367 1350.36862326 336.69252139 C1350.06753517 340.11772893 1349.76644322 343.54293612 1349.46532726 346.9681412 C1348.627499 356.49848444 1347.790053 366.02886096 1346.95361328 375.55932617 C1346.05100785 385.84304209 1345.14735886 396.12666585 1344.2421875 406.41015625 C1344.13363387 407.64346829 1344.13363387 407.64346829 1344.02288723 408.90169573 C1342.15128357 430.15960516 1340.26213142 451.4154523 1338.24777222 472.66041565 C1337.28500089 482.82192165 1336.38485124 492.98788421 1335.50643921 503.1570282 C1334.78874025 511.45882715 1334.04672263 519.75844581 1333.30516815 528.05814171 C1333.03425451 531.09048001 1332.76370348 534.12285051 1332.4932251 537.15522766 C1331.72527366 545.7640894 1330.95667278 554.37289314 1330.18798828 562.98168945 C1325.80541025 612.0682728 1321.47856318 661.15973102 1317.16506815 710.25242513 C1316.64146024 716.21164456 1316.11771174 722.17085161 1315.59387207 728.13005066 C1315.48237391 729.39847367 1315.48237391 729.39847367 1315.36862326 730.69252139 C1315.06753517 734.11772893 1314.76644322 737.54293612 1314.46532726 740.9681412 C1313.627499 750.49848444 1312.790053 760.02886096 1311.95361328 769.55932617 C1311.05100785 779.84304209 1310.14735886 790.12666585 1309.2421875 800.41015625 C1309.13363387 801.64346829 1309.13363387 801.64346829 1309.02288723 802.90169573 C1307.15128357 824.15960516 1305.26213142 845.4154523 1303.24777222 866.66041565 C1302.28500089 876.82192165 1301.38485124 886.98788421 1300.50643921 897.1570282 C1299.78874025 905.45882715 1299.04672263 913.75844581 1298.30516815 922.05814171 C1298.03425451 925.09048001 1297.76370348 928.12285051 1297.4932251 931.15522766 C1296.72527366 939.7640894 1295.95667278 948.37289314 1295.18798828 956.98168945 C1290.80541025 1006.0682728 1286.47856318 1055.15973102 1282.16506815 1104.25242513 C1281.64146024 1110.21164456 1281.11771174 1116.17085161 1280.59387207 1122.13005066 C1280.48237391 1123.39847367 1280.48237391 1123.39847367 1280.36862326 1124.69252139 C1280.06753517 1128.11772893 1279.76644322 1131.54293612 1279.46532726 1134.9681412 C1278.627499 1144.49848444 1277.790053 1154.02886096 1276.95361328 1163.55932617 C1276.05100785 1173.84304209 1275.14735886 1184.12666585 1274.2421875 1194.41015625 C1274.13363387 1195.64346829 1274.13363387 1195.64346829 1274.02288723 1196.90169573 C1272.15128357 1218.15960516 1270.26213142 1239.4154523 1268.24777222 1260.66041565 C1267.28500089 1270.82192165 1266.38485124 1280.98788421 1265.50643921 1291.1570282 C1264.78874025 1299.45882715 1264.04672263 1307.75844581 1263.30516815 1316.05814171 C1263.03425451 1319.09048001 1262.76370348 1322.12285051 1262.4932251 1325.15522766 C1261.72527366 1333.7640894 1260.95667278 1342.37289314 1260.18798828 1350.98168945 C1255.80541025 1400.0682728 1251.47856318 1449.15973102 1247.16506815 1498.25242513 C1246.64146024 1504.21164456 1246.11771174 1510.17085161 1245.59387207 1516.13005066 C1245.48237391 1517.39847367 1245.48237391 1517.39847367 1245.36862326 1518.69252139 C1245.06753517 1522.11772893 1244.76644322 1525.54293612 1244.46532726 1528.9681412 C1243.627499 1538.49848444 1242.790053 1548.02886096 1241.95361328 1557.55932617 C1241.05100785 1567.84304209 1240.14735886 1578.12666585 1239.2421875 1588.41015625 C1239.13363387 1589.64346829 1239.13363387 1589.64346829 1239.02288723 1590.90169573 C1237.15128357 1612.15960516 1235.26213142 1633.4154523 1233.24777222 1654.66041565 C1232.28500089 1664.82192165 1231.38485124 1674.98788421 1230.50643921 1685.1570282 C1229.78847111 1693.46194036 1229.04617335 1701.76467144 1228.30434418 1710.06748009 C1228.03592252 1713.07180503 1227.76783392 1716.07615956 1227.49981689 1719.08052063 C1227.11554795 1723.38775601 1226.7311632 1727.69498103 1226.34667969 1732.00219727 C1223.4349581 1764.62306501 1220.52784136 1797.24430187 1217.65988159 1829.86904907 C1216.13456355 1847.21823827 1214.59359832 1864.56596749 1213.03934097 1881.91259003 C1212.73727551 1885.28466494 1212.43547054 1888.65676307 1212.13375854 1892.02886963 C1212.03349302 1893.14944889 1211.9332275 1894.27002815 1211.82992363 1895.42456436 C1211.62660225 1897.6969507 1211.42329036 1899.96933789 1211.21998787 1902.24172592 C1210.7240494 1907.78332372 1210.22732801 1913.32484908 1209.72875977 1918.86621094 C1207.77040281 1940.63481833 1205.85199291 1962.40293141 1204.16640472 1984.19453621 C1203.32969136 1995.00670106 1202.41374238 2005.80395067 1201.29266357 2016.59078979 C1199.37885012 2035.06434234 1197.8406203 2053.56392404 1196.39477539 2072.0793457 C1195.63780392 2081.69715903 1194.79363571 2091.28607404 1193.68367004 2100.86991882 C1193.08721956 2106.05992167 1192.63004478 2111.24625719 1192.28282166 2116.45965576 C1191.59630363 2126.71230487 1190.74379522 2136.93216547 1189.6796875 2147.15234375 C1187.72158962 2166.37238883 1186.02633305 2185.61559214 1184.3239212 2204.85968018 C1184.05944417 2207.84701636 1183.79420073 2210.83428361 1183.52874756 2213.8215332 C1181.31618166 2238.72817887 1179.12812694 2263.63573912 1177.19165039 2288.56567383 C1176.44764165 2298.07297651 1175.53866763 2307.54194511 1174.45068359 2317.01611328 C1173.88181135 2321.98282244 1173.41972069 2326.95611569 1173 2331.9375 C1172.91806396 2332.88947266 1172.83612793 2333.84144531 1172.75170898 2334.82226562 C1172.22019739 2341.0968438 1171.74961229 2347.37450701 1171.30126953 2353.65551758 C1170.45801797 2365.467075 1169.42288254 2377.24426801 1168.24853516 2389.02734375 C1166.74394594 2404.24151543 1165.48507204 2419.47683124 1164.20452881 2434.71118164 C1161.11688929 2471.44206215 1161.11688929 2471.44206215 1159.5 2486.25 C1158.3884794 2496.68787311 1157.50614384 2507.12107991 1156.78175354 2517.59230042 C1156.22396483 2525.44899968 1155.49870649 2533.27567647 1154.68359375 2541.109375 C1152.72454862 2560.34378202 1151.02760069 2579.60126272 1149.3239212 2598.85968018 C1149.05944417 2601.84701636 1148.79420073 2604.83428361 1148.52874756 2607.8215332 C1146.31618166 2632.72817887 1144.12812694 2657.63573912 1142.19165039 2682.56567383 C1141.44764165 2692.07297651 1140.53866763 2701.54194511 1139.45068359 2711.01611328 C1138.88181095 2715.98282591 1138.41983508 2720.95612349 1138 2725.9375 C1137.8760083 2727.3752478 1137.8760083 2727.3752478 1137.74951172 2728.84204102 C1137.31925898 2733.91322681 1136.92343443 2738.98535514 1136.5703125 2744.0625 C1135.63398028 2757.51011378 1134.44182298 2770.90433921 1133.0625 2784.3125 C1131.6666112 2797.8850086 1130.4208255 2811.45840468 1129.375 2825.0625 C1129.31337677 2825.86288696 1129.25175354 2826.66327393 1129.18826294 2827.48791504 C1128.95025695 2830.5851095 1128.71307914 2833.68236551 1128.47721863 2836.77972412 C1127.37061939 2851.29483311 1126.03697829 2865.77425147 1124.5 2880.25 C1123.39384825 2890.67903969 1122.50116993 2901.10290536 1121.77392578 2911.56469727 C1120.77112366 2925.73214393 1119.37270414 2939.86444845 1118 2954 C1110.70713879 2956.94148464 1103.21098318 2958.94779842 1095.625 2960.984375 C1094.21408352 2961.36647936 1092.80327845 2961.74899533 1091.39257812 2962.13189697 C1087.68076128 2963.13853405 1083.96782573 2964.14097321 1080.2545166 2965.14208984 C1073.66836041 2966.91798772 1067.08364775 2968.6992016 1060.5 2970.484375 C1059.78668266 2970.67762674 1059.07336533 2970.87087849 1058.33843231 2971.06998634 C1048.22276575 2973.81326193 1038.14774813 2976.6717449 1028.09527588 2979.63951111 C1020.10825296 2981.99060614 1012.08111417 2984.14880478 1004.01925659 2986.22677612 C991.29222565 2989.51178406 978.59576227 2992.89704771 965.9375 2996.4375 C963.00787022 2997.25671713 960.07821405 2998.07583915 957.1484375 2998.89453125 C956.33947525 2999.12059555 955.530513 2999.34665985 954.69703674 2999.57957458 C940.92419027 3003.42250503 927.13395603 3007.20305225 913.34737015 3010.99632645 C907.49732545 3012.60594456 901.64738843 3014.21595403 895.79743004 3015.82588577 C894.37039206 3016.21860594 892.94335068 3016.61131373 891.51630592 3017.00400925 C878.24118504 3020.65710835 864.96820549 3024.31794447 851.69564819 3027.98034668 C840.23372733 3031.14276503 828.77115747 3034.30282796 817.30807495 3037.46103287 C815.83771133 3037.86613824 814.36735419 3038.27126719 812.89700317 3038.6764183 C796.27748903 3043.25579003 779.6562764 3047.82860538 763.0234375 3052.359375 C761.77829376 3052.69855453 760.53315002 3053.03773407 759.25027466 3053.38719177 C753.46715652 3054.96183872 747.68344528 3056.5342689 741.89892578 3058.10375977 C732.53970841 3060.64628288 723.19059623 3063.21367248 713.87109375 3065.8984375 C701.53136806 3069.45086013 689.13844537 3072.80819491 676.74716187 3076.1751709 C670.24149194 3077.9429349 663.73710918 3079.71542708 657.23257637 3081.48736954 C654.98604473 3082.09932955 652.73947666 3082.7111557 650.49290466 3083.32296753 C636.05073687 3087.25645019 621.61198169 3091.20234843 607.17575073 3095.15756226 C604.55540592 3095.87544987 601.93490246 3096.59275343 599.3142395 3097.30947876 C587.74109663 3100.47537756 576.17027829 3103.64355579 564.640625 3106.96484375 C552.37776152 3110.49506656 540.06124357 3113.82916675 527.74716187 3117.1751709 C521.24149194 3118.9429349 514.73710918 3120.71542708 508.23257637 3122.48736954 C505.98604473 3123.09932955 503.73947666 3123.7111557 501.49290466 3124.32296753 C487.05073687 3128.25645019 472.61198169 3132.20234843 458.17575073 3136.15756226 C455.55540592 3136.87544987 452.93490246 3137.59275343 450.3142395 3138.30947876 C438.74109663 3141.47537756 427.17027829 3144.64355579 415.640625 3147.96484375 C403.37776152 3151.49506656 391.06124357 3154.82916675 378.74716187 3158.1751709 C372.24149194 3159.9429349 365.73710918 3161.71542708 359.23257637 3163.48736954 C356.98604473 3164.09932955 354.73947666 3164.7111557 352.49290466 3165.32296753 C338.05073687 3169.25645019 323.61198169 3173.20234843 309.17575073 3177.15756226 C306.55540592 3177.87544987 303.93490246 3178.59275343 301.3142395 3179.30947876 C289.74109663 3182.47537756 278.17027829 3185.64355579 266.640625 3188.96484375 C254.37776152 3192.49506656 242.06124357 3195.82916675 229.74716187 3199.1751709 C223.24149194 3200.9429349 216.73710918 3202.71542708 210.23257637 3204.48736954 C207.98604473 3205.09932955 205.73947666 3205.7111557 203.49290466 3206.32296753 C189.05073687 3210.25645019 174.61198169 3214.20234843 160.17575073 3218.15756226 C157.55540592 3218.87544987 154.93490246 3219.59275343 152.3142395 3220.30947876 C140.76973213 3223.46754415 129.22737707 3226.62725268 117.7265625 3229.94140625 C104.3065502 3233.80587276 90.8223514 3237.43877934 77.34605026 3241.10077667 C71.49477768 3242.69123216 65.64431192 3244.28465535 59.79377937 3245.87783051 C58.34002042 3246.27369734 56.88624824 3246.66951559 55.43246269 3247.06528473 C46.22753979 3249.57131967 37.02529876 3252.08673081 27.828125 3254.62109375 C26.39071709 3255.01717079 26.39071709 3255.01717079 24.92427063 3255.42124939 C20.60214916 3256.61288796 16.28063619 3257.80669604 11.9597168 3259.00268555 C10.48226123 3259.41065218 9.00480369 3259.8186117 7.52734375 3260.2265625 C6.27687256 3260.57283691 5.02640137 3260.91911133 3.73803711 3261.27587891 C1 3262 1 3262 0 3262 C0 3117.79 0 2973.58 0 2825 C8.98710267 2821.6298365 8.98710267 2821.6298365 12.69921875 2820.75390625 C13.50858887 2820.55869385 14.31795898 2820.36348145 15.15185547 2820.16235352 C15.98861816 2819.96440186 16.82538086 2819.7664502 17.6875 2819.5625 C24.35014777 2817.94259301 30.90053176 2816.1659982 37.4375 2814.08984375 C49.86078143 2810.28930042 62.4861425 2807.12297295 75.0625 2803.875 C81.94840723 2802.09517045 88.76224973 2800.20532184 95.54296875 2798.0546875 C107.93388471 2794.27440805 120.52178067 2791.11376903 133.0625 2787.875 C139.94840723 2786.09517045 146.76224973 2784.20532184 153.54296875 2782.0546875 C165.93388471 2778.27440805 178.52178067 2775.11376903 191.0625 2771.875 C197.94840723 2770.09517045 204.76224973 2768.20532184 211.54296875 2766.0546875 C223.93388471 2762.27440805 236.52178067 2759.11376903 249.0625 2755.875 C255.94840723 2754.09517045 262.76224973 2752.20532184 269.54296875 2750.0546875 C281.93388471 2746.27440805 294.52178067 2743.11376903 307.0625 2739.875 C313.94840723 2738.09517045 320.76224973 2736.20532184 327.54296875 2734.0546875 C339.93388471 2730.27440805 352.52178067 2727.11376903 365.0625 2723.875 C371.94840723 2722.09517045 378.76224973 2720.20532184 385.54296875 2718.0546875 C397.93388471 2714.27440805 410.52178067 2711.11376903 423.0625 2707.875 C429.94840723 2706.09517045 436.76224973 2704.20532184 443.54296875 2702.0546875 C455.93388471 2698.27440805 468.52178067 2695.11376903 481.0625 2691.875 C487.94840723 2690.09517045 494.76224973 2688.20532184 501.54296875 2686.0546875 C513.93388471 2682.27440805 526.52178067 2679.11376903 539.0625 2675.875 C545.94840723 2674.09517045 552.76224973 2672.20532184 559.54296875 2670.0546875 C571.93388471 2666.27440805 584.52178067 2663.11376903 597.0625 2659.875 C603.94840723 2658.09517045 610.76224973 2656.20532184 617.54296875 2654.0546875 C629.93388471 2650.27440805 642.52178067 2647.11376903 655.0625 2643.875 C661.94840723 2642.09517045 668.76224973 2640.20532184 675.54296875 2638.0546875 C687.93388471 2634.27440805 700.52178067 2631.11376903 713.0625 2627.875 C719.94840723 2626.09517045 726.76224973 2624.20532184 733.54296875 2622.0546875 C745.93388471 2618.27440805 758.52178067 2615.11376903 771.0625 2611.875 C777.94840723 2610.09517045 784.76224973 2608.20532184 791.54296875 2606.0546875 C804.89920889 2601.97990237 818.47736928 2598.60386203 831.99633789 2595.11865234 C838.14637252 2593.52056593 844.19656126 2591.74444854 850.25 2589.8125 C854.44649122 2588.5726276 858.69602063 2587.76261956 863 2587 C862.98509018 2586.28860367 862.97018036 2585.57720734 862.95481873 2584.84425354 C862.86352805 2577.02468971 863.42631741 2569.4194956 864.28515625 2561.65234375 C864.49461584 2559.67308067 864.70405432 2557.69381526 864.91277122 2555.71447372 C865.13701581 2553.59465337 865.36381657 2551.47511842 865.59109497 2549.35562134 C868.62063576 2521.0378721 871.21865992 2492.69461906 873.5625 2464.3125 C873.70930077 2462.53709761 873.85612088 2460.76169681 874.00296021 2458.98629761 C874.11209637 2457.66651838 874.11209637 2457.66651838 874.22343731 2456.32007694 C874.58752125 2451.9177919 874.95187267 2447.51552908 875.31640625 2443.11328125 C875.38768801 2442.25145926 875.45896976 2441.38963726 875.53241158 2440.50169945 C876.9269908 2423.65877615 878.44320321 2406.82860309 880 2390 C882.29304445 2365.17680176 884.42570168 2340.34239371 886.5 2315.5 C888.68436443 2289.33942288 890.95133532 2263.18975362 893.36474609 2237.04931641 C895.53168558 2213.54279659 897.53576341 2190.02426274 899.5 2166.5 C901.68436443 2140.33942288 903.95133532 2114.18975362 906.36474609 2088.04931641 C908.53168558 2064.54279659 910.53576341 2041.02426274 912.5 2017.5 C914.68436443 1991.33942288 916.95133532 1965.18975362 919.36474609 1939.04931641 C921.53168558 1915.54279659 923.53576341 1892.02426274 925.5 1868.5 C927.68436443 1842.33942288 929.95133532 1816.18975362 932.36474609 1790.04931641 C934.53168558 1766.54279659 936.53576341 1743.02426274 938.5 1719.5 C940.68436443 1693.33942288 942.95133532 1667.18975362 945.36474609 1641.04931641 C947.53168559 1617.54279652 949.53575991 1594.02426254 951.5 1570.5 C953.70574254 1544.08349695 955.98532114 1517.6764963 958.43011475 1491.28100586 C959.81304015 1476.34882215 961.1492414 1461.41563225 962.36865807 1446.46923065 C962.56598535 1444.05203092 962.76439193 1441.63492197 962.96308899 1439.21783447 C963.73171539 1429.87087304 963.73171539 1429.87087304 964.47781372 1420.52209473 C965.84041215 1403.16773313 967.72618161 1386.03940764 970.54956055 1368.85028076 C971.59460256 1362.23748711 972.36059741 1355.5865626 973.15344238 1348.93972778 C975.01880092 1333.32887328 977.10766482 1317.7586897 979.38842773 1302.20336914 C979.48915085 1301.5139624 979.58987396 1300.82455566 979.69364929 1300.11425781 C979.96285716 1298.27585055 980.23473088 1296.43783419 980.50683594 1294.59985352 C981.08087518 1290.40965121 981.53294754 1286.20347218 982 1282 C472.15 1282 -37.7 1282 -563 1282 C-565.475 1251.805 -565.475 1251.805 -568 1221 C-568.9589325 1210.02291655 -569.91890916 1199.0469657 -570.91088867 1188.07299805 C-571.65284824 1179.86447031 -572.38396935 1171.65497239 -573.11328125 1163.4453125 C-573.18971989 1162.5850219 -573.26615852 1161.72473129 -573.34491348 1160.83837128 C-575.30635934 1138.73205463 -577.15117319 1116.61596382 -579 1094.5 C-581.42526097 1065.49302553 -583.90535538 1036.49232123 -586.5 1007.5 C-589.09887507 978.45179271 -591.60174485 949.39618814 -594.0475769 920.33468628 C-594.30847553 917.2353092 -594.56973383 914.1359626 -594.83105469 911.03662109 C-595.24481573 906.1272357 -595.65734157 901.21774792 -596.0688839 896.30817604 C-596.21898263 894.5183578 -596.36932778 892.7285602 -596.51996803 890.93878746 C-597.75137249 876.29737822 -598.87303798 861.65050631 -600 847 C-65.4 847 469.2 847 1020 847 C1020.33 840.73 1020.66 834.46 1021 828 C1021.38898474 822.5949629 1021.79373181 817.19368869 1022.234375 811.79296875 C1022.35370025 810.31036068 1022.47293493 808.82774531 1022.59208679 807.34512329 C1022.97292695 802.62549048 1023.36106468 797.90647148 1023.75 793.1875 C1023.81662464 792.37593319 1023.88324928 791.56436638 1023.95189285 790.72820663 C1025.71046103 769.31064671 1027.5989372 747.92589884 1030.03417969 726.57299805 C1030.24041161 724.76352931 1030.44646264 722.95403994 1030.65234375 721.14453125 C1030.75684845 720.22631088 1030.86135315 719.30809052 1030.96902466 718.36204529 C1032.54405953 704.35932891 1033.88612317 690.33135701 1035.2717247 676.30890274 C1037.30549375 655.73823672 1039.36599537 635.17241522 1041.625 614.625 C1048.50945857 551.940193 1052.71549023 490.19651907 1057 427 C708.19 427 359.38 427 0 427 C0 286.09 0 145.18 0 0 Z " fill="#EF652A" transform="translate(1920,278)"/>
<path d="M0 0 C700.26 0 1400.52 0 2122 0 C2122 7.86257118 2121.96033896 15.53848375 2121.43676758 23.3527832 C2121.34640228 24.77616501 2121.34640228 24.77616501 2121.25421143 26.228302 C2121.05552037 29.33610746 2120.85045622 32.44344727 2120.64453125 35.55078125 C2120.49946172 37.77132995 2120.35450054 39.99188574 2120.2096405 42.21244812 C2119.90416205 46.8767863 2119.59510867 51.54087243 2119.28393555 56.20483398 C2118.97246609 60.88023873 2118.66706077 65.55596818 2118.36791992 70.23217773 C2116.42659745 100.55877875 2113.89987552 130.75217689 2110.55496216 160.95651245 C2109.80429272 167.746011 2109.10523025 174.54053325 2108.41015625 181.3359375 C2108.18440108 183.52183445 2107.95841377 185.70770745 2107.73217773 187.89355469 C2107.62316132 188.94877319 2107.5141449 190.0039917 2107.40182495 191.09118652 C2107.03909395 194.60151178 2106.67594932 198.11179409 2106.31274414 201.62207031 C2105.15390096 212.8239918 2103.99668146 224.02607556 2102.8447876 235.22871399 C2102.3362171 240.17360988 2101.82674291 245.11841245 2101.31713867 250.0632019 C2101.0633214 252.5281063 2100.8099057 254.99305207 2100.55688477 257.45803833 C2099.34391606 269.27130297 2098.1263496 281.08251464 2096.7578125 292.87890625 C2093.24415205 323.36181283 2090.7714283 353.91539704 2088.32250977 384.49926758 C2088.1744693 386.34288577 2088.02642354 388.18650353 2087.87837219 390.03012085 C2087.60032224 393.49386747 2087.32554087 396.95785122 2087.05290222 400.42202759 C2086.92759939 401.99221412 2086.80222209 403.56239472 2086.67675781 405.13256836 C2086.62274087 405.83005345 2086.56872393 406.52753855 2086.51307011 407.24615955 C2086.16670905 411.54494712 2085.61206062 415.71557567 2085 420 C1550.4 420 1015.8 420 465 420 C465.66 425.61 466.32 431.22 467 437 C467.45207106 441.59460059 467.8892493 446.18680701 468.296875 450.78515625 C468.46771858 452.68352989 468.46771858 452.68352989 468.64201355 454.62025452 C468.95026021 458.04990724 469.2551499 461.47985006 469.55906296 464.90988922 C469.7530557 467.09694978 469.94796016 469.28392746 470.14309692 471.47088623 C472.35347884 496.25718271 474.44324855 521.05277629 476.49380207 545.8527317 C478.42955167 569.25997426 480.41367388 592.66270574 482.4375 616.0625 C482.51032951 616.90496906 482.58315903 617.74743813 482.6581955 618.61543655 C484.34558917 638.13108012 486.05145 657.64501122 487.7890625 677.15625 C487.86262529 677.98236471 487.93618809 678.80847942 488.01198006 679.65962791 C488.38177272 683.81186396 488.75173055 687.96408528 489.12173462 692.11630249 C489.19455784 692.93354671 489.26738106 693.75079094 489.34241104 694.59280014 C489.48886887 696.23625778 489.63535061 697.8797133 489.78185654 699.52316666 C492.27141429 727.45556433 494.65490828 755.39571881 496.95922852 783.34399414 C497.01615844 784.03395698 497.07308836 784.72391981 497.13174343 785.43479061 C497.41241053 788.83717672 497.69228583 792.23962443 497.97068787 795.64219666 C498.56688556 802.90651067 499.18864246 810.16796156 499.83789062 817.42773438 C500.04774618 819.79551511 500.25728781 822.16332347 500.46678925 824.53113556 C500.6650984 826.75222614 500.86909537 828.9727437 501.07330322 831.19329834 C501.19595793 832.57578092 501.31834641 833.95828715 501.44042969 835.34082031 C501.54861023 836.5326593 501.65679077 837.72449829 501.76824951 838.95245361 C502.07405887 844.29344581 502 849.6502601 502 855 C685.15 855 868.3 855 1057 855 C1057 995.91 1057 1136.82 1057 1282 C1230.58 1282 1404.16 1282 1583 1282 C1583 1283.65 1583 1285.3 1583 1287 C1582.67 1285.68 1582.34 1284.36 1582 1283 C1096.9 1283 611.8 1283 112 1283 C109.69 1256.27 107.38 1229.54 105 1202 C103.4089072 1184.41727158 101.81293573 1166.83558559 100.18244934 1149.25656128 C99.64396504 1143.44336821 99.10862763 1137.62988541 98.57324219 1131.81640625 C98.46595291 1130.65142168 98.35866364 1129.48643711 98.24812317 1128.28614998 C98.03385264 1125.95932416 97.81959876 1123.6324968 97.60536194 1121.30566788 C97.29417901 1117.92665193 96.98274908 1114.54765882 96.67126465 1111.16867065 C95.17639564 1094.94764937 93.69564811 1078.72549179 92.25 1062.5 C92.15550568 1061.44000793 92.06101135 1060.38001587 91.96365356 1059.28790283 C90.86278874 1046.91895174 89.78654134 1034.54796426 88.72265625 1022.17578125 C88.25312514 1016.72130916 87.78307596 1011.26688204 87.3125 1005.8125 C87.25307346 1005.12329594 87.19364693 1004.43409187 87.13241959 1003.72400284 C84.51371286 973.36818254 81.73011743 943.02774572 78.9375 912.6875 C78.82759357 911.49325535 78.71768715 910.2990107 78.60445023 909.06857681 C78.16475436 904.29084172 77.72501956 899.51311022 77.28527927 894.73537922 C76.96491193 891.254577 76.64456386 887.77377301 76.32421875 884.29296875 C76.22012003 883.16198824 76.11602131 882.03100773 76.00876808 880.86575508 C74.40254216 863.41227388 72.80584638 845.95805525 71.25 828.5 C71.10839447 826.91164337 71.10839447 826.91164337 70.96392822 825.29119873 C69.86297366 812.92114891 68.78663578 800.54906255 67.72265625 788.17578125 C67.25312514 782.72130916 66.78307596 777.26688204 66.3125 771.8125 C66.25307346 771.12329594 66.19364693 770.43409187 66.13241959 769.72400284 C63.51371286 739.36818254 60.73011743 709.02774572 57.9375 678.6875 C57.82759357 677.49325535 57.71768715 676.2990107 57.60445023 675.06857681 C57.16475436 670.29084172 56.72501956 665.51311022 56.28527927 660.73537922 C55.96491193 657.254577 55.64456386 653.77377301 55.32421875 650.29296875 C55.22012003 649.16198824 55.11602131 648.03100773 55.00876808 646.86575508 C53.40254216 629.41227388 51.80584638 611.95805525 50.25 594.5 C50.15559631 593.44109558 50.06119263 592.38219116 49.96392822 591.29119873 C48.86297366 578.92114891 47.78663578 566.54906255 46.72265625 554.17578125 C46.25312514 548.72130916 45.78307596 543.26688204 45.3125 537.8125 C45.25307346 537.12329594 45.19364693 536.43409187 45.13241959 535.72400284 C42.51371286 505.36818254 39.73011743 475.02774572 36.9375 444.6875 C36.82759357 443.49325535 36.71768715 442.2990107 36.60445023 441.06857681 C36.16475436 436.29084172 35.72501956 431.51311022 35.28527927 426.73537922 C34.96491193 423.254577 34.64456386 419.77377301 34.32421875 416.29296875 C34.22012003 415.16198824 34.11602131 414.03100773 34.00876808 412.86575508 C32.40254216 395.41227388 30.80584638 377.95805525 29.25 360.5 C29.15559631 359.44109558 29.06119263 358.38219116 28.96392822 357.29119873 C27.86297365 344.92114886 26.78664935 332.54906142 25.72265625 320.17578125 C25.31326303 315.42045409 24.90357374 310.66515265 24.49339676 305.90989304 C24.37331172 304.51757667 24.25328306 303.12525544 24.13331223 301.73292923 C22.31986688 280.69361459 20.43142312 259.66162587 18.5 238.6328125 C18.39003378 237.43546415 18.28006756 236.23811581 18.16676903 235.00448418 C17.06007814 222.9600104 15.94984975 210.9158671 14.834548 198.87218761 C14.31186944 193.22608246 13.79051257 187.57985573 13.26953125 181.93359375 C13.16942057 180.84998629 13.06930988 179.76637882 12.96616554 178.64993477 C11.5189867 162.96363859 10.14568217 147.27288348 8.90937805 131.56846619 C8.85415545 130.88007345 8.79893284 130.19168072 8.74203682 129.4824276 C8.59663982 127.66852149 8.45444947 125.85435912 8.31254578 124.04017639 C8.06710006 121.11133727 8.06710006 121.11133727 7.51071167 118.71949768 C6.71828597 114.49989592 6.52361964 110.24853834 6.24389648 105.96826172 C6.17547546 104.9610759 6.10705444 103.95389008 6.03656006 102.91618347 C5.81137964 99.58756781 5.59106952 96.25865088 5.37109375 92.9296875 C5.21576577 90.60904729 5.06025053 88.28841962 4.90455627 85.96780396 C4.57880191 81.10074878 4.25548401 76.23353928 3.93383789 71.36621094 C3.52276483 65.14890832 3.10544874 58.93204358 2.68624783 52.71528435 C2.36362307 47.91972087 2.04447398 43.12393078 1.72633553 38.32806778 C1.5739331 36.03722999 1.42043927 33.74646452 1.2658062 31.45577621 C1.04923375 28.24010932 0.83739036 25.02416301 0.62670898 21.80810547 C0.56282486 20.87368118 0.49894073 19.9392569 0.43312073 18.97651672 C0.02275992 12.60988214 0 6.41148081 0 0 Z " fill="#EBEAEA" transform="translate(855,705)"/>
<path d="M0 0 C138.6 0 277.2 0 420 0 C423.4420298 28.68358164 423.4420298 28.68358164 424.61328125 42.875 C424.74897465 44.47632988 424.88511814 46.07762167 425.02166748 47.67887878 C425.30821294 51.0465874 425.59240854 54.4144812 425.87454224 57.78256226 C426.62944514 66.78955839 427.40124699 75.79511948 428.171875 84.80078125 C428.28799731 86.16007972 428.28799731 86.16007972 428.40646553 87.54683876 C429.87855129 104.7681034 431.449831 121.97890468 433.0625 139.1875 C435.21423588 162.18160657 437.23730828 185.18355009 439.1859169 208.19557953 C441.33392048 233.55946824 443.61293009 258.90908056 445.99609375 284.25195312 C446.23202941 286.76820493 446.46771297 289.2844804 446.703125 291.80078125 C446.81531372 292.99897491 446.92750244 294.19716858 447.04309082 295.43167114 C447.89645294 304.64651399 448.65464302 313.86724584 449.34112549 323.09602356 C449.69808188 327.78150871 450.11138322 332.37772797 451 337 C451.92558716 337.22550537 451.92558716 337.22550537 452.86987305 337.45556641 C463.65062561 340.09172492 474.40936261 342.75810129 485.0625 345.875 C493.82791269 348.43794622 502.6518697 350.74304361 511.5 353 C521.13910804 355.46041778 530.74064926 358.00828249 540.29443359 360.78344727 C556.04906804 365.35096734 571.9270414 369.47786101 587.8125 373.5625 C596.4938723 375.79474728 605.12319167 378.14998601 613.7277832 380.66040039 C621.60987602 382.93671704 629.55142285 384.97157547 637.5 387 C647.13903882 389.460705 656.74064012 392.00827983 666.29443359 394.78344727 C682.04906804 399.35096734 697.9270414 403.47786101 713.8125 407.5625 C722.4938723 409.79474728 731.12319167 412.14998601 739.7277832 414.66040039 C747.60987602 416.93671704 755.55142285 418.97157547 763.5 421 C773.13903882 423.460705 782.74064012 426.00827983 792.29443359 428.78344727 C808.04906804 433.35096734 823.9270414 437.47786101 839.8125 441.5625 C848.49163791 443.79417275 857.11857033 446.14931778 865.72119141 448.65820312 C874.91616475 451.31285549 884.18859991 453.66644488 893.46386719 456.02124023 C903.35694009 458.5410641 913.15563788 461.26545497 923 464 C922.67 610.19 922.34 756.38 922 907 C914.36723923 905.23859367 907.27987931 903.50379792 899.89453125 901.1640625 C894.91111317 899.63543949 889.85901282 898.3637087 884.8125 897.0625 C872.77720822 893.95624108 860.78295474 890.73666426 848.87280273 887.17797852 C840.49176376 884.67429333 832.06145988 882.42028212 823.5925293 880.23291016 C812.63286533 877.39903209 801.71942497 874.41888761 790.87280273 871.17797852 C782.49176376 868.67429333 774.06145988 866.42028212 765.5925293 864.23291016 C754.63286533 861.39903209 743.71942497 858.41888761 732.87280273 855.17797852 C724.49176376 852.67429333 716.06145988 850.42028212 707.5925293 848.23291016 C696.63286533 845.39903209 685.71942497 842.41888761 674.87280273 839.17797852 C666.49176376 836.67429333 658.06145988 834.42028212 649.5925293 832.23291016 C638.63286533 829.39903209 627.71942497 826.41888761 616.87280273 823.17797852 C608.49176376 820.67429333 600.06145988 818.42028212 591.5925293 816.23291016 C580.63286533 813.39903209 569.71942497 810.41888761 558.87280273 807.17797852 C550.49176376 804.67429333 542.06145988 802.42028212 533.5925293 800.23291016 C522.63286533 797.39903209 511.71942497 794.41888761 500.87280273 791.17797852 C492.49176376 788.67429333 484.06145988 786.42028212 475.5925293 784.23291016 C464.63286533 781.39903209 453.71942497 778.41888761 442.87280273 775.17797852 C434.49176376 772.67429333 426.06145988 770.42028212 417.5925293 768.23291016 C406.63286533 765.39903209 395.71942497 762.41888761 384.87280273 759.17797852 C376.49176376 756.67429333 368.06145988 754.42028212 359.5925293 752.23291016 C348.63286533 749.39903209 337.71942497 746.41888761 326.87280273 743.17797852 C318.49176376 740.67429333 310.06145988 738.42028212 301.5925293 736.23291016 C290.63286533 733.39903209 279.71942497 730.41888761 268.87280273 727.17797852 C260.49176376 724.67429333 252.06145988 722.42028212 243.5925293 720.23291016 C232.63286533 717.39903209 221.71942497 714.41888761 210.87280273 711.17797852 C202.49176376 708.67429333 194.06145988 706.42028212 185.5925293 704.23291016 C174.63286533 701.39903209 163.71942497 698.41888761 152.87280273 695.17797852 C144.49176376 692.67429333 136.06145988 690.42028212 127.5925293 688.23291016 C115.24470523 685.04009075 102.98101631 681.60288395 90.76220703 677.94946289 C83.59101932 675.83216848 76.35312837 673.97585437 69.10473633 672.14282227 C68.18329834 671.90748779 67.26186035 671.67215332 66.3125 671.4296875 C65.50425781 671.22585449 64.69601562 671.02202148 63.86328125 670.81201172 C59.86286122 669.67751334 55.93611058 668.33852836 52 667 C51.92602493 665.98741623 51.92602493 665.98741623 51.85055542 664.95437622 C49.42061801 631.73000771 46.91306836 598.51399638 44.1875 565.3125 C41.68970808 534.88263665 39.32684316 504.44338719 37 474 C34.73173269 444.32779122 32.43563061 414.65896428 30 385 C27.47118525 354.2063213 25.09498348 323.40175538 22.73962402 292.59436035 C20.5026935 263.34001181 18.22506222 234.09022263 15.8233223 204.8489418 C13.23934382 173.38019946 10.82537761 141.8989596 8.42016602 110.41610718 C6.16344056 80.88227999 3.85824595 51.35400154 1.37084961 21.83862305 C1.27565536 20.70182098 1.18046112 19.56501892 1.0823822 18.39376831 C0.90955883 16.33307897 0.73497019 14.27253645 0.55812073 12.21218872 C0.4835112 11.32272552 0.40890167 10.43326233 0.33203125 9.5168457 C0.26733643 8.75797562 0.2026416 7.99910553 0.13598633 7.21723938 C-0.01131081 4.81557865 0 2.40617346 0 0 Z " fill="#EAEAEA" transform="translate(990,2198)"/>
<path d="M0 0 C351.45 0 702.9 0 1065 0 C1065 7.86257118 1064.96033896 15.53848375 1064.43676758 23.3527832 C1064.37652405 24.30170441 1064.31628052 25.25062561 1064.25421143 26.228302 C1064.05552037 29.33610746 1063.85045622 32.44344727 1063.64453125 35.55078125 C1063.49946172 37.77132995 1063.35450054 39.99188574 1063.2096405 42.21244812 C1062.90416205 46.8767863 1062.59510867 51.54087243 1062.28393555 56.20483398 C1061.97246609 60.88023873 1061.66706077 65.55596818 1061.36791992 70.23217773 C1059.42659745 100.55877875 1056.89987552 130.75217689 1053.55496216 160.95651245 C1052.80429272 167.746011 1052.10523025 174.54053325 1051.41015625 181.3359375 C1051.18440108 183.52183445 1050.95841377 185.70770745 1050.73217773 187.89355469 C1050.62316132 188.94877319 1050.5141449 190.0039917 1050.40182495 191.09118652 C1050.03909395 194.60151178 1049.67594932 198.11179409 1049.31274414 201.62207031 C1048.15390096 212.8239918 1046.99668146 224.02607556 1045.8447876 235.22871399 C1045.3362171 240.17360988 1044.82674291 245.11841245 1044.31713867 250.0632019 C1044.0633214 252.5281063 1043.8099057 254.99305207 1043.55688477 257.45803833 C1042.34391606 269.27130297 1041.1263496 281.08251464 1039.7578125 292.87890625 C1036.24415205 323.36181283 1033.7714283 353.91539704 1031.32250977 384.49926758 C1031.1744693 386.34288577 1031.02642354 388.18650353 1030.87837219 390.03012085 C1030.60032224 393.49386747 1030.32554087 396.95785122 1030.05290222 400.42202759 C1029.92759939 401.99221412 1029.80222209 403.56239472 1029.67675781 405.13256836 C1029.62274087 405.83005345 1029.56872393 406.52753855 1029.51307011 407.24615955 C1029.16670905 411.54494712 1028.61206062 415.71557567 1028 420 C688.76 420 349.52 420 0 420 C0 281.4 0 142.8 0 0 Z " fill="#FEFEFE" transform="translate(1912,705)"/>
<path d="M0 0 C170.61 0 341.22 0 517 0 C517 11.24957323 517 11.24957323 516.62036133 15.08349609 C516.53618454 15.95818039 516.45200775 16.83286469 516.36528015 17.73405457 C516.22507195 19.11479912 516.22507195 19.11479912 516.08203125 20.5234375 C515.98481277 21.5203511 515.8875943 22.51726471 515.78742981 23.54438782 C515.46686057 26.82170829 515.13961998 30.09832747 514.8125 33.375 C514.58265662 35.71454917 514.35333721 38.05414988 514.12451172 40.39379883 C513.65064365 45.23457858 513.17454912 50.07513137 512.69677734 54.91552734 C511.75503922 64.47100426 510.83812373 74.02883611 509.92227173 83.58682251 C509.5147086 87.83788877 509.10579199 92.0888245 508.69694519 96.33976746 C506.24682389 121.81724331 503.80621003 147.2956335 501.36380005 172.77384949 C500.32342575 183.6265924 499.2828826 194.4793191 498.2421875 205.33203125 C498.17023289 206.08239843 498.09827827 206.83276562 498.02414322 207.6058712 C497.66126002 211.39013061 497.29837365 215.17438971 496.93548584 218.95864868 C496.2799311 225.79490679 495.62440467 232.63116761 494.96887589 239.46742821 C494.60425173 243.26995225 494.23962577 247.07247612 493.875 250.875 C493.72916666 252.39583333 493.58333332 253.91666667 493.4375 255.4375 C485.56250008 337.5624992 485.56250008 337.5624992 485.34374905 339.84375954 C485.19791879 341.36456107 485.05208863 342.88536262 484.90625858 344.40616417 C484.54162905 348.20873411 484.17699771 352.01130388 483.81236267 355.81387329 C483.15666248 362.65181244 482.50097472 369.48975279 481.84535503 376.32769966 C481.48154775 380.12211314 481.11772981 383.91652559 480.75390625 387.7109375 C480.68184023 388.46253521 480.60977421 389.21413292 480.53552437 389.98850632 C479.5781133 399.97341964 478.62023755 409.95828827 477.66192627 419.94311523 C477.14131582 425.36749843 476.62088925 430.79189927 476.1004715 436.21630096 C475.6619929 440.78632966 475.22320583 445.35632862 474.78421021 449.92630768 C473.33669468 464.99703925 471.89610051 480.06837048 470.47591591 495.14170456 C470.26417517 497.388003 470.05210128 499.6342697 469.83988953 501.88052368 C469.73694501 502.97022367 469.73694501 502.97022367 469.63192081 504.08193779 C469.49538796 505.52706489 469.35883913 506.97219049 469.22227383 508.41731453 C468.82939743 512.57711942 468.43889397 516.73713835 468.05021 520.89733696 C467.75682413 524.0307047 467.46015669 527.1637622 467.1640625 530.296875 C467.06022751 531.41712067 466.95639252 532.53736633 466.84941101 533.69155884 C466.75166885 534.71985809 466.6539267 535.74815735 466.55322266 536.80761719 C466.46996735 537.69551941 466.38671204 538.58342163 466.30093384 539.49822998 C465.99573012 542.03549705 465.53445837 544.50184253 465 547 C451.87555469 550.96658027 438.65892427 554.55312481 425.41259766 558.08837891 C419.85647595 559.5726083 414.30319431 561.06736149 408.75 562.5625 C407.6679126 562.85366699 406.5858252 563.14483398 405.47094727 563.44482422 C398.64366372 565.28335498 391.82035703 567.13595122 385 569 C373.77961916 572.06660445 362.54762354 575.08951869 351.31445312 578.10888672 C345.87589523 579.57108003 340.4379764 581.03564586 335 582.5 C332.83333648 583.08334501 330.66666981 583.66667834 328.5 584.25 C327.4275 584.53875 326.355 584.8275 325.25 585.125 C315.5 587.75 315.5 587.75 312.24902344 588.62524414 C310.0855994 589.20771696 307.92218791 589.79023638 305.75878906 590.37280273 C300.29261283 591.84468714 294.82621082 593.31572343 289.359375 594.78515625 C279.23511994 597.50724369 269.11292141 600.23607155 259 603 C247.77961916 606.06660445 236.54762354 609.08951869 225.31445312 612.10888672 C219.87589523 613.57108003 214.4379764 615.03564586 209 616.5 C206.83333648 617.08334501 204.66666981 617.66667834 202.5 618.25 C201.4275 618.53875 200.355 618.8275 199.25 619.125 C189.5 621.75 189.5 621.75 186.24902344 622.62524414 C184.0855994 623.20771696 181.92218791 623.79023638 179.75878906 624.37280273 C174.29261283 625.84468714 168.82621082 627.31572343 163.359375 628.78515625 C153.23511994 631.50724369 143.11292141 634.23607155 133 637 C121.77961916 640.06660445 110.54762354 643.08951869 99.31445312 646.10888672 C93.87589523 647.57108003 88.4379764 649.03564586 83 650.5 C80.83333648 651.08334501 78.66666981 651.66667834 76.5 652.25 C75.4275 652.53875 74.355 652.8275 73.25 653.125 C63.5 655.75 63.5 655.75 60.24780273 656.62548828 C58.08839107 657.20693702 55.92904822 657.78864138 53.76977539 658.37060547 C48.24265316 659.85991231 42.71428337 661.34430428 37.18359375 662.8203125 C34.93482799 663.42162134 32.6861291 664.02318032 30.4375 664.625 C29.35919922 664.91310547 28.28089844 665.20121094 27.16992188 665.49804688 C20.03600428 667.41652195 12.93920932 669.43518145 5.89624023 671.66650391 C1.21435403 673.10717701 1.21435403 673.10717701 -1 672 C-0.67 450.24 -0.34 228.48 0 0 Z " fill="#EF652A" transform="translate(1920,1988)"/>
<path d="M0 0 C198 0 396 0 600 0 C600 143.55 600 287.1 600 435 C414.21 435 228.42 435 37 435 C35.35 414.87 33.7 394.74 32 374 C31.0410675 363.02291655 30.08109084 352.0469657 29.08911133 341.07299805 C28.34715176 332.86447031 27.61603065 324.65497239 26.88671875 316.4453125 C26.81028011 315.5850219 26.73384148 314.72473129 26.65508652 313.83837128 C24.69364066 291.73205463 22.84882681 269.61596382 21 247.5 C18.57473903 218.49302553 16.09464462 189.49232123 13.5 160.5 C10.90112493 131.45179271 8.39825515 102.39618814 5.9524231 73.33468628 C5.69152447 70.2353092 5.43026617 67.1359626 5.16894531 64.03662109 C4.75518427 59.1272357 4.34265843 54.21774792 3.9311161 49.30817604 C3.78101737 47.5183578 3.63067222 45.7285602 3.48003197 43.93878746 C2.24862751 29.29737822 1.12696202 14.65050631 0 0 Z " fill="#E34F26" transform="translate(1320,1125)"/>
</svg>
