<?xml version="1.0" encoding="UTF-8"?>
<svg version="1.1" xmlns="http://www.w3.org/2000/svg" width="1280" height="1280">
<path d="M0 0 C422.4 0 844.8 0 1280 0 C1276.43507678 4.15907708 1273.05421539 8.07074572 1269.21523058 11.90896791 C1267.84042569 13.28714375 1267.84042569 13.28714375 1266.43784696 14.69316152 C1265.43286536 15.69557809 1264.42783788 16.69794867 1263.42276955 17.70027828 C1262.3411443 18.78264395 1261.25973861 19.86522906 1260.17853171 20.94801262 C1257.2061633 23.92344388 1254.23069012 26.89575323 1251.25470235 29.86756385 C1248.01792863 33.10089872 1244.78406335 36.33714033 1241.54982889 39.5730148 C1235.88094699 45.24396964 1230.21021043 50.91306457 1224.5382576 56.58094788 C1216.10427502 65.00889603 1207.67316058 73.43970903 1199.24263369 81.87111377 C1185.06114465 96.05391688 1170.87732864 110.2343907 1156.69218826 124.41354179 C1142.64566722 138.45414728 1128.60017939 152.49578501 1114.55607224 166.53880501 C1113.6830862 167.4117223 1112.81010017 168.2846396 1111.91066001 169.18400893 C1107.47727078 173.61705983 1103.04390003 178.0501292 1098.61053638 182.48320568 C1067.20313204 213.88850921 1035.79340983 245.29149372 1004.38232422 276.69311523 C996.76951457 284.30363321 989.15671306 291.91415935 981.54394531 299.52471924 C981.07179647 299.99673113 980.59964763 300.46874302 980.11319125 300.9550583 C958.1614588 322.90044589 936.21103619 344.84714344 914.26095106 366.7941787 C912.83581847 368.21911322 911.41068531 369.64404719 909.98555204 371.06898103 C900.54106773 380.51214556 891.09660604 389.95533271 881.65215934 399.39853487 C862.41246618 418.63569177 843.17263054 437.87270617 823.93270874 457.1096344 C823.04807446 457.99413139 822.16344018 458.87862838 821.2519988 459.78992831 C762.17038589 518.86233943 703.08545157 577.93142843 644 637 C644.94303287 638.10970946 645.88744032 639.21825088 646.83241272 640.3263092 C647.35817933 640.94375535 647.88394594 641.5612015 648.42564487 642.19735813 C650.63203244 644.72367925 652.98429721 647.07799433 655.37109375 649.43359375 C656.0992202 650.15604027 656.0992202 650.15604027 656.84205627 650.89308167 C658.88246144 652.91742048 660.92886631 654.93565132 662.97485352 656.9543457 C664.4841013 658.44525571 665.99013658 659.93936107 667.49609375 661.43359375 C668.38482178 662.31072021 669.2735498 663.18784668 670.18920898 664.09155273 C672.16846491 666.09259115 674.00264203 668.16844671 675.81825256 670.31825256 C681.46538979 676.7887116 687.63694212 682.75931084 693.71875 688.81640625 C695.1076451 690.20337961 696.4963108 691.59058272 697.88476562 692.97799683 C700.86306865 695.95315094 703.84291519 698.92674718 706.82397461 701.8991394 C711.54231568 706.6039031 716.25679108 711.31252777 720.97070312 716.02172852 C730.97750644 726.01745432 740.98853217 736.00894638 751 746 C761.80991517 756.78787285 772.61909559 767.57647573 783.42339325 778.36997509 C788.10492854 783.04654232 792.78888795 787.72066357 797.4747467 792.39289856 C800.3938436 795.30451135 803.31084498 798.21821671 806.22729492 801.13248062 C807.57479458 802.47811582 808.92315463 803.8228901 810.27246094 805.16671371 C821.74399743 816.59312091 821.74399743 816.59312091 825.4942627 820.9942627 C830.88275556 827.31638962 836.92923202 833.05061423 842.81054688 838.90820312 C844.20929405 840.30502859 845.60781185 841.70208379 847.00611877 843.09934998 C850.00570278 846.09578491 853.0068304 849.09066198 856.00917053 852.08433533 C860.76111612 856.82270438 865.50919682 861.56493368 870.25671387 866.30773926 C880.33484709 876.37479462 890.41720259 886.43761644 900.5 896.5 C911.38690396 907.36486209 922.27307346 918.23045397 933.15436029 929.10094213 C937.86934723 933.81096076 942.58675843 938.51853342 947.30606842 943.22422028 C950.24592405 946.15659223 953.18368456 949.09105638 956.12089348 952.02607918 C957.47806854 953.38138965 958.83610406 954.73583914 960.19508553 956.0893383 C966.00124777 961.87282307 971.76200745 967.61331731 977.07978058 973.85393524 C982.07351754 979.43500727 987.50611292 984.62516792 992.81054688 989.90820312 C994.20929405 991.30502859 995.60781185 992.70208379 997.00611877 994.09934998 C1000.00570278 997.09578491 1003.0068304 1000.09066198 1006.00917053 1003.08433533 C1010.76111612 1007.82270438 1015.50919682 1012.56493368 1020.25671387 1017.30773926 C1030.33484709 1027.37479462 1040.41720259 1037.43761644 1050.5 1047.5 C1061.38690396 1058.36486209 1072.27307346 1069.23045397 1083.15436029 1080.10094213 C1087.86934723 1084.81096076 1092.58675843 1089.51853342 1097.30606842 1094.22422028 C1100.24592405 1097.15659223 1103.18368456 1100.09105638 1106.12089348 1103.02607918 C1107.47806854 1104.38138965 1108.83610406 1105.73583914 1110.19508553 1107.0893383 C1116.00306682 1112.87463501 1121.76596371 1118.61690806 1127.08538055 1124.85953522 C1132.04771833 1130.40722214 1137.44669796 1135.56577637 1142.71875 1140.81640625 C1144.1076451 1142.20337961 1145.4963108 1143.59058272 1146.88476562 1144.97799683 C1149.86306865 1147.95315094 1152.84291519 1150.92674718 1155.82397461 1153.8991394 C1160.54231568 1158.6039031 1165.25679108 1163.31252777 1169.97070312 1168.02172852 C1179.97750644 1178.01745432 1189.98853217 1188.00894638 1200 1198 C1210.80991517 1208.78787285 1221.61909559 1219.57647573 1232.42339325 1230.36997509 C1237.10492854 1235.04654232 1241.78888795 1239.72066357 1246.4747467 1244.39289856 C1249.3938436 1247.30451135 1252.31084498 1250.21821671 1255.22729492 1253.13248062 C1256.57479458 1254.47811582 1257.92315463 1255.8228901 1259.27246094 1257.16671371 C1275.65957098 1273.48935647 1275.65957098 1273.48935647 1280 1280 C857.6 1280 435.2 1280 0 1280 C0 857.6 0 435.2 0 0 Z " fill="#E8793F" transform="translate(0,0)"/>
<path d="M0 0 C4.10099772 1.88635944 6.91184011 4.64021182 10.05078125 7.8203125 C10.62781296 8.39780243 11.20484467 8.97529236 11.79936218 9.57028198 C13.01957662 10.79351367 14.23736351 12.01917105 15.45288086 13.24707031 C17.2904276 15.10271027 19.13568538 16.95038537 20.98242188 18.796875 C22.17234452 19.9917201 23.36181182 21.18701887 24.55078125 22.3828125 C25.09269608 22.92584015 25.6346109 23.4688678 26.19294739 24.02835083 C28.85267623 26.72027092 31.40210854 29.454264 33.84318542 32.34616089 C39.48150592 38.8073881 45.64598342 44.76831541 51.71875 50.81640625 C53.1076451 52.20337961 54.4963108 53.59058272 55.88476562 54.97799683 C58.86306865 57.95315094 61.84291519 60.92674718 64.82397461 63.8991394 C69.54231568 68.6039031 74.25679108 73.31252777 78.97070312 78.02172852 C88.97750644 88.01745432 98.98853217 98.00894638 109 108 C119.80991517 118.78787285 130.61909559 129.57647573 141.42339325 140.36997509 C146.10492854 145.04654232 150.78888795 149.72066357 155.4747467 154.39289856 C158.3938436 157.30451135 161.31084498 160.21821671 164.22729492 163.13248062 C165.57479458 164.47811582 166.92315463 165.8228901 168.27246094 167.16671371 C179.74399743 178.59312091 179.74399743 178.59312091 183.4942627 182.9942627 C188.88275556 189.31638962 194.92923202 195.05061423 200.81054688 200.90820312 C202.20929405 202.30502859 203.60781185 203.70208379 205.00611877 205.09934998 C208.00570278 208.09578491 211.0068304 211.09066198 214.00917053 214.08433533 C218.76111612 218.82270438 223.50919682 223.56493368 228.25671387 228.30773926 C238.33484709 238.37479462 248.41720259 248.43761644 258.5 258.5 C269.38690396 269.36486209 280.27307346 280.23045397 291.15436029 291.10094213 C295.86934723 295.81096076 300.58675843 300.51853342 305.30606842 305.22422028 C308.24592405 308.15659223 311.18368456 311.09105638 314.12089348 314.02607918 C315.47806854 315.38138965 316.83610406 316.73583914 318.19508553 318.0893383 C324.00124777 323.87282307 329.76200745 329.61331731 335.07978058 335.85393524 C340.07351754 341.43500727 345.50611292 346.62516792 350.81054688 351.90820312 C352.20929405 353.30502859 353.60781185 354.70208379 355.00611877 356.09934998 C358.00570278 359.09578491 361.0068304 362.09066198 364.00917053 365.08433533 C368.76111612 369.82270438 373.50919682 374.56493368 378.25671387 379.30773926 C388.33484709 389.37479462 398.41720259 399.43761644 408.5 409.5 C419.38690396 420.36486209 430.27307346 431.23045397 441.15436029 442.10094213 C445.86934723 446.81096076 450.58675843 451.51853342 455.30606842 456.22422028 C458.24592405 459.15659223 461.18368456 462.09105638 464.12089348 465.02607918 C465.47806854 466.38138965 466.83610406 467.73583914 468.19508553 469.0893383 C474.00306682 474.87463501 479.76596371 480.61690806 485.08538055 486.85953522 C490.04771833 492.40722214 495.44669796 497.56577637 500.71875 502.81640625 C502.1076451 504.20337961 503.4963108 505.59058272 504.88476562 506.97799683 C507.86306865 509.95315094 510.84291519 512.92674718 513.82397461 515.8991394 C518.54231568 520.6039031 523.25679108 525.31252777 527.97070312 530.02172852 C537.97750644 540.01745432 547.98853217 550.00894638 558 560 C568.80991517 570.78787285 579.61909559 581.57647573 590.42339325 592.36997509 C595.10492854 597.04654232 599.78888795 601.72066357 604.4747467 606.39289856 C607.3938436 609.30451135 610.31084498 612.21821671 613.22729492 615.13248062 C614.57479458 616.47811582 615.92315463 617.8228901 617.27246094 619.16671371 C633.65957098 635.48935647 633.65957098 635.48935647 638 642 C215.6 642 -206.8 642 -642 642 C-642 641.34 -642 640.68 -642 640 C-640.6569705 638.67641687 -640.6569705 638.67641687 -638.72350311 637.09140778 C-632.99100453 632.21032699 -627.73418592 626.86606487 -622.4239502 621.53747559 C-621.26389378 620.37713877 -620.10361507 619.21702416 -618.94313478 618.05711126 C-615.7705663 614.88483702 -612.6011118 611.70946771 -609.43216729 608.53357387 C-606.00791849 605.10293071 -602.58074733 601.67520916 -599.15391541 598.24714661 C-593.2205813 592.31093013 -587.28902527 586.37294182 -581.35862732 580.43379211 C-572.77613276 571.8387255 -564.19038478 563.24691462 -555.60375148 554.65598291 C-541.6606725 540.70584131 -527.71946277 526.75383336 -513.77978516 512.80029297 C-512.9460449 511.9657249 -512.11230465 511.13115683 -511.25329953 510.27129883 C-505.33548323 504.34758229 -499.41773384 498.42379892 -493.5 492.5 C-486.74011777 485.73318957 -479.98020527 478.96640938 -473.22021484 472.19970703 C-471.97113373 470.94938373 -471.97113373 470.94938373 -470.69681865 469.67380136 C-456.8081928 455.77148578 -442.91760051 441.8711366 -429.02560568 427.97218752 C-420.46134495 419.40344857 -411.89886641 410.83293608 -403.33868492 402.26012194 C-397.47349958 396.38650528 -391.60654281 390.51466205 -385.73819411 384.64420593 C-382.35366177 381.25832991 -378.96996315 377.87163138 -375.58846855 374.48272133 C-372.49044843 371.37793317 -369.3901089 368.27548057 -366.28794473 365.17483312 C-365.16872951 364.05534737 -364.05035881 362.93501649 -362.93294102 361.81373662 C-353.54369948 352.39356336 -353.54369948 352.39356336 -349.15522003 348.65479946 C-342.74451336 343.1582713 -336.90069743 337.03450148 -330.94042969 331.0606842 C-329.51068239 329.63137333 -328.08071521 328.20228237 -326.65054798 326.77339166 C-322.73283212 322.85790674 -318.81823263 318.93931917 -314.90414357 315.02020919 C-310.67838175 310.79012293 -306.44972419 306.56293316 -302.22142029 302.33538818 C-294.89983307 295.01432494 -287.58005919 287.6914525 -280.26156616 280.36729622 C-272.58825971 272.68806721 -264.91391512 265.00987811 -257.2381897 257.33306694 C-256.76044998 256.85525848 -256.28271025 256.37745002 -255.79049357 255.88516251 C-253.36416444 253.45849503 -250.93781682 251.03184604 -248.51146209 248.60520416 C-231.33783381 231.42947699 -214.16652379 214.25143387 -196.99658203 197.07202148 C-180.31904738 180.38529845 -163.64045969 163.69962908 -146.96044922 147.01538086 C-146.1888536 146.24358795 -146.1888536 146.24358795 -145.40167019 145.45620326 C-140.23575364 140.28896817 -135.06981572 135.12175444 -129.90386214 129.95455636 C-119.38077122 119.42892941 -108.85782294 108.90315988 -98.33496094 98.37730408 C-97.85116558 97.89337143 -97.36737022 97.40943878 -96.8689144 96.91084151 C-64.57688613 64.60961682 -32.28819311 32.30505825 0 0 Z " fill="#587ADE" transform="translate(642,638)"/>
<path d="M0 0 C211.53 0 423.06 0 641 0 C636.50435331 6.74347003 636.50435331 6.74347003 633.35546875 9.8046875 C632.67806641 10.47113281 632.00066406 11.13757813 631.30273438 11.82421875 C630.25569336 12.83935547 630.25569336 12.83935547 629.1875 13.875 C624.45738261 18.48519892 619.92282892 23.15232926 615.61450195 28.16064453 C613.3546475 30.73523148 610.9512954 33.10638214 608.5 35.5 C605.38196374 38.5714984 602.34105916 41.66721906 599.5 45 C596.65877179 48.33297924 593.61578004 51.42608465 590.5 54.5 C587.42595865 57.53284817 584.42000801 60.57939354 581.625 63.875 C577.9125001 68.23315206 573.83031453 72.1958835 569.76269531 76.21777344 C566.27629837 79.68002915 562.98367669 83.22820211 559.8046875 86.9765625 C557.02077021 90.09792431 554.02017656 93.00021823 551.04418945 95.9362793 C548.43862818 98.52038459 545.93939418 101.14217946 543.5625 103.9375 C540.06356651 108.04347737 536.24167411 111.78581002 532.40698242 115.57348633 C529.0293548 118.92566643 525.85758681 122.38205648 522.7734375 126.0078125 C520.60886582 128.43937981 518.31570547 130.71211081 516 133 C513.11010172 135.85523683 510.31548255 138.71500196 507.6875 141.8125 C504.47761121 145.57134839 501.01210452 149.02742951 497.5 152.5 C493.42366851 156.53049782 489.514468 160.6023437 485.8046875 164.9765625 C483.02077021 168.09792431 480.02017656 171.00021823 477.04418945 173.9362793 C474.43862818 176.52038459 471.93939418 179.14217946 469.5625 181.9375 C466.06289503 186.04426535 462.24017991 189.78724806 458.40478516 193.57568359 C455.04955443 196.90566329 451.90282125 200.33922489 448.83984375 203.94140625 C446.04233133 207.07153162 443.03375494 209.98685658 440.04663086 212.93383789 C437.41959998 215.5392137 434.89999432 218.18462205 432.5 221 C429.2169922 224.85122069 425.64595488 228.3828886 422.046875 231.93359375 C419.41976442 234.53905232 416.90006916 237.18453425 414.5 240 C411.2169922 243.85122069 407.64595488 247.3828886 404.046875 250.93359375 C401.41976442 253.53905232 398.90006916 256.18453425 396.5 259 C393.65877199 262.33297901 390.61578377 265.42608801 387.5 268.5 C384.40508498 271.55337951 381.38065723 274.62323685 378.5625 277.9375 C375.54647173 281.476791 372.30552099 284.73494445 369 288 C365.71532009 291.24451876 362.49265996 294.47922358 359.5 298 C356.0245645 302.08874765 352.21899763 305.80816684 348.40454102 309.57592773 C345.04939106 312.9058233 341.90274548 316.33931399 338.83984375 319.94140625 C336.04233133 323.07153162 333.03375494 325.98685658 330.04663086 328.93383789 C327.41959998 331.5392137 324.89999432 334.18462205 322.5 337 C319.2169922 340.85122069 315.64595488 344.3828886 312.046875 347.93359375 C309.41976442 350.53905232 306.90006916 353.18453425 304.5 356 C301.65877199 359.33297901 298.61578377 362.42608801 295.5 365.5 C292.40508498 368.55337951 289.38065723 371.62323685 286.5625 374.9375 C283.54647173 378.476791 280.30552099 381.73494445 277 385 C273.71532009 388.24451876 270.49265996 391.47922358 267.5 395 C264.0245645 399.08874765 260.21899763 402.80816684 256.40454102 406.57592773 C253.04939106 409.9058233 249.90274548 413.33931399 246.83984375 416.94140625 C244.04164208 420.07230281 241.03226344 422.98829695 238.04443359 425.93603516 C235.43879261 428.52022318 232.93946891 431.14209158 230.5625 433.9375 C227.54647173 437.476791 224.30552099 440.73494445 221 444 C217.71532009 447.24451876 214.49265996 450.47922358 211.5 454 C208.02389423 458.0895362 204.21750344 461.8096054 200.40234375 465.578125 C197.65674514 468.30308001 195.00730048 471.05023473 192.5 474 C189.0245645 478.08874765 185.21899763 481.80816684 181.40454102 485.57592773 C178.04939106 488.9058233 174.90274548 492.33931399 171.83984375 495.94140625 C169.04164208 499.07230281 166.03226344 501.98829695 163.04443359 504.93603516 C160.43879261 507.52022318 157.93946891 510.14209158 155.5625 512.9375 C152.06289503 517.04426535 148.24017991 520.78724806 144.40478516 524.57568359 C141.04955443 527.90566329 137.90282125 531.33922489 134.83984375 534.94140625 C132.04164208 538.07230281 129.03226344 540.98829695 126.04443359 543.93603516 C123.43879261 546.52022318 120.93946891 549.14209158 118.5625 551.9375 C115.54647173 555.476791 112.30552099 558.73494445 109 562 C105.71532009 565.24451876 102.49265996 568.47922358 99.5 572 C96.02389423 576.0895362 92.21750344 579.8096054 88.40234375 583.578125 C85.65674514 586.30308001 83.00730048 589.05023473 80.5 592 C77.0245645 596.08874765 73.21899763 599.80816684 69.40454102 603.57592773 C66.04939106 606.9058233 62.90274548 610.33931399 59.83984375 613.94140625 C57.04164208 617.07230281 54.03226344 619.98829695 51.04443359 622.93603516 C48.43879261 625.52022318 45.93946891 628.14209158 43.5625 630.9375 C40.06289503 635.04426535 36.24017991 638.78724806 32.40478516 642.57568359 C29.04955443 645.90566329 25.90282125 649.33922489 22.83984375 652.94140625 C20.4950643 655.56497052 18.00392266 658.03014717 15.5 660.5 C11.61421189 664.33774952 7.92909764 668.24276008 4.4375 672.44140625 C3 674 3 674 0 676 C0 452.92 0 229.84 0 0 Z " fill="#2789D9" transform="translate(0,0)"/>
</svg>
