<?xml version="1.0" encoding="UTF-8"?>
<svg version="1.1" xmlns="http://www.w3.org/2000/svg" width="3840" height="3840">
<path d="M0 0 C0.98535736 -0.00701431 1.97071472 -0.01402863 2.9859314 -0.02125549 C6.14301181 -0.03864307 9.29990474 -0.04510637 12.45703125 -0.046875 C13.53499969 -0.04754974 14.61296814 -0.04822449 15.72360229 -0.04891968 C31.12253188 -0.03358053 46.1081655 0.26175635 61.26953125 3.203125 C62.63779053 3.45255859 62.63779053 3.45255859 64.03369141 3.70703125 C119.68400465 14.0073463 170.46446862 41.44410436 212.26953125 79.203125 C213.28384275 80.10548159 214.29816525 81.0078258 215.3125 81.91015625 C222.65804762 88.51399435 229.65072257 95.48156889 236.64453125 102.453125 C237.11915802 102.92507294 237.59378479 103.39702087 238.08279419 103.88327026 C243.70358731 109.47996958 249.13186252 115.16019198 254.26953125 121.203125 C255.53796875 122.64945313 255.53796875 122.64945313 256.83203125 124.125 C277.49837044 148.10325253 294.82065182 174.62712201 310.26953125 202.203125 C310.93710449 203.38140869 310.93710449 203.38140869 311.61816406 204.58349609 C325.22651371 228.75077955 335.57340755 254.92167834 344.26953125 281.203125 C344.62208984 282.2662793 344.97464844 283.32943359 345.33789062 284.42480469 C361.31435247 333.17849171 370.04094639 384.04602481 373.26953125 435.203125 C373.31189911 435.83966003 373.35426697 436.47619507 373.3979187 437.13201904 C374.47004865 453.64267688 374.47232631 470.1651423 374.45703125 486.703125 C374.45661709 487.42404579 374.45620293 488.14496658 374.45577621 488.88773346 C374.43961011 511.38558049 374.19546932 533.77697118 372.26953125 556.203125 C372.19412109 557.10542847 372.11871094 558.00773193 372.04101562 558.93737793 C363.35677607 662.70101426 340.79321945 764.42965037 242.26953125 1055.203125 C242.00108398 1055.86834167 241.73263672 1056.53355835 241.45605469 1057.21893311 C224.06850653 1100.30355558 205.7136873 1143.00768593 186.26953125 1185.203125 C185.9577594 1185.88040649 185.64598755 1186.55768799 185.32476807 1187.25549316 C181.8456188 1194.81208233 178.33915345 1202.35566319 174.81445312 1209.89111328 C173.22321703 1213.30241366 171.64375289 1216.7189758 170.06640625 1220.13671875 C154.80134257 1253.1517518 138.5696813 1285.69515338 122.31649399 1318.23168945 C121.15748125 1320.55219727 119.99905965 1322.87299942 118.84072876 1325.19384766 C111.11421662 1340.67088586 103.37447798 1356.13273914 95.23040771 1371.39575195 C93.83181109 1374.02646041 92.45986349 1376.67072694 91.08984375 1379.31640625 C85.85301481 1389.42099417 80.528021 1399.46741837 75.04907227 1409.44287109 C72.13456058 1414.75809283 69.25491604 1420.09036629 66.4140625 1425.4453125 C66.08151962 1426.07212418 65.74897675 1426.69893585 65.40635681 1427.34474182 C64.72514951 1428.629033 64.04397198 1429.91333998 63.36282349 1431.19766235 C57.71692162 1441.83974525 51.96547684 1452.40306138 45.99023438 1462.86523438 C42.16757504 1469.57024499 38.47923805 1476.33880973 34.83203125 1483.140625 C29.89689829 1492.33080007 24.72594314 1501.35723879 19.42993164 1510.34350586 C15.5796611 1516.89714646 11.87556623 1523.51230085 8.26953125 1530.203125 C2.47816723 1540.93011417 -3.63367717 1551.45253787 -9.81933594 1561.95605469 C-11.81749178 1565.35097966 -13.81008003 1568.7491388 -15.80078125 1572.1484375 C-18.29446321 1576.4064304 -20.78954901 1580.66359062 -23.28700256 1584.91937256 C-26.52932547 1590.44464038 -29.76509965 1595.97363238 -32.9921875 1601.5078125 C-41.69316696 1616.42037843 -50.54159648 1631.23379919 -59.53843689 1645.9697113 C-62.03844894 1650.06505564 -64.52961094 1654.16567603 -67.015625 1658.26953125 C-80.79724782 1681.01710184 -94.73057475 1703.66736117 -108.85400391 1726.20458984 C-111.42855665 1730.31864876 -113.99314447 1734.43888649 -116.55786133 1738.55908203 C-118.43887109 1741.57395254 -120.32999447 1744.58227847 -122.22265625 1747.58984375 C-124.46089006 1751.15044897 -126.65224911 1754.73229716 -128.80078125 1758.34765625 C-129.73557691 1759.8828735 -130.67046624 1761.41803372 -131.60546875 1762.953125 C-131.99702148 1763.63818115 -132.38857422 1764.3232373 -132.79199219 1765.02905273 C-137.54807257 1772.71686919 -146.4543974 1774.58965882 -154.65234375 1777.27734375 C-156.39402721 1777.85869063 -158.13555669 1778.44049898 -159.87695312 1779.02270508 C-160.78791748 1779.32592682 -161.69888184 1779.62914856 -162.63745117 1779.94155884 C-244.85240421 1807.38684463 -324.94425447 1842.3186224 -402.81152344 1880.30737305 C-405.70049076 1881.71036692 -408.59873891 1883.09269281 -411.50097656 1884.46801758 C-427.59884226 1892.10385155 -443.54421215 1900.03257596 -459.47460938 1908.01000977 C-463.23682542 1909.89397553 -467.0008574 1911.77428124 -470.76536274 1913.65366745 C-486.1712002 1921.34660874 -501.55211886 1929.0675 -516.73046875 1937.203125 C-517.92289393 1937.83917433 -519.11543504 1938.47500637 -520.30810547 1939.1105957 C-523.55576646 1940.84478131 -526.79998052 1942.58521913 -530.04296875 1944.328125 C-532.44893196 1945.62032642 -534.85521236 1946.91193546 -537.26171875 1948.203125 C-537.87163162 1948.53039581 -538.48154449 1948.85766663 -539.10993958 1949.19485474 C-543.52906189 1951.56404902 -547.95617275 1953.91787446 -552.38671875 1956.265625 C-564.8551458 1962.87672455 -577.26822113 1969.55520959 -589.52807617 1976.54907227 C-595.92973498 1980.19914585 -602.37587335 1983.75593926 -608.85546875 1987.265625 C-619.57560756 1993.0823351 -630.16614612 1999.10893124 -640.73046875 2005.203125 C-642.48460263 2006.21389344 -644.23873713 2007.22466082 -645.9928894 2008.23539734 C-652.90794581 2012.22026227 -659.82006715 2016.21019291 -666.73046875 2020.203125 C-662.94024858 2019.44088192 -659.6300745 2017.89864737 -656.1171875 2016.30859375 C-654.73347425 2015.68611074 -653.34968097 2015.06380561 -651.96582031 2014.44165039 C-651.22787231 2014.10859894 -650.48992432 2013.77554749 -649.72961426 2013.43240356 C-585.99728492 1984.71045016 -585.99728492 1984.71045016 -555.73046875 1974.203125 C-554.72838379 1973.84734375 -553.72629883 1973.4915625 -552.69384766 1973.125 C-486.34480877 1949.65923848 -417.01963414 1934.00218767 -348.73046875 1917.203125 C-347.76580185 1916.96579525 -347.76580185 1916.96579525 -346.78164673 1916.72367096 C-314.90165131 1908.88327988 -282.96987993 1901.26596986 -250.99807358 1893.8097229 C-248.68072513 1893.26860372 -246.36382264 1892.7256121 -244.04702759 1892.18212891 C-240.4193542 1891.33154371 -236.79038799 1890.48671251 -233.16032028 1889.64640617 C-231.82345041 1889.33609206 -230.48700451 1889.02394493 -229.15102005 1888.70984077 C-227.31795695 1888.27931112 -225.48311158 1887.8563911 -223.64819336 1887.43383789 C-222.62052353 1887.19484268 -221.5928537 1886.95584747 -220.53404236 1886.70960999 C-217.86084215 1886.22667786 -215.43921032 1886.10531219 -212.73046875 1886.203125 C-213.98376649 1889.60228773 -215.40227619 1892.41085656 -217.51171875 1895.3515625 C-218.0931665 1896.17213135 -218.67461426 1896.9927002 -219.27368164 1897.83813477 C-219.91942139 1898.74233154 -220.56516113 1899.64652832 -221.23046875 1900.578125 C-228.94371381 1911.51465359 -236.38873548 1922.61826193 -243.79296875 1933.765625 C-246.04760903 1937.15793001 -248.30281661 1940.54985711 -250.55859375 1943.94140625 C-251.09889725 1944.75375732 -251.63920074 1945.5661084 -252.19587708 1946.40307617 C-258.10243002 1955.27604993 -264.09613728 1964.0879186 -270.13183594 1972.87353516 C-271.74470265 1975.22386719 -273.35170295 1977.5781075 -274.95703125 1979.93359375 C-282.79087156 1991.42259163 -290.72148286 2002.84294423 -298.67333984 2014.25048828 C-301.39840703 2018.16182968 -304.11892144 2022.07632768 -306.83959961 2025.99072266 C-314.77900349 2037.41184889 -322.73872936 2048.81855295 -330.73046875 2060.203125 C-331.24561035 2060.93724609 -331.76075195 2061.67136719 -332.29150391 2062.42773438 C-338.4213565 2071.15711675 -344.61674421 2079.83554139 -350.87524414 2088.47314453 C-354.53072535 2093.52417645 -358.14403366 2098.60287725 -361.73046875 2103.703125 C-367.44820073 2111.83109803 -373.258712 2119.88978862 -379.08935547 2127.93701172 C-381.26484551 2130.94101329 -383.4363067 2133.94791379 -385.60742188 2136.95507812 C-387.23259723 2139.20607311 -388.85848631 2141.45655147 -390.484375 2143.70703125 C-392.64052174 2146.69221608 -394.79394379 2149.67933888 -396.9453125 2152.66796875 C-404.21518816 2162.76152545 -411.562885 2172.79492343 -418.95556641 2182.79882812 C-420.74143657 2185.2179821 -422.52365157 2187.63978519 -424.3046875 2190.0625 C-430.23162457 2198.12310189 -436.18355596 2206.16272276 -442.20068359 2214.15625 C-445.99779505 2219.20739596 -449.74274383 2224.29544135 -453.48046875 2229.390625 C-459.13371524 2237.08904653 -464.89098107 2244.70295781 -470.69384766 2252.2890625 C-475.28576862 2258.2949895 -479.83218374 2264.33288533 -484.35546875 2270.390625 C-490.85065449 2279.08042981 -497.48688615 2287.65331144 -504.16845703 2296.20019531 C-506.45223443 2299.1286276 -508.7185323 2302.07030644 -510.98046875 2305.015625 C-512.1715625 2306.56636719 -512.1715625 2306.56636719 -513.38671875 2308.1484375 C-514.16015625 2309.15648438 -514.93359375 2310.16453125 -515.73046875 2311.203125 C-526.1726602 2324.81278118 -536.624825 2338.4166488 -547.38647461 2351.77612305 C-549.87072018 2354.86296405 -552.329185 2357.96551971 -554.74609375 2361.10546875 C-555.23698486 2361.7406543 -555.72787598 2362.37583984 -556.23364258 2363.03027344 C-557.1577738 2364.22889129 -558.07726099 2365.4311113 -558.9909668 2366.63769531 C-563.06029255 2371.90452741 -567.25916378 2375.21124741 -573.32421875 2377.91015625 C-574.42217773 2378.40636475 -575.52013672 2378.90257324 -576.65136719 2379.41381836 C-577.8324707 2379.94241455 -579.01357422 2380.47101074 -580.23046875 2381.015625 C-602.79763401 2391.2823105 -624.58667475 2402.78633008 -645.875 2415.50341797 C-648.7450727 2417.21181795 -651.62630628 2418.89968741 -654.51171875 2420.58203125 C-665.78601031 2427.16651124 -676.84659628 2433.99294058 -687.73046875 2441.203125 C-689.21481192 2442.17973588 -690.69918764 2443.15629729 -692.18359375 2444.1328125 C-714.02866538 2458.55276991 -735.27957754 2473.86322719 -755.73046875 2490.203125 C-757.06464844 2491.26273438 -757.06464844 2491.26273438 -758.42578125 2492.34375 C-760.86781648 2494.28819184 -763.30138374 2496.2425345 -765.73046875 2498.203125 C-766.57738281 2498.88632813 -767.42429687 2499.56953125 -768.296875 2500.2734375 C-778.88357937 2508.87224542 -789.2219481 2517.73837584 -799.26953125 2526.9609375 C-801.47833822 2528.97340607 -803.71740173 2530.93970516 -805.98046875 2532.890625 C-809.08790149 2535.58752293 -811.98497201 2538.43287836 -814.86450195 2541.36962891 C-816.62556441 2543.10004616 -818.43968731 2544.70231182 -820.3203125 2546.30078125 C-825.36816206 2550.69137687 -830.07480542 2555.40112861 -834.79296875 2560.140625 C-836.08170898 2561.42356445 -836.08170898 2561.42356445 -837.39648438 2562.73242188 C-841.79246613 2567.13512018 -846.03890357 2571.60061255 -850.0925293 2576.32006836 C-852.83562496 2579.47366753 -855.73082547 2582.4824447 -858.60546875 2585.515625 C-863.43900342 2590.65547458 -868.05609821 2595.88607934 -872.4609375 2601.40234375 C-874.62996989 2604.07910144 -876.85853589 2606.68793871 -879.11621094 2609.28955078 C-885.27236084 2616.38520121 -891.11241008 2623.67421573 -896.73046875 2631.203125 C-897.24834961 2631.8950293 -897.76623047 2632.58693359 -898.29980469 2633.29980469 C-922.11211768 2665.17466382 -943.39837921 2698.19651925 -961.45214844 2733.69335938 C-962.56823764 2735.88461166 -963.69707124 2738.06848972 -964.83203125 2740.25 C-977.62753792 2765.05244927 -988.58859056 2791.282811 -996.8359375 2817.95727539 C-997.73046875 2820.203125 -997.73046875 2820.203125 -999.73046875 2821.203125 C-998.50150814 2812.18849748 -997.08231591 2803.23801444 -995.40234375 2794.296875 C-995.17732681 2793.08816742 -994.95230988 2791.87945984 -994.72047424 2790.63412476 C-993.977994 2786.65632589 -993.2300261 2782.67959439 -992.48046875 2778.703125 C-992.21560231 2777.29559409 -991.9507403 2775.88806234 -991.68588257 2774.48052979 C-977.35697413 2698.4005446 -961.42766759 2622.66865016 -828.76519775 2130.49023438 C-827.66791199 2127.00439576 -826.5729796 2123.51782225 -825.47802734 2120.03125 C-814.23798676 2084.27592238 -802.64172191 2048.64420907 -790.7947197 2013.08535767 C-789.81397835 2010.14119531 -788.8341844 2007.19671902 -787.85452271 2004.25219727 C-779.2374553 1978.364848 -770.39421235 1952.56343858 -761.35195923 1926.82159424 C-759.92784412 1922.76715958 -758.50893386 1918.71094341 -757.0925293 1914.65380859 C-728.47436432 1832.68304771 -698.75817537 1750.97577245 -665.7409668 1670.66168213 C-664.67454065 1668.06705108 -663.60966365 1665.47178752 -662.54492188 1662.87646484 C-634.04264277 1593.4335762 -604.28791443 1524.5277072 -573.47363281 1456.07958984 C-571.86460446 1452.50364905 -570.2610526 1448.92526736 -568.6579895 1445.34664917 C-558.59396268 1422.88301201 -548.38256066 1400.49219406 -538.02783203 1378.16113281 C-536.08041531 1373.96034948 -534.13809007 1369.75723355 -532.1973877 1365.55334473 C-522.27389937 1344.05771466 -512.23841868 1322.61873781 -502.07073975 1301.23754883 C-499.4716786 1295.77000385 -496.8852851 1290.29659307 -494.3046875 1284.8203125 C-485.57707619 1266.31042553 -476.71029181 1247.87447248 -467.71289062 1229.49414062 C-463.38247917 1220.64697299 -459.07713855 1211.79038302 -454.85546875 1202.890625 C-450.63281945 1193.99505367 -446.2418362 1185.18741427 -441.81903076 1176.39022827 C-437.95400933 1168.69983132 -434.16159075 1160.98311511 -430.48046875 1153.203125 C-420.97502191 1133.15395797 -411.10761999 1113.22276574 -400.63647461 1093.65917969 C-396.17049379 1085.25728799 -391.97136338 1076.72000021 -387.73046875 1068.203125 C-382.35086425 1057.4026005 -376.936559 1046.63356177 -371.26171875 1035.984375 C-368.28855029 1030.39753883 -365.40400423 1024.76500222 -362.50735474 1019.13827515 C-356.52250527 1007.51686071 -350.42048531 995.96600781 -344.22265625 984.45678711 C-340.09481196 976.78144142 -336.04406346 969.07022225 -332.04296875 961.328125 C-327.62066392 952.7780685 -323.09484906 944.2951034 -318.45800781 935.85961914 C-315.56124765 930.58203122 -312.70021431 925.2870516 -309.87890625 919.96875 C-309.54616196 919.34153549 -309.21341766 918.71432098 -308.87059021 918.06809998 C-308.18870681 916.78246852 -307.50685795 915.49681874 -306.82504272 914.21115112 C-301.20385772 903.61485422 -295.47357876 893.10051995 -289.52368164 882.68383789 C-285.478649 875.58302993 -281.58417905 868.40934051 -277.73046875 861.203125 C-272.29459206 851.04590823 -266.70596603 840.98860157 -261.0078125 830.9765625 C-258.16078481 825.97352496 -255.35245528 820.94971246 -252.55126953 815.92089844 C-246.85203036 805.69360505 -241.0476106 795.53688541 -235.12353516 785.43823242 C-230.92852001 778.28034933 -226.7969724 771.08804453 -222.69265747 763.87796021 C-216.09427775 752.28810284 -209.39549463 740.7636418 -202.57373047 729.30371094 C-200.47640367 725.77575724 -198.38645384 722.24348319 -196.296875 718.7109375 C-181.70121458 694.04823777 -166.88451067 669.52758093 -151.73046875 645.203125 C-150.84560791 643.7812085 -150.84560791 643.7812085 -149.94287109 642.33056641 C-141.55200805 628.85179113 -133.09070123 615.41990838 -124.54150391 602.04101562 C-122.66656905 599.10299422 -120.79782287 596.16109878 -118.9296875 593.21875 C-109.75996923 578.80103301 -100.36078259 564.55161567 -90.84521484 550.36132812 C-88.27194681 546.51835938 -85.71230661 542.66645078 -83.15332031 538.81396484 C-76.10642382 528.21189518 -68.96232848 517.67984316 -61.73046875 507.203125 C-61.09850586 506.28740723 -60.46654297 505.37168945 -59.81542969 504.42822266 C-51.39765096 492.24567772 -42.86693651 480.15654333 -34.16064453 468.17871094 C-32.42233069 465.77747577 -30.70291961 463.36325002 -28.98657227 460.94628906 C-18.69061536 446.44897523 -8.05700158 432.2053218 2.79394531 418.11962891 C4.17140865 416.3305675 5.5454201 414.53892698 6.91796875 412.74609375 C19.38578218 396.47157417 32.0950679 380.38881577 45.39111328 364.78051758 C48.18602676 361.49702918 50.93052537 358.17868863 53.64453125 354.828125 C61.96808997 344.61690207 70.6730102 334.73417509 79.63671875 325.08203125 C81.67437532 322.85391123 83.6712863 320.60578925 85.65234375 318.328125 C89.11442307 314.35801808 92.66516476 310.48165409 96.26953125 306.640625 C96.90383057 305.96386719 97.53812988 305.28710938 98.19165039 304.58984375 C105.05955499 297.30276335 112.1442529 290.23744235 119.26953125 283.203125 C114.61580181 286.60675064 110.16869691 290.06596031 105.95703125 294.015625 C102.42316412 297.27840096 98.84515352 300.39594812 95.08203125 303.390625 C89.49569872 307.89340165 84.29891005 312.76679283 79.1027832 317.71166992 C75.21658944 321.40602539 71.25913001 324.98695407 67.2097168 328.50146484 C63.52954134 331.72920147 59.97988666 335.0962435 56.41270447 338.44761658 C53.29103332 341.37882451 50.16590177 344.3050951 47.01000977 347.19946289 C34.00894432 359.17642535 21.57984403 371.74015772 9.09399414 384.24829102 C5.83648608 387.51154388 2.57444042 390.77021839 -0.68891239 394.02762508 C-3.23276847 396.5678531 -5.77422049 399.11047563 -8.31497002 401.6538105 C-9.51698148 402.85648252 -10.71971803 404.05843036 -11.92323494 405.25959587 C-17.58645521 410.91415734 -23.225538 416.55130045 -28.40684509 422.65931702 C-30.86706284 425.52879111 -33.61403833 428.10509549 -36.32421875 430.734375 C-38.94957464 433.42792196 -41.39702309 436.23990702 -43.86132812 439.08007812 C-47.50736715 443.22139936 -51.3309971 447.19790957 -55.125 451.203125 C-58.88314347 455.18691269 -62.54181082 459.236664 -66.13183594 463.37255859 C-68.24645239 465.79396883 -70.42411646 468.15432951 -72.60546875 470.515625 C-75.89479113 474.11703671 -79.05064511 477.77619775 -82.10546875 481.578125 C-85.49434688 485.78129187 -89.04306351 489.76495072 -92.73046875 493.703125 C-97.13091176 498.40721304 -101.28461044 503.23332681 -105.3203125 508.2578125 C-108.22077523 511.80230018 -111.21907664 515.2528868 -114.23046875 518.703125 C-118.74864365 523.88568008 -123.16974431 529.12787784 -127.49609375 534.47265625 C-129.99205965 537.5227964 -132.54604815 540.51881522 -135.10546875 543.515625 C-139.33149176 548.47644895 -143.39280825 553.54365155 -147.3918457 558.68847656 C-151.10757133 563.45246241 -154.93600641 568.11555985 -158.79296875 572.765625 C-163.75977566 578.76131836 -168.59044719 584.8317055 -173.3046875 591.02734375 C-175.91512203 594.44486915 -178.56721206 597.82676093 -181.23046875 601.203125 C-185.93994941 607.1831843 -190.60539345 613.19570959 -195.22998047 619.24169922 C-196.31939823 620.66577704 -197.40968136 622.08919299 -198.50048828 623.51220703 C-206.33467036 633.73546624 -214.10264694 644.00056348 -221.71948242 654.38696289 C-225.37638123 659.37297867 -229.06977246 664.32896978 -232.79296875 669.265625 C-238.67200703 677.0734637 -244.39132777 684.9923492 -250.09375 692.9296875 C-251.70699383 695.17051783 -253.32684067 697.40640117 -254.94921875 699.640625 C-262.40495879 709.91378321 -269.71999862 720.27892103 -276.97753906 730.69287109 C-278.68927438 733.14413328 -280.40776095 735.5904943 -282.12890625 738.03515625 C-290.52995032 749.97469012 -298.77889003 762.01297845 -306.95800781 774.10546875 C-309.02323507 777.15879467 -311.09078651 780.21053663 -313.15917969 783.26171875 C-316.35304861 787.9736571 -319.54341922 792.68795012 -322.73190308 797.40353394 C-324.00469747 799.2851093 -325.27837385 801.16608839 -326.55300903 803.04641724 C-333.41279938 813.16864586 -340.16967927 823.32555014 -346.57348633 833.7434082 C-348.78800301 837.33135721 -351.12150879 840.83397111 -353.48046875 844.328125 C-360.08750052 854.16452891 -366.39665616 864.18946285 -372.73046875 874.203125 C-373.74211504 875.79952509 -374.7538301 877.3958816 -375.765625 878.9921875 C-378.76221997 883.72394408 -381.74796139 888.46247907 -384.73046875 893.203125 C-385.29314453 894.09660645 -385.85582031 894.99008789 -386.43554688 895.91064453 C-395.59858478 910.47243172 -404.5898855 925.13291126 -413.49171448 939.85513306 C-415.98108163 943.97044375 -418.48176643 948.07870859 -420.98828125 952.18359375 C-430.41019038 967.62278718 -439.63840197 983.1662283 -448.74316406 998.79443359 C-450.60720245 1001.99169451 -452.47633958 1005.18590122 -454.34765625 1008.37890625 C-466.32961996 1028.83875398 -478.09681685 1049.41939451 -489.65234375 1070.12304688 C-492.41836749 1075.07857688 -495.19327917 1080.02832154 -498 1084.9609375 C-504.94981817 1097.17500709 -511.69671543 1109.4833909 -518.33203125 1121.87109375 C-521.413781 1127.62351947 -524.53399702 1133.35402867 -527.66796875 1139.078125 C-537.86161852 1157.73091639 -547.89610316 1176.4625034 -557.63623047 1195.35620117 C-560.92674397 1201.73874147 -564.25183423 1208.10149379 -567.6015625 1214.453125 C-572.27718541 1223.32386898 -576.9028839 1232.21890864 -581.48046875 1241.140625 C-581.88433807 1241.92751709 -582.2882074 1242.71440918 -582.70431519 1243.52514648 C-591.00343592 1259.71169725 -599.16684711 1275.96626385 -607.30696106 1292.23317337 C-608.27757841 1294.17237654 -609.24888141 1296.11123491 -610.22033691 1298.05001831 C-617.82549478 1313.2321102 -625.30654844 1328.46625789 -632.58920288 1343.80621338 C-634.18041731 1347.14811683 -635.79338897 1350.47897284 -637.41015625 1353.80859375 C-644.2094943 1367.81210329 -650.86902451 1381.8700533 -657.39453125 1396.00390625 C-659.67979686 1400.94943804 -661.98800102 1405.88324376 -664.31640625 1410.80859375 C-671.73863926 1426.52050252 -678.94321524 1442.31151768 -685.96240234 1458.20776367 C-689.78109945 1466.85081174 -693.66962068 1475.45372815 -697.66796875 1484.015625 C-705.68989819 1501.26352072 -713.19655076 1518.7381495 -720.73046875 1536.203125 C-721.1815802 1537.2484137 -721.63269165 1538.29370239 -722.09747314 1539.3706665 C-749.33801073 1602.50687957 -775.99239447 1665.91834531 -800.74902344 1730.07519531 C-802.50546389 1734.62528174 -804.27219709 1739.17131516 -806.04098511 1743.71661377 C-840.37706281 1831.95345424 -868.18180296 1922.86904667 -931.73046875 2147.203125 C-932.26007255 2149.2076872 -932.78969498 2151.21224449 -933.31933594 2153.21679688 C-953.54233202 2229.85094063 -972.3612973 2306.88090443 -1018.20265198 3671.30723572 C-1016.73046875 3675.99018732 -1016.73046875 3675.99018732 -1016.73046875 3678.203125 C-1017.29032471 3678.49558105 -1017.85018066 3678.78803711 -1018.42700195 3679.08935547 C-1020.9665694 3680.41720977 -1023.50477989 3681.74763756 -1026.04296875 3683.078125 C-1026.92404297 3683.53832031 -1027.80511719 3683.99851562 -1028.71289062 3684.47265625 C-1029.98422852 3685.13974609 -1029.98422852 3685.13974609 -1031.28125 3685.8203125 C-1032.45167847 3686.43302002 -1032.45167847 3686.43302002 -1033.64575195 3687.05810547 C-1035.92734261 3688.27252711 -1035.92734261 3688.27252711 -1038.73046875 3690.203125 C-1040.80834961 3690.03515625 -1040.80834961 3690.03515625 -1042.73046875 3689.203125 C-1044.14893045 3686.52415947 -1045.23896622 3684.02815182 -1046.29296875 3681.203125 C-1046.6295752 3680.32648193 -1046.96618164 3679.44983887 -1047.31298828 3678.54663086 C-1078.17698774 3596.69386036 -1092.44837205 3508.77242157 -1117.23046875 3305.578125 C-1117.3127774 3304.69708099 -1117.39508606 3303.81603699 -1117.47988892 3302.90829468 C-1118.767087 3288.98829278 -1118.767087 3288.98829278 -1118.73046875 3282.203125 C-1119.27696347 3282.20331702 -1119.82345819 3282.20350904 -1120.38651335 3282.20370688 C-1166.80349242 3282.22000357 -1213.22047171 3282.23561614 -1259.63745117 3282.25073242 C-1260.55660428 3282.25103181 -1261.47575738 3282.25133121 -1262.42276361 3282.25163967 C-1360.93486144 3282.28370923 -1459.44695935 3282.3113765 -1557.95906067 3282.33015442 C-1560.14794164 3282.33057277 -1562.33682261 3282.33099113 -1564.52570358 3282.33140948 C-1610.47358595 3282.34017804 -1656.42146841 3282.34832814 -1702.36935101 3282.35576403 C-1725.45140963 3282.35950014 -1748.53346823 3282.36335506 -1771.61552681 3282.36732232 C-1775.09731026 3282.36792007 -1778.57909371 3282.36851443 -1782.06087717 3282.36910864 C-1835.65848588 3282.37828569 -1889.25609255 3282.39000665 -1942.85369873 3282.40911865 C-1944.0055911 3282.40952935 -1945.15748346 3282.40994005 -1946.34428166 3282.41036319 C-1964.9155162 3282.41700008 -1983.48675066 3282.42385099 -2002.05798511 3282.43073032 C-2055.56629905 3282.4505481 -2109.07461141 3282.46877634 -2162.58292866 3282.47654438 C-2164.23440662 3282.47678529 -2164.23440662 3282.47678529 -2165.91924777 3282.47703106 C-2190.09193879 3282.48052883 -2214.26462984 3282.48321317 -2238.43732104 3282.48512795 C-2248.1644601 3282.48591278 -2257.89159914 3282.48681465 -2267.61873817 3282.48775673 C-2268.68331316 3282.48785701 -2269.74788814 3282.48795729 -2270.84472296 3282.48806061 C-2305.11230415 3282.49134674 -2339.37987363 3282.50414904 -2373.6474501 3282.52197163 C-2408.1832201 3282.53988996 -2442.71897876 3282.54841612 -2477.25475352 3282.54399696 C-2482.03387668 3282.54338777 -2486.81299985 3282.54288561 -2491.59212303 3282.54244804 C-2492.52891722 3282.5423584 -2493.4657114 3282.54226876 -2494.43089329 3282.5421764 C-2509.22809828 3282.54103716 -2524.02527917 3282.54996408 -2538.8224776 3282.56315459 C-2553.39481235 3282.57593567 -2567.96711606 3282.57791055 -2582.53945379 3282.56862044 C-2591.06818713 3282.5635031 -2599.59682158 3282.56645246 -2608.12554324 3282.58177601 C-2613.81022332 3282.59115517 -2619.49483366 3282.58937768 -2625.17951178 3282.57902822 C-2628.38899573 3282.57348341 -2631.59825552 3282.5739233 -2634.80773092 3282.58483073 C-2708.32974266 3282.81862845 -2776.442664 3259.03496249 -2831.73046875 3210.203125 C-2832.5203418 3209.50799805 -2832.5203418 3209.50799805 -2833.32617188 3208.79882812 C-2847.80783362 3195.97120794 -2860.38130108 3181.86053714 -2871.73046875 3166.203125 C-2872.45145752 3165.21143311 -2872.45145752 3165.21143311 -2873.18701172 3164.19970703 C-2898.0231937 3129.76168734 -2914.16888914 3090.62599467 -2921.98046875 3048.953125 C-2922.13169189 3048.15173096 -2922.28291504 3047.35033691 -2922.4387207 3046.5246582 C-2925.13664043 3031.16129265 -2926.02768405 3015.81761909 -2925.98231775 3000.24687904 C-2925.98443218 2998.40677315 -2925.98742161 2996.56666809 -2925.99119309 2994.72656485 C-2925.99899533 2989.69735036 -2925.99448422 2984.66821311 -2925.98785728 2979.63899977 C-2925.98284404 2974.13687786 -2925.98952267 2968.63476745 -2925.99466094 2963.13264737 C-2926.00209244 2953.4614686 -2926.00211092 2943.79031188 -2925.99727146 2934.1191318 C-2925.99006234 2919.64089959 -2925.99439639 2905.16268257 -2926.00095281 2890.68445159 C-2926.01197429 2866.00753002 -2926.01312383 2841.33061554 -2926.00925446 2816.65369225 C-2926.0053618 2791.64604752 -2926.00581669 2766.63840844 -2926.01156425 2741.63076401 C-2926.01174351 2740.84168947 -2926.01192276 2740.05261494 -2926.01210744 2739.23962905 C-2926.01375033 2732.00810162 -2926.01543593 2724.7765742 -2926.01717307 2717.5450468 C-2926.02152231 2699.41190353 -2926.02515782 2681.27876016 -2926.02830541 2663.14561665 C-2926.02844986 2662.31472569 -2926.02859431 2661.48383473 -2926.02874314 2660.62776526 C-2926.03579235 2619.67715107 -2926.03515316 2578.7265374 -2926.03362465 2537.77592278 C-2926.03359158 2536.88841893 -2926.0335585 2536.00091508 -2926.03352443 2535.08651718 C-2926.03339012 2531.49343351 -2926.03325497 2527.90034985 -2926.03311905 2524.30726618 C-2926.03274388 2514.38175222 -2926.03238621 2504.45623825 -2926.03205132 2494.53072429 C-2926.03200525 2493.18651039 -2926.03200525 2493.18651039 -2926.03195825 2491.81514066 C-2926.03058396 2451.18808898 -2926.03311492 2410.56103789 -2926.03657739 2369.93398636 C-2926.03704063 2364.49831831 -2926.03749249 2359.06265025 -2926.03794151 2353.6269822 C-2926.03801579 2352.7284376 -2926.03809007 2351.82989299 -2926.0381666 2350.90411977 C-2926.03831676 2349.08759184 -2926.03846687 2347.2710639 -2926.03861696 2345.45453597 C-2926.03899304 2340.90602423 -2926.0393705 2336.35751249 -2926.03974805 2331.80900076 C-2926.03982285 2330.9071581 -2926.03989765 2330.00531544 -2926.03997472 2329.07614421 C-2926.0403532 2324.51563401 -2926.04073312 2319.95512381 -2926.04111567 2315.3946136 C-2926.04468375 2272.8338311 -2926.04754812 2230.27304857 -2926.04970837 2187.71226597 C-2926.04975561 2186.78494532 -2926.04980284 2185.85762467 -2926.04985151 2184.90220339 C-2926.05284612 2125.8143214 -2926.05272135 2066.72643986 -2926.05028759 2007.63855785 C-2926.050168 2004.73325492 -2926.05004962 2001.82795199 -2926.0499315 1998.92264906 C-2926.04906008 1977.53715539 -2926.04812948 1956.15166172 -2926.04718087 1934.76616805 C-2926.04709448 1932.81585063 -2926.04700811 1930.8655332 -2926.04692175 1928.91521578 C-2926.04683531 1926.96410193 -2926.04674887 1925.01298807 -2926.04666242 1923.06187421 C-2926.04661963 1922.09579057 -2926.04657684 1921.12970693 -2926.04653275 1920.13434802 C-2926.04631636 1915.25293075 -2926.04609892 1910.37151348 -2926.04587952 1905.49009621 C-2926.04174094 1813.29246879 -2926.04066337 1721.09484366 -2926.05303955 1628.8972168 C-2926.05316983 1627.92654812 -2926.05330012 1626.95587943 -2926.05343435 1625.95579655 C-2926.05738626 1596.60331917 -2926.06174582 1567.25084186 -2926.0662055 1537.89836455 C-2926.07108162 1505.8021641 -2926.07591557 1473.70596364 -2926.08048725 1441.60976315 C-2926.08062402 1440.65153605 -2926.08076079 1439.69330895 -2926.08090171 1438.70604467 C-2926.08945724 1378.6878751 -2926.09436016 1318.66970617 -2926.09519482 1258.65153599 C-2926.09520809 1257.72447631 -2926.09522136 1256.79741663 -2926.09523503 1255.84226423 C-2926.09581038 1215.12683614 -2926.09552554 1174.41140809 -2926.09431632 1133.69598002 C-2926.09385712 1118.22229609 -2926.09346488 1102.74861217 -2926.09310556 1087.27492824 C-2926.0930213 1083.6526634 -2926.09293203 1080.03039856 -2926.09283874 1076.40813372 C-2926.09178343 1034.87735647 -2926.09286048 993.3465809 -2926.1005137 951.81580424 C-2926.10067834 950.92050374 -2926.10084298 950.02520323 -2926.10101262 949.10277241 C-2926.10367081 934.70132965 -2926.10648994 920.29988692 -2926.10931664 905.89844419 C-2926.11733293 865.00626068 -2926.12367811 824.11407965 -2926.11924779 783.22189534 C-2926.11915839 782.39177243 -2926.11906899 781.56164952 -2926.11897688 780.70637137 C-2926.11699315 762.59369186 -2926.11415757 744.48101258 -2926.11048636 726.36833333 C-2926.1090342 719.14398671 -2926.10768995 711.91964007 -2926.10637856 704.69529343 C-2926.10623249 703.90725286 -2926.10608642 703.1192123 -2926.10593593 702.30729172 C-2926.10135797 677.33587335 -2926.10596599 652.36446811 -2926.11591315 627.3930516 C-2926.12567292 602.792434 -2926.12627392 578.19183538 -2926.11365784 553.59121847 C-2926.10594231 538.53598346 -2926.10606384 523.48079576 -2926.11996091 508.42556311 C-2926.1279565 498.8732411 -2926.12503352 489.32096229 -2926.11331127 479.76864424 C-2926.10697321 474.35707437 -2926.10518113 468.94561728 -2926.11687848 463.53405377 C-2926.15985868 442.23342373 -2926.10734627 421.29760784 -2922.73046875 400.203125 C-2922.61347933 399.46419459 -2922.49648991 398.72526419 -2922.37595535 397.96394195 C-2921.7514568 394.09762015 -2921.01817774 390.2761422 -2920.16796875 386.453125 C-2919.91893799 385.31810547 -2919.66990723 384.18308594 -2919.41333008 383.01367188 C-2914.57372632 361.99662003 -2907.29463756 341.52648037 -2897.73046875 322.203125 C-2897.36550293 321.44628418 -2897.00053711 320.68944336 -2896.62451172 319.90966797 C-2885.30324085 296.54933686 -2870.1017399 274.91258346 -2852.34375 256.00390625 C-2849.93838143 253.42595518 -2847.61301558 250.79509299 -2845.29296875 248.140625 C-2836.64527258 238.54229556 -2826.79708709 230.37302522 -2816.53369141 222.57373047 C-2815.34249479 221.66831783 -2814.15458991 220.75855612 -2812.97021484 219.84423828 C-2802.4259336 211.71726936 -2791.27725419 204.8132935 -2779.73046875 198.203125 C-2779.05483887 197.81495605 -2778.37920898 197.42678711 -2777.68310547 197.02685547 C-2745.30153609 178.60300303 -2706.8480165 166.98810285 -2669.73046875 164.203125 C-2668.70799389 164.12184414 -2667.68551902 164.04056327 -2666.63206008 163.95681935 C-2657.06625301 163.25098317 -2647.55163572 163.06482089 -2637.96280855 163.08632249 C-2636.31294541 163.08626302 -2634.66308223 163.08576116 -2633.01321933 163.08486266 C-2628.49447556 163.08366805 -2623.97575732 163.0886989 -2619.45701827 163.09477295 C-2614.5169819 163.10028317 -2609.5769453 163.09989233 -2604.63690636 163.10026118 C-2595.95054914 163.10170844 -2587.26420029 163.10686781 -2578.57784634 163.11443236 C-2565.57404925 163.12571987 -2552.57025431 163.13105291 -2539.56645321 163.13516003 C-2518.08945254 163.14208006 -2496.6124557 163.15310751 -2475.13545845 163.16673767 C-2451.98824037 163.18142621 -2428.8410228 163.1938805 -2405.69380188 163.20313644 C-2404.98523425 163.20342013 -2404.27666663 163.20370381 -2403.54662726 163.20399608 C-2394.86797404 163.20746187 -2386.18932078 163.21081892 -2377.51066749 163.21412759 C-2364.91684359 163.21892964 -2352.32301975 163.22386634 -2339.7291959 163.22879965 C-2336.71648393 163.22997956 -2333.70377195 163.23115502 -2330.69105998 163.23232695 C-2309.0306362 163.24075916 -2287.37021292 163.25002415 -2265.70978974 163.25985276 C-2185.60360505 163.29617639 -2105.49742768 163.3199401 -1995.80478486 163.33116578 C-1990.01792438 163.33170555 -1984.23106391 163.33226518 -1978.44420344 163.33283736 C-1977.62352413 163.33291848 -1976.80284483 163.3329996 -1975.95729645 163.33308318 C-1974.72552965 163.33320494 -1974.72552965 163.33320494 -1973.46887866 163.33332915 C-1917.75161576 163.33883567 -1862.03435277 163.34332951 -1806.31708972 163.34712254 C-1759.35324434 163.35032375 -1712.38939905 163.35408015 -1665.42555382 163.35906385 C-1661.91895831 163.35943547 -1658.41236279 163.35980091 -1654.90576728 163.36016063 C-1572.11258421 163.36865652 -1489.31941669 163.38639248 -1406.52624512 163.43237305 C-1405.65443578 163.43285647 -1404.78262643 163.43333989 -1403.88439863 163.43383797 C-1374.89119303 163.44992511 -1345.89798788 163.46679743 -1316.9047828 163.48379586 C-1290.70735521 163.49915264 -1264.50992746 163.51416101 -1238.31249905 163.52804089 C-1237.45188836 163.52849686 -1236.59127767 163.52895284 -1235.70458787 163.52942264 C-1181.81176814 163.55788421 -1127.91895883 163.57193363 -1074.02613163 163.57160664 C-1073.19385457 163.57160354 -1072.36157752 163.57160045 -1071.50407995 163.57159726 C-1034.95376284 163.57145229 -998.40344665 163.56835078 -961.85313014 163.5618383 C-947.14934388 163.55923388 -932.44555756 163.55709146 -917.7417712 163.55521083 C-915.30381843 163.55489561 -912.86586567 163.5545662 -910.42791291 163.55423556 C-858.57813317 163.54735558 -806.72846417 163.5792488 -754.87871286 163.63136526 C-718.9548845 163.66741196 -683.03109855 163.69708968 -647.10724938 163.68623888 C-645.98958936 163.68590559 -645.98958936 163.68590559 -644.84935036 163.68556557 C-628.59424665 163.68060095 -612.3391463 163.67237804 -596.08404589 163.66096701 C-589.60127566 163.65646956 -583.11850517 163.65242286 -576.63573456 163.64852524 C-575.92857353 163.64808846 -575.22141251 163.64765169 -574.49282236 163.64720168 C-552.05930602 163.63356283 -529.62603159 163.65689809 -507.19256122 163.70160849 C-484.49500362 163.74669334 -461.79773985 163.75054045 -439.10015784 163.70396305 C-426.18352066 163.67875223 -413.26791216 163.6866138 -400.35136681 163.74279197 C-391.78021783 163.77681274 -383.20983043 163.76756806 -374.63873289 163.72269499 C-369.7748408 163.69845717 -364.91296975 163.69297587 -360.04920621 163.7407342 C-355.63188134 163.78376075 -351.21827065 163.77114417 -346.80112536 163.71495297 C-345.22094313 163.70442123 -343.64046286 163.71372447 -342.06057499 163.74599063 C-331.66706777 163.94393495 -325.86047881 161.89450907 -318.20618145 154.69545134 C-317.15952472 153.66623355 -316.1213988 152.62823951 -315.09363986 151.58015023 C-313.41111632 149.88052694 -311.62494264 148.32890269 -309.79296875 146.79296875 C-309.27871338 146.34695312 -308.76445801 145.9009375 -308.23461914 145.44140625 C-302.05499075 140.09729652 -295.73026669 134.98196227 -289.27734375 129.97265625 C-286.28016122 127.64380907 -283.32585887 125.26619667 -280.37792969 122.87548828 C-259.52895558 106.00435197 -237.46249603 90.42982288 -214.73046875 76.203125 C-213.75706543 75.59130371 -212.78366211 74.97948242 -211.78076172 74.34912109 C-149.05184721 35.08988411 -75.46348364 0.36174141 0 0 Z M-1034.73046875 2007.203125 C-1036.34517457 2016.06469237 -1034.88874318 2022.53459254 -1031.79296875 2030.890625 C-1031.40689453 2031.98568359 -1031.02082031 2033.08074219 -1030.62304688 2034.20898438 C-1029.67785832 2036.88118413 -1028.71365218 2039.54472242 -1027.73046875 2042.203125 C-1026.22299017 2038.23561616 -1027.22011093 2035.07202514 -1028.1640625 2031.03125 C-1028.32084976 2030.3488324 -1028.47763702 2029.66641479 -1028.63917542 2028.96331787 C-1029.14028348 2026.79118088 -1029.65392884 2024.62223404 -1030.16796875 2022.453125 C-1030.51059743 2020.97805755 -1030.85240387 2019.50279885 -1031.19335938 2018.02734375 C-1032.02954429 2014.41700549 -1032.8769957 2010.80942046 -1033.73046875 2007.203125 C-1034.06046875 2007.203125 -1034.39046875 2007.203125 -1034.73046875 2007.203125 Z M-1026.73046875 2043.203125 C-1025.73046875 2045.203125 -1025.73046875 2045.203125 -1025.73046875 2045.203125 Z " fill="#42A1DC" transform="translate(3195.73046875,74.796875)"/>
<path d="M0 0 C0.98535736 -0.00701431 1.97071472 -0.01402863 2.9859314 -0.02125549 C6.14301181 -0.03864307 9.29990474 -0.04510637 12.45703125 -0.046875 C13.53499969 -0.04754974 14.61296814 -0.04822449 15.72360229 -0.04891968 C31.12253188 -0.03358053 46.1081655 0.26175635 61.26953125 3.203125 C62.63779053 3.45255859 62.63779053 3.45255859 64.03369141 3.70703125 C119.68400465 14.0073463 170.46446862 41.44410436 212.26953125 79.203125 C213.28384275 80.10548159 214.29816525 81.0078258 215.3125 81.91015625 C222.65804762 88.51399435 229.65072257 95.48156889 236.64453125 102.453125 C237.11915802 102.92507294 237.59378479 103.39702087 238.08279419 103.88327026 C243.70358731 109.47996958 249.13186252 115.16019198 254.26953125 121.203125 C255.11515625 122.16734375 255.96078125 123.1315625 256.83203125 124.125 C277.49837044 148.10325253 294.82065182 174.62712201 310.26953125 202.203125 C310.93710449 203.38140869 310.93710449 203.38140869 311.61816406 204.58349609 C325.22651371 228.75077955 335.57340755 254.92167834 344.26953125 281.203125 C344.62208984 282.2662793 344.97464844 283.32943359 345.33789062 284.42480469 C361.31435247 333.17849171 370.04094639 384.04602481 373.26953125 435.203125 C373.31189911 435.83966003 373.35426697 436.47619507 373.3979187 437.13201904 C374.47004865 453.64267688 374.47232631 470.1651423 374.45703125 486.703125 C374.45661709 487.42404579 374.45620293 488.14496658 374.45577621 488.88773346 C374.43961011 511.38558049 374.19546932 533.77697118 372.26953125 556.203125 C372.19412109 557.10542847 372.11871094 558.00773193 372.04101562 558.93737793 C363.35677607 662.70101426 340.79321945 764.42965037 242.26953125 1055.203125 C242.00108398 1055.86834167 241.73263672 1056.53355835 241.45605469 1057.21893311 C224.06850653 1100.30355558 205.7136873 1143.00768593 186.26953125 1185.203125 C185.9577594 1185.88040649 185.64598755 1186.55768799 185.32476807 1187.25549316 C181.8456188 1194.81208233 178.33915345 1202.35566319 174.81445312 1209.89111328 C173.22321703 1213.30241366 171.64375289 1216.7189758 170.06640625 1220.13671875 C154.80134257 1253.1517518 138.5696813 1285.69515338 122.31649399 1318.23168945 C121.15748125 1320.55219727 119.99905965 1322.87299942 118.84072876 1325.19384766 C111.11421662 1340.67088586 103.37447798 1356.13273914 95.23040771 1371.39575195 C93.83181109 1374.02646041 92.45986349 1376.67072694 91.08984375 1379.31640625 C85.85301481 1389.42099417 80.528021 1399.46741837 75.04907227 1409.44287109 C72.13456058 1414.75809283 69.25491604 1420.09036629 66.4140625 1425.4453125 C66.08151962 1426.07212418 65.74897675 1426.69893585 65.40635681 1427.34474182 C64.72514951 1428.629033 64.04397198 1429.91333998 63.36282349 1431.19766235 C57.71692162 1441.83974525 51.96547684 1452.40306138 45.99023438 1462.86523438 C42.16757504 1469.57024499 38.47923805 1476.33880973 34.83203125 1483.140625 C29.89689829 1492.33080007 24.72594314 1501.35723879 19.42993164 1510.34350586 C15.5796611 1516.89714646 11.87556623 1523.51230085 8.26953125 1530.203125 C2.47816723 1540.93011417 -3.63367717 1551.45253787 -9.81933594 1561.95605469 C-11.81749178 1565.35097966 -13.81008003 1568.7491388 -15.80078125 1572.1484375 C-18.29446321 1576.4064304 -20.78954901 1580.66359062 -23.28700256 1584.91937256 C-26.52932547 1590.44464038 -29.76509965 1595.97363238 -32.9921875 1601.5078125 C-41.69316696 1616.42037843 -50.54159648 1631.23379919 -59.53843689 1645.9697113 C-62.03844894 1650.06505564 -64.52961094 1654.16567603 -67.015625 1658.26953125 C-80.79724782 1681.01710184 -94.73057475 1703.66736117 -108.85400391 1726.20458984 C-111.42855665 1730.31864876 -113.99314447 1734.43888649 -116.55786133 1738.55908203 C-118.43887109 1741.57395254 -120.32999447 1744.58227847 -122.22265625 1747.58984375 C-124.46089006 1751.15044897 -126.65224911 1754.73229716 -128.80078125 1758.34765625 C-129.73557691 1759.8828735 -130.67046624 1761.41803372 -131.60546875 1762.953125 C-131.99702148 1763.63818115 -132.38857422 1764.3232373 -132.79199219 1765.02905273 C-137.54807257 1772.71686919 -146.4543974 1774.58965882 -154.65234375 1777.27734375 C-156.39402721 1777.85869063 -158.13555669 1778.44049898 -159.87695312 1779.02270508 C-161.24339966 1779.47753769 -161.24339966 1779.47753769 -162.63745117 1779.94155884 C-244.85240421 1807.38684463 -324.94425447 1842.3186224 -402.81152344 1880.30737305 C-405.70049076 1881.71036692 -408.59873891 1883.09269281 -411.50097656 1884.46801758 C-427.59884226 1892.10385155 -443.54421215 1900.03257596 -459.47460938 1908.01000977 C-463.23682542 1909.89397553 -467.0008574 1911.77428124 -470.76536274 1913.65366745 C-486.1712002 1921.34660874 -501.55211886 1929.0675 -516.73046875 1937.203125 C-517.92289393 1937.83917433 -519.11543504 1938.47500637 -520.30810547 1939.1105957 C-523.55576646 1940.84478131 -526.79998052 1942.58521913 -530.04296875 1944.328125 C-532.44893196 1945.62032642 -534.85521236 1946.91193546 -537.26171875 1948.203125 C-537.87163162 1948.53039581 -538.48154449 1948.85766663 -539.10993958 1949.19485474 C-543.52906189 1951.56404902 -547.95617275 1953.91787446 -552.38671875 1956.265625 C-564.8551458 1962.87672455 -577.26822113 1969.55520959 -589.52807617 1976.54907227 C-595.92973498 1980.19914585 -602.37587335 1983.75593926 -608.85546875 1987.265625 C-619.57560756 1993.0823351 -630.16614612 1999.10893124 -640.73046875 2005.203125 C-642.48460263 2006.21389344 -644.23873713 2007.22466082 -645.9928894 2008.23539734 C-652.90794581 2012.22026227 -659.82006715 2016.21019291 -666.73046875 2020.203125 C-662.94024858 2019.44088192 -659.6300745 2017.89864737 -656.1171875 2016.30859375 C-654.73347425 2015.68611074 -653.34968097 2015.06380561 -651.96582031 2014.44165039 C-651.22787231 2014.10859894 -650.48992432 2013.77554749 -649.72961426 2013.43240356 C-585.99728492 1984.71045016 -585.99728492 1984.71045016 -555.73046875 1974.203125 C-554.72838379 1973.84734375 -553.72629883 1973.4915625 -552.69384766 1973.125 C-486.34480877 1949.65923848 -417.01963414 1934.00218767 -348.73046875 1917.203125 C-347.76580185 1916.96579525 -347.76580185 1916.96579525 -346.78164673 1916.72367096 C-314.90165131 1908.88327988 -282.96987993 1901.26596986 -250.99807358 1893.8097229 C-248.68072513 1893.26860372 -246.36382264 1892.7256121 -244.04702759 1892.18212891 C-240.4193542 1891.33154371 -236.79038799 1890.48671251 -233.16032028 1889.64640617 C-231.82345041 1889.33609206 -230.48700451 1889.02394493 -229.15102005 1888.70984077 C-227.31795695 1888.27931112 -225.48311158 1887.8563911 -223.64819336 1887.43383789 C-222.62052353 1887.19484268 -221.5928537 1886.95584747 -220.53404236 1886.70960999 C-217.86084215 1886.22667786 -215.43921032 1886.10531219 -212.73046875 1886.203125 C-213.98376649 1889.60228773 -215.40227619 1892.41085656 -217.51171875 1895.3515625 C-218.0931665 1896.17213135 -218.67461426 1896.9927002 -219.27368164 1897.83813477 C-220.24229126 1899.19442993 -220.24229126 1899.19442993 -221.23046875 1900.578125 C-228.94371381 1911.51465359 -236.38873548 1922.61826193 -243.79296875 1933.765625 C-246.04760903 1937.15793001 -248.30281661 1940.54985711 -250.55859375 1943.94140625 C-251.09889725 1944.75375732 -251.63920074 1945.5661084 -252.19587708 1946.40307617 C-258.10243002 1955.27604993 -264.09613728 1964.0879186 -270.13183594 1972.87353516 C-271.74470265 1975.22386719 -273.35170295 1977.5781075 -274.95703125 1979.93359375 C-282.79087156 1991.42259163 -290.72148286 2002.84294423 -298.67333984 2014.25048828 C-301.39840703 2018.16182968 -304.11892144 2022.07632768 -306.83959961 2025.99072266 C-314.77900349 2037.41184889 -322.73872936 2048.81855295 -330.73046875 2060.203125 C-331.24561035 2060.93724609 -331.76075195 2061.67136719 -332.29150391 2062.42773438 C-338.4213565 2071.15711675 -344.61674421 2079.83554139 -350.87524414 2088.47314453 C-354.53072535 2093.52417645 -358.14403366 2098.60287725 -361.73046875 2103.703125 C-367.44820073 2111.83109803 -373.258712 2119.88978862 -379.08935547 2127.93701172 C-381.26484551 2130.94101329 -383.4363067 2133.94791379 -385.60742188 2136.95507812 C-387.23259723 2139.20607311 -388.85848631 2141.45655147 -390.484375 2143.70703125 C-392.64052174 2146.69221608 -394.79394379 2149.67933888 -396.9453125 2152.66796875 C-404.21518816 2162.76152545 -411.562885 2172.79492343 -418.95556641 2182.79882812 C-420.74143657 2185.2179821 -422.52365157 2187.63978519 -424.3046875 2190.0625 C-430.23162457 2198.12310189 -436.18355596 2206.16272276 -442.20068359 2214.15625 C-445.99779505 2219.20739596 -449.74274383 2224.29544135 -453.48046875 2229.390625 C-459.13371524 2237.08904653 -464.89098107 2244.70295781 -470.69384766 2252.2890625 C-475.28576862 2258.2949895 -479.83218374 2264.33288533 -484.35546875 2270.390625 C-490.85065449 2279.08042981 -497.48688615 2287.65331144 -504.16845703 2296.20019531 C-506.45223443 2299.1286276 -508.7185323 2302.07030644 -510.98046875 2305.015625 C-511.77453125 2306.04945313 -512.56859375 2307.08328125 -513.38671875 2308.1484375 C-514.16015625 2309.15648438 -514.93359375 2310.16453125 -515.73046875 2311.203125 C-526.1726602 2324.81278118 -536.624825 2338.4166488 -547.38647461 2351.77612305 C-549.87072018 2354.86296405 -552.329185 2357.96551971 -554.74609375 2361.10546875 C-555.23698486 2361.7406543 -555.72787598 2362.37583984 -556.23364258 2363.03027344 C-557.1577738 2364.22889129 -558.07726099 2365.4311113 -558.9909668 2366.63769531 C-563.06029255 2371.90452741 -567.25916378 2375.21124741 -573.32421875 2377.91015625 C-574.42217773 2378.40636475 -575.52013672 2378.90257324 -576.65136719 2379.41381836 C-577.8324707 2379.94241455 -579.01357422 2380.47101074 -580.23046875 2381.015625 C-602.79763401 2391.2823105 -624.58667475 2402.78633008 -645.875 2415.50341797 C-648.7450727 2417.21181795 -651.62630628 2418.89968741 -654.51171875 2420.58203125 C-665.78601031 2427.16651124 -676.84659628 2433.99294058 -687.73046875 2441.203125 C-689.21481192 2442.17973588 -690.69918764 2443.15629729 -692.18359375 2444.1328125 C-714.02866538 2458.55276991 -735.27957754 2473.86322719 -755.73046875 2490.203125 C-756.61992187 2490.90953125 -757.509375 2491.6159375 -758.42578125 2492.34375 C-760.86781648 2494.28819184 -763.30138374 2496.2425345 -765.73046875 2498.203125 C-766.57738281 2498.88632813 -767.42429687 2499.56953125 -768.296875 2500.2734375 C-778.88357937 2508.87224542 -789.2219481 2517.73837584 -799.26953125 2526.9609375 C-801.47833822 2528.97340607 -803.71740173 2530.93970516 -805.98046875 2532.890625 C-809.08790149 2535.58752293 -811.98497201 2538.43287836 -814.86450195 2541.36962891 C-816.62556441 2543.10004616 -818.43968731 2544.70231182 -820.3203125 2546.30078125 C-825.36816206 2550.69137687 -830.07480542 2555.40112861 -834.79296875 2560.140625 C-835.65212891 2560.99591797 -836.51128906 2561.85121094 -837.39648438 2562.73242188 C-841.79246613 2567.13512018 -846.03890357 2571.60061255 -850.0925293 2576.32006836 C-852.83562496 2579.47366753 -855.73082547 2582.4824447 -858.60546875 2585.515625 C-863.43900342 2590.65547458 -868.05609821 2595.88607934 -872.4609375 2601.40234375 C-874.62996989 2604.07910144 -876.85853589 2606.68793871 -879.11621094 2609.28955078 C-885.27236084 2616.38520121 -891.11241008 2623.67421573 -896.73046875 2631.203125 C-897.24834961 2631.8950293 -897.76623047 2632.58693359 -898.29980469 2633.29980469 C-922.11211768 2665.17466382 -943.39837921 2698.19651925 -961.45214844 2733.69335938 C-962.56823764 2735.88461166 -963.69707124 2738.06848972 -964.83203125 2740.25 C-977.62753792 2765.05244927 -988.58859056 2791.282811 -996.8359375 2817.95727539 C-997.73046875 2820.203125 -997.73046875 2820.203125 -999.73046875 2821.203125 C-998.50150814 2812.18849748 -997.08231591 2803.23801444 -995.40234375 2794.296875 C-995.17732681 2793.08816742 -994.95230988 2791.87945984 -994.72047424 2790.63412476 C-993.977994 2786.65632589 -993.2300261 2782.67959439 -992.48046875 2778.703125 C-992.21560231 2777.29559409 -991.9507403 2775.88806234 -991.68588257 2774.48052979 C-977.35697413 2698.4005446 -961.42766759 2622.66865016 -828.76519775 2130.49023438 C-827.66791199 2127.00439576 -826.5729796 2123.51782225 -825.47802734 2120.03125 C-814.23798676 2084.27592238 -802.64172191 2048.64420907 -790.7947197 2013.08535767 C-789.81397835 2010.14119531 -788.8341844 2007.19671902 -787.85452271 2004.25219727 C-779.2374553 1978.364848 -770.39421235 1952.56343858 -761.35195923 1926.82159424 C-759.92784412 1922.76715958 -758.50893386 1918.71094341 -757.0925293 1914.65380859 C-728.47436432 1832.68304771 -698.75817537 1750.97577245 -665.7409668 1670.66168213 C-664.67454065 1668.06705108 -663.60966365 1665.47178752 -662.54492188 1662.87646484 C-634.04264277 1593.4335762 -604.28791443 1524.5277072 -573.47363281 1456.07958984 C-571.86460446 1452.50364905 -570.2610526 1448.92526736 -568.6579895 1445.34664917 C-558.59396268 1422.88301201 -548.38256066 1400.49219406 -538.02783203 1378.16113281 C-536.08041531 1373.96034948 -534.13809007 1369.75723355 -532.1973877 1365.55334473 C-522.27389937 1344.05771466 -512.23841868 1322.61873781 -502.07073975 1301.23754883 C-499.4716786 1295.77000385 -496.8852851 1290.29659307 -494.3046875 1284.8203125 C-485.57707619 1266.31042553 -476.71029181 1247.87447248 -467.71289062 1229.49414062 C-463.38247917 1220.64697299 -459.07713855 1211.79038302 -454.85546875 1202.890625 C-450.63281945 1193.99505367 -446.2418362 1185.18741427 -441.81903076 1176.39022827 C-437.95400933 1168.69983132 -434.16159075 1160.98311511 -430.48046875 1153.203125 C-420.97502191 1133.15395797 -411.10761999 1113.22276574 -400.63647461 1093.65917969 C-396.17049379 1085.25728799 -391.97136338 1076.72000021 -387.73046875 1068.203125 C-382.35086425 1057.4026005 -376.936559 1046.63356177 -371.26171875 1035.984375 C-368.28855029 1030.39753883 -365.40400423 1024.76500222 -362.50735474 1019.13827515 C-356.52250527 1007.51686071 -350.42048531 995.96600781 -344.22265625 984.45678711 C-340.09481196 976.78144142 -336.04406346 969.07022225 -332.04296875 961.328125 C-327.62066392 952.7780685 -323.09484906 944.2951034 -318.45800781 935.85961914 C-315.56124765 930.58203122 -312.70021431 925.2870516 -309.87890625 919.96875 C-309.54616196 919.34153549 -309.21341766 918.71432098 -308.87059021 918.06809998 C-308.18870681 916.78246852 -307.50685795 915.49681874 -306.82504272 914.21115112 C-301.20385772 903.61485422 -295.47357876 893.10051995 -289.52368164 882.68383789 C-285.478649 875.58302993 -281.58417905 868.40934051 -277.73046875 861.203125 C-272.29459206 851.04590823 -266.70596603 840.98860157 -261.0078125 830.9765625 C-258.16078481 825.97352496 -255.35245528 820.94971246 -252.55126953 815.92089844 C-246.85203036 805.69360505 -241.0476106 795.53688541 -235.12353516 785.43823242 C-230.92852001 778.28034933 -226.7969724 771.08804453 -222.69265747 763.87796021 C-216.09427775 752.28810284 -209.39549463 740.7636418 -202.57373047 729.30371094 C-200.47640367 725.77575724 -198.38645384 722.24348319 -196.296875 718.7109375 C-181.70121458 694.04823777 -166.88451067 669.52758093 -151.73046875 645.203125 C-150.84560791 643.7812085 -150.84560791 643.7812085 -149.94287109 642.33056641 C-141.55200805 628.85179113 -133.09070123 615.41990838 -124.54150391 602.04101562 C-122.66656905 599.10299422 -120.79782287 596.16109878 -118.9296875 593.21875 C-109.75996923 578.80103301 -100.36078259 564.55161567 -90.84521484 550.36132812 C-88.27194681 546.51835938 -85.71230661 542.66645078 -83.15332031 538.81396484 C-76.10642382 528.21189518 -68.96232848 517.67984316 -61.73046875 507.203125 C-61.09850586 506.28740723 -60.46654297 505.37168945 -59.81542969 504.42822266 C-51.39765096 492.24567772 -42.86693651 480.15654333 -34.16064453 468.17871094 C-32.42233069 465.77747577 -30.70291961 463.36325002 -28.98657227 460.94628906 C-18.69061536 446.44897523 -8.05700158 432.2053218 2.79394531 418.11962891 C4.17140865 416.3305675 5.5454201 414.53892698 6.91796875 412.74609375 C19.38578218 396.47157417 32.0950679 380.38881577 45.39111328 364.78051758 C48.18602676 361.49702918 50.93052537 358.17868863 53.64453125 354.828125 C61.96808997 344.61690207 70.6730102 334.73417509 79.63671875 325.08203125 C81.67437532 322.85391123 83.6712863 320.60578925 85.65234375 318.328125 C89.11442307 314.35801808 92.66516476 310.48165409 96.26953125 306.640625 C96.90383057 305.96386719 97.53812988 305.28710938 98.19165039 304.58984375 C105.05955499 297.30276335 112.1442529 290.23744235 119.26953125 283.203125 C114.61580181 286.60675064 110.16869691 290.06596031 105.95703125 294.015625 C102.42316412 297.27840096 98.84515352 300.39594812 95.08203125 303.390625 C89.49569872 307.89340165 84.29891005 312.76679283 79.1027832 317.71166992 C75.21658944 321.40602539 71.25913001 324.98695407 67.2097168 328.50146484 C63.52954134 331.72920147 59.97988666 335.0962435 56.41270447 338.44761658 C53.29103332 341.37882451 50.16590177 344.3050951 47.01000977 347.19946289 C34.00894432 359.17642535 21.57984403 371.74015772 9.09399414 384.24829102 C5.83648608 387.51154388 2.57444042 390.77021839 -0.68891239 394.02762508 C-3.23276847 396.5678531 -5.77422049 399.11047563 -8.31497002 401.6538105 C-9.51698148 402.85648252 -10.71971803 404.05843036 -11.92323494 405.25959587 C-17.58645521 410.91415734 -23.225538 416.55130045 -28.40684509 422.65931702 C-30.86706284 425.52879111 -33.61403833 428.10509549 -36.32421875 430.734375 C-38.94957464 433.42792196 -41.39702309 436.23990702 -43.86132812 439.08007812 C-47.50736715 443.22139936 -51.3309971 447.19790957 -55.125 451.203125 C-58.88314347 455.18691269 -62.54181082 459.236664 -66.13183594 463.37255859 C-68.24645239 465.79396883 -70.42411646 468.15432951 -72.60546875 470.515625 C-75.89479113 474.11703671 -79.05064511 477.77619775 -82.10546875 481.578125 C-85.49434688 485.78129187 -89.04306351 489.76495072 -92.73046875 493.703125 C-97.13091176 498.40721304 -101.28461044 503.23332681 -105.3203125 508.2578125 C-108.22077523 511.80230018 -111.21907664 515.2528868 -114.23046875 518.703125 C-118.74864365 523.88568008 -123.16974431 529.12787784 -127.49609375 534.47265625 C-129.99205965 537.5227964 -132.54604815 540.51881522 -135.10546875 543.515625 C-139.33149176 548.47644895 -143.39280825 553.54365155 -147.3918457 558.68847656 C-151.10757133 563.45246241 -154.93600641 568.11555985 -158.79296875 572.765625 C-163.75977566 578.76131836 -168.59044719 584.8317055 -173.3046875 591.02734375 C-175.91512203 594.44486915 -178.56721206 597.82676093 -181.23046875 601.203125 C-185.93994941 607.1831843 -190.60539345 613.19570959 -195.22998047 619.24169922 C-196.31939823 620.66577704 -197.40968136 622.08919299 -198.50048828 623.51220703 C-206.33467036 633.73546624 -214.10264694 644.00056348 -221.71948242 654.38696289 C-225.37638123 659.37297867 -229.06977246 664.32896978 -232.79296875 669.265625 C-238.67200703 677.0734637 -244.39132777 684.9923492 -250.09375 692.9296875 C-251.70699383 695.17051783 -253.32684067 697.40640117 -254.94921875 699.640625 C-262.40495879 709.91378321 -269.71999862 720.27892103 -276.97753906 730.69287109 C-278.68927438 733.14413328 -280.40776095 735.5904943 -282.12890625 738.03515625 C-290.52995032 749.97469012 -298.77889003 762.01297845 -306.95800781 774.10546875 C-309.02323507 777.15879467 -311.09078651 780.21053663 -313.15917969 783.26171875 C-316.35304861 787.9736571 -319.54341922 792.68795012 -322.73190308 797.40353394 C-324.00469747 799.2851093 -325.27837385 801.16608839 -326.55300903 803.04641724 C-333.41279938 813.16864586 -340.16967927 823.32555014 -346.57348633 833.7434082 C-348.78800301 837.33135721 -351.12150879 840.83397111 -353.48046875 844.328125 C-360.08750052 854.16452891 -366.39665616 864.18946285 -372.73046875 874.203125 C-373.74211504 875.79952509 -374.7538301 877.3958816 -375.765625 878.9921875 C-378.76221997 883.72394408 -381.74796139 888.46247907 -384.73046875 893.203125 C-385.29314453 894.09660645 -385.85582031 894.99008789 -386.43554688 895.91064453 C-395.59858478 910.47243172 -404.5898855 925.13291126 -413.49171448 939.85513306 C-415.98108163 943.97044375 -418.48176643 948.07870859 -420.98828125 952.18359375 C-430.41019038 967.62278718 -439.63840197 983.1662283 -448.74316406 998.79443359 C-450.60720245 1001.99169451 -452.47633958 1005.18590122 -454.34765625 1008.37890625 C-466.32961996 1028.83875398 -478.09681685 1049.41939451 -489.65234375 1070.12304688 C-492.41836749 1075.07857688 -495.19327917 1080.02832154 -498 1084.9609375 C-504.94981817 1097.17500709 -511.69671543 1109.4833909 -518.33203125 1121.87109375 C-521.413781 1127.62351947 -524.53399702 1133.35402867 -527.66796875 1139.078125 C-537.86161852 1157.73091639 -547.89610316 1176.4625034 -557.63623047 1195.35620117 C-560.92674397 1201.73874147 -564.25183423 1208.10149379 -567.6015625 1214.453125 C-572.27718541 1223.32386898 -576.9028839 1232.21890864 -581.48046875 1241.140625 C-581.88433807 1241.92751709 -582.2882074 1242.71440918 -582.70431519 1243.52514648 C-591.00343592 1259.71169725 -599.16684711 1275.96626385 -607.30696106 1292.23317337 C-608.27757841 1294.17237654 -609.24888141 1296.11123491 -610.22033691 1298.05001831 C-617.82549478 1313.2321102 -625.30654844 1328.46625789 -632.58920288 1343.80621338 C-634.18041731 1347.14811683 -635.79338897 1350.47897284 -637.41015625 1353.80859375 C-644.2094943 1367.81210329 -650.86902451 1381.8700533 -657.39453125 1396.00390625 C-659.67979686 1400.94943804 -661.98800102 1405.88324376 -664.31640625 1410.80859375 C-671.73863926 1426.52050252 -678.94321524 1442.31151768 -685.96240234 1458.20776367 C-689.78109945 1466.85081174 -693.66962068 1475.45372815 -697.66796875 1484.015625 C-705.68989819 1501.26352072 -713.19655076 1518.7381495 -720.73046875 1536.203125 C-721.1815802 1537.2484137 -721.63269165 1538.29370239 -722.09747314 1539.3706665 C-749.33801073 1602.50687957 -775.99239447 1665.91834531 -800.74902344 1730.07519531 C-802.50546389 1734.62528174 -804.27219709 1739.17131516 -806.04098511 1743.71661377 C-840.37706281 1831.95345424 -868.18180296 1922.86904667 -931.73046875 2147.203125 C-932.26007255 2149.2076872 -932.78969498 2151.21224449 -933.31933594 2153.21679688 C-953.54233202 2229.85094063 -972.3612973 2306.88090443 -1018.20265198 3671.30723572 C-1016.73046875 3675.99018732 -1016.73046875 3675.99018732 -1016.73046875 3678.203125 C-1017.29032471 3678.49558105 -1017.85018066 3678.78803711 -1018.42700195 3679.08935547 C-1020.9665694 3680.41720977 -1023.50477989 3681.74763756 -1026.04296875 3683.078125 C-1026.92404297 3683.53832031 -1027.80511719 3683.99851562 -1028.71289062 3684.47265625 C-1029.98422852 3685.13974609 -1029.98422852 3685.13974609 -1031.28125 3685.8203125 C-1032.06153564 3686.22878418 -1032.84182129 3686.63725586 -1033.64575195 3687.05810547 C-1035.92734261 3688.27252711 -1035.92734261 3688.27252711 -1038.73046875 3690.203125 C-1040.80834961 3690.03515625 -1040.80834961 3690.03515625 -1042.73046875 3689.203125 C-1044.14893045 3686.52415947 -1045.23896622 3684.02815182 -1046.29296875 3681.203125 C-1046.79787842 3679.8881604 -1046.79787842 3679.8881604 -1047.31298828 3678.54663086 C-1078.18147111 3596.68197025 -1092.4626189 3508.74082451 -1125.640625 3187.4609375 C-1125.70100449 3186.38617157 -1125.76138397 3185.31140564 -1125.82359314 3184.20407104 C-1129.0496082 3124.66251456 -1130.0458502 3065.23002709 -1129.93106502 3005.61720097 C-1129.91764832 2998.3042877 -1129.91536819 2990.99140431 -1129.91601485 2983.67848039 C-1129.91669937 2974.71041876 -1129.9097313 2965.74237411 -1129.90056825 2956.77431774 C-1129.89848403 2954.27455513 -1129.89773386 2951.77479543 -1129.89732933 2949.27503204 C-1129.89122339 2929.62615517 -1129.61700491 2910.00989679 -1128.9597168 2890.37155151 C-1128.68984283 2882.29720282 -1128.54422047 2874.22715738 -1128.54516602 2866.1484375 C-1128.54292156 2864.03366504 -1128.52435447 2861.91937381 -1128.50585938 2859.8046875 C-1128.41260698 2838.11030349 -1131.30198384 2816.82196202 -1134.79296875 2795.453125 C-1135.19652067 2792.94747877 -1135.59975285 2790.44178103 -1136.00268555 2787.93603516 C-1137.22699277 2780.35535096 -1138.47445805 2772.77861442 -1139.73046875 2765.203125 C-1139.91649658 2764.07942505 -1140.10252441 2762.9557251 -1140.29418945 2761.79797363 C-1146.4841528 2724.48447431 -1153.47223651 2687.32171605 -1160.73046875 2650.203125 C-1160.95973179 2649.03054768 -1160.95973179 2649.03054768 -1161.1936264 2647.83428192 C-1169.45237074 2605.6158108 -1177.93185447 2563.47264644 -1187.51855469 2521.53271484 C-1188.60590143 2516.76794056 -1189.66345198 2511.9971817 -1190.70703125 2507.22265625 C-1193.94744517 2492.44700274 -1197.59494558 2477.8204147 -1201.52929688 2463.21728516 C-1203.62097398 2455.44834202 -1205.61863681 2447.670906 -1207.41796875 2439.828125 C-1209.33497248 2431.52138112 -1211.68273387 2423.3955613 -1214.19140625 2415.25 C-1215.80466718 2410.00638951 -1217.30288881 2404.73282645 -1218.79296875 2399.453125 C-1220.71292743 2392.67727341 -1222.70548136 2385.93405275 -1224.84057617 2379.22290039 C-1225.97842845 2375.63900368 -1227.07702183 2372.04767122 -1228.12890625 2368.4375 C-1231.25985021 2357.70807243 -1234.78269244 2347.22633534 -1238.7578125 2336.78125 C-1239.798707 2334.02225254 -1240.81321252 2331.25445801 -1241.82421875 2328.484375 C-1249.36207787 2307.91772353 -1257.69629837 2288.12550002 -1268.65234375 2269.12817383 C-1273.602545 2260.28932944 -1274.0702803 2251.32141692 -1273.98046875 2241.328125 C-1273.97442627 2240.23532227 -1273.96838379 2239.14251953 -1273.9621582 2238.01660156 C-1273.67432146 2214.06160697 -1269.50753843 2190.23526723 -1264.98046875 2166.765625 C-1264.72151825 2165.41223022 -1264.72151825 2165.41223022 -1264.45733643 2164.03149414 C-1261.5327155 2148.78046509 -1258.20878268 2133.66984844 -1254.54199219 2118.57910156 C-1253.48048997 2114.16320126 -1252.47201206 2109.73603619 -1251.46533203 2105.30737305 C-1246.48949719 2083.44180247 -1241.0850415 2061.7109097 -1234.73046875 2040.203125 C-1231.92501714 2042.705213 -1230.27586421 2045.48330027 -1228.4296875 2048.7421875 C-1227.78950684 2049.86713623 -1227.14932617 2050.99208496 -1226.48974609 2052.15112305 C-1225.79899988 2053.37670371 -1225.10841148 2054.60237333 -1224.41796875 2055.828125 C-1223.69908075 2057.09630865 -1222.97983767 2058.36429108 -1222.26025391 2059.63208008 C-1220.07605067 2063.48482259 -1217.90190489 2067.34317563 -1215.73046875 2071.203125 C-1214.79340088 2072.86819092 -1214.79340088 2072.86819092 -1213.83740234 2074.56689453 C-1210.36006398 2080.75295662 -1206.89723936 2086.94703554 -1203.43945312 2093.14404297 C-1201.73305892 2096.1984886 -1200.02170368 2099.25009774 -1198.30859375 2102.30078125 C-1183.4501892 2128.76395589 -1168.86627542 2155.34716886 -1154.73046875 2182.203125 C-1154.14185059 2183.32106445 -1153.55323242 2184.43900391 -1152.94677734 2185.59082031 C-1147.12016079 2196.67278316 -1141.37620398 2207.7891698 -1135.82128906 2219.00976562 C-1134.54646953 2221.57310015 -1133.25997204 2224.13041873 -1131.97265625 2226.6875 C-1131.48804932 2227.65163818 -1131.00344238 2228.61577637 -1130.50415039 2229.60913086 C-1129.56206767 2231.48306482 -1128.61864627 2233.35632669 -1127.67358398 2235.22875977 C-1119.17211389 2252.17083023 -1119.17211389 2252.17083023 -1116.66796875 2260.265625 C-1115.48520141 2263.96117917 -1114.22031675 2267.5580333 -1112.73046875 2271.140625 C-1110.72509818 2276.0208823 -1109.23785121 2281.00724356 -1107.7265625 2286.05859375 C-1106.86309058 2288.78445609 -1105.89578093 2291.38039107 -1104.79296875 2294.015625 C-1102.42738616 2299.70985345 -1100.67568648 2305.57691445 -1098.87890625 2311.46875 C-1097.87561537 2314.73115165 -1096.82479784 2317.97033632 -1095.73046875 2321.203125 C-1095.8912793 2320.55053711 -1096.05208984 2319.89794922 -1096.21777344 2319.22558594 C-1099.14117958 2307.3192742 -1102.05053344 2295.42915746 -1104.26074219 2283.36621094 C-1105.27296674 2277.99546657 -1106.62455936 2272.75357242 -1108.05851746 2267.48040771 C-1109.50481772 2262.12975576 -1110.83593873 2256.75586627 -1112.1328125 2251.3671875 C-1112.33958618 2250.50991058 -1112.54635986 2249.65263367 -1112.75939941 2248.76937866 C-1113.60953473 2245.2398912 -1114.45744118 2241.70988695 -1115.30053711 2238.17871094 C-1117.65443848 2228.33330218 -1120.0987615 2218.54964304 -1123.0453949 2208.86257935 C-1124.37848468 2204.47969579 -1125.53351899 2200.09258549 -1126.60546875 2195.640625 C-1130.42483455 2180.00701516 -1135.18033005 2164.59988696 -1140.1574707 2149.30029297 C-1141.89641991 2143.93211694 -1143.51616149 2138.53586337 -1145.08984375 2133.1171875 C-1147.64619575 2124.34862787 -1150.45445947 2115.67550943 -1153.35546875 2107.015625 C-1153.61302948 2106.24476563 -1153.87059021 2105.47390625 -1154.13595581 2104.6796875 C-1167.24138085 2065.51739323 -1182.12333254 2027.05005409 -1200.04296875 1989.828125 C-1200.3337027 1989.22324249 -1200.62443665 1988.61835999 -1200.92398071 1987.99514771 C-1204.27532191 1981.03916834 -1207.74455789 1974.23208523 -1211.68359375 1967.58813477 C-1213.63952242 1963.13210232 -1212.24946222 1959.62954284 -1210.73046875 1955.203125 C-1208.07029877 1946.73038378 -1205.43354363 1938.2505394 -1202.8125 1929.765625 C-1193.35393522 1899.16890689 -1183.63843042 1868.65724935 -1173.73046875 1838.203125 C-1173.33420288 1836.98449768 -1172.93793701 1835.76587036 -1172.52966309 1834.51031494 C-1170.17272068 1827.26845192 -1167.8030127 1820.03095355 -1165.41616821 1812.79888916 C-1164.67198003 1810.54070619 -1163.93071059 1808.2815591 -1163.19247437 1806.02142334 C-1162.17361432 1802.90581047 -1161.14319779 1799.79426828 -1160.109375 1796.68359375 C-1159.81018158 1795.76141556 -1159.51098816 1794.83923737 -1159.20272827 1793.88911438 C-1158.77862167 1792.62565437 -1158.77862167 1792.62565437 -1158.34594727 1791.33666992 C-1158.10489761 1790.60622971 -1157.86384796 1789.87578949 -1157.61549377 1789.12321472 C-1156.6340253 1786.99388789 -1155.47328946 1785.74989335 -1153.73046875 1784.203125 C-1146.09523284 1797.09957235 -1138.63923025 1810.06376036 -1131.55566406 1823.27197266 C-1127.89139495 1830.09398609 -1124.12742127 1836.85044592 -1120.29296875 1843.578125 C-1114.40656802 1853.92025349 -1108.74970571 1864.37675607 -1103.1328125 1874.8671875 C-1100.51513357 1879.75401379 -1097.86375639 1884.62096788 -1095.19311523 1889.47900391 C-1088.95647691 1900.82799923 -1082.9719864 1912.2983108 -1077.0390625 1923.80859375 C-1074.67908739 1928.38378087 -1072.28371528 1932.93745567 -1069.85571289 1937.47680664 C-1052.87232162 1969.31062884 -1040.51202857 2002.20553535 -1028.73046875 2036.203125 C-1029.27730904 2032.16701114 -1029.88651148 2028.1999837 -1030.81640625 2024.234375 C-1031.12964844 2022.88085938 -1031.12964844 2022.88085938 -1031.44921875 2021.5 C-1031.66578125 2020.57703125 -1031.88234375 2019.6540625 -1032.10546875 2018.703125 C-1033.54320277 2012.56169328 -1034.89365671 2006.42011597 -1036.08984375 2000.2265625 C-1037.77312301 1991.72054966 -1039.83729431 1983.32267 -1041.95458984 1974.91552734 C-1042.60260649 1972.33950317 -1043.24306973 1969.76168357 -1043.8828125 1967.18359375 C-1046.08496233 1958.3655253 -1048.40811489 1949.60412587 -1051.0430603 1940.90457153 C-1052.38956467 1936.4516253 -1053.57083505 1931.97266399 -1054.66796875 1927.453125 C-1056.14334399 1921.39594246 -1057.7755614 1915.39723486 -1059.5 1909.40625 C-1059.76294861 1908.49033081 -1060.02589722 1907.57441162 -1060.29681396 1906.6307373 C-1077.92256496 1845.36673022 -1097.05518148 1783.16724243 -1125.34765625 1725.83203125 C-1125.92773438 1724.65060547 -1125.92773438 1724.65060547 -1126.51953125 1723.4453125 C-1127.20718227 1722.06506332 -1127.91104305 1720.69267319 -1128.63671875 1719.33203125 C-1132.60945739 1711.45564509 -1128.71734624 1701.57966009 -1127.10546875 1693.265625 C-1126.9745282 1692.58940094 -1126.84358765 1691.91317688 -1126.7086792 1691.21646118 C-1123.65266683 1675.48504207 -1120.27283931 1659.83159997 -1116.73046875 1644.203125 C-1116.45041992 1642.96578613 -1116.17037109 1641.72844727 -1115.88183594 1640.45361328 C-1097.46100528 1559.62079869 -1074.74159784 1480.03529178 -1049.63348389 1401.04431152 C-1048.78725156 1398.38178266 -1047.94259556 1395.71875829 -1047.09814453 1393.05566406 C-1039.41848352 1368.86963172 -1031.16101699 1344.90026641 -1022.70831299 1320.97454834 C-1021.73381264 1318.21260231 -1020.76258146 1315.44952922 -1019.79248047 1312.68603516 C-999.63579813 1255.2778872 -977.85490557 1198.48027606 -954.73046875 1142.203125 C-954.44079224 1141.49720215 -954.15111572 1140.7912793 -953.85266113 1140.06396484 C-936.9102913 1098.78696797 -919.14630262 1057.84317909 -900.73046875 1017.203125 C-900.06216316 1015.7262421 -899.3938689 1014.24935408 -898.72558594 1012.77246094 C-884.30492857 980.92705306 -869.34415449 949.34628492 -854.00927734 917.93167114 C-851.3313856 912.443315 -848.66937926 906.94739557 -846.01171875 901.44921875 C-832.27855848 873.05866117 -832.27855848 873.05866117 -826.20874023 861.75512695 C-822.95863995 855.69764502 -819.90311204 849.55208008 -816.85546875 843.390625 C-812.55339515 834.7150513 -808.05290851 826.18000055 -803.37158203 817.70385742 C-799.36744011 810.43249643 -795.53076777 803.08280565 -791.73046875 795.703125 C-785.574589 783.76818758 -779.22514743 771.95653253 -772.73046875 760.203125 C-772.15184082 759.15157227 -771.57321289 758.10001953 -770.97705078 757.01660156 C-763.78736804 743.95244527 -756.48379818 730.96976203 -748.92578125 718.11499023 C-744.8053724 711.09235521 -740.80815168 704.00880165 -736.85546875 696.890625 C-729.74777369 684.11946756 -722.31915134 671.54943017 -714.81170654 659.01019287 C-713.69886397 657.15030408 -712.58772706 655.28940583 -711.47705078 653.42822266 C-702.55599009 638.48055515 -693.57805305 623.57251868 -684.35644531 608.80761719 C-682.62085872 606.02755146 -680.89038124 603.24434292 -679.16015625 600.4609375 C-664.40345418 576.74883226 -649.24348093 553.3389435 -633.70159912 530.13644409 C-630.14099498 524.82030091 -626.59578658 519.49411761 -623.05419922 514.1652832 C-616.37051034 504.11378751 -609.62506169 494.11115494 -602.73046875 484.203125 C-602.19744141 483.43581055 -601.66441406 482.66849609 -601.11523438 481.87792969 C-593.30269196 470.64016201 -585.37651771 459.49136523 -577.33496094 448.41650391 C-575.72542556 446.19616797 -574.12154088 443.97186458 -572.51953125 441.74609375 C-561.84540562 426.91750394 -551.11471288 412.14774566 -539.84228516 397.76611328 C-536.04765087 392.91983841 -532.33538172 388.02115987 -528.66796875 383.078125 C-524.10638718 376.94363662 -519.36743487 370.97899978 -514.51977539 365.06860352 C-510.98827719 360.76232436 -507.52478466 356.41136259 -504.10546875 352.015625 C-499.66039698 346.31410967 -495.04125109 340.78281637 -490.34765625 335.28515625 C-487.93550351 332.45629487 -485.57626877 329.58737378 -483.23046875 326.703125 C-478.14757067 320.46461244 -472.9486575 314.32844633 -467.73046875 308.203125 C-467.2307959 307.61563477 -466.73112305 307.02814453 -466.21630859 306.42285156 C-460.47460955 299.67585345 -454.68861499 292.98325575 -448.734375 286.421875 C-446.91734893 284.41004107 -445.13102483 282.37652066 -443.35546875 280.328125 C-439.51462889 275.91562526 -435.54369538 271.6244997 -431.57421875 267.328125 C-429.47198445 265.03829756 -427.42332688 262.70770886 -425.38671875 260.359375 C-420.96636575 255.2882612 -416.32605371 250.43296435 -411.69140625 245.55859375 C-410.68980469 244.50091797 -410.68980469 244.50091797 -409.66796875 243.421875 C-409.07886719 242.80248047 -408.48976563 242.18308594 -407.8828125 241.54492188 C-406.06888338 239.57132749 -404.31796692 237.56491199 -402.57006836 235.53344727 C-398.36861337 230.71764139 -393.88240318 226.21128994 -389.359375 221.69921875 C-388.47821518 220.8171022 -387.59705536 219.93498566 -386.68919373 219.02613831 C-384.36470125 216.70079691 -382.03780968 214.37788882 -379.71008301 212.05578613 C-378.29402197 210.64167676 -376.87992554 209.22563379 -375.46655273 207.80883789 C-372.72518619 205.0612578 -369.98033841 202.31720394 -367.234375 199.57421875 C-366.40079971 198.73861923 -365.56722443 197.90301971 -364.70838928 197.042099 C-360.38797975 192.73876284 -355.99949314 188.58418676 -351.36607361 184.61854553 C-349.38657315 182.90552446 -347.54830718 181.08588624 -345.73046875 179.203125 C-341.0996742 174.50864565 -336.21518192 170.16778193 -331.04296875 166.078125 C-328.41496767 163.94731331 -326.12145519 161.59756163 -323.73046875 159.203125 C-317.29124841 153.11446393 -310.72981824 147.25935447 -303.82421875 141.703125 C-301.47414875 139.80407853 -299.14403253 137.88853804 -296.82421875 135.953125 C-287.97317983 128.57862545 -278.96683058 121.50108487 -269.69677734 114.66210938 C-267.74608545 113.21471246 -265.8086894 111.7512661 -263.875 110.28125 C-247.98543058 98.21502069 -231.64427099 86.78852293 -214.73046875 76.203125 C-213.75706543 75.59130371 -212.78366211 74.97948242 -211.78076172 74.34912109 C-149.05184721 35.08988411 -75.46348364 0.36174141 0 0 Z M-1026.73046875 2043.203125 C-1025.73046875 2045.203125 -1025.73046875 2045.203125 -1025.73046875 2045.203125 Z " fill="#003B57" transform="translate(3195.73046875,74.796875)"/>
<path d="M0 0 C1.45553402 2.73073298 2.46085302 5.3098555 3.23681641 8.30273438 C3.45689362 9.14461304 3.67697083 9.9864917 3.90371704 10.85388184 C4.13400604 11.75803833 4.36429504 12.66219482 4.6015625 13.59375 C4.8428891 14.5362561 5.0842157 15.47876221 5.33285522 16.4498291 C5.84142345 18.44634631 6.34726732 20.44355917 6.85058594 22.44140625 C7.61603367 25.46458694 8.40143074 28.48212607 9.1875 31.5 C15.48912417 56.15475334 15.48912417 56.15475334 11 64 C10.71801758 63.19892822 10.43603516 62.39785645 10.14550781 61.57250977 C9.0823377 58.55779991 8.01587013 55.54428157 6.94726562 52.53149414 C6.4882899 51.23540197 6.03057363 49.93886299 5.57421875 48.6418457 C3.18601149 41.85692792 0.78305801 35.15200426 -2.30957031 28.65209961 C-3 27 -3 27 -3 25 C-2.34 25 -1.68 25 -1 25 C-1.01160156 24.28457031 -1.02320312 23.56914062 -1.03515625 22.83203125 C-1.10453129 15.17104428 -0.68902721 7.62851554 0 0 Z " fill="#0F7EC8" transform="translate(2148,2027)"/>
</svg>
