<?xml version="1.0" encoding="UTF-8"?>
<svg version="1.1" xmlns="http://www.w3.org/2000/svg" width="512" height="512">
<path d="M0 0 C5.20977266 3.50657775 7.86883319 7.20644656 10 13 C10.60013929 16.30862836 10.69285428 19.56051514 10.74389648 22.91821289 C10.77254256 23.90493264 10.80118864 24.89165239 10.83070278 25.90827274 C11.17659939 39.60296181 11.12748665 53.30781587 11.10139394 67.0059917 C11.09503352 70.92432646 11.09454678 74.84266246 11.09336853 78.76100159 C11.09029187 86.14093051 11.08212928 93.52084416 11.07201904 100.90076643 C11.0607423 109.31951718 11.05531868 117.73826876 11.05032361 126.15702522 C11.03994248 143.43802556 11.02241606 160.71901115 11 178 C12.08760526 177.99631283 13.17521051 177.99262566 14.29577351 177.98882675 C40.77892301 177.89996613 67.26205314 177.83426734 93.74532032 177.79275131 C106.55251685 177.77214002 119.3596148 177.74404666 132.16674805 177.69824219 C143.33150175 177.65833075 154.49618404 177.63255677 165.66100711 177.62364602 C171.57084061 177.61843862 177.48046986 177.60622886 183.39023781 177.57707977 C188.95767031 177.54984281 194.52481524 177.54157181 200.09230804 177.54756927 C202.13081362 177.54647275 204.16932925 177.53856851 206.20777702 177.5231781 C222.78661576 177.40419213 234.979117 179.69579779 247.6875 191.125 C256.31952798 200.15851765 259.43496495 212.29970769 259.36132812 224.44189453 C259.05951782 236.51170482 254.42870201 244.73288184 247 254 C246.16219809 255.07798065 245.32633171 256.15746777 244.4921875 257.23828125 C239.03023473 264.28690706 233.4070283 271.20195965 227.7668457 278.1081543 C223.60212718 283.22184295 219.58037682 288.42687241 215.58203125 293.671875 C212.69352598 297.42704455 209.69004287 301.08585728 206.6875 304.75 C202.19849098 310.23055985 197.83636986 315.78772857 193.5625 321.4375 C188.56482602 328.03824432 183.38542115 334.45995822 178.09667969 340.82910156 C172.60132195 347.45360036 167.28684068 354.20878968 162 361 C155.6749286 369.10900634 149.27162732 377.14376568 142.76611328 385.10888672 C138.60182094 390.22247456 134.58016832 395.42714592 130.58203125 400.671875 C127.69352598 404.42704455 124.69004287 408.08585728 121.6875 411.75 C117.19849098 417.23055985 112.83636986 422.78772857 108.5625 428.4375 C103.56482602 435.03824432 98.38542115 441.45995822 93.09667969 447.82910156 C87.60132195 454.45360036 82.28684068 461.20878968 77 468 C73.34978115 472.67973338 69.68383004 477.34667753 66 482 C65.18233154 483.03519775 65.18233154 483.03519775 64.34814453 484.09130859 C62.63495839 486.25407837 60.91247188 488.40912308 59.1875 490.5625 C58.66043457 491.22942871 58.13336914 491.89635742 57.59033203 492.58349609 C52.99619802 498.28520928 48.4337439 503.39664347 41 505 C33.14263912 505.81938959 27.26983964 504.2008536 20.75 499.8125 C10.96202402 489.80207002 12.86800904 475.40917216 12.70288086 462.29370117 C12.68322769 460.99101791 12.66357452 459.68833466 12.64332581 458.34617615 C12.59014298 454.81297182 12.54192936 451.2797162 12.49474788 447.7464273 C12.4441702 444.01965714 12.38910517 440.29295296 12.33460999 436.5662384 C12.24373138 430.30843643 12.15585116 424.05059842 12.07006836 417.79272461 C11.96059446 409.80747367 11.84633916 401.82229888 11.73049068 393.83713818 C11.6300934 386.91550159 11.53173005 379.99383631 11.43377614 373.07216477 C11.40262212 370.87510017 11.37123382 368.67803901 11.33982658 366.48097801 C11.28097904 362.35216586 11.22423317 358.22332724 11.16772461 354.09448242 C11.14202896 352.30385376 11.14202896 352.30385376 11.11581421 350.47705078 C10.99749548 341.65086115 10.98267675 332.82675409 11 324 C9.38405331 324.00553076 9.38405331 324.00553076 7.73546124 324.01117325 C-18.49733192 324.10003592 -44.73010551 324.16573363 -70.96301746 324.20724869 C-83.64914619 324.22785952 -96.33517539 324.25595201 -109.02124023 324.30175781 C-120.08051852 324.34167066 -131.13972471 324.36744356 -142.19907302 324.37635398 C-148.05301604 324.38156114 -153.90675283 324.39376939 -159.76062965 324.42292023 C-165.27553323 324.45015941 -170.79014647 324.45842774 -176.30511093 324.45243073 C-178.32426597 324.45352715 -180.34343117 324.46143007 -182.36252785 324.4768219 C-197.84313952 324.58900002 -210.3962605 323.04800774 -222.16015625 311.96484375 C-232.14313027 301.38475727 -235.66327563 289.63340256 -235.3046875 275.29296875 C-234.71354172 264.20043578 -229.78734785 256.46704504 -223 248 C-222.16219809 246.92201935 -221.32633171 245.84253223 -220.4921875 244.76171875 C-215.10097026 237.80450501 -209.54765631 230.98340602 -203.97558594 224.17089844 C-200.07100577 219.37463075 -196.29417146 214.49408221 -192.5625 209.5625 C-187.6139675 203.0244887 -182.47713673 196.67573078 -177.23071289 190.37524414 C-173.19469586 185.50708171 -169.31174454 180.54522878 -165.5 175.5 C-160.57430816 168.98034948 -155.45879524 162.65360841 -150.23046875 156.375 C-146.19458242 151.50687991 -142.31167527 146.5451371 -138.5 141.5 C-133.57430816 134.98034948 -128.45879524 128.65360841 -123.23046875 122.375 C-119.19457828 117.50687491 -115.31177585 112.54506567 -111.5 107.5 C-106.52513373 100.91767083 -101.36709832 94.51787798 -96.09643555 88.1706543 C-90.60122856 81.54617958 -85.28677091 74.79112069 -80 68 C-73.6749286 59.89099366 -67.27162732 51.85623432 -60.76611328 43.89111328 C-57.44217582 39.80944831 -54.19218453 35.68553855 -51 31.5 C-45.61868043 24.45073472 -40.04877702 17.56404158 -34.40673828 10.72216797 C-33.22888902 9.28021228 -32.07786986 7.81639628 -30.93359375 6.34765625 C-22.94171906 -3.60973751 -11.32857894 -5.93972004 0 0 Z " fill="#32B379" transform="translate(244,5)"/>
<path d="M0 0 C5.2029222 3.50196686 7.89962106 7.19672552 10 13 C10.59379062 16.47959779 10.68689507 19.90729466 10.73716736 23.43244934 C10.7656419 24.43434636 10.79411644 25.43624338 10.82345384 26.46850091 C10.90556173 29.64568319 10.95711267 32.82206246 11 36 C11.02383251 37.49458288 11.02383251 37.49458288 11.04814649 39.01935935 C11.1578951 46.37312855 11.18642704 53.72633841 11.20532227 61.08081055 C11.21493367 63.49866897 11.22494547 65.91652584 11.23532104 68.3343811 C11.259314 74.1619811 11.27917444 79.98958398 11.29707379 85.81720563 C11.31827974 92.64981299 11.34465921 99.48239777 11.37124526 106.31498597 C11.41867652 118.5420916 11.46197305 130.76920818 11.50268555 142.99633789 C11.5418861 154.76718106 11.58334415 166.53801292 11.62768555 178.30883789 C11.63040982 179.03217663 11.63313409 179.75551536 11.63594092 180.50077345 C11.64691032 183.41149101 11.65788949 186.32220853 11.66888306 189.23292599 C11.71939042 202.61751866 11.76809191 216.00211801 11.81640625 229.38671875 C11.82003016 230.38855232 11.82003016 230.38855232 11.82372728 231.41062495 C11.87928349 246.7782247 11.93206174 262.14582224 11.97295827 277.5134688 C11.98936057 283.60505208 12.01012238 289.69659208 12.03557903 295.78814405 C12.04914853 299.25047077 12.05874782 302.71279894 12.067047 306.17514193 C12.07160928 307.73145609 12.07788249 309.28776633 12.0859977 310.84406602 C12.09658403 312.91366564 12.10118937 314.98318833 12.10411072 317.05281067 C12.11021315 318.75721927 12.11021315 318.75721927 12.11643887 320.49606037 C12 323 12 323 11 324 C8.30628426 324.10672891 5.63789909 324.14778388 2.94338989 324.14717102 C2.08866714 324.15084771 1.23394439 324.1545244 0.35332096 324.1583125 C-2.53382712 324.16939606 -5.42093926 324.17320115 -8.30810547 324.17700195 C-10.36919775 324.18326338 -12.43028889 324.18990989 -14.49137878 324.19691467 C-20.10964363 324.21436122 -25.72789995 324.22488763 -31.34618521 324.2331202 C-34.85644397 324.2382655 -38.36670006 324.24434163 -41.87695694 324.25063133 C-52.85950309 324.26969861 -63.84204247 324.28392316 -74.82460201 324.2922433 C-87.50095461 324.30200465 -100.17713208 324.32828901 -112.853423 324.36874419 C-122.64886461 324.3989313 -132.44425613 324.41371488 -142.23974335 324.41702431 C-148.0903061 324.41937299 -153.94068209 324.42830906 -159.79119492 324.45348549 C-165.30202218 324.4768146 -170.81254041 324.48097984 -176.32340431 324.47072411 C-178.34094204 324.47022972 -180.35849522 324.47652138 -182.3759861 324.49028015 C-197.84786371 324.58984592 -210.40361476 323.04107904 -222.16015625 311.96484375 C-232.14313027 301.38475727 -235.66327563 289.63340256 -235.3046875 275.29296875 C-234.71354172 264.20043578 -229.78734785 256.46704504 -223 248 C-222.16219809 246.92201935 -221.32633171 245.84253223 -220.4921875 244.76171875 C-215.10097026 237.80450501 -209.54765631 230.98340602 -203.97558594 224.17089844 C-200.07100577 219.37463075 -196.29417146 214.49408221 -192.5625 209.5625 C-187.6139675 203.0244887 -182.47713673 196.67573078 -177.23071289 190.37524414 C-173.19469586 185.50708171 -169.31174454 180.54522878 -165.5 175.5 C-160.57430816 168.98034948 -155.45879524 162.65360841 -150.23046875 156.375 C-146.19458242 151.50687991 -142.31167527 146.5451371 -138.5 141.5 C-133.57430816 134.98034948 -128.45879524 128.65360841 -123.23046875 122.375 C-119.19457828 117.50687491 -115.31177585 112.54506567 -111.5 107.5 C-106.52513373 100.91767083 -101.36709832 94.51787798 -96.09643555 88.1706543 C-90.60122856 81.54617958 -85.28677091 74.79112069 -80 68 C-73.6749286 59.89099366 -67.27162732 51.85623432 -60.76611328 43.89111328 C-57.44217582 39.80944831 -54.19218453 35.68553855 -51 31.5 C-45.61868043 24.45073472 -40.04877702 17.56404158 -34.40673828 10.72216797 C-33.22888902 9.28021228 -32.07786986 7.81639628 -30.93359375 6.34765625 C-22.94171906 -3.60973751 -11.32857894 -5.93972004 0 0 Z " fill="#3ECE8E" transform="translate(244,5)"/>
<path d="M0 0 C0.33 0 0.66 0 1 0 C1.00808685 0.8224118 1.01617371 1.64482361 1.02450562 2.49215698 C1.10235881 10.23236822 1.18962089 17.97238842 1.28752708 25.71236992 C1.33753106 29.69183727 1.38386047 33.67127753 1.421875 37.65087891 C1.45867637 41.48946882 1.50502175 45.3278344 1.55806351 49.16623306 C1.57663497 50.63265178 1.59173272 52.09911863 1.60334396 53.56560898 C1.62015988 55.61542621 1.64918198 57.66472656 1.68115234 59.71435547 C1.69447601 60.88239716 1.70779968 62.05043884 1.7215271 63.25387573 C1.72226567 66.14370572 1.72226567 66.14370572 4 68 C2.515 68.495 2.515 68.495 1 69 C0 68 0 68 -0.12025452 65.29820251 C-0.11803391 64.09241043 -0.11581329 62.88661835 -0.11352539 61.64428711 C-0.11367142 60.98089828 -0.11381744 60.31750946 -0.1139679 59.63401794 C-0.11326881 57.43176044 -0.10547665 55.22958655 -0.09765625 53.02734375 C-0.09579206 51.50419664 -0.09436816 49.98104893 -0.09336853 48.457901 C-0.08954346 44.44162349 -0.07971328 40.42538192 -0.06866455 36.40911865 C-0.05845019 32.31376634 -0.05387086 28.21840824 -0.04882812 24.12304688 C-0.038091 16.08201472 -0.02101472 8.04101183 0 0 Z " fill="#3B9871" transform="translate(256,345)"/>
<path d="M0 0 C0.99 0 1.98 0 3 0 C3 14.52 3 29.04 3 44 C2.67 44 2.34 44 2 44 C2 31.46 2 18.92 2 6 C1.01 6 0.02 6 -1 6 C-1.042721 4.33388095 -1.04063832 2.66617115 -1 1 C-0.67 0.67 -0.34 0.34 0 0 Z " fill="#4AC88F" transform="translate(252,176)"/>
<path d="M0 0 C0.66 0 1.32 0 2 0 C0.50923566 3.2826932 -1.38620321 5.93077441 -3.625 8.75 C-4.57246094 9.94882812 -4.57246094 9.94882812 -5.5390625 11.171875 C-6.02117187 11.77515625 -6.50328125 12.3784375 -7 13 C-7.66 12.01 -8.32 11.02 -9 10 C-8.34 9.34 -7.68 8.68 -7 8 C-7 6.68 -7 5.36 -7 4 C-6.030625 3.71125 -5.06125 3.4225 -4.0625 3.125 C-0.89335797 2.35785318 -0.89335797 2.35785318 0 0 Z " fill="#4CC491" transform="translate(433,328)"/>
<path d="M0 0 C4.71403788 0.47939368 8.66579301 0.96834048 13 3 C12.67 3.99 12.34 4.98 12 6 C9.03 5.01 6.06 4.02 3 3 C3 2.34 3 1.68 3 1 C2.01 0.67 1.02 0.34 0 0 Z " fill="#4ABE8B" transform="translate(464,183)"/>
<path d="M0 0 C2 3 2 3 2 5 C0.44992174 8.10015653 -1.86287512 8.78356382 -5 10 C-5.66 9.67 -6.32 9.34 -7 9 C-4.69 6.03 -2.38 3.06 0 0 Z " fill="#4FC590" transform="translate(84,173)"/>
<path d="M0 0 C0.66 0 1.32 0 2 0 C2.33 0.99 2.66 1.98 3 3 C1.34765625 5.48046875 1.34765625 5.48046875 -0.9375 8.1875 C-1.68902344 9.08855469 -2.44054687 9.98960937 -3.21484375 10.91796875 C-3.80394531 11.60503906 -4.39304687 12.29210937 -5 13 C-5.66 12.34 -6.32 11.68 -7 11 C-6.21625 10.29875 -5.4325 9.5975 -4.625 8.875 C-1.91639182 5.90842914 -0.98277285 3.8417484 0 0 Z " fill="#44C590" transform="translate(404,362)"/>
<path d="M0 0 C0.66 0 1.32 0 2 0 C3.4049404 3.89060419 2.69513239 7.23092362 2.0625 11.25 C1.86785156 12.51328125 1.67320312 13.7765625 1.47265625 15.078125 C1.31667969 16.04234375 1.16070312 17.0065625 1 18 C0.67 18 0.34 18 0 18 C0 12.06 0 6.12 0 0 Z " fill="#178855" transform="translate(255,183)"/>
<path d="M0 0 C0.66 0.33 1.32 0.66 2 1 C-1.515625 5.6875 -1.515625 5.6875 -3 7 C-4.32 7 -5.64 7 -7 7 C-7 5.68 -7 4.36 -7 3 C-5.5459375 2.5359375 -5.5459375 2.5359375 -4.0625 2.0625 C-1.15934208 1.30476658 -1.15934208 1.30476658 0 0 Z " fill="#4FC28F" transform="translate(417,349)"/>
<path d="M0 0 C0.99 0 1.98 0 3 0 C3 2.31 3 4.62 3 7 C1.68 6.67 0.36 6.34 -1 6 C-1.042721 4.33388095 -1.04063832 2.66617115 -1 1 C-0.67 0.67 -0.34 0.34 0 0 Z " fill="#52BC8D" transform="translate(252,176)"/>
<path d="M0 0 C0.33 0.99 0.66 1.98 1 3 C-0.21484375 5.26171875 -0.21484375 5.26171875 -1.9375 7.6875 C-2.50339844 8.49574219 -3.06929688 9.30398437 -3.65234375 10.13671875 C-4.09707031 10.75160156 -4.54179687 11.36648437 -5 12 C-5 8.83317502 -4.48781492 7.62418394 -3.0625 4.875 C-2.70285156 4.17117187 -2.34320313 3.46734375 -1.97265625 2.7421875 C-1 1 -1 1 0 0 Z " fill="#4EC694" transform="translate(499,243)"/>
<path d="M0 0 C0 3.41321235 -0.66867466 4.39472885 -2.5 7.1875 C-2.9640625 7.90292969 -3.428125 8.61835937 -3.90625 9.35546875 C-4.2671875 9.89816406 -4.628125 10.44085938 -5 11 C-5.99 10.67 -6.98 10.34 -8 10 C-5.36 6.7 -2.72 3.4 0 0 Z " fill="#49C994" transform="translate(148,93)"/>
<path d="M0 0 C0.66 0 1.32 0 2 0 C1.42655063 2.86724686 1.1385485 3.8614515 -1 6 C-1.99 5.67 -2.98 5.34 -4 5 C-2.71937515 3.2925002 -1.38232443 1.62626404 0 0 Z " fill="#4BC794" transform="translate(28,244)"/>
<path d="M0 0 C0.6875 1.8125 0.6875 1.8125 1 4 C-0.4375 5.75 -0.4375 5.75 -2 7 C-2.99 6.67 -3.98 6.34 -5 6 C-3.35 4.02 -1.7 2.04 0 0 Z " fill="#50C494" transform="translate(97,157)"/>
<path d="M0 0 C1.32 0 2.64 0 4 0 C4 0.99 4 1.98 4 3 C2.02 3.33 0.04 3.66 -2 4 C-1.34 2.68 -0.68 1.36 0 0 Z " fill="#4DC592" transform="translate(18,257)"/>
</svg>
