<?xml version="1.0" encoding="UTF-8"?>
<svg version="1.1" xmlns="http://www.w3.org/2000/svg" width="512" height="512">
<path d="M0 0 C165 0 330 0 500 0 C500 165.33 500 330.66 500 501 C335 501 170 501 0 501 C0 335.67 0 170.34 0 0 Z M333 245 C331.84371094 246.03640625 331.84371094 246.03640625 330.6640625 247.09375 C320.3500296 256.82526277 313.59422115 269.63534949 313 284 C312.96003906 284.96421875 312.92007812 285.9284375 312.87890625 286.921875 C312.46486934 307.28274869 318.15367849 322.94861113 332.25 337.6875 C337.33508469 342.71004179 342.77952896 346.51026625 349 350 C349.99257813 350.57621094 350.98515625 351.15242188 352.0078125 351.74609375 C361.82274073 357.22286925 372.08829766 361.7075978 382.39404297 366.16845703 C407.19100933 377.03574678 407.19100933 377.03574678 412.375 387.875 C413.75645475 394.78227376 413.56664806 400.53244968 410.38671875 406.92578125 C406.0632281 413.39274896 399.3198138 416.19529355 392 418 C388.7363698 418.41182715 385.53687224 418.47909383 382.25 418.4375 C380.93793579 418.42178955 380.93793579 418.42178955 379.59936523 418.40576172 C366.073912 418.02946629 355.58024397 413.5332359 346 404 C342.67327319 400.23053576 339.78296791 396.18523856 337 392 C332.41698893 393.37010277 328.53465905 395.2383276 324.39453125 397.625 C323.48570442 398.14634521 323.48570442 398.14634521 322.55851746 398.67822266 C320.64022562 399.78044354 318.72641674 400.89020333 316.8125 402 C315.51654834 402.74526536 314.22032672 403.49006152 312.92382812 404.234375 C306.37550299 407.97597224 306.37550299 407.97597224 300 412 C304.11413836 426.5943645 317.95252278 438.75525236 330.79931641 446.01708984 C356.08210304 459.80133388 385.86999915 463.33919574 413.66967773 455.17114258 C431.49042964 449.56073299 445.51972428 439.24334777 454.33984375 422.50390625 C456.5865173 417.76210349 458.01729593 413.14225319 459 408 C459.3403125 406.329375 459.3403125 406.329375 459.6875 404.625 C461.3115282 385.7862729 457.93246556 367.77554089 446.2109375 352.58984375 C431.07217861 334.85663325 407.24546334 325.47076947 386.375 316.25 C363.97364326 306.27855787 363.97364326 306.27855787 360 297 C358.16747677 291.50243032 358.09461964 285.42255311 360.4375 280.0625 C360.953125 279.051875 361.46875 278.04125 362 277 C362.33 276.01 362.66 275.02 363 274 C364.75 272.9375 364.75 272.9375 367 272 C367.76441406 271.66613281 368.52882813 271.33226562 369.31640625 270.98828125 C377.92861127 267.81668318 387.26887397 268.53028053 395.6015625 272.12109375 C402.36324607 275.72664405 406.11222807 280.486051 410 287 C413.14042326 286.36980296 415.4212658 285.29730208 418.125 283.59375 C418.9089917 283.10100586 419.6929834 282.60826172 420.50073242 282.10058594 C421.32549072 281.57239258 422.15024902 281.04419922 423 280.5 C423.84344971 279.96407227 424.68689941 279.42814453 425.5559082 278.87597656 C432.28777394 274.55472928 438.72469033 269.96012501 445 265 C440.16528231 251.20755665 426.64715886 240.65174709 413.9296875 234.51953125 C388.89209525 224.03081017 353.60122628 226.17341119 333 245 Z M128.828125 231.44140625 C127.4275951 231.47070378 127.4275951 231.47070378 125.99877167 231.50059319 C123.44591659 231.55603085 120.89339987 231.6189688 118.34082031 231.68579102 C117.59889183 231.70231028 116.85696335 231.71882954 116.09255219 231.73584938 C112.75959389 231.55569406 112.75959389 231.55569406 110 233 C109.91135488 235.88411175 109.88471474 238.74482809 109.90234375 241.62890625 C109.90335083 242.39456909 109.90435791 243.16023193 109.90539551 243.94909668 C109.91064337 246.82024627 109.92460453 249.69137458 109.9375 252.5625 C109.958125 258.976875 109.97875 265.39125 110 272 C131.45 272 152.9 272 175 272 C175 333.05 175 394.1 175 457 C189.85 457 204.7 457 220 457 C220 395.95 220 334.9 220 272 C241.45 272 262.9 272 285 272 C285 258.47 285 244.94 285 231 C268.81001575 230.97713279 252.62004599 230.95883887 236.4300499 230.94818783 C228.90713659 230.94310364 221.38423439 230.93618777 213.86132812 230.92456055 C171.34215603 230.84770412 171.34215603 230.84770412 128.828125 231.44140625 Z " fill="#0079CC" transform="translate(8,5)"/>
</svg>
